<svg xmlns="http://www.w3.org/2000/svg" width="156.273" height="156.282" viewBox="0 0 156.273 156.282">
  <g id="Grupo_1205217" data-name="Grupo 1205217" transform="translate(-1031.003 -1755.34)">
    <g id="desventaja_1_" data-name="desventaja (1)" transform="translate(1031.003 1755.34)">
      <g id="Grupo_1205040" data-name="Grupo 1205040" transform="translate(0 0.001)">
        <g id="Grupo_1205034" data-name="Grupo 1205034" transform="translate(48.187 76.171)">
          <path id="Trazado_1266592" data-name="Trazado 1266592" d="M198.1,302.6l-17.553-20.674a1.274,1.274,0,0,1,.972-2.1H189.7V222.94h18.756v56.887h8.175a1.274,1.274,0,0,1,.972,2.1L200.048,302.6a1.275,1.275,0,0,1-1.944,0Z" transform="translate(-180.244 -222.94)" fill="#a6cdec" fill-rule="evenodd"/>
        </g>
        <g id="Grupo_1205035" data-name="Grupo 1205035" transform="translate(0 54.157)">
          <path id="Trazado_1266594" data-name="Trazado 1266594" d="M33.86,249.582,16.307,228.908a1.274,1.274,0,0,1,.972-2.1h8.175v-78.9H44.21v78.9h8.175a1.274,1.274,0,0,1,.972,2.1L35.8,249.582a1.275,1.275,0,0,1-1.944,0Z" transform="translate(-16 -147.907)" fill="#fff" fill-rule="evenodd"/>
        </g>
        <g id="Grupo_1205036" data-name="Grupo 1205036" transform="translate(96.374 98.184)">
          <path id="Trazado_1266596" data-name="Trazado 1266596" d="M362.349,355.621,344.8,334.947a1.274,1.274,0,0,1,.972-2.1h8.175V297.973H372.7v34.874h8.175a1.274,1.274,0,0,1,.972,2.1l-17.553,20.674A1.275,1.275,0,0,1,362.349,355.621Z" transform="translate(-344.49 -297.973)" fill="#aaca79" fill-rule="evenodd"/>
          <path id="Trazado_1266597" data-name="Trazado 1266597" d="M402.3,355.621l-1.272-1.5,16.281-19.176a1.274,1.274,0,0,0-.972-2.1h4.488a1.274,1.274,0,0,1,.972,2.1l-17.553,20.674A1.275,1.275,0,0,1,402.3,355.621Zm5.862-57.649v34.874h4.488V297.972Z" transform="translate(-384.441 -297.972)" fill="#aaca79" fill-rule="evenodd"/>
        </g>
        <g id="Grupo_1205037" data-name="Grupo 1205037" transform="translate(50.633 0)">
          <circle id="Elipse_11852" data-name="Elipse 11852" cx="37.349" cy="37.349" r="37.349" transform="translate(0 52.82) rotate(-45)" fill="#fff"/>
          <path id="Trazado_1266598" data-name="Trazado 1266598" d="M361.609,90.711a37.355,37.355,0,0,0,0-74.711q-1.481,0-2.934.114a37.357,37.357,0,0,1,0,74.482q1.452.113,2.934.114Z" transform="translate(-308.772 -0.542)" fill="#636363" fill-rule="evenodd"/>
        </g>
        <g id="Grupo_1205039" data-name="Grupo 1205039" transform="translate(76.991 30.151)">
          <path id="Trazado_1266599" data-name="Trazado 1266599" d="M411.574,107.722q-.027-27.169,0-27.126H420.6a1.428,1.428,0,0,1,1.426,1.426V106.3a1.428,1.428,0,0,1-1.426,1.426Z" transform="translate(-372.501 -76.337)" fill="#636363" fill-rule="evenodd"/>
          <path id="Trazado_1266600" data-name="Trazado 1266600" d="M422.037,82.021v0a1.428,1.428,0,0,0-1.426-1.422h-9.038v27.126H413v-25.7h9.038Z" transform="translate(-372.509 -76.337)" fill="#b1b1b5" fill-rule="evenodd"/>
          <path id="Trazado_1266601" data-name="Trazado 1266601" d="M322.355,67.619c10.513-1.81,16.626-3.133,22.737,2.72V97.466c-4.817,3.618-11.179,6.718-11.179,13.562v8.235a9.9,9.9,0,0,1-9.877-9.876V103a9.5,9.5,0,0,1,2.739-5.028C311.481,94.038,317.992,67.432,322.355,67.619Z" transform="translate(-305.805 -66.081)" fill="#f6dccd" fill-rule="evenodd"/>
          <path id="Trazado_1266602" data-name="Trazado 1266602" d="M366.392,74a17.223,17.223,0,0,1,2.4,1.937v27.126c-4.817,3.618-11.179,6.718-11.179,13.562v8.235a9.843,9.843,0,0,1-6.9-2.827,9.8,9.8,0,0,0,5.055,1.4v-8.235c0-6.844,6.361-9.944,11.179-13.562V74.506q-.278-.265-.555-.511Z" transform="translate(-329.505 -71.673)" fill="#f1cbbc" fill-rule="evenodd"/>
          <path id="Trazado_1266603" data-name="Trazado 1266603" d="M293.78,70.686h-6.335a3.924,3.924,0,1,0,0,7.849H285.1a3.924,3.924,0,1,0,0,7.849h-2.754a3.924,3.924,0,1,0,0,7.849H284a3.924,3.924,0,0,0,0,7.849h9.777a3.924,3.924,0,0,0,0-7.849h1.653a3.924,3.924,0,1,0,0-7.849H293.78a3.924,3.924,0,1,0,0-7.849,3.924,3.924,0,0,0,0-7.849Z" transform="translate(-278.426 -69.335)" fill="#f6dccd" fill-rule="evenodd"/>
          <g id="Grupo_1205038" data-name="Grupo 1205038" transform="translate(0 1.351)">
            <path id="Trazado_1266604" data-name="Trazado 1266604" d="M306.05,70.686h-6.335a3.936,3.936,0,0,0-3.924,3.924h14.184A3.936,3.936,0,0,0,306.05,70.686Z" transform="translate(-290.696 -70.686)" fill="#f1cbbc" fill-rule="evenodd"/>
            <path id="Trazado_1266605" data-name="Trazado 1266605" d="M294.077,97.438h-2.341a3.936,3.936,0,0,0-3.924,3.924h16.525a3.936,3.936,0,0,0-3.925-3.924Z" transform="translate(-285.058 -89.589)" fill="#f1cbbc" fill-rule="evenodd"/>
            <path id="Trazado_1266606" data-name="Trazado 1266606" d="M285.1,124.19H282.35a3.936,3.936,0,0,0-3.925,3.924h20.932a3.936,3.936,0,0,0-3.925-3.924H285.1Z" transform="translate(-278.425 -108.493)" fill="#f1cbbc" fill-rule="evenodd"/>
            <path id="Trazado_1266607" data-name="Trazado 1266607" d="M287.985,150.942a3.936,3.936,0,0,0-3.924,3.924h17.625a3.936,3.936,0,0,0-3.924-3.924Z" transform="translate(-282.408 -127.396)" fill="#f1cbbc" fill-rule="evenodd"/>
          </g>
        </g>
      </g>
    </g>
  </g>
</svg>
