<svg xmlns="http://www.w3.org/2000/svg" width="107" height="107" viewBox="0 0 107 107">
  <g id="Grupo_1205216" data-name="Grupo 1205216" transform="translate(-285.333 -1049.563)">
    <g id="Grupo_1204393" data-name="Grupo 1204393" transform="translate(0.333)">
      <g id="Grupo_1204388" data-name="Grupo 1204388" transform="translate(-5 -6280.184)">
        <g id="Grupo_156312" data-name="Grupo 156312" transform="translate(1.332 2881.311)">
          <path id="Elipse_5845" data-name="Elipse 5845" d="M53.5,0A53.5,53.5,0,1,1,0,53.5,53.5,53.5,0,0,1,53.5,0Z" transform="translate(288.668 4448.437)" fill="#aaca79"/>
        </g>
      </g>
      <g id="XMLID_2418_" transform="translate(302 1046.939)">
        <g id="XMLID_1925_" transform="translate(1.426 20.751)">
          <g id="XMLID_3012_" transform="translate(0 37.78)">
            <circle id="XMLID_3285_" cx="13.687" cy="13.687" r="13.687" fill="#9bc6ff"/>
            <path id="XMLID_3284_" d="M55.484,416.951H49.442a5.881,5.881,0,0,0-5.881,5.881l.049.137a13.684,13.684,0,0,0,17.707,0l.049-.137a5.881,5.881,0,0,0-5.881-5.881Z" transform="translate(-38.776 -398.844)" fill="#88a160"/>
            <g id="XMLID_3062_" transform="translate(9.236 8.438)">
              <path id="XMLID_3282_" d="M79.231,349.134a4.451,4.451,0,0,0-4.451,4.451v.767a4.451,4.451,0,1,0,8.9,0v-.767A4.451,4.451,0,0,0,79.231,349.134Z" transform="translate(-74.78 -349.134)" fill="#ffcbbe"/>
            </g>
          </g>
          <g id="XMLID_1927_" transform="translate(42.773 37.78)">
            <circle id="XMLID_3008_" cx="13.687" cy="13.687" r="13.687" fill="#9bc6ff"/>
            <path id="XMLID_3007_" d="M355.483,416.951h-6.042a5.881,5.881,0,0,0-5.881,5.881l.049.137a13.684,13.684,0,0,0,17.707,0l.049-.137A5.881,5.881,0,0,0,355.483,416.951Z" transform="translate(-338.775 -398.844)" fill="#f9f9f9"/>
            <g id="XMLID_3004_" transform="translate(9.236 8.438)">
              <path id="XMLID_3005_" d="M379.231,349.134a4.451,4.451,0,0,0-4.451,4.451v.767a4.451,4.451,0,1,0,8.9,0v-.767A4.451,4.451,0,0,0,379.231,349.134Z" transform="translate(-374.78 -349.134)" fill="#ffcbbe"/>
            </g>
          </g>
          <g id="XMLID_3027_" transform="translate(21.169 0)">
            <circle id="XMLID_3035_" cx="14" cy="14" r="14" transform="translate(-0.096 -0.012)" fill="#9bc6ff"/>
            <path id="XMLID_3034_" d="M205.483,157.047h-6.042a5.881,5.881,0,0,0-5.881,5.881l.049.137a13.684,13.684,0,0,0,17.707,0l.049-.137A5.881,5.881,0,0,0,205.483,157.047Z" transform="translate(-188.558 -138.216)" fill="#3a4852"/>
            <g id="XMLID_3031_" transform="translate(9.454 9.162)">
              <path id="XMLID_3032_" d="M229.231,89.23a4.451,4.451,0,0,0-4.451,4.451v.767a4.451,4.451,0,1,0,8.9,0v-.767A4.451,4.451,0,0,0,229.231,89.23Z" transform="translate(-224.78 -89.23)" fill="#ffcbbe"/>
            </g>
          </g>
        </g>
        <g id="XMLID_42_" transform="translate(0 20.049)">
          <path id="XMLID_75_" d="M57.886,66.129A15.025,15.025,0,0,0,51.6,67.5l-6.35-11a15.11,15.11,0,0,0-1.865-25.767,1.426,1.426,0,1,0-1.3,2.537,12.252,12.252,0,0,1,4.154,18.352,7.339,7.339,0,0,0-4.859-4.2,5.842,5.842,0,0,0,.994-3.267v-.767a5.877,5.877,0,0,0-11.754,0v.767a5.842,5.842,0,0,0,.994,3.267,7.339,7.339,0,0,0-4.859,4.2,12.252,12.252,0,0,1,4.153-18.352,1.426,1.426,0,0,0-1.3-2.537A15.11,15.11,0,0,0,27.745,56.5l-6.35,11A15.112,15.112,0,1,0,30.16,82.654h12.68A15.113,15.113,0,1,0,57.886,66.129ZM33.474,43.388a3.025,3.025,0,0,1,6.051,0v.767a3.025,3.025,0,0,1-6.051,0Zm0,6.644h6.042a4.461,4.461,0,0,1,4.419,3.892,12.226,12.226,0,0,1-14.879,0A4.461,4.461,0,0,1,33.478,50.032Zm-3.266,7.9a15.1,15.1,0,0,0,12.575,0l6.35,11A15.118,15.118,0,0,0,42.842,79.8H30.157a15.118,15.118,0,0,0-6.295-10.877ZM7.673,90.98a4.461,4.461,0,0,1,4.419-3.892h6.042a4.461,4.461,0,0,1,4.419,3.892,12.226,12.226,0,0,1-14.879,0Zm10.465-9.769a3.025,3.025,0,1,1-6.051,0v-.767a3.025,3.025,0,0,1,6.051,0Zm6.716,7.466A7.338,7.338,0,0,0,20,84.477a5.843,5.843,0,0,0,.994-3.267v-.767a5.877,5.877,0,0,0-11.754,0v.767a5.842,5.842,0,0,0,.994,3.267,7.339,7.339,0,0,0-4.859,4.2,12.262,12.262,0,1,1,19.483,0Zm25.592,2.3a4.461,4.461,0,0,1,4.419-3.892h6.042a4.461,4.461,0,0,1,4.419,3.892,12.226,12.226,0,0,1-14.879,0Zm10.465-9.769a3.025,3.025,0,1,1-6.051,0v-.767a3.025,3.025,0,0,1,6.051,0Zm6.716,7.466a7.338,7.338,0,0,0-4.859-4.2,5.843,5.843,0,0,0,.994-3.267v-.767a5.877,5.877,0,0,0-11.754,0v.767A5.842,5.842,0,0,0,53,84.477a7.339,7.339,0,0,0-4.859,4.2,12.262,12.262,0,1,1,19.483,0Z" transform="translate(0 -29.073)"/>
          <path id="XMLID_1069_" d="M247.426,22.9a1.426,1.426,0,1,0-1.008-.418A1.437,1.437,0,0,0,247.426,22.9Z" transform="translate(-210.926 -20.049)"/>
        </g>
      </g>
    </g>
  </g>
</svg>
