<svg xmlns="http://www.w3.org/2000/svg" xmlns:xlink="http://www.w3.org/1999/xlink" width="400" height="409.944" viewBox="0 0 400 409.944">
  <defs>
    <clipPath id="clip-path">
      <rect id="Rectángulo_461879" data-name="Rectángulo 461879" width="329.383" height="409.944" fill="none"/>
    </clipPath>
  </defs>
  <g id="Grupo_1205210" data-name="Grupo 1205210" transform="translate(-180.667 -1234.03)">
    <g id="Grupo_1100882" data-name="Grupo 1100882" transform="translate(-839.333 -3932.026)">
      <g id="Grupo_1099960" data-name="Grupo 1099960" transform="translate(13718.387 17874.502)">
        <path id="Trazado_145968" data-name="Trazado 145968" d="M66.711,0a66.711,66.711,0,1,0,66.711,66.711A66.711,66.711,0,0,0,66.711,0Z" transform="translate(-12688.135 -12445.871)" fill="#a6cdec"/>
        <path id="Trazado_145969" data-name="Trazado 145969" d="M45.584,0A45.584,45.584,0,1,0,91.168,45.584,45.584,45.584,0,0,0,45.584,0Z" transform="translate(-12426.826 -12590.302)" fill="#a6cdec"/>
        <rect id="Rectángulo_34812" data-name="Rectángulo 34812" width="400" height="300" transform="translate(-12698.387 -12607.222)" fill="none"/>
        <path id="Trazado_145967" data-name="Trazado 145967" d="M150.485,0A150.485,150.485,0,1,0,300.971,150.485,150.485,150.485,0,0,0,150.485,0Z" transform="translate(-12648.872 -12607.707)" fill="#aaca79"/>
        <path id="Trazado_145971" data-name="Trazado 145971" d="M12.533,0A12.533,12.533,0,1,0,25.066,12.533,12.533,12.533,0,0,0,12.533,0Z" transform="translate(-12372.968 -12357.124)" fill="#0a4666"/>
        <path id="Elipse_4044" data-name="Elipse 4044" d="M17,4.594A12.4,12.4,0,1,1,4.594,17,12.417,12.417,0,0,1,17,4.594M17,0a17,17,0,1,0,17,17A17,17,0,0,0,17,0Z" transform="translate(-12406.962 -12500.362)" fill="#fff"/>
      </g>
      <g id="Grupo_1204479" data-name="Grupo 1204479" transform="translate(23 46.272)">
        <g id="Grupo_1204478" data-name="Grupo 1204478" transform="translate(1052.771 5119.784)">
          <rect id="Rectángulo_461876" data-name="Rectángulo 461876" width="97.394" height="42.49" transform="translate(213.918 302.09)" fill="#445130"/>
          <rect id="Rectángulo_461877" data-name="Rectángulo 461877" width="120.812" height="65.207" transform="translate(208.571 344.737)" fill="#fedb52"/>
          <g id="Grupo_1204477" data-name="Grupo 1204477">
            <g id="Grupo_1204476" data-name="Grupo 1204476" clip-path="url(#clip-path)">
              <path id="Trazado_1262182" data-name="Trazado 1262182" d="M247.092,281.735c.855,3.329,5.471,31.123,6.309,35.9s6.686,37.945,7.5,42.58c.613,3.475,1.214,6.953,1.834,10.5a15.7,15.7,0,0,1-4.248,1c-3.025.6-6.083,1.045-9.122,1.58q-6.512,1.146-13.016,2.329c-6.414,1.154-12.824,2.331-19.241,3.462-7.044,1.242-14.1,2.419-21.141,3.67-5.644,1-11.272,2.091-16.913,3.107-5.738,1.033-11.487,2.014-17.226,3.039-5.3.947-10.593,1.974-15.9,2.872-5.119.865-10.236,1.74-15.34,2.686-1.341.249-1.5.1-1.73-1.239-.766-4.393-1.557-8.781-2.338-13.172a75.244,75.244,0,0,1,7.452-3.265c.7-.271,1.546-.331,1.97-1.111l1.125-.062c.179,2.551-2.546-13.061-2.193-10.041-2.021.547-4.031,1.15-6.069,1.622a18.108,18.108,0,0,1-4.454.754l-1.119-6.373c-.933-4.669-1.77-9.356-2.467-14.066.8-.634,1.6-1.272,2.412-1.9,1.287-1,1.3-1,.56-2.513a52.9,52.9,0,0,0-3.132-5.453,46.441,46.441,0,0,1-2.685-4.169c.24-.161.244-.372.2-.639q-1.384-7.65-2.75-15.3c-.8-4.527-1.576-9.059-2.363-13.589.632-.083,1.267-.15,1.9-.253q5.742-.941,11.482-1.9,11.043-1.836,22.086-3.676,11.114-1.849,22.229-3.7,10.169-1.693,20.336-3.391l20.335-3.383q9.295-1.545,18.59-3.088,8.568-1.417,17.139-2.821" transform="translate(-42.67 -106.388)" fill="#e4f0f9"/>
              <path id="Trazado_1262183" data-name="Trazado 1262183" d="M68.541,561.312c-.934.006-1.868.034-2.8.01-.893-.023-1.455-.429-1.516-1.091a1.259,1.259,0,0,1,1-1.445c.932-.2.892-.75.7-1.405a7.253,7.253,0,0,1-.067-3.491,8.945,8.945,0,0,0-.082-3.958,118.217,118.217,0,0,1-2.4-12.285c-.781-4.9-2.154-9.689-3.111-14.554-1-5.062-1.723-10.175-2.3-15.305a63.563,63.563,0,0,0-1.879-9.046c-.569.3-.538.805-.671,1.192q-4.189,12.2-8.346,24.412a27.2,27.2,0,0,1-1.09,2.9c-2.5,5.266-4.035,10.866-5.677,16.425q-1.525,5.163-3.375,10.213c-.05.138-.119.271-.16.412-.235.807-.133.954.685,1.021a6.029,6.029,0,0,1,2.068.166,28.324,28.324,0,0,1-.526,3.474.839.839,0,0,1-1.007.8c-1.072-.073-2.148-.1-3.223-.149q-8.01-.291-16.021-.016c-2.246.081-4.492.16-6.74.168-.684-.058-1.368-.121-2.053-.172a1.014,1.014,0,0,1-1.044-1.157c0-.245.024-.49.044-.735.146-1.826.326-2,2.128-2.01a4.136,4.136,0,0,1,.589,0c.77.1,1.123-.166,1.24-.995.726-5.1,2.145-10.07,2.944-15.159a147.389,147.389,0,0,1,3.459-14.9c2.228-8.394,4.382-16.8,6.208-25.3.525-2.443,1.183-4.859,1.781-7.287.586-.031,1.173-.092,1.758-.088,8.193.05,16.386-.017,24.58.126,8.241.143,16.486.068,24.73.093.587,0,1.174.047,1.761.073.288,6.277.619,12.548,1.324,18.8.781,6.928,2.185,13.768,2.892,20.7.373,3.665,1.4,7.228,1.575,10.916.051,1.079.1,2.158.1,3.237a93.874,93.874,0,0,0,.521,9.555c.07.657.193,1.053,1.016,1.086a1.331,1.331,0,0,1,1.446,1.338c.014.734-.443,1.228-1.386,1.458-.332.081-.677.108-1.017.159-.492.018-.917.3-1.428.3-2.3-.028-14.571,1.363-16.617,1.515m-38.7-5.234c.737,0,1.474,0,2.211,0,.376,0,.9.144.947-.4.051-.587-.505-.629-.935-.7a5.445,5.445,0,0,0-.735-.037,30.415,30.415,0,0,0-4.995.328c-3.16.434-6.287,1.11-9.479,1.324a1.479,1.479,0,0,0-.292.036c-.25.067-.465.184-.426.492a.416.416,0,0,0,.393.374,6.827,6.827,0,0,0,1.32.019q3.29-.408,6.572-.869a41.555,41.555,0,0,1,5.418-.568m40.894,2.151c3.605-.04,7.1-.923,10.639-1.463a1.122,1.122,0,0,0,.28-.088c.283-.126.533-.3.441-.656a.49.49,0,0,0-.583-.332c-.39.037-.777.108-1.165.169-3.684.581-7.325,1.492-11.1,1.392a2.6,2.6,0,0,0-.585.053c-.248.05-.485.152-.477.459a.469.469,0,0,0,.484.457c.686.03,1.374.01,2.061.01M61.3,494.656a17.03,17.03,0,0,0-3.38,1.717.6.6,0,0,0,.607,1.021q1.667-.732,3.31-1.517a.6.6,0,0,0,.379-.71c-.1-.393-.4-.515-.917-.511m-5.7,1.764c-.027.476-.042.914.421,1.058.485.151.7-.2.817-.612a8.462,8.462,0,0,1,1.212-2.8.5.5,0,0,0-.088-.665.578.578,0,0,0-.792-.1,2.141,2.141,0,0,0-.617.6,10.085,10.085,0,0,0-.952,2.523" transform="translate(-3.358 -185.771)" fill="#083851"/>
              <path id="Trazado_1262184" data-name="Trazado 1262184" d="M88.582,449.093c-.587-.025-1.174-.071-1.761-.073-8.243-.026-16.489.05-24.73-.093-8.194-.143-16.387-.077-24.58-.126-.586,0-1.172.058-1.758.089a22.848,22.848,0,0,0-3.23-.081c-1.219-.032-1.279-.045-1.168-1.237a47.635,47.635,0,0,1,1.855-10.246c.887-2.76,1.97-5.438,3.11-8.1,1.876-4.374,3.2-8.957,5.03-13.348,1.55-3.709,3.065-7.433,4.629-11.136a10.283,10.283,0,0,1,1.593-2.958,1.778,1.778,0,0,0,2,.4,16.423,16.423,0,0,1,1.82-.5,4.35,4.35,0,0,1-.041,1.023,18.385,18.385,0,0,0-.259,4.513,3.448,3.448,0,0,0,.574,2.079.724.724,0,0,0,.865.387c.349-.125.33-.451.327-.739a6.107,6.107,0,0,0-.16-1.6,6.209,6.209,0,0,1-.039-2.467c.161-1.248.282-2.5.419-3.752,2.465-.964,4.931-1.921,7.391-2.894,2.188-.866,4.369-1.75,6.553-2.626a12.007,12.007,0,0,1,.322,2.012,18.014,18.014,0,0,0,.724,3.862c.126.386.279.951.873.762.513-.163.271-.6.225-.993-.243-2.075-.446-4.155-.662-6.234,3.067-1.44,6.145-2.85,9.336-4,1.138-.411,1.168-.519.8-1.6-.756-2.232-1.53-4.458-2.279-6.693a24.011,24.011,0,0,1-1.355-4.809q.011-.125.03-.248a1.307,1.307,0,0,1,.815.582,26.474,26.474,0,0,1,3.033,4.488,4.031,4.031,0,0,1,.312,1.268c.387,2.242.8,4.478,1.207,6.693.6.019.823-.348,1.114-.583,2.736-2.211,5.45-4.451,8.4-6.383.7,4.711,1.534,9.4,2.467,14.065-.437-.059-.88-.09-1.311-.179-2.924-.6-5.845-1.222-8.769-1.828-.407-.084-.835-.351-1.241.081.314,3.173,1.267,6.226,1.829,9.356.125.7.439.869,1.112.743,1.443-.271,2.912-.414,4.345-.725a36.883,36.883,0,0,0,5.153-1.074,18.081,18.081,0,0,0,4.454-.754c2.04-.472,4.048-1.075,6.068-1.621,1-.169,1.027.5,1.029,1.2a1.443,1.443,0,0,0-.192.986,52.044,52.044,0,0,0,.233,7.922c-.425.779-1.27.84-1.971,1.11a75.256,75.256,0,0,0-7.452,3.266q-3.979,1.535-7.958,3.066c-.481.185-.718.437-.531,1,1.336,4.005,2.1,8.169,3.5,12.166a60.9,60.9,0,0,1,2.275,9.285,26.8,26.8,0,0,0,.924,4.008,16.393,16.393,0,0,1,.548,1.834c.213.972,0,1.265-.993,1.329-.881.057-1.768.034-2.652.056-.736.018-1.471.05-2.206.075M60.265,428.085a7.482,7.482,0,0,0,1.174-.152c1.59-.3,3.1-.945,4.674-1.242a66.671,66.671,0,0,0,13.7-4.309,24.938,24.938,0,0,0,4.48-2.2c.685-.469.93-.93.621-1.418-.4-.628-.872-.241-1.273-.016a48.4,48.4,0,0,1-5.179,2.437,53.908,53.908,0,0,1-8.019,2.855c-2.328.559-4.667,1.089-6.966,1.755a11.553,11.553,0,0,1-3.458.54,5.456,5.456,0,0,1-5.4-3.744,12.5,12.5,0,0,1-.9-2.635c-.045-.307-.2-.589-.544-.593-.434,0-.565.337-.6.7a3.184,3.184,0,0,0,0,.881,13.131,13.131,0,0,0,.973,2.92c1.322,2.876,3.775,3.938,6.716,4.222m7.093-19.13c-.483.2-.817.377-1.172.48a25.864,25.864,0,0,0-6.453,2.811c-.482.3-1.248.5-.81,1.272.385.677,1.018.38,1.56.1.174-.089.329-.212.5-.314a16.5,16.5,0,0,1,3.035-1.49c3.1-1.088,6.2-2.167,9.386-2.958a7.229,7.229,0,0,0,1.115-.372.635.635,0,0,0,.413-.706.691.691,0,0,0-.713-.617,6.231,6.231,0,0,0-.718.109c-2.543.215-5.1.5-7.48-.787a1.965,1.965,0,0,0-1.133-.25.743.743,0,0,0-.749.587.656.656,0,0,0,.34.749c.471.261.96.494,1.455.706a4.158,4.158,0,0,1,1.428.675" transform="translate(-11.826 -142.613)" fill="#a6cdec"/>
              <path id="Trazado_1262185" data-name="Trazado 1262185" d="M84.766,353.024a23.981,23.981,0,0,0,1.355,4.809c.749,2.234,1.522,4.461,2.279,6.693.367,1.084.337,1.192-.8,1.6-3.19,1.155-6.269,2.565-9.336,4a3.151,3.151,0,0,0-1.481.591c-2.184.876-4.365,1.761-6.553,2.626-2.46.973-4.927,1.93-7.391,2.895a3.468,3.468,0,0,0-1.688.551,16.381,16.381,0,0,0-1.819.5,1.778,1.778,0,0,1-2-.4,75.03,75.03,0,0,1,1.54-21.242c.944-4.215,1.715-8.472,2.452-12.73.309-1.784.3-3.621.493-5.428a47.31,47.31,0,0,1,1.774-7.442c.507-1.846,1.009-3.693,1.385-5.573a16.026,16.026,0,0,1,1.843-5.11c2.293-3.826,5.275-7,9.977-7.5,4.291-.451,8.435.273,11.935,3.131.152.124.3.258.436.4,2.071,2.054,2.112,3.365.177,5.527-3.151,2.888-5.654,6.391-8.776,9.308a1.766,1.766,0,0,0-.462,1.87c.985,4.7,1.919,9.414,2.918,14.113a43.245,43.245,0,0,0,1.741,6.807" transform="translate(-21.585 -117.721)" fill="#522f26"/>
              <path id="Trazado_1262186" data-name="Trazado 1262186" d="M28.907,611.638c.589.014,1.183-.006,1.768.05.753.072.886.328.638,1.08-1.073,3.258-2.153,6.513-3.215,9.775a20.536,20.536,0,0,0-.618,2.269c-.176.866.051,1.058.917.869a28.5,28.5,0,0,0,4.057-1.3,68.344,68.344,0,0,1,6.869-2.163c.6-.159.92-.045,1.163.5,1.273,2.884,3.075,5.476,4.572,8.236.164.3.285.629.463.922.387.635.111.99-.47,1.27a3.381,3.381,0,0,1-1.56.355c-1.229-.021-2.457-.005-3.686-.005-10.666,0-21.333.013-32-.022-2.054-.007-4.1-.307-6.165-.292-1.284.01-1.644-.454-1.638-1.725a34.024,34.024,0,0,1,.688-4.791c.657-4.449,1.755-8.821,2.33-13.291.2-1.571.047-2,2.211-1.992.688,0,1.376,0,2.064-.006a1.979,1.979,0,0,0,1.279.235q10.168.017,20.335.022" transform="translate(0 -230.867)" fill="#3a4852"/>
              <path id="Trazado_1262187" data-name="Trazado 1262187" d="M246.54,278.419q-8.569,1.41-17.139,2.821-9.3,1.538-18.59,3.088-10.168,1.691-20.335,3.383T170.14,291.1q-11.114,1.85-22.229,3.7-11.043,1.837-22.086,3.676-5.74.955-11.482,1.9c-.629.1-1.265.169-1.9.253a16.122,16.122,0,0,1-.9-4.438c-.078-.586.26-.838.863-.938q14.907-2.472,29.807-4.987,15.409-2.6,30.814-5.212,13.518-2.281,27.038-4.548,13.444-2.269,26.888-4.551c5.814-.983,11.63-1.948,17.44-2.956.67-.116,1.006-.029,1.143.685.306,1.585.663,3.16,1,4.739M119.945,295.287a1.309,1.309,0,0,0-1.317,1.286,1.338,1.338,0,0,0,1.38,1.225,1.25,1.25,0,0,0,1.185-1.384,1.117,1.117,0,0,0-1.249-1.127m-3.886,2.978c.884-.022,1.336-.445,1.29-1.207a1.114,1.114,0,0,0-1.247-1.118,1.2,1.2,0,0,0-1.359,1.329c.039.695.466,1.018,1.316,1m7.515-1.253a1.323,1.323,0,0,0,1.419-1.162,1.346,1.346,0,0,0-1.365-1.07,1.278,1.278,0,0,0-1.291,1.135c-.026.691.443,1.107,1.237,1.1" transform="translate(-42.118 -103.071)" fill="#457185"/>
              <path id="Trazado_1262188" data-name="Trazado 1262188" d="M123.272,604.17a1.052,1.052,0,0,0,.147-.007c1.995-.4,2.34-.221,2.718,1.84a148.255,148.255,0,0,0,4.2,15.9c.272.9.452,1,1.375.592,1.391-.614,2.776-1.243,4.145-1.906a2.3,2.3,0,0,1,2.682.241c4.05,3.095,8.145,6.13,12.231,9.177.395.294.894.505.8,1.112a1.4,1.4,0,0,1-1.195,1.141c-.379.1-37.921-.011-38.41-.045a2.135,2.135,0,0,1-2.129-1.672c-1.336-4.609-4.529-17.536-5.277-19.257-.34-.782-.28-.82,1.028-1.551a19.911,19.911,0,0,1,2.8-.81,132.732,132.732,0,0,0,14.879-4.751" transform="translate(-39.418 -228.076)" fill="#3a4852"/>
              <path id="Trazado_1262189" data-name="Trazado 1262189" d="M116.208,376.177c-2.949,1.931-5.662,4.171-8.4,6.383-.291.235-.517.6-1.113.583-.4-2.215-.821-4.451-1.208-6.693a4.01,4.01,0,0,0-.312-1.268,26.438,26.438,0,0,0-3.033-4.488,1.307,1.307,0,0,0-.814-.582c-.091-.927-.159-1.856-.258-2.782a10.841,10.841,0,0,1,.133-4.1c.151-.545.309-.908.947-.847a9.714,9.714,0,0,0,3.46-.6,6.991,6.991,0,0,0,4.223-2.991,3.177,3.177,0,0,1,.9-1.139,50.573,50.573,0,0,1,2.63,4.485,46.782,46.782,0,0,0,2.686,4.17,53.017,53.017,0,0,1,3.133,5.453c.74,1.511.727,1.513-.56,2.513-.808.627-1.609,1.265-2.413,1.9" transform="translate(-38.117 -135.057)" fill="#522f26"/>
              <path id="Trazado_1262190" data-name="Trazado 1262190" d="M108.075,345.89a3.18,3.18,0,0,0-.9,1.139,6.989,6.989,0,0,1-4.223,2.991,9.712,9.712,0,0,1-3.46.6c-.639-.061-.8.3-.947.847a10.828,10.828,0,0,0-.133,4.1c.1.926.167,1.855.257,2.781q-.019.124-.03.249a43.225,43.225,0,0,1-1.74-6.807c-1-4.7-1.934-9.411-2.919-14.113a1.767,1.767,0,0,1,.462-1.87c3.122-2.917,5.624-6.419,8.775-9.307.07.971,1.041,1.609.968,2.631-.358.155-.785-.106-1.125.2a.816.816,0,0,0-.227.934.671.671,0,0,0,.651.5.659.659,0,0,0,.693-.624,9.039,9.039,0,0,0,.009-1.006c.443.055.456.472.588.754a64,64,0,0,1,3.762,9.855,8.96,8.96,0,0,1-.462,6.147m-5.446-13.014a12.528,12.528,0,0,1-.779-2.362c-.113-.288-.315-.549-.655-.45a.584.584,0,0,0-.39.708,18.474,18.474,0,0,0,.461,1.85c.536,1.7.959,1.913,2.614,1.339a1.359,1.359,0,0,1-.086,1.126,13.3,13.3,0,0,0-.445,1.545.627.627,0,0,0,.451.812c.406.09.631-.206.74-.558a7.844,7.844,0,0,0,.589-3c-.129-1.573-.666-1.882-2.056-1.141a2.389,2.389,0,0,1-.444.13m.769,7.342a3.318,3.318,0,0,0,3.043-2.487.718.718,0,0,0-.488-.812c-.345-.137-.556.083-.724.336-.136.2-.243.425-.362.639a1.492,1.492,0,0,1-1.508.955,1.49,1.49,0,0,0-.58.065.629.629,0,0,0,.034,1.244,3.011,3.011,0,0,0,.586.06m-4.236-7.039a.88.88,0,0,0-.8,1.034.937.937,0,0,0,.851.877c.455.049.881-.461.872-.99a.878.878,0,0,0-.926-.922" transform="translate(-35.459 -123.29)" fill="#db7c61"/>
              <path id="Trazado_1262191" data-name="Trazado 1262191" d="M33.333,607.493q-10.168-.009-20.335-.022a1.98,1.98,0,0,1-1.279-.235q.668-3.263,1.338-6.526c2.248-.009,4.494-.088,6.74-.169q8-.288,16.022.016l-2.486,6.935" transform="translate(-4.425 -226.722)" fill="#ffd951"/>
              <path id="Trazado_1262192" data-name="Trazado 1262192" d="M124.341,602.7c-2.605,1.24-17.689,5.426-18.622,5.705a10.449,10.449,0,0,0-.541-3.118,12.426,12.426,0,0,1-.448-3c2.047-.153,14.317-1.543,16.618-1.515.511.006.936-.28,1.428-.3.015.84,1.312,1.445,1.566,2.221" transform="translate(-39.548 -226.75)" fill="#f2da7d"/>
              <path id="Trazado_1262193" data-name="Trazado 1262193" d="M142.812,373.622c0-.693-.027-1.365-1.029-1.2-.351-3.021-1.1-5.967-1.668-8.948q-1.567-8.3-3.21-16.578c-.9-4.563-1.832-9.119-2.732-13.682q-1.407-7.135-2.777-14.277c-.21-1.09-.116-1.232.97-1.508,2.422-.616,26.983-5.061,32.61-6.117,3.848-.723,7.689-1.476,11.538-2.185,5.2-.958,10.4-1.884,15.6-2.832q4.912-.9,9.82-1.818,7.723-1.44,15.444-2.888c3.025-.565,6.053-1.123,9.183-1.7.443,2.331.876,4.582,1.3,6.836.957,5.148,1.924,10.294,2.854,15.446.94,5.2,1.821,10.417,2.765,15.619.822,4.528,1.748,9.037,2.527,13.572q.733,4.269,1.553,8.52a6.9,6.9,0,0,1,.049,1.03c-1.374-1.6-2.754-3.191-4.121-4.795q-4.106-4.816-8.2-9.639c-.956-1.12-1.961-2.2-2.9-3.331-.517-.621-.9-.536-1.433-.007-1.15,1.14-2.353,2.228-3.541,3.329a3.811,3.811,0,0,1-1.253,1.005c-.145-.417-.293-.834-.436-1.252a25.286,25.286,0,0,0-5.2-9.006c-7.239-7.945-16.34-10.469-26.655-8.521-8.129,1.535-14.075,6.335-17.808,13.708a24.38,24.38,0,0,0-2.18,16.341q-4.905,4.888-9.808,9.779c-.272.271-.614.513-.588.97l.016-.008a.477.477,0,0,0-.5.241,11.469,11.469,0,0,1-1.28.331c-.949.136-1.136-.027-1.164-.965-.02-.687.034-1.378-.009-2.063-.063-1.011-.588-1.276-1.478-.78a3.953,3.953,0,0,0-1.229,1.241,33.141,33.141,0,0,0-2.48,4.169,3.3,3.3,0,0,1-2.539,1.964" transform="translate(-49.583 -113.243)" fill="#a6cdec"/>
              <path id="Trazado_1262194" data-name="Trazado 1262194" d="M161.165,395.474c-.026-.457.316-.7.588-.97q4.9-4.893,9.809-9.778l5.367-5.188,3.465,3.843q7.3,8.1,14.61,16.2c.769.851.79.845,1.559.113q13.187-12.546,26.368-25.1a2.651,2.651,0,0,0,.907-1.134,3.8,3.8,0,0,0,1.253-1.006c1.189-1.1,2.392-2.188,3.541-3.328.533-.53.917-.614,1.433.007.942,1.131,1.946,2.211,2.9,3.33q4.111,4.814,8.2,9.639c1.367,1.6,2.747,3.2,4.121,4.795a36.2,36.2,0,0,1,1.133,5.3c.441,1.954,1.272,6.937.246,7.129-5.287.991-93.581,17.185-93.668,16.636-.4-2.513-1.16-4.96-1.339-7.511a20.386,20.386,0,0,1,6.08-.953c1.229.03,2.462.061,3.687-.012a17.126,17.126,0,0,1,4.254-.025,2.022,2.022,0,0,0,1-.188c.709-.265.842-.79.339-1.375a4.247,4.247,0,0,0-1.66-1.2c-.62-.246-1.237-.5-1.923-.779a1.348,1.348,0,0,1,.94-.225c1.32-.1,2.641-.19,3.96-.3a.777.777,0,0,0,.809-.709c.045-.479-.276-.711-.679-.834-.28-.085-.579-.108-.86-.194a16.7,16.7,0,0,1-2.745-.866c.2-.373.466-.279.682-.3a9.965,9.965,0,0,0,2.41-.655c.466-.164.949-.433.822-1.052-.107-.525-.576-.625-1.034-.649-.49-.024-.983-.014-1.474-.026a19.877,19.877,0,0,1-2.444-.072c.765-.485,1.262-.8,1.76-1.115a2.465,2.465,0,0,0,.993-1.059c.322-.708.091-1.161-.665-1.242a4.591,4.591,0,0,0-1.309.148,17.1,17.1,0,0,1-3.446.7" transform="translate(-57.272 -139.225)" fill="#f1f1f1"/>
              <path id="Trazado_1262195" data-name="Trazado 1262195" d="M160.319,409.606a17.1,17.1,0,0,0,3.446-.7,4.592,4.592,0,0,1,1.309-.148c.756.08.987.533.665,1.242a2.465,2.465,0,0,1-.993,1.059c-.5.314-1,.63-1.76,1.115a19.889,19.889,0,0,0,2.444.072c.492.011.984,0,1.474.025.458.024.927.125,1.034.649.126.619-.357.888-.822,1.052a9.965,9.965,0,0,1-2.41.655c-.216.019-.486-.075-.682.3a16.693,16.693,0,0,0,2.745.866c.28.086.579.109.86.194.4.123.724.355.679.834a.777.777,0,0,1-.809.709c-1.319.111-2.64.2-3.96.3a1.348,1.348,0,0,0-.94.225c.686.278,1.3.533,1.923.779a4.247,4.247,0,0,1,1.66,1.2c.5.585.37,1.11-.339,1.375a2.022,2.022,0,0,1-1,.188,17.126,17.126,0,0,0-4.254.025c-1.225.073-2.458.042-3.687.012a20.387,20.387,0,0,0-6.08.953l-1.125.063a52.034,52.034,0,0,1-.233-7.921,1.445,1.445,0,0,1,.192-.986,3.3,3.3,0,0,0,2.539-1.964,33.057,33.057,0,0,1,2.48-4.169,3.956,3.956,0,0,1,1.229-1.242c.89-.5,1.414-.23,1.478.78.043.685-.011,1.376.009,2.063.027.939.215,1.1,1.164.965a11.317,11.317,0,0,0,1.279-.33c.209.007.408-.009.5-.242Z" transform="translate(-56.426 -153.357)" fill="#de7f62"/>
              <path id="Trazado_1262196" data-name="Trazado 1262196" d="M34.236,594.286a41.567,41.567,0,0,0-5.418.568q-3.282.465-6.572.869a6.886,6.886,0,0,1-1.32-.019.417.417,0,0,1-.393-.375c-.039-.309.176-.425.426-.492a1.572,1.572,0,0,1,.292-.036c3.192-.214,6.318-.89,9.479-1.324a30.4,30.4,0,0,1,4.995-.327,5.45,5.45,0,0,1,.735.036c.43.071.987.113.935.7-.048.544-.571.4-.947.4-.738,0-1.474,0-2.211,0" transform="translate(-7.752 -223.979)" fill="#425154"/>
              <path id="Trazado_1262197" data-name="Trazado 1262197" d="M106.714,596.894c-.687,0-1.375.019-2.061-.01a.469.469,0,0,1-.485-.456c-.007-.307.23-.41.477-.46a2.643,2.643,0,0,1,.586-.053c3.769.1,7.411-.81,11.095-1.391.388-.061.775-.132,1.165-.169a.489.489,0,0,1,.583.332c.092.357-.158.53-.441.655a1.12,1.12,0,0,1-.28.089c-3.541.54-7.034,1.423-10.639,1.463" transform="translate(-39.336 -224.436)" fill="#425154"/>
              <path id="Trazado_1262198" data-name="Trazado 1262198" d="M90.9,496.292c.513,0,.817.118.917.511a.6.6,0,0,1-.38.711q-1.643.781-3.31,1.516a.6.6,0,0,1-.608-1.021,17.086,17.086,0,0,1,3.381-1.717" transform="translate(-32.957 -187.408)" fill="#425154"/>
              <path id="Trazado_1262199" data-name="Trazado 1262199" d="M83.937,497.161a10.085,10.085,0,0,1,.952-2.523,2.141,2.141,0,0,1,.617-.6.578.578,0,0,1,.792.1.5.5,0,0,1,.088.665,8.462,8.462,0,0,0-1.212,2.8c-.117.411-.332.762-.817.612-.463-.144-.447-.582-.421-1.058" transform="translate(-31.692 -186.512)" fill="#425154"/>
              <path id="Trazado_1262200" data-name="Trazado 1262200" d="M73.142,452.811c-2.94-.283-5.393-1.346-6.716-4.221a13.173,13.173,0,0,1-.973-2.92,3.189,3.189,0,0,1,0-.881c.031-.363.162-.7.6-.7.344,0,.5.285.544.593a12.523,12.523,0,0,0,.9,2.635,5.456,5.456,0,0,0,5.4,3.744,11.54,11.54,0,0,0,3.459-.54c2.3-.666,4.637-1.195,6.966-1.755a53.864,53.864,0,0,0,8.019-2.855,48.154,48.154,0,0,0,5.178-2.437c.4-.225.876-.612,1.274.016.309.489.064.949-.621,1.418a24.925,24.925,0,0,1-4.481,2.2,66.654,66.654,0,0,1-13.7,4.309c-1.575.3-3.084.938-4.675,1.243a7.469,7.469,0,0,1-1.174.152" transform="translate(-24.703 -167.34)" fill="#427184"/>
              <path id="Trazado_1262201" data-name="Trazado 1262201" d="M84.027,426.283a4.158,4.158,0,0,0-1.428-.675c-.495-.213-.983-.446-1.455-.706a.656.656,0,0,1-.34-.749.743.743,0,0,1,.749-.587,1.964,1.964,0,0,1,1.133.25c2.385,1.283,4.937,1,7.48.787a6.224,6.224,0,0,1,.718-.109.691.691,0,0,1,.713.617.635.635,0,0,1-.413.706,7.226,7.226,0,0,1-1.115.372c-3.19.791-6.289,1.87-9.386,2.958a16.5,16.5,0,0,0-3.035,1.49c-.168.1-.324.225-.5.314-.542.276-1.175.574-1.56-.1-.438-.773.327-.97.81-1.272a25.863,25.863,0,0,1,6.453-2.811c.355-.1.689-.28,1.172-.48" transform="translate(-28.495 -159.942)" fill="#427184"/>
              <path id="Trazado_1262202" data-name="Trazado 1262202" d="M63.381,415.929a3.473,3.473,0,0,1,1.688-.551c-.138,1.25-.26,2.5-.42,3.75a6.224,6.224,0,0,0,.039,2.468,6.078,6.078,0,0,1,.16,1.6c0,.287.022.614-.327.738a.724.724,0,0,1-.865-.387,3.446,3.446,0,0,1-.574-2.078,18.392,18.392,0,0,1,.259-4.514,4.345,4.345,0,0,0,.041-1.022" transform="translate(-23.816 -156.853)" fill="#457185"/>
              <path id="Trazado_1262203" data-name="Trazado 1262203" d="M88.685,406.149a3.15,3.15,0,0,1,1.481-.591c.217,2.079.419,4.159.663,6.234.045.389.288.83-.226.993-.593.189-.746-.377-.872-.762a17.977,17.977,0,0,1-.724-3.862,12.06,12.06,0,0,0-.322-2.012" transform="translate(-33.489 -153.145)" fill="#457185"/>
              <path id="Trazado_1262204" data-name="Trazado 1262204" d="M124.248,308.838a1.117,1.117,0,0,1,1.249,1.127,1.25,1.25,0,0,1-1.186,1.384,1.337,1.337,0,0,1-1.38-1.225,1.309,1.309,0,0,1,1.317-1.286" transform="translate(-46.421 -116.622)" fill="#ffdb52"/>
              <path id="Trazado_1262205" data-name="Trazado 1262205" d="M118,312.212c-.851.022-1.278-.3-1.316-1a1.2,1.2,0,0,1,1.358-1.329,1.115,1.115,0,0,1,1.248,1.118c.046.761-.406,1.184-1.29,1.207" transform="translate(-44.062 -117.018)" fill="#ffdb52"/>
              <path id="Trazado_1262206" data-name="Trazado 1262206" d="M130.126,310.255c-.794.01-1.263-.406-1.237-1.1a1.278,1.278,0,0,1,1.291-1.135,1.346,1.346,0,0,1,1.365,1.07,1.323,1.323,0,0,1-1.419,1.162" transform="translate(-48.67 -116.314)" fill="#ffd951"/>
              <path id="Trazado_1262207" data-name="Trazado 1262207" d="M106.807,335.028a2.411,2.411,0,0,0,.444-.13c1.39-.741,1.927-.433,2.056,1.141a7.867,7.867,0,0,1-.589,3c-.11.352-.334.649-.741.558a.628.628,0,0,1-.451-.812,13.3,13.3,0,0,1,.445-1.545,1.356,1.356,0,0,0,.086-1.126c-1.655.573-2.078.365-2.613-1.339a18.139,18.139,0,0,1-.461-1.85.583.583,0,0,1,.39-.708c.34-.1.541.162.654.45a12.572,12.572,0,0,0,.779,2.362" transform="translate(-39.638 -125.442)" fill="#522f26"/>
              <path id="Trazado_1262208" data-name="Trazado 1262208" d="M108.469,346.517a2.971,2.971,0,0,1-.586-.06.629.629,0,0,1-.034-1.244,1.5,1.5,0,0,1,.58-.065,1.491,1.491,0,0,0,1.507-.955c.119-.214.227-.436.362-.639.169-.253.38-.472.725-.336a.718.718,0,0,1,.487.812,3.317,3.317,0,0,1-3.042,2.487" transform="translate(-40.53 -129.589)" fill="#522f26"/>
              <path id="Trazado_1262209" data-name="Trazado 1262209" d="M101.862,337.233a.878.878,0,0,1,.926.922c.009.529-.417,1.039-.872.99a.937.937,0,0,1-.851-.877.88.88,0,0,1,.8-1.034" transform="translate(-38.159 -127.344)" fill="#522f26"/>
              <path id="Trazado_1262210" data-name="Trazado 1262210" d="M109.571,330.73a8.9,8.9,0,0,1-.009,1.007.659.659,0,0,1-.693.624.671.671,0,0,1-.651-.5.818.818,0,0,1,.227-.934c.339-.3.767-.043,1.125-.2v.006" transform="translate(-40.843 -124.887)" fill="#522f26"/>
              <path id="Trazado_1262211" data-name="Trazado 1262211" d="M235.58,364.571a2.646,2.646,0,0,1-.907,1.133q-13.18,12.554-26.368,25.1c-.77.733-.79.738-1.559-.113q-7.311-8.092-14.61-16.2l-3.465-3.844-5.367,5.188a24.377,24.377,0,0,1,2.179-16.341c3.732-7.373,9.679-12.173,17.807-13.708,10.316-1.949,19.417.576,26.655,8.521a25.272,25.272,0,0,1,5.2,9.006c.143.418.291.835.436,1.252" transform="translate(-69.013 -130.34)" fill="#fedb53"/>
              <path id="Trazado_1262212" data-name="Trazado 1262212" d="M166.647,411.709c-.094.233-.293.248-.5.241a.479.479,0,0,1,.5-.241" transform="translate(-62.739 -155.467)" fill="#fbf2cc"/>
              <path id="Trazado_1262213" data-name="Trazado 1262213" d="M347.331,158.862a5.564,5.564,0,0,1,1.676-1.245c1.86-1.267,3.62-2.656,5.361-4.075a2.946,2.946,0,0,1,.489-.265,21.715,21.715,0,0,1,2.115,2.437c3.043,3.572,6.379,6.868,9.67,10.2a32.537,32.537,0,0,1,3.7,4.94.774.774,0,0,1-.034,1.118c-2.024,2.138-4.03,4.294-6.025,6.425-.417-.075-.567-.395-.771-.632q-7.979-9.275-15.945-18.561a3.523,3.523,0,0,1-.235-.347" transform="translate(-131.158 -57.88)" fill="#ce7257"/>
              <path id="Trazado_1262214" data-name="Trazado 1262214" d="M264.271,219.315l-12.112,39.12L273.4,265.01l2.8-9.043a11.166,11.166,0,1,0,6.512-21.034l2.8-9.043Z" transform="translate(-95.219 -82.817)" fill="#12263f"/>
              <path id="Trazado_1262215" data-name="Trazado 1262215" d="M155.123,144.249a50.1,50.1,0,1,0,20.48,83.423l22.107,6.845,13.921-44.963-22.108-6.844a50.09,50.09,0,0,0-34.4-38.461" transform="translate(-34.058 -53.619)" fill="#ffdb53"/>
              <path id="Trazado_1262216" data-name="Trazado 1262216" d="M208.557,230.04a66.328,66.328,0,0,1-27.446,5.043,60.155,60.155,0,0,1-14.33-2.062c-4.128-1.156-9.931-3.426-11.166-8.073-1.394-5.247,6.322-6.257,9.827-6.406a30.459,30.459,0,0,1,13.9,2.683c.838.382,1.926,1.327,2.811,1.48l.579.355q.68-1.36-.781-.645a10.517,10.517,0,0,1-1.336.007,18.1,18.1,0,0,1-7.485-2.066c-3.8-1.931-8.028-5.007-9.992-8.9-2.785-5.522,3.218-7.713,7.686-7.525,4.628.2,12.446,2.077,13.8,7.323q.6-.963,1.2-1.925c-5.431,1.673-10.783-3.829-13.089-8.184a17.635,17.635,0,0,1-2.129-7.685c-.016-.673-.1-1.937.5-2.418.508-.406,1.465-.228,2.035-.161a35.473,35.473,0,0,1,5.172,1.066c12.776,3.486,22.828,13.345,32.878,21.462,1.605,1.3,3.317-1.418,1.728-2.7-9.914-8.008-19.767-17.531-32.2-21.4-4.085-1.27-12.227-4.032-13.218,2.382-.73,4.725,1.443,10.058,4.2,13.788,3.249,4.4,9.105,8.74,14.849,6.971a1.633,1.633,0,0,0,1.2-1.925c-1.483-5.745-8.115-8.474-13.42-9.414-4.789-.849-11.6-.69-14.279,4.216-2.812,5.155,1.661,10.469,5.387,13.645,4.58,3.9,10.549,7.093,16.75,6.624,2.048-.156,4.813-1.635,3.433-4.074-.65-1.148-2.1-1.763-3.218-2.349a34.186,34.186,0,0,0-4.428-1.949,31.736,31.736,0,0,0-18.342-1.082c-5.185,1.393-9.135,5.788-6.51,11.242,2.687,5.583,9.483,8.039,15.111,9.293a69.7,69.7,0,0,0,41.819-3.8c1.907-.794.4-3.624-1.495-2.836" transform="translate(-57.506 -70.848)" fill="#ffeeaf"/>
              <rect id="Rectángulo_461878" data-name="Rectángulo 461878" width="130.809" height="13.154" transform="translate(40.209 98.946) rotate(-15.432)" fill="#457185"/>
              <path id="Trazado_1262217" data-name="Trazado 1262217" d="M330.411,76.62A55.528,55.528,0,1,1,300.117,4.17a55.528,55.528,0,0,1,30.295,72.45" transform="translate(-84.396 0)" fill="#457185"/>
              <path id="Trazado_1262218" data-name="Trazado 1262218" d="M328.1,78.274a48.25,48.25,0,1,1-26.324-62.955A48.251,48.251,0,0,1,328.1,78.274" transform="translate(-88.813 -4.416)" fill="#ffefb2"/>
              <path id="Trazado_1262219" data-name="Trazado 1262219" d="M372.28,384.257a4.9,4.9,0,0,1-.45-.538c-.456-.729-.406-1.212.324-1.654a1.407,1.407,0,0,0,.815-1.031c.538-3.235,1.522-6.369,2.228-9.561.969-4.385,1.41-8.867,2.021-13.316,1.153-8.389,2.292-16.786,4.468-24.992a38.679,38.679,0,0,0,.746-5.417c.522-4.372,1.319-8.7,2.127-13.018a3.921,3.921,0,0,0,0-1.509,19.459,19.459,0,0,1-.064-3.507c-.009-1.313.012-2.625.02-3.938.649-.374,1.288-.766,1.949-1.118,8.028-4.275,15.722-9.137,23.689-13.519,3.405-1.873,6.782-3.8,10.172-5.7a4.336,4.336,0,0,1,.733,2.237,1.807,1.807,0,0,0,.32.916,130.185,130.185,0,0,1,7.942,19.515c2.154,6.888,4.266,13.788,6.14,20.758,2.094,7.783,3.92,15.633,5.833,23.46a152.885,152.885,0,0,0,4.956,16.409c1.163,3.168,2.152,6.394,3.062,9.646a40.478,40.478,0,0,0,1.577,3.905.764.764,0,0,0,.591.514,1.535,1.535,0,0,1,1.37,1.54c0,.791-.6,1.29-1.736,1.54-.183.04-.368.069-.553.1-2.336.041-4.672.1-7.009.12-4.958.038-9.916.054-14.875.079-.608-.029-1.222-.017-1.823-.1a1.93,1.93,0,0,1-1.678-1.311,1.454,1.454,0,0,1,.555-1.744c.53-.418.391-.825.235-1.358-1.067-3.642-2.293-7.223-3.708-10.75-2.618-6.521-5.1-13.095-7.678-19.634-2.111-5.364-4.172-10.745-6.021-16.2-.81-2.391-1.494-4.823-2.262-7.322-.477.246-.444.685-.471,1.054-.275,3.832-.855,7.628-1.331,11.436a141.145,141.145,0,0,1-2.719,14.629c-1.92,8.209-3.536,16.474-4.961,24.781-.459,2.676-1.022,5.333-1.534,8-.184.96-.375,1.832.5,2.7a1.221,1.221,0,0,1-.956,2.023,12.73,12.73,0,0,1-1.682-.077c-1.858-.752-3.7-1.536-5.576-2.252-5.092-1.949-10.2-3.871-15.294-5.8m30.03-68.739-.24.279c-.572-.17-1.138-.367-1.717-.5a4.612,4.612,0,0,0-2.486-.2c-.464.142-.926.323-.97.879-.05.648.436.891.958,1.024.769.2,1.555.328,2.321.536a4.9,4.9,0,0,0,2.612.292c.5-.134.672.169.823.535.411.995.811,1.994,1.239,2.981.141.326.26.822.732.693s.554-.624.471-1.046a11.356,11.356,0,0,0-.5-1.752,55.275,55.275,0,0,0-2.689-6.022,18.867,18.867,0,0,0-2.1-3.317,5.017,5.017,0,0,0-1.481-1.276c-.485-.263-1.095-.644-1.491-.006-.376.6.277.893.668,1.184,1.967,1.466,2.829,3.64,3.843,5.719m29.645,68.128c3.773-.4,7.569-.328,11.355-.49a14.7,14.7,0,0,0,3.175-.551c.419-.113.851-.293.746-.836-.085-.436-.49-.558-.879-.54-.7.031-1.4.149-2.095.169-4.629.128-9.253.339-13.859.853a8.531,8.531,0,0,0-.971.12c-.33.077-.645.258-.633.645.014.463.357.624.774.627.8.008,1.591,0,2.387,0M375.547,382.4c-.274-.044-.587-.06-.715.254-.141.347.157.515.41.617.609.245,1.228.466,1.85.674a75.472,75.472,0,0,1,13.226,5.51,9.43,9.43,0,0,0,1.026.461,3.794,3.794,0,0,0,.667.217.478.478,0,0,0,.6-.24.525.525,0,0,0-.248-.713c-.117-.076-.25-.128-.373-.194a86.8,86.8,0,0,0-15.881-6.432c-.179-.055-.362-.1-.558-.154" transform="translate(-140.298 -107.787)" fill="#fedb53"/>
              <path id="Trazado_1262220" data-name="Trazado 1262220" d="M423.424,258.716c-3.39,1.9-6.767,3.825-10.171,5.7-7.968,4.383-15.662,9.244-23.69,13.519-.66.352-1.3.744-1.949,1.118a2.035,2.035,0,0,1-.84-1.705c.162-4.428-1.22-8.6-2.086-12.86-1.1-5.413-2.27-10.818-2.913-16.308-.344-2.927-.462-5.882-.626-8.828a41.233,41.233,0,0,0-.652-6.128c.012-.558.058-1.117.031-1.674-.134-2.838-.286-5.676-.289-8.519,0-1.256-.1-2.509-.185-3.764a30.4,30.4,0,0,1-.285-4.594,3.982,3.982,0,0,1,1.352.723c2.089,1.338,3.96,3,6.17,4.158a4.343,4.343,0,0,0-.314,3,1.02,1.02,0,0,1-.34,1.136,5.191,5.191,0,0,0-1.588,3.925,2.087,2.087,0,0,1-.3,1.2,6.505,6.505,0,0,0-.867,3.917,3.741,3.741,0,0,0,2.832,3.749,5.144,5.144,0,0,0,3.98-.2,22.735,22.735,0,0,1,3.65-1.431,25.253,25.253,0,0,0,6.042-2.962c3.656-2.449,7.332-4.873,10.811-7.574-.027,1.328.618,2.527.709,3.843a17.772,17.772,0,0,0,2.023,6.528c2.757,5.641,4.822,11.56,7.133,17.379.707,1.781,1.453,3.547,2.154,5.331.162.411.515.818.215,1.316" transform="translate(-143.395 -81.063)" fill="#e4f0f9"/>
              <path id="Trazado_1262221" data-name="Trazado 1262221" d="M413.7,199.083c-3.48,2.7-7.155,5.125-10.812,7.574a25.24,25.24,0,0,1-6.042,2.963,22.677,22.677,0,0,0-3.65,1.431,5.143,5.143,0,0,1-3.98.2,3.74,3.74,0,0,1-2.832-3.749,6.5,6.5,0,0,1,.868-3.917,2.084,2.084,0,0,0,.3-1.2,5.194,5.194,0,0,1,1.588-3.925,1.018,1.018,0,0,0,.34-1.135,4.348,4.348,0,0,1,.314-3,4.025,4.025,0,0,1,.449-.531,1.137,1.137,0,0,0,.238-1.783,2.78,2.78,0,0,1-.436-1.739,10,10,0,0,1,4.013-7.81l.255-.222.06-.041a.9.9,0,0,0,.772-.583c.262-.709-.321-.889-.739-1.148a3.662,3.662,0,0,1-1.819-3.418,13.438,13.438,0,0,1,2.842-7.639,2.593,2.593,0,0,0,.556-2.051,6.182,6.182,0,0,0-.334-1.215,8.551,8.551,0,0,1-.488-2.889,15.942,15.942,0,0,1,.75-4.618c-1.1-.4-2.15-.787-3.2-1.156-.274-.1-.58-.126-.649.273-.254,1.461-1.333,2.442-2.082,3.615-.251.394-.71.712-.649,1.245a.909.909,0,0,0,.767-.012c.472-.163.97-.267,1.139.372.162.611-.208.956-.754,1.16a4.033,4.033,0,0,1-2.079.188,1.206,1.206,0,0,1-.956-1.958,18.3,18.3,0,0,1,1.181-1.741,15.4,15.4,0,0,0,1.979-3.223c.157-.419.209-.7-.267-.891a7.887,7.887,0,0,0-1.925-.817c-.227-.4-.666-.478-1.031-.675-.782-.42-.921-.861-.4-1.578a16.416,16.416,0,0,1,7.6-5.318,3.806,3.806,0,0,1,2.077-.211c1.285.242,2.557.543,3.824.89a10.831,10.831,0,0,1,5.237,3.608,7.274,7.274,0,0,1,1.847,4.322c.159,2.009.312,4.019.416,6.031a1.109,1.109,0,0,0,.829,1.212,3.5,3.5,0,0,1,2.327,3.5,8.181,8.181,0,0,1-1.285,4.67c-.129.2-.255.395-.363.6-.426.811-.422.843.433,1.153a2.291,2.291,0,0,1,1.094.6,24.811,24.811,0,0,0,2.585,2.924,2.063,2.063,0,0,1,.138,2.5,4.722,4.722,0,0,1-1.224,1.525,3.773,3.773,0,0,0-1.132,2.5c-.072.451.032.772.57.67a7.34,7.34,0,0,1,3.553.6,1.691,1.691,0,0,1,1.275,1.5,4.123,4.123,0,0,1,.042.841c-.047,1.159.006,2.181,1.489,2.514a2.087,2.087,0,0,1,1.323,1.545,4.25,4.25,0,0,1-1.885,4.969c-1.364.82-2.709,1.67-4.062,2.508" transform="translate(-145.899 -55.827)" fill="#522f26"/>
              <path id="Trazado_1262222" data-name="Trazado 1262222" d="M363.159,183.425a10,10,0,0,0-4.013,7.81,2.781,2.781,0,0,0,.436,1.74,1.137,1.137,0,0,1-.238,1.783,4.027,4.027,0,0,0-.449.531c-2.21-1.158-4.081-2.819-6.17-4.158a3.97,3.97,0,0,0-1.352-.722,3.446,3.446,0,0,0-1.227-.913c-3.815-2.267-7.614-4.56-11.354-6.952a8.14,8.14,0,0,0-2.421-1.371c-.054-.319-.325-.435-.556-.586-5.69-3.716-11.23-7.67-17.211-10.93a7.041,7.041,0,0,0-1.707-.622c-2.182-.541-4.357-1.111-6.544-1.634a5.314,5.314,0,0,1-1.979-1.031c-1.071-.814-.921-1.82.32-2.341.194-.082.477.012.622-.434-.958-.5-1.938-1-2.919-1.509-.375-.194-.77-.354-1.126-.576a1.24,1.24,0,0,1-.652-1.537,1.213,1.213,0,0,1,1.493-.746c1.285.259,2.554.593,3.828.9.311.077.6.284.97.139-.019-.439-.4-.571-.673-.772a35.992,35.992,0,0,0-3.663-2.36,1.246,1.246,0,0,1,.639-2.375,4.461,4.461,0,0,1,1.192.4c1.243.55,2.471,1.135,3.717,1.679.369.161.711.486,1.237.3.086-.419-.242-.644-.471-.894a20.281,20.281,0,0,1-2.671-3.437,5.3,5.3,0,0,1-.41-.735c-.4-1.028.223-1.791,1.326-1.647a3.568,3.568,0,0,1,1.808,1.026,21.27,21.27,0,0,0,3.666,2.6,1.372,1.372,0,0,0,.772.283c.3-.5.1-1.026.193-1.52.176-.958.616-1.555,1.28-1.675A1.679,1.679,0,0,1,320.6,152.3c.571,1.283,1.082,2.6,1.534,3.927a5.278,5.278,0,0,0,1.613,2.4,31.358,31.358,0,0,0,7.085,4.768,98.931,98.931,0,0,1,14.409,8.2,1.757,1.757,0,0,0,1.036.373.623.623,0,0,0,.179.634,13.747,13.747,0,0,0,3.765,2.239,26.163,26.163,0,0,1,1.881-8.384,35.5,35.5,0,0,1,3.894-7.6,2.992,2.992,0,0,1,.268.526c.128.629.492.893,1.114.708.489-.146.866-.469.792-1.011-.088-.636-.563-.807-1.154-.711l-.555.089c-.05-.05-.1-.1-.151-.146q.153-.417.307-.834l.9-.822a7.863,7.863,0,0,1,1.925.817c.475.194.424.472.267.891a15.4,15.4,0,0,1-1.979,3.223,18.3,18.3,0,0,0-1.181,1.741,1.206,1.206,0,0,0,.956,1.958,4.033,4.033,0,0,0,2.079-.188c.546-.2.915-.55.754-1.16-.169-.639-.667-.535-1.139-.372a.909.909,0,0,1-.767.012c-.061-.533.4-.851.649-1.245.749-1.173,1.828-2.153,2.082-3.615.069-.4.375-.369.648-.273,1.055.37,2.1.757,3.2,1.156a15.942,15.942,0,0,0-.75,4.618,8.547,8.547,0,0,0,.488,2.888,6.2,6.2,0,0,1,.334,1.216,2.593,2.593,0,0,1-.556,2.051,13.438,13.438,0,0,0-2.842,7.639,3.662,3.662,0,0,0,1.819,3.418c.419.258,1,.439.739,1.148H363.4a1.485,1.485,0,0,0-.214-.5A19.478,19.478,0,0,0,360.1,179.7a1.88,1.88,0,0,0-1.8,0c1.772.88,3.346,2.034,5.1,2.865l.065.6-.06.041a.261.261,0,0,0-.255.222m-5.72-15.008a3.242,3.242,0,0,0,2.763-1.052c.3-.338.536-.689.149-1.1a.644.644,0,0,0-1,.024,2.615,2.615,0,0,1-2.1.566,3.708,3.708,0,0,1-2.03-.436.65.65,0,0,0-.981.179c-.251.4-.019.711.258.99a2.042,2.042,0,0,0,.976.536,6.771,6.771,0,0,0,1.961.294m.393,2.849c.138,0,.276.006.414,0,.441-.021.881-.122.9-.645s-.4-.668-.85-.693a4.566,4.566,0,0,0-.69-.006c-.507.05-1.289-.217-1.312.576-.019.687.691.738,1.257.768.092.005.185,0,.277,0m5.219-10.454a.913.913,0,0,0-.9-.856.97.97,0,0,0-.98.963,1.049,1.049,0,0,0,.973.995,1.1,1.1,0,0,0,.908-1.1m-49.259-3.489c-.031-.029-.063-.081-.094-.081s-.062.052-.094.081l.141.087.047-.087" transform="translate(-115.001 -56.8)" fill="#dd7d61"/>
              <path id="Trazado_1262223" data-name="Trazado 1262223" d="M452.239,447.186c4.959-.025,9.916-.041,14.875-.079,2.335-.018,4.672-.079,7.008-.12,1.484,5.216,1.905,10.6,2.588,15.949.314,2.465.623,4.93,1.088,7.375.363,1.911.152,2.16-1.751,2.208q-11.605.288-23.214.545-7.316.162-14.632.278c-.694.012-1.431.126-1.993-.449-.813-.832-1.817-1.519-2.177-2.709a2.223,2.223,0,0,1,.324-2.017c1.806-2.452,3.334-5.112,5.466-7.321a14.291,14.291,0,0,1,2.425-2.134,2.251,2.251,0,0,1,3.177.235,33.338,33.338,0,0,1,3.32,3.632,4.1,4.1,0,0,0,3.014,1.532,31.86,31.86,0,0,1,3.183.552c1.052.171,1.149.076.912-1-.576-2.61-1.176-5.214-1.779-7.817-.667-2.876-1.383-5.741-1.832-8.664" transform="translate(-163.856 -168.789)" fill="#0a4666"/>
              <path id="Trazado_1262224" data-name="Trazado 1262224" d="M358.9,444.21c5.1,1.933,10.2,3.854,15.294,5.8,1.872.716,3.718,1.5,5.576,2.252-1.054,3.757-2.748,7.273-4.123,10.908-.962,2.541-1.911,5.088-2.881,7.627-.482,1.258-.5,1.253-1.8,1.253l-32.641-.008c-.328,0-.657.007-.985-.005-.965-.034-1.039-.091-1.132-1.025a16.486,16.486,0,0,1,2.892-11.467,8.21,8.21,0,0,1,1.684-1.879,3.945,3.945,0,0,1,4.479-.4,13.842,13.842,0,0,1,2.96,2.354,3.039,3.039,0,0,0,2.574,1.153,1.419,1.419,0,0,0,1.343-.965c1.926-4.782,4.311-9.367,6.094-14.21.177-.482.444-.931.668-1.395" transform="translate(-126.92 -167.741)" fill="#0a4666"/>
              <path id="Trazado_1262225" data-name="Trazado 1262225" d="M352.437,199.832a8.135,8.135,0,0,1,2.422,1.371c3.739,2.392,7.538,4.685,11.354,6.952a3.451,3.451,0,0,1,1.227.913,30.487,30.487,0,0,0,.284,4.594c.082,1.255.185,2.508.186,3.764,0,2.844.155,5.681.29,8.519.026.556-.019,1.116-.031,1.674a67.606,67.606,0,0,1-12.618-.184,16.768,16.768,0,0,1-5.16-1.723c-2.6-1.241-3.383-3.867-2.231-6.85.15-.39.342-.762.515-1.141-2.582-3.2-2.012-6.4,1.695-9.5-.383-.574-.816-1.123-1.142-1.73-1.542-2.874-.54-5.381,2.546-6.436l.665-.223" transform="translate(-131.065 -75.46)" fill="#522f26"/>
              <path id="Trazado_1262226" data-name="Trazado 1262226" d="M381.776,162.741l.555-.089c.591-.1,1.066.075,1.153.711.075.543-.3.866-.792,1.011-.622.185-.986-.079-1.114-.708a2.9,2.9,0,0,0-.268-.526,35.579,35.579,0,0,0-3.894,7.6,26.184,26.184,0,0,0-1.881,8.384,13.77,13.77,0,0,1-3.765-2.239.625.625,0,0,1-.179-.634,8.5,8.5,0,0,0,2.622-1.6,2.84,2.84,0,0,0,.954-2.244c-.047-1.217-.006-2.436,0-3.655a5.093,5.093,0,0,1,2-4.153c1.458-1.162,2.847-2.45,4.766-2.841l-.307.834c-.116.085-.226.178-.05.3.022.016.131-.1.2-.151" transform="translate(-140.314 -61.084)" fill="#58332a"/>
              <path id="Trazado_1262227" data-name="Trazado 1262227" d="M417.7,329.367c-1.014-2.079-1.876-4.253-3.843-5.719-.391-.291-1.044-.579-.668-1.184.4-.637,1.006-.257,1.491.006a5.018,5.018,0,0,1,1.481,1.276,18.866,18.866,0,0,1,2.1,3.317,55.273,55.273,0,0,1,2.689,6.022,11.355,11.355,0,0,1,.5,1.752c.083.422,0,.918-.471,1.046s-.591-.368-.732-.693c-.428-.987-.828-1.987-1.239-2.981-.151-.367-.324-.67-.823-.535a4.9,4.9,0,0,1-2.612-.292c-.766-.208-1.552-.339-2.321-.536-.522-.134-1.008-.377-.958-1.024.044-.557.506-.738.97-.88a4.613,4.613,0,0,1,2.486.2c.579.138,1.145.334,1.717.5l.24-.279" transform="translate(-155.683 -121.636)" fill="#4c7681"/>
              <path id="Trazado_1262228" data-name="Trazado 1262228" d="M466.7,441.762c-.8,0-1.591.006-2.388,0-.416,0-.759-.164-.773-.627-.012-.388.3-.569.633-.645a8.495,8.495,0,0,1,.97-.12c4.606-.515,9.229-.726,13.859-.853.7-.019,1.4-.138,2.095-.169.388-.017.794.1.879.54.105.543-.327.724-.746.836a14.692,14.692,0,0,1-3.175.551c-3.785.162-7.581.087-11.355.49" transform="translate(-175.038 -165.903)" fill="#4b7681"/>
              <path id="Trazado_1262229" data-name="Trazado 1262229" d="M377.524,441.209c.2.054.379.1.558.154a86.8,86.8,0,0,1,15.881,6.432c.123.067.256.118.373.194a.525.525,0,0,1,.248.713.478.478,0,0,1-.6.24,3.792,3.792,0,0,1-.667-.217,9.432,9.432,0,0,1-1.026-.461,75.475,75.475,0,0,0-13.226-5.51c-.622-.208-1.242-.429-1.85-.674-.253-.1-.551-.27-.41-.617.128-.314.441-.3.715-.254" transform="translate(-142.276 -166.598)" fill="#537980"/>
              <path id="Trazado_1262230" data-name="Trazado 1262230" d="M399.182,202.669l-.065-.6-.014.014h.851a.9.9,0,0,1-.772.583" transform="translate(-150.708 -76.306)" fill="#65382d"/>
              <path id="Trazado_1262231" data-name="Trazado 1262231" d="M398.724,203.318a.26.26,0,0,1,.255-.222l-.255.222" transform="translate(-150.565 -76.692)" fill="#65382d"/>
              <path id="Trazado_1262232" data-name="Trazado 1262232" d="M387.528,177.894a6.775,6.775,0,0,1-1.961-.294,2.047,2.047,0,0,1-.976-.536c-.278-.278-.509-.589-.258-.99a.65.65,0,0,1,.982-.179,3.7,3.7,0,0,0,2.029.436,2.615,2.615,0,0,0,2.1-.566.644.644,0,0,1,1-.024c.387.412.154.763-.149,1.1a3.242,3.242,0,0,1-2.763,1.052" transform="translate(-145.09 -66.277)" fill="#5e3429"/>
              <path id="Trazado_1262233" data-name="Trazado 1262233" d="M396.03,200.193c-1.755-.831-3.329-1.985-5.1-2.865a1.88,1.88,0,0,1,1.8,0,19.478,19.478,0,0,1,3.077,2.379,1.486,1.486,0,0,1,.214.5Z" transform="translate(-147.621 -74.426)" fill="#65382d"/>
              <path id="Trazado_1262234" data-name="Trazado 1262234" d="M389.233,183.091c-.092,0-.184,0-.276,0-.566-.03-1.277-.082-1.257-.768.022-.792.8-.526,1.311-.576a4.494,4.494,0,0,1,.691.007c.45.025.871.166.849.693s-.462.625-.9.646c-.138.006-.276,0-.414,0" transform="translate(-146.402 -68.626)" fill="#65382d"/>
              <path id="Trazado_1262235" data-name="Trazado 1262235" d="M397.409,166.6a1.1,1.1,0,0,1-.907,1.1,1.05,1.05,0,0,1-.973-1,.97.97,0,0,1,.98-.963.912.912,0,0,1,.9.856" transform="translate(-149.358 -62.586)" fill="#65382d"/>
              <path id="Trazado_1262236" data-name="Trazado 1262236" d="M319.291,161.464l-.047.087-.141-.087c.032-.029.063-.081.094-.081s.063.052.094.081" transform="translate(-120.498 -60.941)" fill="#fff"/>
              <path id="Trazado_1262237" data-name="Trazado 1262237" d="M387.785,163.247c-.069.054-.178.166-.2.151-.176-.119-.066-.212.05-.3.051.048.1.1.151.146" transform="translate(-146.323 -61.59)" fill="#dd7d61"/>
              <path id="Trazado_1262238" data-name="Trazado 1262238" d="M240.314,549.132l32.255-.019c1.356,0,2.712-.009,4.067.006,1.12.012,1.088.036,1.414,1.074a9.178,9.178,0,0,1,.391,2.761c.032,9.91.138,19.821.079,29.731a112.908,112.908,0,0,0,.945,13.553q.392,3.411.771,6.825a20.364,20.364,0,0,0-3.444,5.427c-.442,1.034-1.126.667-2.264.66-8.129-.051-16.259-.017-24.387-.034-1.351,0-2.7-.116-4.052-.179-.479-2.66-1.054-5.3-1.312-8a34.619,34.619,0,0,1-.185-3.491q.052-9.518.085-19.035c0-.494.178-1.032-.207-1.479.537-1.87.695-3.851,1.692-5.588.258-.45.723-.971.164-1.507-.324-.311-.77.045-1.29.946a11.88,11.88,0,0,0-1.5,5.324c-.026.451-.14.691-.529.838-2.893.12-5.789.2-8.68.368-4.525.266-9.051.467-13.584.523q-7.569.094-15.139.2c-1.332.019-1.366.03-1.587,1.34-.668,3.96-1.354,7.915-1.856,11.9-.525,4.17-1.313,8.3-2.065,12.435-.342,1.882-.391,3.8-.871,5.671a1.557,1.557,0,0,1-1.374,1.328,13.372,13.372,0,0,1-2.511.185c-8.179,0-16.359.094-24.536-.029-5.661-.086-11.3.171-16.952.4-5.188.208-10.373.119-15.558.09-3.831-.022-7.663-.125-11.493-.233-1.913-.054-3.818-.242-5.722-.439-.795-.082-.878-.405-.847-1.07a18.257,18.257,0,0,1,.7-3.708c.125-.484.418-.95.207-1.483l-.012.019c.255.035,1.249-3.945,1.672-5.783a12.291,12.291,0,0,0,.586-3.253,30.57,30.57,0,0,0,1.024-4.978,58.239,58.239,0,0,0,1.256-6.739,1.243,1.243,0,0,1,1.163-1.272,8.632,8.632,0,0,1,1.529-.126q15.205-.032,30.411-.057c1.67,0,1.647-.008,1.975-1.682.53-2.7,1.172-5.384,1.627-8.1a143.061,143.061,0,0,0,2.308-16.917c.011-.232.064-.462.1-.693.607-.011,1.214-.032,1.821-.032l72.061-.021a13.3,13.3,0,0,0,1.4-.039c1.133-.121,1.372-.419,1.242-1.548-.043-.368-.182-.723-.259-1.087a22.9,22.9,0,0,1-.729-2.986M206.54,569.625c-.265-.418-.052-.7.06-1a42.851,42.851,0,0,1,3.256-6.658c.192-.32.4-.63.589-.952a.527.527,0,0,0-.093-.751.619.619,0,0,0-.777.044,3.525,3.525,0,0,0-.956,1.189,43.3,43.3,0,0,0-4.715,11.187c-.354,1.3-.607,2.635-.9,3.955-.083.372-.179.818.277.963.552.177.712-.331.848-.711a5.587,5.587,0,0,0,.386-1.487c.165-2.584,1.775-4.088,3.834-5.29a15.145,15.145,0,0,1,2.115-1.083q2.543-.992,5.082-1.992c.347-.137.7-.273,1.031-.436.258-.125.5-.316.423-.643a.661.661,0,0,0-.754-.483,4.956,4.956,0,0,0-1.618.419c-2.777,1.064-5.636,1.949-8.084,3.726M168.16,588.163c.578.038,1.007-.018,1.107-.541.09-.474-.293-.645-.655-.752a6.306,6.306,0,0,1-1.125-.513,8.538,8.538,0,0,1-2.981-3.048c-.21-.308-.5-.636-.916-.421-.485.252-.359.7-.168,1.089a9.788,9.788,0,0,0,2.264,2.968,4.9,4.9,0,0,0,2.475,1.218m-6.514-2.44c-.037-.726-.039-1.332-.11-1.932-.053-.443.3-1.2-.51-1.186-.69.011-.573.711-.607,1.206-.009.139,0,.279,0,.419a24.032,24.032,0,0,1-.449,5.132,2.026,2.026,0,0,0-.042.69.585.585,0,0,0,.533.554.537.537,0,0,0,.56-.333,4.172,4.172,0,0,0,.247-.793,16.917,16.917,0,0,0,.385-3.756M248.023,575.6a2.83,2.83,0,0,0,.453-.167q2.319-1.269,4.63-2.554a2.653,2.653,0,0,0,.549-.423c.241-.235.444-.518.212-.855s-.566-.236-.869-.08a39.756,39.756,0,0,0-4.734,2.645,1.463,1.463,0,0,0-.705.827c-.075.325.039.542.465.606" transform="translate(-45.398 -207.353)" fill="#0a4666"/>
              <path id="Trazado_1262239" data-name="Trazado 1262239" d="M257.88,506.1a22.908,22.908,0,0,0,.729,2.986c.077.364.217.72.259,1.087.129,1.13-.11,1.427-1.242,1.548a13.276,13.276,0,0,1-1.4.039q-36.03.011-72.061.021c-.607,0-1.214.021-1.821.031a16.158,16.158,0,0,1-1.808-.133c-.982-.178-1.235-.6-1.033-1.575,1.075-5.192,2.2-10.373,3.474-15.52a33.76,33.76,0,0,1,2.079-5.774c.569-1.062,1.168-2.11,1.7-3.192a12.587,12.587,0,0,0,1.529-3.241,4.1,4.1,0,0,0-1.468-.018c-1.211-.019-2.422-.052-3.633-.057-3.729-.014-7.459-.039-11.189-.015a6.666,6.666,0,0,1-3.565-1.059,3.3,3.3,0,0,1-1.685-3.009c-.021-2.528.419-5.006.632-7.509.375-4.407,1.555-8.7,1.693-13.143a35.441,35.441,0,0,1,.533-3.869,9.513,9.513,0,0,0,.962-.132c2.879-.686,5.663-1.714,8.562-2.34a4.369,4.369,0,0,0,2.467-1.145l2.47-.565a8.016,8.016,0,0,1,.308,2.249c0,2.607.091,5.216-.011,7.818-.082,2.089-.272,4.174-.276,6.268,0,1.318.045,1.337,1.321,1.2,2.124-.233,4.253-.428,6.379-.637a84.284,84.284,0,0,0,10.3-2.123c.128.248.239.507.385.744a15.191,15.191,0,0,0,3.808,4.756,12.97,12.97,0,0,0,3.939,2.06c.694.2,1.1.461,1.2,1.278a2.67,2.67,0,0,0,2.244,2.377,3.394,3.394,0,0,0,3.019-.727,11.257,11.257,0,0,0,1.764-1.785,3.449,3.449,0,0,1,1.5-1.174c3.42-1.482,5.094-4.193,5.474-7.808a25.78,25.78,0,0,0,7.392-.747c1.651-.3,3.31-.551,4.95-.9,2.735-.577,5.5-.984,8.219-1.664a1.325,1.325,0,0,0,.914-.534,9.02,9.02,0,0,0,1.727-3.638c.368-2.679,1.207-5.286,1.363-7.988a62.8,62.8,0,0,1,.945-7.347,7.4,7.4,0,0,1,.5-1.883,3.936,3.936,0,0,0,2.581-.113c2.941-.7,5.7-2.032,8.705-2.523a1.278,1.278,0,0,0,1.1-1.522c1.749.171,2.5.934,2.473,2.9-.037,2.753-.158,5.507-.344,8.253-.077,1.122-.12,2.24-.1,3.358a59.185,59.185,0,0,1-.551,8.237c-.15,1.252-.206,2.519-.253,3.772-.1,2.659-.512,5.3-.389,7.973.019.419.007.842-.012,1.262a6.008,6.008,0,0,1-2.871,5.115,87.291,87.291,0,0,1-9.475,5.425c-1.9.934-1.834.941-1.224,2.911,1.185,3.835,2.3,7.691,3.452,11.536.268.892.559,1.781.891,2.652a13.487,13.487,0,0,1,.8,2.823,14.368,14.368,0,0,0,1.654,4.726m4.22-50.005a.311.311,0,0,0-.416-.251,2.249,2.249,0,0,0-1.036.68,54.555,54.555,0,0,1-6.28,4.864,9.647,9.647,0,0,0-.894.664c-.283.245-.6.536-.253.934.293.334.584.093.853-.1.795-.567,1.6-1.125,2.386-1.7a38.075,38.075,0,0,0,5.112-4.311c.22-.23.512-.415.53-.782m-78.841,13.426a9.884,9.884,0,0,0,.728,3.572c.126.292.256.685.667.565.5-.146.339-.584.266-.938-.047-.226-.159-.438-.214-.663a9.653,9.653,0,0,1-.408-1.9c-.021-.65-.782-1.009-.518-1.78.124-.364-.41-.523-.785-.137a11.872,11.872,0,0,0-2.8,3.955c-.131.34-.371.75.075.986.462.244.643-.205.822-.515.138-.24.208-.519.338-.765a7.8,7.8,0,0,1,1.833-2.379m5.826,9.2c-.477-.321-.56-.708-.779-.991-.207-.266-.309-.822-.789-.576-.457.235-.136.635-.02.976.355,1.042,1.542,1.728,1.249,3.071-.057.26.4.327.635.07a2,2,0,0,0,.321-.91c.334-1.211.667-2.422,1.019-3.627.157-.535.37-1.054.535-1.588.118-.38.445-.9-.044-1.115-.549-.236-.584.416-.759.754a4.913,4.913,0,0,0-.246.652c-.362,1.053-.721,2.107-1.122,3.282m59.3-3.877a54.311,54.311,0,0,0,.987,5.662.708.708,0,0,0,.187.365.537.537,0,0,0,.357.136c.159-.007.219-.171.227-.307a2.6,2.6,0,0,0-.039-.551q-.456-2.818-.92-5.636a.872.872,0,0,0-.132-.387.452.452,0,0,0-.329-.181.409.409,0,0,0-.284.248,3.515,3.515,0,0,0-.054.651m2.844,4.462c.082-.037.215-.055.238-.115.5-1.3,1-2.605,1.47-3.918a.331.331,0,0,0-.3-.4.418.418,0,0,0-.441.278,19.641,19.641,0,0,0-1.319,3.533.828.828,0,0,0,.025.41.317.317,0,0,0,.323.212m-.648-15.861c-.045-.088-.075-.253-.172-.319q-1.088-.745-2.2-1.451a.36.36,0,0,0-.494.109.441.441,0,0,0-.05.518A4,4,0,0,0,250,463.93c.286.085.537-.1.581-.489" transform="translate(-62.964 -164.321)" fill="#ffdb52"/>
              <path id="Trazado_1262240" data-name="Trazado 1262240" d="M217.275,468.724a84.312,84.312,0,0,1-10.3,2.123,31.107,31.107,0,0,1,2-4.918c1.265-2.7,2.591-5.38,3.82-8.1a22.17,22.17,0,0,1,8.67-9.461,5.507,5.507,0,0,1,3.858-.94,2.872,2.872,0,0,0,1.506-.2,6,6,0,0,1,3.437-.154c3.134.59,5.522,2.424,7.7,4.563a26.938,26.938,0,0,1,5.208,7.062c1.543,3.032,3.053,6.089,4.827,9a25.779,25.779,0,0,1-7.392.747,21.579,21.579,0,0,0,.289-4.454,13.3,13.3,0,0,0-1.482-6.193,1.3,1.3,0,0,0-1.147-.875,6.793,6.793,0,0,1-2.914-.926c-2.414-1.5-4.853-2.987-6.589-5.338-.319-.431-.716-.8-1.085-1.213a1.8,1.8,0,0,0-.247.306,14.784,14.784,0,0,1-6.122,7.231c-1.071.662-2.17,1.281-3.215,1.98-.643.43-1.364.84-1.406,1.784-.044.977-.157,1.95-.2,2.926a9.363,9.363,0,0,0,.776,5.048" transform="translate(-78.156 -168.757)" fill="#553128"/>
              <path id="Trazado_1262241" data-name="Trazado 1262241" d="M364.68,647.715a3.706,3.706,0,0,1,1.891,3.633A2.182,2.182,0,0,1,365.3,653.2a6.024,6.024,0,0,1-2.872.448c-1.866-.012-3.732-.068-5.6-.05-7,.064-14,.084-21-.044a22.308,22.308,0,0,1-5.11-.708,4.558,4.558,0,0,1-3.874-4.639c-.054-.791-.057-1.586-.084-2.378.32-.592.888-.412,1.373-.413q12.1-.014,24.19-.008c.233,0,.958-.039,1.189-.018.722.065.3.249-.115.9-.151.235-.343.444-.485.683-.38.64-.774,1.275-1.1,1.942-.161.326-.254.785.151,1,.5.269.608-.228.772-.541a30.844,30.844,0,0,1,2.661-3.924l2.5.069c-.115.392-.235.783-.344,1.176-.293,1.058-.2,1.179.973,1.318-.174.324-.365.64-.517.974s-.34.773.057,1c.471.263.749-.151.968-.517.189-.316.346-.652.543-.963a10.159,10.159,0,0,1,1.484-2.314l2.108.622c.284,1.3.284,1.3,1.512.9" transform="translate(-123.391 -243.709)" fill="#445130"/>
              <path id="Trazado_1262242" data-name="Trazado 1262242" d="M181.41,450.651a4.363,4.363,0,0,1-2.467,1.145c-2.9.626-5.683,1.654-8.562,2.34a9.528,9.528,0,0,1-.962.132,2.086,2.086,0,0,1-.99-1.453,67.284,67.284,0,0,1-2.027-9.432,20.316,20.316,0,0,1-.133-2.936,3.342,3.342,0,0,1,.055-.557c.1-.527.271-1.019.917-1.068a1.04,1.04,0,0,1,1.115.86c.262.8.51,1.6.8,2.392a2.011,2.011,0,0,0,.719,1.195c-.076-1.228-.154-2.307-.205-3.386-.029-.606-.037-1.215-.014-1.821.035-.917.428-1.426,1.03-1.4.546.026.932.5.957,1.333a10.857,10.857,0,0,0,.289,2.218,1.636,1.636,0,0,0,.549,1c0-.565-.018-1,0-1.425.047-.944.484-1.488,1.15-1.466.627.02,1,.5,1.087,1.387.092.927.191,1.853.286,2.772.471.082.448-.278.532-.5a12.349,12.349,0,0,1,.4-1.192,1.321,1.321,0,0,1,1.442-.881c.739.129.727.744.735,1.316a13.212,13.212,0,0,0,.135,3.069,6.546,6.546,0,0,0,1.094,2.547,21.67,21.67,0,0,1,2.066,3.809" transform="translate(-62.784 -164.891)" fill="#df7f63"/>
              <path id="Trazado_1262243" data-name="Trazado 1262243" d="M111.479,615.5a30.571,30.571,0,0,1-1.024,4.978,12.936,12.936,0,0,0-2.185,1.508,45.1,45.1,0,0,1-7,5.1,15.331,15.331,0,0,0-2.481,1.567,63.855,63.855,0,0,1-7.569,5.745,10.206,10.206,0,0,1-3.734,1.779c-1.44-.437-1.932-1.3-1.107-2.445,2.043-2.839,4.116-5.762,6.969-7.785,4.332-3.073,8.924-5.782,13.5-8.49a28.349,28.349,0,0,1,4.631-1.954" transform="translate(-32.466 -232.422)" fill="#ffda50"/>
              <path id="Trazado_1262244" data-name="Trazado 1262244" d="M314.272,430.775a1.277,1.277,0,0,1-1.1,1.522c-3,.491-5.764,1.82-8.705,2.523a3.936,3.936,0,0,1-2.581.113c-.13-.3-.377-.6-.373-.891.03-2.177-.963-4.166-1.11-6.306-.012-.185-.052-.37-.058-.556a1.391,1.391,0,0,1,.9-1.557,1.467,1.467,0,0,1,1.637.782,13.155,13.155,0,0,1,.64,1.49,2.041,2.041,0,0,0,1.076-.368,41.114,41.114,0,0,1,7.635-2.664c1.306-.321,2.582-.772,3.867-1.174.565-.177,1.111-.256,1.523.284a1.529,1.529,0,0,1-.052,1.713,2.6,2.6,0,0,1-.835.928c-.521.392-1.045.781-1.585,1.146-1.342.907-1.471,1.328-.878,3.015" transform="translate(-113.414 -159.942)" fill="#df7f63"/>
              <path id="Trazado_1262245" data-name="Trazado 1262245" d="M88.4,639.193a10.214,10.214,0,0,0,3.735-1.779,63.956,63.956,0,0,0,7.569-5.745,15.326,15.326,0,0,1,2.481-1.567,45.138,45.138,0,0,0,7-5.1,12.9,12.9,0,0,1,2.185-1.508,12.291,12.291,0,0,1-.586,3.253,43.443,43.443,0,0,1-1.429,5.476c-.1.328-.231.288-.231.288-.491.065-1.1.47-1.69.567a4.462,4.462,0,0,0-.511-2.431c-.247-.345-.592-.541-.96-.328-.405.235-.108.534.04.826a2.318,2.318,0,0,1-.492,3.009l-2.306.968c-.159-.434-.294-.878-.482-1.3a1.8,1.8,0,0,0-.936-.983c-.264-.11-.577-.145-.747.136-.135.223.006.446.215.588a1.991,1.991,0,0,1,.848,2.06l-3.729,1.316a1.933,1.933,0,0,0-1.329.462c-1.735.555-3.46,1.144-5.208,1.652a5.25,5.25,0,0,1-3.438.134" transform="translate(-33.381 -235.442)" fill="#445130"/>
              <path id="Trazado_1262246" data-name="Trazado 1262246" d="M373.641,644.392c-1.174-.139-1.266-.26-.972-1.318.108-.394.228-.784.344-1.176a7.343,7.343,0,0,0,.5-4.005.249.249,0,0,0-.421-.141,14.132,14.132,0,0,0-2.57,4.077,30.719,30.719,0,0,0-2.661,3.924c-.165.313-.271.81-.772.541-.4-.217-.311-.676-.151-1,.327-.667.72-1.3,1.1-1.942.143-.24.335-.449.485-.683a11.216,11.216,0,0,0,1.431-2.122,16.794,16.794,0,0,1,3.4-4.75c1.578-.019,1.618.032,1.639,1.611a18.5,18.5,0,0,1-.436,3.134c-.078.49-.331.989.176,1.4.17,1.052-.518,1.724-1.083,2.452" transform="translate(-138.508 -240.085)" fill="#f9e4aa"/>
              <path id="Trazado_1262247" data-name="Trazado 1262247" d="M377.371,644.706c.565-.728,1.253-1.4,1.083-2.452.759-1.045,1.507-2.1,2.28-3.133a8.477,8.477,0,0,1,2.315-2.178,1.812,1.812,0,0,1,.9-.317c.87-.038,1.21.214,1.207,1.106a11.532,11.532,0,0,1-.934,4.446,5.131,5.131,0,0,0-.7,2.226c-1.229.4-1.229.4-1.513-.9a9.263,9.263,0,0,0,1.784-5.479,12.292,12.292,0,0,0-3.891,4.857,10.183,10.183,0,0,0-1.485,2.314c-.2.311-.354.647-.543.964-.218.366-.5.78-.967.517-.4-.222-.212-.658-.057-1s.342-.65.517-.974" transform="translate(-142.238 -240.399)" fill="#ffeeb4"/>
              <path id="Trazado_1262248" data-name="Trazado 1262248" d="M102.29,641.493a1.932,1.932,0,0,1,1.329-.462,1.79,1.79,0,0,0,2.182.8,2.287,2.287,0,0,0,1.547-2.112,1.991,1.991,0,0,0-.848-2.06c-.209-.143-.35-.365-.215-.588.17-.281.482-.246.746-.136a1.8,1.8,0,0,1,.936.983c.188.421.324.865.483,1.3-.213.449-.239.875.418.738a2.227,2.227,0,0,0,1.888-1.707,2.318,2.318,0,0,0,.492-3.009c-.148-.292-.446-.591-.04-.827.368-.213.713-.017.96.328a4.461,4.461,0,0,1,.51,2.431,6.967,6.967,0,0,1-1.614,2.889,3.927,3.927,0,0,1-2.245,1.295,2.474,2.474,0,0,0-1.481.709,2.79,2.79,0,0,1-3.561.57c-.56-.273-1.294-.365-1.488-1.136" transform="translate(-38.626 -239.529)" fill="#ffebaf"/>
              <path id="Trazado_1262249" data-name="Trazado 1262249" d="M317.5,589.452c.388-.147.5-.388.529-.838a11.877,11.877,0,0,1,1.5-5.325c.52-.9.965-1.257,1.29-.945.559.536.093,1.057-.164,1.507-1,1.737-1.155,3.718-1.692,5.588l-1.465.014" transform="translate(-119.893 -219.861)" fill="#ece8c7"/>
              <path id="Trazado_1262250" data-name="Trazado 1262250" d="M197.922,510.965a4.087,4.087,0,0,1,1.468.018,12.587,12.587,0,0,1-1.529,3.241c-.532,1.081-1.13,2.13-1.7,3.192a4.944,4.944,0,0,1,.453-2.029c.5-1.454.945-2.926,1.306-4.422" transform="translate(-74.071 -192.927)" fill="#6c4936"/>
              <path id="Trazado_1262251" data-name="Trazado 1262251" d="M256.721,576.321c2.448-1.777,5.306-2.663,8.084-3.727a4.979,4.979,0,0,1,1.618-.418.661.661,0,0,1,.755.483c.076.327-.165.518-.423.644-.335.162-.683.3-1.03.435q-2.54,1-5.082,1.992a15.16,15.16,0,0,0-2.115,1.084c-2.059,1.2-3.67,2.706-3.834,5.29a5.593,5.593,0,0,1-.387,1.487c-.136.38-.3.888-.848.711-.456-.146-.36-.592-.277-.963.3-1.32.549-2.651.9-3.955A43.326,43.326,0,0,1,258.8,568.2a3.52,3.52,0,0,1,.956-1.189.619.619,0,0,1,.777-.044.528.528,0,0,1,.093.751c-.189.322-.4.631-.589.952a42.794,42.794,0,0,0-3.256,6.658c-.113.294-.326.581-.06,1" transform="translate(-95.579 -214.049)" fill="#ece8c7"/>
              <path id="Trazado_1262252" data-name="Trazado 1262252" d="M194.267,608.615a4.892,4.892,0,0,1-2.474-1.218,9.782,9.782,0,0,1-2.265-2.968c-.191-.393-.317-.837.168-1.089.413-.215.706.113.916.421a8.539,8.539,0,0,0,2.981,3.048,6.268,6.268,0,0,0,1.125.513c.362.107.744.279.655.752-.1.522-.528.578-1.107.54" transform="translate(-71.505 -227.805)" fill="#ece8c7"/>
              <path id="Trazado_1262253" data-name="Trazado 1262253" d="M185.726,606.044a16.918,16.918,0,0,1-.385,3.756,4.2,4.2,0,0,1-.247.793.537.537,0,0,1-.56.334.586.586,0,0,1-.532-.555,2.042,2.042,0,0,1,.042-.69,24.029,24.029,0,0,0,.449-5.132c0-.139,0-.279,0-.418.034-.495-.083-1.2.607-1.206.81-.012.458.744.511,1.186.071.6.072,1.206.11,1.931" transform="translate(-69.477 -227.675)" fill="#ece8c7"/>
              <path id="Trazado_1262254" data-name="Trazado 1262254" d="M325.267,589.109c-.426-.065-.54-.281-.465-.606a1.463,1.463,0,0,1,.705-.827,39.769,39.769,0,0,1,4.734-2.645c.3-.157.631-.264.869.08s.029.62-.212.855a2.656,2.656,0,0,1-.549.423q-2.31,1.288-4.63,2.554a2.832,2.832,0,0,1-.453.167" transform="translate(-122.642 -220.861)" fill="#ece8c7"/>
              <path id="Trazado_1262255" data-name="Trazado 1262255" d="M223.037,470.269a9.363,9.363,0,0,1-.776-5.048c.039-.977.152-1.95.2-2.926.043-.945.763-1.355,1.406-1.785,1.046-.7,2.144-1.318,3.215-1.98A14.789,14.789,0,0,0,233.2,451.3a1.846,1.846,0,0,1,.246-.306c.369.409.767.782,1.085,1.213,1.736,2.35,4.175,3.835,6.589,5.338a6.8,6.8,0,0,0,2.913.925,1.3,1.3,0,0,1,1.147.875,13.294,13.294,0,0,1,1.482,6.193,21.533,21.533,0,0,1-.289,4.454c-.38,3.615-2.053,6.327-5.474,7.808a3.461,3.461,0,0,0-1.5,1.174,11.153,11.153,0,0,1-1.764,1.785,3.39,3.39,0,0,1-3.019.727,2.671,2.671,0,0,1-2.244-2.377c-.1-.817-.507-1.079-1.2-1.278a12.956,12.956,0,0,1-3.939-2.06,15.189,15.189,0,0,1-3.808-4.756c-.146-.237-.258-.5-.385-.744m14.358-8.937c-.446.245-.906.469-1.335.741-.362.23-.7.516-.447,1.024.3.6.749.419,1.182.186,1.271-.686,2.548-1.363,3.8-2.085a3.206,3.206,0,0,0,.925-.838,1.059,1.059,0,0,0-.807-1.8,3.154,3.154,0,0,0-1.371.2c-1.054.369-2.135.649-3.182,1.048-1.024.391-1.343.116-1.348-.983,0-1.072.027-2.144.035-3.216a8.68,8.68,0,0,0-.039-.978c-.035-.334-.133-.681-.538-.7s-.54.3-.571.649a40.651,40.651,0,0,0-.245,5.161,1.564,1.564,0,0,0,1.612,1.581,3.869,3.869,0,0,0,2.035-.365.518.518,0,0,1,.3.378m-1.459,6.657c1.6.132,2.908-.625,4.287-1.2,2.407-1,2.785-3.206,3.292-5.338a.72.72,0,0,0-.614-.939c-.455-.068-.654.246-.776.64-.235.757-.469,1.515-.737,2.262a2.853,2.853,0,0,1-1.325,1.745,8.274,8.274,0,0,1-4.654,1.255,4.356,4.356,0,0,1-3.9-2.5c-.327-.722-.64-1.452-1-2.158-.187-.367-.443-.825-.945-.638-.533.2-.359.705-.224,1.086.328.923.693,1.833,1.064,2.74a3.555,3.555,0,0,0,1.26,1.644,6.628,6.628,0,0,0,4.275,1.4m1.568,3.919a3.989,3.989,0,0,0,2.068-.91.618.618,0,0,0,.162-.869.626.626,0,0,0-.856-.233,11.377,11.377,0,0,1-2.206.834c-.487.129-.484.7-.049.968a1.467,1.467,0,0,0,.881.21m-.242-15.349c-.535,0-.908.205-.985.761a.9.9,0,0,0,.884,1.01.848.848,0,0,0,.894-.859.787.787,0,0,0-.793-.911m-5.567,2.171a.947.947,0,0,0,.836-.9.727.727,0,0,0-.734-.829.9.9,0,0,0-.886.892c-.043.5.246.759.784.833" transform="translate(-83.918 -170.302)" fill="#dc7c60"/>
              <path id="Trazado_1262256" data-name="Trazado 1262256" d="M314.475,468.64c-.019.367-.309.552-.53.781a38.167,38.167,0,0,1-5.112,4.312c-.789.575-1.591,1.132-2.386,1.7-.269.192-.56.432-.854.1-.35-.4-.029-.689.254-.934a9.527,9.527,0,0,1,.894-.664,54.63,54.63,0,0,0,6.28-4.864,2.251,2.251,0,0,1,1.036-.681.312.312,0,0,1,.416.251" transform="translate(-115.339 -176.867)" fill="#5c7f7d"/>
              <path id="Trazado_1262257" data-name="Trazado 1262257" d="M191.309,489.458a7.792,7.792,0,0,0-1.834,2.379c-.13.246-.2.525-.338.765-.178.31-.359.759-.822.515-.445-.236-.2-.645-.075-.986a11.894,11.894,0,0,1,2.8-3.955c.375-.386.909-.227.785.137-.263.771.5,1.131.519,1.781a9.654,9.654,0,0,0,.408,1.9c.054.225.167.437.214.663.073.354.236.792-.268.938-.411.12-.541-.273-.667-.565a9.885,9.885,0,0,1-.728-3.572" transform="translate(-71.014 -184.259)" fill="#5c7f7d"/>
              <path id="Trazado_1262258" data-name="Trazado 1262258" d="M201.544,502.274c.4-1.175.761-2.229,1.123-3.282a4.75,4.75,0,0,1,.246-.652c.174-.338.209-.99.758-.754.489.21.161.735.044,1.115-.164.533-.378,1.052-.534,1.587-.352,1.206-.686,2.417-1.019,3.627a2,2,0,0,1-.321.91c-.237.257-.693.19-.636-.07.293-1.342-.894-2.03-1.249-3.071-.116-.342-.437-.742.02-.977.48-.246.583.309.789.576.22.283.3.671.779.991" transform="translate(-75.424 -187.877)" fill="#5c7f7d"/>
              <path id="Trazado_1262259" data-name="Trazado 1262259" d="M297.927,498.374a3.511,3.511,0,0,1,.054-.651.409.409,0,0,1,.284-.248.452.452,0,0,1,.329.181.882.882,0,0,1,.132.386q.465,2.817.921,5.636a2.564,2.564,0,0,1,.039.551c-.007.136-.068.3-.227.307a.539.539,0,0,1-.358-.136.706.706,0,0,1-.187-.365,54.146,54.146,0,0,1-.986-5.662" transform="translate(-112.502 -187.854)" fill="#5c7f7d"/>
              <path id="Trazado_1262260" data-name="Trazado 1262260" d="M302.275,503.4a.315.315,0,0,1-.323-.21.829.829,0,0,1-.026-.41,19.65,19.65,0,0,1,1.319-3.533.418.418,0,0,1,.441-.278.331.331,0,0,1,.3.4c-.471,1.313-.969,2.616-1.47,3.917-.023.06-.156.077-.238.114" transform="translate(-114.007 -188.415)" fill="#5c7f7d"/>
              <path id="Trazado_1262261" data-name="Trazado 1262261" d="M299.647,479.5c-.045.391-.3.573-.581.489a4,4,0,0,1-2.336-1.631.441.441,0,0,1,.05-.519.36.36,0,0,1,.494-.109q1.115.7,2.2,1.451c.1.067.128.232.172.319" transform="translate(-112.026 -180.376)" fill="#5c7f7d"/>
              <path id="Trazado_1262262" data-name="Trazado 1262262" d="M372.775,642.825a12.66,12.66,0,0,1,2.925-4.395,7.621,7.621,0,0,1-.429,4.464l-2.5-.07" transform="translate(-140.766 -241.081)" fill="#5c7f7d"/>
              <path id="Trazado_1262263" data-name="Trazado 1262263" d="M240.163,473.759a6.627,6.627,0,0,1-4.275-1.4,3.564,3.564,0,0,1-1.26-1.644c-.37-.907-.736-1.817-1.064-2.74-.135-.381-.309-.888.224-1.086.5-.187.758.271.945.638.36.706.673,1.436,1,2.158a4.356,4.356,0,0,0,3.9,2.5,8.284,8.284,0,0,0,4.654-1.255,2.853,2.853,0,0,0,1.325-1.745c.267-.746.5-1.5.737-2.262.122-.393.321-.708.776-.64a.721.721,0,0,1,.614.939c-.507,2.132-.886,4.334-3.292,5.338-1.38.575-2.686,1.332-4.287,1.2" transform="translate(-88.145 -176.072)" fill="#5c3329"/>
              <path id="Trazado_1262264" data-name="Trazado 1262264" d="M243.9,462.734a3.863,3.863,0,0,1-2.035.365,1.564,1.564,0,0,1-1.612-1.58,40.755,40.755,0,0,1,.245-5.161c.032-.344.154-.674.572-.649s.5.37.538.7a8.827,8.827,0,0,1,.039.978c-.008,1.072-.04,2.144-.035,3.216,0,1.1.324,1.374,1.348.983,1.047-.4,2.128-.679,3.182-1.048a3.167,3.167,0,0,1,1.372-.2,1.059,1.059,0,0,1,.806,1.8,3.2,3.2,0,0,1-.925.838c-1.25.722-2.527,1.4-3.8,2.085-.433.233-.88.414-1.182-.186-.255-.508.085-.795.447-1.024.429-.272.889-.5,1.335-.741a4.372,4.372,0,0,0,1.937-1.044c-.752.24-1.607.084-2.233.666" transform="translate(-90.718 -172.082)" fill="#5c3329"/>
              <path id="Trazado_1262265" data-name="Trazado 1262265" d="M246.041,483.328a1.463,1.463,0,0,1-.881-.21c-.434-.268-.438-.84.049-.969a11.369,11.369,0,0,0,2.206-.834.625.625,0,0,1,.855.233.619.619,0,0,1-.162.87,3.983,3.983,0,0,1-2.068.909" transform="translate(-92.455 -181.721)" fill="#5c3329"/>
              <path id="Trazado_1262266" data-name="Trazado 1262266" d="M245.778,459.938a.788.788,0,0,1,.794.911.849.849,0,0,1-.9.86.9.9,0,0,1-.884-1.011c.078-.555.45-.759.985-.761" transform="translate(-92.435 -173.68)" fill="#5c3329"/>
              <path id="Trazado_1262267" data-name="Trazado 1262267" d="M236.959,462.379c-.538-.074-.827-.335-.784-.833a.9.9,0,0,1,.886-.892.727.727,0,0,1,.734.829.947.947,0,0,1-.837.9" transform="translate(-89.182 -173.95)" fill="#5c3329"/>
              <path id="Trazado_1262268" data-name="Trazado 1262268" d="M246.12,466.594c.626-.582,1.481-.426,2.232-.666a4.372,4.372,0,0,1-1.937,1.044.518.518,0,0,0-.3-.378" transform="translate(-92.939 -175.942)" fill="#6c4936"/>
            </g>
          </g>
        </g>
      </g>
    </g>
  </g>
</svg>
