<svg xmlns="http://www.w3.org/2000/svg" width="63.816" height="73.445" viewBox="0 0 63.816 73.445">
  <g id="Grupo_1205221" data-name="Grupo 1205221" transform="translate(-1146.184 -1889.183)">
    <g id="Layer_10" data-name="Layer 10" transform="translate(1139.184 1886.183)">
      <path id="Trazado_1266167" data-name="Trazado 1266167" d="M33,8.655V12.95c.627.026,1.252.077,1.872.139A11.676,11.676,0,0,0,33,8.655Z" transform="translate(7.185 1.563)" fill="#445130"/>
      <path id="Trazado_1266168" data-name="Trazado 1266168" d="M35.338,14.209c-.738-.091-1.518-.156-2.338-.189v2.527h2.527C35.494,15.726,35.425,14.947,35.338,14.209Z" transform="translate(7.185 3.045)" fill="#445130"/>
      <path id="Trazado_1266169" data-name="Trazado 1266169" d="M35.527,18H33v2.527c.821-.033,1.6-.1,2.338-.189.087-.738.156-1.518.189-2.338Z" transform="translate(7.185 4.145)" fill="#445130"/>
      <path id="Trazado_1266170" data-name="Trazado 1266170" d="M33,22.01V26.3a11.676,11.676,0,0,0,1.872-4.434c-.62.063-1.246.114-1.872.139Z" transform="translate(7.185 5.215)" fill="#445130"/>
      <path id="Trazado_1266171" data-name="Trazado 1266171" d="M23.643,20.323a11.538,11.538,0,0,0,6.425,6.425A18.77,18.77,0,0,1,28.487,21.9a18.77,18.77,0,0,1-4.844-1.581Z" transform="translate(4.599 4.787)" fill="#445130"/>
      <path id="Trazado_1266172" data-name="Trazado 1266172" d="M28.089,19.872c-.063-.62-.114-1.246-.139-1.872H23.655a11.676,11.676,0,0,0,4.434,1.872Z" transform="translate(4.602 4.145)" fill="#445130"/>
      <path id="Trazado_1266173" data-name="Trazado 1266173" d="M36.871,14.533c.063.62.114,1.246.139,1.872H41.3a11.676,11.676,0,0,0-4.434-1.872Z" transform="translate(8.254 3.187)" fill="#445130"/>
      <path id="Trazado_1266174" data-name="Trazado 1266174" d="M41.749,20.323A18.77,18.77,0,0,1,36.9,21.9a18.77,18.77,0,0,1-1.581,4.844,11.538,11.538,0,0,0,6.431-6.425Z" transform="translate(7.825 4.787)" fill="#445130"/>
      <path id="Trazado_1266175" data-name="Trazado 1266175" d="M41.748,15.068a11.538,11.538,0,0,0-6.425-6.425,18.77,18.77,0,0,1,1.581,4.85,18.77,18.77,0,0,1,4.844,1.575Z" transform="translate(7.826 1.559)" fill="#445130"/>
      <path id="Trazado_1266176" data-name="Trazado 1266176" d="M36.871,19.872A11.676,11.676,0,0,0,41.3,18H37.01c-.026.627-.077,1.252-.139,1.872Z" transform="translate(8.254 4.145)" fill="#445130"/>
      <path id="Trazado_1266177" data-name="Trazado 1266177" d="M53.737,20.869a17.869,17.869,0,1,0-35.737,0c0,8.652,14.006,26.44,17.869,31.179C39.731,47.309,53.737,29.521,53.737,20.869Zm-31.908,0a14.04,14.04,0,1,1,14.04,14.04,14.04,14.04,0,0,1-14.04-14.04Z" transform="translate(3.04)" fill="#445130"/>
      <path id="Trazado_1266178" data-name="Trazado 1266178" d="M31.405,12.95V8.655a11.676,11.676,0,0,0-1.872,4.434C30.153,13.026,30.779,12.975,31.405,12.95Z" transform="translate(6.227 1.563)" fill="#445130"/>
      <path id="Trazado_1266179" data-name="Trazado 1266179" d="M33,55.238V65.266L63.632,53.484V43.456Z" transform="translate(7.185 11.179)" fill="#445130"/>
      <path id="Trazado_1266180" data-name="Trazado 1266180" d="M7,53.484,37.632,65.266V55.238L7,43.456Z" transform="translate(0 11.179)" fill="#445130"/>
      <path id="Trazado_1266181" data-name="Trazado 1266181" d="M28.089,14.533a11.676,11.676,0,0,0-4.434,1.872H27.95C27.975,15.779,28.026,15.153,28.089,14.533Z" transform="translate(4.602 3.187)" fill="#445130"/>
      <path id="Trazado_1266182" data-name="Trazado 1266182" d="M47.211,35.722c-3.957,5.527-7.487,9.718-7.823,10.114a1.276,1.276,0,0,1-1.948,0c-.336-.4-3.863-4.587-7.823-10.114L8.786,43.735l29.629,11.4,29.629-11.4Z" transform="translate(0.494 9.042)" fill="#445130"/>
      <path id="Trazado_1266183" data-name="Trazado 1266183" d="M31.405,26.3V22.01c-.627-.026-1.252-.077-1.872-.139A11.676,11.676,0,0,0,31.405,26.3Z" transform="translate(6.227 5.215)" fill="#445130"/>
      <path id="Trazado_1266184" data-name="Trazado 1266184" d="M23.643,15.068a18.77,18.77,0,0,1,4.844-1.581,18.77,18.77,0,0,1,1.581-4.844,11.538,11.538,0,0,0-6.425,6.425Z" transform="translate(4.599 1.559)" fill="#445130"/>
      <path id="Trazado_1266185" data-name="Trazado 1266185" d="M29.02,16.547h2.527V14.02c-.821.033-1.6.1-2.338.189-.087.738-.156,1.518-.189,2.338Z" transform="translate(6.085 3.045)" fill="#445130"/>
      <path id="Trazado_1266186" data-name="Trazado 1266186" d="M29.209,20.338c.738.091,1.518.156,2.338.189V18H29.02c.033.821.1,1.6.189,2.338Z" transform="translate(6.085 4.145)" fill="#445130"/>
    </g>
  </g>
</svg>
