<svg xmlns="http://www.w3.org/2000/svg" width="61.18" height="80.429" viewBox="0 0 61.18 80.429">
  <g id="Grupo_1205222" data-name="Grupo 1205222" transform="translate(3154.368 2067.149)">
    <g id="Grupo_1204921" data-name="Grupo 1204921" transform="translate(-3215.368 -2067.014)">
      <ellipse id="Elipse_11842" data-name="Elipse 11842" cx="7.397" cy="6.986" rx="7.397" ry="6.986" transform="translate(84.193 4.796)" fill="#445130"/>
      <path id="Trazado_1266187" data-name="Trazado 1266187" d="M181,131.765v2.353h23.531v-2.353a11.765,11.765,0,0,0-23.531,0Z" transform="translate(-101.175 -101.2)" fill="#445130"/>
      <circle id="Elipse_11843" data-name="Elipse 11843" cx="6.986" cy="6.986" r="6.986" transform="translate(66.113 -0.135)" fill="#445130"/>
      <circle id="Elipse_11844" data-name="Elipse 11844" cx="6.986" cy="6.986" r="6.986" transform="translate(103.096 -0.135)" fill="#445130"/>
      <path id="Trazado_1266188" data-name="Trazado 1266188" d="M84.531,282.669l14.118-4.706V258.981L122.18,240H61l23.531,18.981Z" transform="translate(0 -202.375)" fill="#445130"/>
      <path id="Trazado_1266189" data-name="Trazado 1266189" d="M81.3,93.715a11.734,11.734,0,0,0-20.3,8.05v2.353H75.356A16.368,16.368,0,0,1,81.3,93.715Z" transform="translate(0 -75.906)" fill="#445130"/>
      <path id="Trazado_1266190" data-name="Trazado 1266190" d="M327.538,104.118h14.356v-2.353a11.734,11.734,0,0,0-20.3-8.05A16.368,16.368,0,0,1,327.538,104.118Z" transform="translate(-219.714 -75.906)" fill="#445130"/>
    </g>
  </g>
</svg>
