<svg xmlns="http://www.w3.org/2000/svg" width="81.639" height="81.639" viewBox="0 0 81.639 81.639">
  <g id="Grupo_1205223" data-name="Grupo 1205223" transform="translate(2840.818 2067.754)">
    <path id="Trazado_1266191" data-name="Trazado 1266191" d="M51.818,53.154A6.557,6.557,0,1,0,45.26,46.6a6.564,6.564,0,0,0,6.558,6.556Zm0-16.376A15.034,15.034,0,0,1,63.431,61.37a13.4,13.4,0,0,0-11.641-7.3.063.063,0,0,0-.025,0,13.4,13.4,0,0,0-11.609,7.238A15.033,15.033,0,0,1,51.818,36.778ZM68.526,51.82A16.708,16.708,0,1,1,51.818,35.112,16.727,16.727,0,0,1,68.526,51.82Zm22.341,2.331L81.593,70.212a13.876,13.876,0,0,1-5.282,5.282l-3.177,1.834a6.408,6.408,0,0,0-3.277,5.678v1.063H58.294V78.577c0-6.1,4.119-7.732,7.707-8.474a.829.829,0,0,0,.248-.093l7.887-4.553a2.028,2.028,0,0,1,2.028,3.512L70.225,72.4a.833.833,0,0,0,.833,1.443L77,70.412a3.662,3.662,0,0,0,1.718-2.249,3.7,3.7,0,0,0,.113-1.278l6.479-11.223c1.868-3.234,3.862-3.2,5.2-2.6a.764.764,0,0,1,.353,1.088Zm1.653-1.138a2.448,2.448,0,0,1-.21,1.971L83.036,71.045a15.476,15.476,0,0,1-5.891,5.891l-3.177,1.834a4.78,4.78,0,0,0-2.444,4.235V84.1a2.5,2.5,0,0,1,2.124,2.468V90.14a2.5,2.5,0,0,1-2.5,2.5H57a2.5,2.5,0,0,1-2.5-2.5V86.568A2.5,2.5,0,0,1,56.626,84.1V78.577c0-7.3,5.042-9.26,8.905-10.077L73.3,64.014a3.706,3.706,0,0,1,4.74.9l5.821-10.085c2.717-4.707,6.03-3.867,7.326-3.287a2.44,2.44,0,0,1,1.328,1.471ZM30.5,77.328l-3.177-1.834a13.876,13.876,0,0,1-5.282-5.282L12.769,54.151a.764.764,0,0,1,.353-1.088c1.343-.6,3.337-.635,5.2,2.6l6.48,11.223a3.7,3.7,0,0,0,.113,1.278,3.662,3.662,0,0,0,1.718,2.249l5.94,3.431a.833.833,0,0,0,.833-1.443l-5.94-3.431A2.028,2.028,0,0,1,29.5,65.457l7.887,4.553a.813.813,0,0,0,.248.093c3.589.741,7.709,2.373,7.709,8.474v5.492H33.782V83.006A6.414,6.414,0,0,0,30.5,77.328ZM47.009,84.1a2.5,2.5,0,0,1,2.124,2.468V90.14a2.5,2.5,0,0,1-2.5,2.5H32.488a2.5,2.5,0,0,1-2.5-2.5V86.568A2.5,2.5,0,0,1,32.113,84.1V83.006a4.78,4.78,0,0,0-2.444-4.235l-3.177-1.834A15.476,15.476,0,0,1,20.6,71.045L11.326,54.984a2.429,2.429,0,0,1,1.118-3.442c1.3-.58,4.61-1.418,7.326,3.287l5.823,10.085a3.706,3.706,0,0,1,4.74-.9L38.1,68.5c3.864.816,8.905,2.774,8.905,10.077Zm-5.292-64,5.043,3.649-1.934,5.916a1.275,1.275,0,0,0,1.963,1.426l5.028-3.669,5.028,3.669a1.276,1.276,0,0,0,1.964-1.426l-1.934-5.916L61.919,20.1a1.276,1.276,0,0,0-.746-2.309h0l-6.225.012-1.914-5.923a1.275,1.275,0,0,0-2.426,0l-1.913,5.923-6.225-.012h0a1.277,1.277,0,0,0-.748,2.309Zm26.268,10.18,5.042,3.649-1.934,5.916a1.275,1.275,0,0,0,1.963,1.426l5.03-3.669,5.028,3.669a1.277,1.277,0,0,0,1.964-1.426l-1.936-5.916,5.043-3.649a1.275,1.275,0,0,0-.748-2.308h0l-6.225.012L79.3,22.063a1.275,1.275,0,0,0-2.426,0l-1.913,5.925-6.225-.012h0a1.276,1.276,0,0,0-.75,2.308Zm-52.537,0,5.043,3.649-1.934,5.916a1.275,1.275,0,0,0,1.963,1.426l5.028-3.669,5.028,3.669a1.276,1.276,0,0,0,1.964-1.426l-1.934-5.916,5.043-3.649a1.275,1.275,0,0,0-.746-2.308h0l-6.225.012-1.914-5.925a1.275,1.275,0,0,0-2.426,0l-1.913,5.925L16.2,27.976h0a1.276,1.276,0,0,0-.75,2.308Z" transform="translate(-2851.816 -2078.754)" fill="#445130" fill-rule="evenodd"/>
  </g>
</svg>
