<svg xmlns="http://www.w3.org/2000/svg" xmlns:xlink="http://www.w3.org/1999/xlink" width="400" height="279.15" viewBox="0 0 400 279.15">
  <defs>
    <clipPath id="clip-path">
      <rect id="Rectángulo_455386" data-name="Rectángulo 455386" width="261.72" height="279.15" fill="none"/>
    </clipPath>
  </defs>
  <g id="Grupo_1205209" data-name="Grupo 1205209" transform="translate(-1020 -939.724)">
    <g id="Grupo_1204350" data-name="Grupo 1204350" transform="translate(840 509.853)">
      <path id="Trazado_145968" data-name="Trazado 145968" d="M61.875,0a61.875,61.875,0,1,0,61.875,61.875A61.875,61.875,0,0,0,61.875,0Z" transform="translate(180 579.974)" fill="#a6cdec"/>
      <path id="Trazado_145969" data-name="Trazado 145969" d="M42.279,0A42.279,42.279,0,1,0,84.559,42.279,42.279,42.279,0,0,0,42.279,0Z" transform="translate(468.872 446.014)" fill="#a6cdec"/>
      <path id="Trazado_1261921" data-name="Trazado 1261921" d="M0,0H400V278.25H0Z" transform="translate(180 430.321)" fill="none"/>
      <path id="Trazado_145967" data-name="Trazado 145967" d="M139.575,0A139.575,139.575,0,1,0,279.15,139.575,139.575,139.575,0,0,0,139.575,0Z" transform="translate(240.425 429.871)" fill="#aaca79"/>
      <path id="Trazado_145971" data-name="Trazado 145971" d="M11.624,0A11.624,11.624,0,1,0,23.249,11.624,11.624,11.624,0,0,0,11.624,0Z" transform="translate(481.826 662.287)" fill="#0a4666"/>
      <path id="Elipse_4044" data-name="Elipse 4044" d="M15.765,4.261a11.5,11.5,0,1,1-11.5,11.5,11.517,11.517,0,0,1,11.5-11.5m0-4.261A15.765,15.765,0,1,0,31.529,15.765,15.765,15.765,0,0,0,15.765,0Z" transform="translate(450.296 529.433)" fill="#fff"/>
      <g id="Grupo_1204352" data-name="Grupo 1204352" transform="translate(265 429.871)">
        <g id="Grupo_1204351" data-name="Grupo 1204351" clip-path="url(#clip-path)">
          <path id="Trazado_1261813" data-name="Trazado 1261813" d="M203.781,35.172v58a8.345,8.345,0,0,1-8.339,8.339H115.8a8.341,8.341,0,0,1-8.339-8.339v-58a8.23,8.23,0,0,1,1.068-4.073,8.318,8.318,0,0,1,7.271-4.266h79.642a8.341,8.341,0,0,1,8.339,8.339" transform="translate(-40.335 -10.072)" fill="#efdebd"/>
          <path id="Trazado_1261814" data-name="Trazado 1261814" d="M202.619,99.982a8.324,8.324,0,0,1-7.177,4.1H115.8a8.341,8.341,0,0,1-8.339-8.339v-58a8.23,8.23,0,0,1,1.068-4.073Z" transform="translate(-40.335 -12.636)" fill="#e0ceaf"/>
          <path id="Trazado_1261815" data-name="Trazado 1261815" d="M184.436,56.953a12.2,12.2,0,1,1-12.2-12.2,12.205,12.205,0,0,1,12.2,12.2" transform="translate(-60.066 -16.796)" fill="#fff2d4"/>
          <rect id="Rectángulo_455360" data-name="Rectángulo 455360" width="37.73" height="1.781" transform="translate(75.648 56.74)" fill="#fff2d4"/>
          <rect id="Rectángulo_455361" data-name="Rectángulo 455361" width="37.73" height="1.781" transform="translate(75.648 61.84)" fill="#fff2d4"/>
          <rect id="Rectángulo_455362" data-name="Rectángulo 455362" width="37.73" height="1.781" transform="translate(75.648 66.939)" fill="#fff2d4"/>
          <path id="Trazado_1261816" data-name="Trazado 1261816" d="M146.27,18.1A17.6,17.6,0,1,1,128.668.5,17.6,17.6,0,0,1,146.27,18.1Z" transform="translate(-41.689 -0.188)" fill="none" stroke="#b29b8b" stroke-linecap="round" stroke-linejoin="round" stroke-width="1" stroke-dasharray="4.917 4.917"/>
          <path id="Trazado_1261817" data-name="Trazado 1261817" d="M137.99,57.868H134.5a3.545,3.545,0,0,1-3.544-3.545V48.437a1.673,1.673,0,0,1,1.673-1.673h7.235a1.674,1.674,0,0,1,1.674,1.673v5.886a3.545,3.545,0,0,1-3.545,3.545" transform="translate(-49.154 -17.553)" fill="#b29b8b"/>
          <path id="Trazado_1261818" data-name="Trazado 1261818" d="M145.249,20.792a14.168,14.168,0,0,1-13.205,14.142c-.319.025-.65.037-.974.037q-.6,0-1.181-.056a14.176,14.176,0,1,1,15.36-14.123" transform="translate(-43.875 -2.482)" fill="#cb4f24"/>
          <path id="Trazado_1261819" data-name="Trazado 1261819" d="M146.606,19.335a9.77,9.77,0,1,1-9.771-9.771,9.771,9.771,0,0,1,9.771,9.771" transform="translate(-47.694 -3.59)" fill="#ef6843"/>
          <path id="Trazado_1261820" data-name="Trazado 1261820" d="M150.274,16.72a2.008,2.008,0,1,1-2.008-2.008,2.008,2.008,0,0,1,2.008,2.008" transform="translate(-54.899 -5.522)" fill="#fff"/>
          <path id="Trazado_1261821" data-name="Trazado 1261821" d="M139.855,38.1v8.245c-.319.025-.65.037-.974.037q-.6,0-1.181-.056V38.1a1.078,1.078,0,1,1,2.155,0" transform="translate(-51.686 -13.897)" fill="#e7b142"/>
          <path id="Trazado_1261822" data-name="Trazado 1261822" d="M224.319,74.834l10.284,4.8-5.845,29.343a23.327,23.327,0,0,1,4.013,11.155l-28.726-1.607,2.291-11.354-3.973-27.845,10.116-4.27s4.388-3.729,11.84-.221" transform="translate(-75.958 -27.525)" fill="#e7b142"/>
          <path id="Trazado_1261823" data-name="Trazado 1261823" d="M210.709,58.857s-4.793,9.7-3.845,12.454a2.559,2.559,0,0,0,3.995.668,3.835,3.835,0,0,0,3.147-.269c1.831-.888,2.242-7.269,2.242-7.269Z" transform="translate(-77.6 -22.092)"/>
          <path id="Trazado_1261824" data-name="Trazado 1261824" d="M229.376,60.073l-1.441,9.483s-2.7,4.848-7.574,3.928c0,0-.136-5.974-.005-7.581Z" transform="translate(-82.69 -22.549)" fill="#db7e6b"/>
          <path id="Trazado_1261825" data-name="Trazado 1261825" d="M211.412,44.706c-.3,5.414,1.2,11.825,4.239,12.285,4.853.735,12.559-5.439,12.862-10.852s-3.452-10.274-8.353-10.548-8.446,3.7-8.749,9.115" transform="translate(-79.34 -13.354)" fill="#ff967f"/>
          <path id="Trazado_1261826" data-name="Trazado 1261826" d="M219.658,73.753l.562,2.677,7.7-5.253,1.2,1.505-7.027,6.76-2.008-1.54-1.505.923v-2.83Z" transform="translate(-82.045 -26.716)" fill="#fff"/>
          <path id="Trazado_1261827" data-name="Trazado 1261827" d="M219.763,34.8c-1.1,2.056-1.286,5.339,2.708,8.929a16.1,16.1,0,0,0,6.272,3.332s-.245,3.409-2.061,3.307c0,0-.953,5.654.8,8.694a3.684,3.684,0,0,0,4.871,1.5,4.225,4.225,0,0,0,4.442.524c2.88-1.164,2.069-3.417,2.069-3.417s-4.384-12.266-4.706-16.548c-.585-7.791-11.272-12.14-14.391-6.326" transform="translate(-82.233 -12.057)"/>
          <path id="Trazado_1261828" data-name="Trazado 1261828" d="M209.621,37.93a7.119,7.119,0,0,0,.788,7.772,19.417,19.417,0,0,1,3.479-7.092,29.806,29.806,0,0,1,6.434-5.229s-7.06-2.314-10.7,4.549" transform="translate(-78.368 -12.389)"/>
          <path id="Trazado_1261829" data-name="Trazado 1261829" d="M205.343,138.6c-4.617,11.826.636,44.454.636,44.454h21.346s10.478-31.809,4.5-44.454Z" transform="translate(-76.363 -52.025)" fill="#083851"/>
          <path id="Trazado_1261830" data-name="Trazado 1261830" d="M192.4,82.927,175.807,93.579l1.785,6.269,16.538-4.769Z" transform="translate(-65.99 -31.127)" fill="#dc911b"/>
          <path id="Trazado_1261831" data-name="Trazado 1261831" d="M160.092,86.857c-1.845-2.6-12.79-12.137-15.145-14.177a25.266,25.266,0,0,0-1.48-3.783,19.876,19.876,0,0,0-3.034-2.989,2.428,2.428,0,0,0,0,1.383,8.618,8.618,0,0,0,1.2,2l-4.283-.665s-3.079-1-3.971-.134l3.89,1.186-.019.244c-.59-.192-3.885-1.217-4.7-.425l4.609,1.562-.007.1c-.8-.252-3.828-1.149-4.6-.4l4.514,1.53-.034.437c-1.172-.336-3.419-.87-4.07-.235l4.073,1.38,4.849,1.859c1.638,2.657,10.858,17.415,14.025,18.2,3.481.865,5.444-.485,5.444-.485a9.182,9.182,0,0,0-1.266-6.6" transform="translate(-49.756 -24.739)" fill="#ff967f"/>
          <path id="Trazado_1261832" data-name="Trazado 1261832" d="M250.961,83.42s-5.146,2.57-5.013,8.152,13.519,17.9,13.519,17.9l5.31-3.569s-7.465-18.546-13.816-22.48" transform="translate(-92.317 -31.312)" fill="#dc911b"/>
          <path id="Trazado_1261833" data-name="Trazado 1261833" d="M260.878,119.408A17.04,17.04,0,0,0,255.9,120.5c-1.783.816-10.344,13.356-12.024,15.834l-4.493,1.34a9.378,9.378,0,0,0-1.988.042c-.87.167-1.841,2.125-1.841,2.125a1.029,1.029,0,0,0,.8-.151,3.486,3.486,0,0,0,.77-.82l2.151-.1.076.126a12.322,12.322,0,0,0-2.244.714,5.262,5.262,0,0,0-1.338,1.757,1.8,1.8,0,0,0,1.773-1.088l2.2-.347a10.059,10.059,0,0,0-1.85.614,5.267,5.267,0,0,0-1.339,1.757,1.8,1.8,0,0,0,1.774-1.088l2.216-.349.005.008a3.363,3.363,0,0,0-.481.207,5.256,5.256,0,0,0-1.338,1.757,1.8,1.8,0,0,0,1.773-1.088l.526-.083.009.016s4.283-.268,5.153-1.841c0,0,12.716-10.641,14.255-13.787a8.225,8.225,0,0,0,.424-6.648" transform="translate(-88.417 -44.82)" fill="#ff967f"/>
          <path id="Trazado_1261834" data-name="Trazado 1261834" d="M224.967,231.726a47.223,47.223,0,1,1-48.791-47.2c.518-.019,1.043-.025,1.568-.025a47.2,47.2,0,0,1,47.223,47.223" transform="translate(-48.991 -69.254)" fill="#efdebd"/>
          <path id="Trazado_1261835" data-name="Trazado 1261835" d="M251.77,224.012v15.429a47.04,47.04,0,0,1-11.112,23.449H203.61V184.528c.518-.019,1.043-.025,1.568-.025a47.232,47.232,0,0,1,46.592,39.509" transform="translate(-76.426 -69.254)" fill="#e0ceaf"/>
          <path id="Trazado_1261836" data-name="Trazado 1261836" d="M308.22,220.21a38.353,38.353,0,1,1-38.347-38.347A38.291,38.291,0,0,1,308.22,220.21" transform="translate(-86.902 -68.263)" fill="#b29b8b"/>
          <path id="Trazado_1261837" data-name="Trazado 1261837" d="M304.474,205.53l24.239,9.786-2.567,8.982-20.1-3.707Z" transform="translate(-114.285 -77.146)" fill="#c67c1a"/>
          <path id="Trazado_1261838" data-name="Trazado 1261838" d="M294.15,258.135a38.355,38.355,0,0,1-52.77-55.263Z" transform="translate(-87.027 -76.149)" fill="#a08a7c"/>
          <path id="Trazado_1261839" data-name="Trazado 1261839" d="M339.142,210.149a37.543,37.543,0,0,1,1.483-12.278c1.939-6.543,12.348-30.039,12.348-30.039l5.133.967s-6.559,35.789-10.266,39.069-8.7,2.281-8.7,2.281" transform="translate(-127.28 -62.996)" fill="#ff967f"/>
          <path id="Trazado_1261840" data-name="Trazado 1261840" d="M304.381,146.27s5.111-.786,7.785,2.359,2.625,8.251.88,9.905Z" transform="translate(-114.25 -54.87)"/>
          <path id="Trazado_1261841" data-name="Trazado 1261841" d="M293.152,184.755l-2.246,10.113-10.192-6.319,3.787-9.686Z" transform="translate(-105.367 -67.137)" fill="#db7e6b"/>
          <path id="Trazado_1261842" data-name="Trazado 1261842" d="M284.876,197.226l-10.864-5.978s-10.244,4.385-10.8,11.57c-.525,6.824,2.248,23.82,1.715,37.585a35.859,35.859,0,0,0-3.274,12.851h2.507l29.021-4.473-2.215-12.542c.956-10.335,3.136-18.4,3.137-22.529,0-9.125-9.229-16.484-9.229-16.484" transform="translate(-98.213 -71.786)" fill="#e7b142"/>
          <path id="Trazado_1261843" data-name="Trazado 1261843" d="M286.664,188.655l7.841,3.509.793,5.025-8.867-5.254Z" transform="translate(-107.512 -70.812)" fill="#fff"/>
          <path id="Trazado_1261844" data-name="Trazado 1261844" d="M305.785,163.043c0,7.3-1.053,12.146-2.831,12.6-6.436,1.65-18.715-6.328-18.715-13.624s4.364-13.053,11.009-13.053,10.537,6.78,10.537,14.076" transform="translate(-106.69 -55.915)" fill="#ff967f"/>
          <path id="Trazado_1261845" data-name="Trazado 1261845" d="M294.62,149.295a13.715,13.715,0,0,1-5.426,7.942c-4.4,2.909-7.628,2.123-7.628,2.123s-1.18,3.224,0,4.8,1.808,1.139,1.808,1.139-2.752,11.6-6.212,13.329-5.19,0-5.19,0-3.7,2.752-7.313,1.258-3.224-5.268-.472-8.807,6.606-11.009,6.606-16.042,4.111-10.255,9.515-11.717c6.684-1.808,11.953.551,14.312,5.977" transform="translate(-98.356 -53.57)"/>
          <path id="Trazado_1261846" data-name="Trazado 1261846" d="M281.562,204.153l18.966,14.959v12.981l-27.97-13.57a8.529,8.529,0,1,1,9-14.37" transform="translate(-100.501 -75.94)" fill="#dc911b"/>
          <path id="Trazado_1261847" data-name="Trazado 1261847" d="M379.529,168.1l-62.374-2.25v-3.805l62.374-3.926Z" transform="translate(-119.045 -59.35)" fill="#390634"/>
          <path id="Trazado_1261848" data-name="Trazado 1261848" d="M324.708,183s-8.365,25.558-8.365,30.65a32.4,32.4,0,0,0,2.424,10.765s8.222-3.191,8.983-14.888,2.852-27.667,2.852-27.667Z" transform="translate(-118.74 -68.261)" fill="#ff967f"/>
          <path id="Trazado_1261849" data-name="Trazado 1261849" d="M329.037,178.3l-1.28-10.7,6.919-.668s1.294,8.989-.54,11.372Z" transform="translate(-123.025 -62.656)" fill="#ff967f"/>
          <path id="Trazado_1261850" data-name="Trazado 1261850" d="M327.757,165.122s.508-3.773.993-4.457,1.765-.11,2.141.177a1.434,1.434,0,0,1-.64.485,1.187,1.187,0,0,1-.706.132l-.066,3.662s-1.28.661-1.722,0" transform="translate(-123.025 -60.185)" fill="#ff967f"/>
          <path id="Trazado_1261851" data-name="Trazado 1261851" d="M331.361,164.9a23.947,23.947,0,0,1,.4-3.64,2.857,2.857,0,0,1,2.406-1.5,2.493,2.493,0,0,1-.419,1.214,6.469,6.469,0,0,1-.817.615l-.166,3.313Z" transform="translate(-124.377 -59.968)" fill="#ff967f"/>
          <path id="Trazado_1261852" data-name="Trazado 1261852" d="M333.445,164.9a23.947,23.947,0,0,1,.4-3.64,2.857,2.857,0,0,1,2.406-1.5,2.5,2.5,0,0,1-.419,1.214,6.471,6.471,0,0,1-.817.615l-.166,3.313Z" transform="translate(-125.16 -59.968)" fill="#ff967f"/>
          <path id="Trazado_1261853" data-name="Trazado 1261853" d="M336.307,164.889a22.661,22.661,0,0,1,.377-3.451,2.708,2.708,0,0,1,2.28-1.423,1.942,1.942,0,0,1-.4.974c-.314.293-.771.76-.771.76l.109,3.031Z" transform="translate(-126.234 -60.062)" fill="#ff967f"/>
          <path id="Trazado_1261854" data-name="Trazado 1261854" d="M260.6,283.353h30.971V327.94l-27.721-7.985s-5.388-12.548-6.338-19.582,3.088-17.02,3.088-17.02" transform="translate(-96.605 -106.357)" fill="#083851"/>
          <path id="Trazado_1261855" data-name="Trazado 1261855" d="M342.708,162.817v2.98a1.855,1.855,0,0,0,1.755,1.853l13.969.753a1.383,1.383,0,0,0,1.457-1.38v-5.491a1.383,1.383,0,0,0-1.463-1.38l-13.971.815a1.855,1.855,0,0,0-1.747,1.852" transform="translate(-128.636 -60.112)" fill="#4c0d49"/>
          <path id="Trazado_1261856" data-name="Trazado 1261856" d="M417.5,163.109c0,2.756-.553,4.99-1.236,4.99s-1.236-2.234-1.236-4.99.553-4.99,1.236-4.99,1.236,2.234,1.236,4.99" transform="translate(-155.783 -59.35)" fill="#dc911b"/>
          <path id="Trazado_1261857" data-name="Trazado 1261857" d="M365.927,159.46a7.49,7.49,0,0,1,1.316-1.257c.488-.273,1.091.151,1.45.78a11.651,11.651,0,0,1,.675,1.49,2.255,2.255,0,0,1-.962-.144,2.06,2.06,0,0,1-.7-.773Z" transform="translate(-137.352 -59.35)" fill="#ff967f"/>
          <path id="Trazado_1261858" data-name="Trazado 1261858" d="M368.78,159.2a2.825,2.825,0,0,1,1.164-.7c.517-.072,1.292.876,1.594,1.322a7.439,7.439,0,0,1,.56,1.049,1.813,1.813,0,0,1-1.106-.125,1.219,1.219,0,0,1-.618-.665l-1.034.1Z" transform="translate(-138.423 -59.49)" fill="#ff967f"/>
          <path id="Trazado_1261859" data-name="Trazado 1261859" d="M372.311,159.63a1.613,1.613,0,0,1,1.034-.532c.589-.014,1.522,1.422,1.723,1.767a.913.913,0,0,1-.833,0,1.6,1.6,0,0,1-.733-.658l-.647.026Z" transform="translate(-139.748 -59.718)" fill="#ff967f"/>
          <path id="Trazado_1261860" data-name="Trazado 1261860" d="M375.1,159.728a1.872,1.872,0,0,1,.776-.23c.445-.029,1.25,1.293,1.25,1.293a.753.753,0,0,1-.618,0,4.705,4.705,0,0,1-.69-.575h-.46Z" transform="translate(-140.797 -59.868)" fill="#ff967f"/>
          <path id="Trazado_1261861" data-name="Trazado 1261861" d="M344.686,119.408H320.223a3.633,3.633,0,0,0-3.634,3.634v6.04a3.633,3.633,0,0,0,3.634,3.634H322.5l-1.049,6.508,7.188-6.508h16.052a3.634,3.634,0,0,0,3.634-3.634v-6.04a3.634,3.634,0,0,0-3.634-3.634" transform="translate(-118.833 -44.82)" fill="#efdebd"/>
          <path id="Trazado_1261862" data-name="Trazado 1261862" d="M325.07,128.6a1.138,1.138,0,1,1-1.137-1.137,1.137,1.137,0,0,1,1.137,1.137" transform="translate(-121.162 -47.843)" fill="#b29b8b"/>
          <path id="Trazado_1261863" data-name="Trazado 1261863" d="M331.856,128.6a1.138,1.138,0,1,1-1.137-1.137,1.137,1.137,0,0,1,1.137,1.137" transform="translate(-123.709 -47.843)" fill="#b29b8b"/>
          <path id="Trazado_1261864" data-name="Trazado 1261864" d="M338.641,128.6a1.138,1.138,0,1,1-1.138-1.137,1.137,1.137,0,0,1,1.138,1.137" transform="translate(-126.256 -47.843)" fill="#b29b8b"/>
          <path id="Trazado_1261865" data-name="Trazado 1261865" d="M345.427,128.6a1.138,1.138,0,1,1-1.138-1.137,1.137,1.137,0,0,1,1.138,1.137" transform="translate(-128.803 -47.843)" fill="#b29b8b"/>
          <path id="Trazado_1261866" data-name="Trazado 1261866" d="M352.213,128.6a1.138,1.138,0,1,1-1.137-1.137,1.137,1.137,0,0,1,1.137,1.137" transform="translate(-131.35 -47.843)" fill="#b29b8b"/>
          <path id="Trazado_1261867" data-name="Trazado 1261867" d="M359,128.6a1.138,1.138,0,1,1-1.138-1.137A1.138,1.138,0,0,1,359,128.6" transform="translate(-133.897 -47.843)" fill="#b29b8b"/>
          <path id="Trazado_1261868" data-name="Trazado 1261868" d="M158.4,246.213l22.013-10.324,6.524,15.552-21.354,9.286Z" transform="translate(-59.456 -88.542)" fill="#fff"/>
          <path id="Trazado_1261869" data-name="Trazado 1261869" d="M206.119,246.086s6.6-7.545,9.768-11.411l17.162,12.575L222.055,258.6Z" transform="translate(-77.367 -88.086)" fill="#fff"/>
          <path id="Trazado_1261870" data-name="Trazado 1261870" d="M114.526,211.993v38.141A36.18,36.18,0,0,1,79.34,286.3c-.325.006-.656.013-.987.013H75.33a36.18,36.18,0,0,1-36.18-36.18V211.993a36.178,36.178,0,0,1,36.18-36.18h3.023c.331,0,.656.006.987.019a36.153,36.153,0,0,1,35.186,36.161" transform="translate(-14.695 -65.992)" fill="#b29b8b"/>
          <path id="Trazado_1261871" data-name="Trazado 1261871" d="M119.856,224.2v38.141A36.18,36.18,0,0,1,84.67,298.5c-.325.006-.656.013-.987.013H80.66a36.128,36.128,0,0,1-27.31-12.449L116.2,208.323a36.032,36.032,0,0,1,3.66,15.872" transform="translate(-20.025 -78.195)" fill="#a08a7c"/>
          <path id="Trazado_1261872" data-name="Trazado 1261872" d="M49.571,215.9,29.563,236.7l3.337,9.255,23.69-12.291Z" transform="translate(-11.097 -81.037)" fill="#dc911b"/>
          <path id="Trazado_1261873" data-name="Trazado 1261873" d="M80.552,195.359,61.593,207.874s1.617,13.191,2.945,18.314,18.4,14.857,18.4,14.857l5.5,8.965,25.493-18.827-12.083-9.349s-6.122-22.345-7.575-27.31Z" transform="translate(-23.119 -73.015)" fill="#e7b142"/>
          <path id="Trazado_1261874" data-name="Trazado 1261874" d="M61.729,156.192s-4.939-.76-7.523,2.279-2.535,7.974-.85,9.572Z" transform="translate(-19.581 -58.596)"/>
          <path id="Trazado_1261875" data-name="Trazado 1261875" d="M71.1,193.38l2.35,8.828,9.669-5.161-3.659-9.36Z" transform="translate(-26.689 -70.449)" fill="#db7e6b"/>
          <path id="Trazado_1261876" data-name="Trazado 1261876" d="M78.173,200.132l-5.546,5.379-1.177-3.279-2.512,6.947,3.7-2.471,4.238,1.49,3.748-8.522Z" transform="translate(-25.876 -74.949)" fill="#fff"/>
          <path id="Trazado_1261877" data-name="Trazado 1261877" d="M53.608,172.4c0,7.05,1.018,11.736,2.735,12.177,6.22,1.595,18.085-6.115,18.085-13.164S70.211,158.8,63.79,158.8s-10.182,6.551-10.182,13.6" transform="translate(-20.122 -59.605)" fill="#ff967f"/>
          <path id="Trazado_1261878" data-name="Trazado 1261878" d="M57.055,159.107a13.249,13.249,0,0,0,5.243,7.674c4.255,2.812,7.37,2.052,7.37,2.052s1.14,3.115,0,4.635-1.748,1.1-1.748,1.1,2.66,11.209,6,12.88,5.015,0,5.015,0,3.572,2.66,7.067,1.216,3.116-5.091.456-8.51-6.383-10.638-6.383-15.5-3.972-9.909-9.194-11.322c-6.459-1.748-11.55.532-13.83,5.775" transform="translate(-21.416 -57.336)"/>
          <path id="Trazado_1261879" data-name="Trazado 1261879" d="M111.5,194.524,146.1,207.6l-1.9,7.423L115.827,211a9.56,9.56,0,0,1-8.206-10.943,7.728,7.728,0,0,1,3.877-5.531" transform="translate(-40.344 -73.015)" fill="#dc911b"/>
          <path id="Trazado_1261880" data-name="Trazado 1261880" d="M125.79,253.212s11.94,8.485,11.956,22.084c.022,17.659-32.838,48.189-32.838,48.189s-12.221-11.86-11.7-23.08c.865-18.693,7.091-28.366,7.091-28.366Z" transform="translate(-34.979 -95.044)" fill="#083851"/>
          <path id="Trazado_1261881" data-name="Trazado 1261881" d="M152.059,253.625,139,265.582a1.942,1.942,0,0,1-2.742-.121L116.527,243.91a1.941,1.941,0,0,1,.121-2.742l13.063-11.957a1.941,1.941,0,0,1,2.742.121l19.727,21.55a1.941,1.941,0,0,1-.121,2.742" transform="translate(-43.548 -85.844)" fill="#efdebd"/>
          <path id="Trazado_1261882" data-name="Trazado 1261882" d="M122.195,239.767l-3.832,3.507,19.491,21.293,13.651-12.5-19.491-21.293Z" transform="translate(-44.428 -86.623)" fill="#fff"/>
          <path id="Trazado_1261883" data-name="Trazado 1261883" d="M122.372,238.623l-3.391,3.1,17.7,19.338,12.08-11.057-17.7-19.338Z" transform="translate(-44.66 -86.582)" fill="#ececec"/>
          <path id="Trazado_1261884" data-name="Trazado 1261884" d="M130.109,236.108l-6.18,5.657a.5.5,0,0,1-.7-.031l-1.546-1.689a.5.5,0,0,1,.031-.7l6.18-5.658a.5.5,0,0,1,.7.031l1.546,1.688a.5.5,0,0,1-.031.7" transform="translate(-45.624 -87.666)" fill="#b29b8b"/>
          <path id="Trazado_1261885" data-name="Trazado 1261885" d="M125.831,233.666l-3.872,3.545a.5.5,0,0,0-.031.712l1.161,1.269a.505.505,0,0,0,.713.031l3.872-3.545a.5.5,0,0,0,.031-.712l-1.161-1.269a.505.505,0,0,0-.713-.032m1.222,1.467a.374.374,0,0,1-.089.513l-3.166,2.9a.374.374,0,0,1-.518.044l-.733-.8a.374.374,0,0,1,.09-.512l1.583-1.449,1.582-1.449a.375.375,0,0,1,.519-.044Z" transform="translate(-45.716 -87.658)" fill="#b29b8b"/>
          <rect id="Rectángulo_455363" data-name="Rectángulo 455363" width="12.93" height="0.356" transform="translate(78.712 156.862) rotate(-42.47)" fill="#d9d9d9"/>
          <rect id="Rectángulo_455364" data-name="Rectángulo 455364" width="12.931" height="0.356" transform="translate(79.713 157.955) rotate(-42.469)" fill="#d9d9d9"/>
          <rect id="Rectángulo_455365" data-name="Rectángulo 455365" width="12.931" height="0.356" transform="translate(80.714 159.049) rotate(-42.469)" fill="#d9d9d9"/>
          <rect id="Rectángulo_455366" data-name="Rectángulo 455366" width="12.931" height="0.356" transform="translate(81.715 160.143) rotate(-42.469)" fill="#d9d9d9"/>
          <rect id="Rectángulo_455367" data-name="Rectángulo 455367" width="12.931" height="0.356" transform="translate(82.717 161.237) rotate(-42.469)" fill="#d9d9d9"/>
          <rect id="Rectángulo_455368" data-name="Rectángulo 455368" width="12.931" height="0.356" transform="translate(83.718 162.331) rotate(-42.469)" fill="#d9d9d9"/>
          <rect id="Rectángulo_455369" data-name="Rectángulo 455369" width="12.93" height="0.356" transform="translate(84.719 163.425) rotate(-42.47)" fill="#d9d9d9"/>
          <rect id="Rectángulo_455370" data-name="Rectángulo 455370" width="12.931" height="0.356" transform="translate(85.72 164.518) rotate(-42.469)" fill="#d9d9d9"/>
          <rect id="Rectángulo_455371" data-name="Rectángulo 455371" width="12.931" height="0.356" transform="translate(86.722 165.612) rotate(-42.469)" fill="#d9d9d9"/>
          <rect id="Rectángulo_455372" data-name="Rectángulo 455372" width="12.931" height="0.356" transform="translate(87.723 166.706) rotate(-42.469)" fill="#d9d9d9"/>
          <rect id="Rectángulo_455373" data-name="Rectángulo 455373" width="12.93" height="0.356" transform="translate(88.725 167.8) rotate(-42.47)" fill="#d9d9d9"/>
          <rect id="Rectángulo_455374" data-name="Rectángulo 455374" width="12.931" height="0.356" transform="translate(89.725 168.894) rotate(-42.469)" fill="#d9d9d9"/>
          <rect id="Rectángulo_455375" data-name="Rectángulo 455375" width="12.931" height="0.356" transform="translate(90.727 169.987) rotate(-42.469)" fill="#d9d9d9"/>
          <rect id="Rectángulo_455376" data-name="Rectángulo 455376" width="12.93" height="0.356" transform="translate(91.728 171.081) rotate(-42.47)" fill="#d9d9d9"/>
          <path id="Trazado_1261886" data-name="Trazado 1261886" d="M154.9,221.978,145.38,245.2l4.508,2.214s11.9-18.653,13.48-24.031a6.8,6.8,0,0,0-3.04-7.921s-3.356,1.429-5.424,6.518" transform="translate(-54.569 -80.874)" fill="#ff967f"/>
          <path id="Trazado_1261887" data-name="Trazado 1261887" d="M141.453,262.441s-3.749,1.326-4.362,1.613-2.848,4.615-2.848,4.615a1.782,1.782,0,0,0,1.226-.144,10.087,10.087,0,0,0,1.731-2.091l.4.217s-2.668,5.335-2.632,5.732a1.03,1.03,0,0,0,1.3.613c.541-.216,1.587-2.2,1.587-2.2l.288.144a15.434,15.434,0,0,0-1.226,2.559,1.391,1.391,0,0,0,1.478.5c.541-.252.793-.4.793-.4a2.811,2.811,0,0,0,1.406.144,1.356,1.356,0,0,0,.649-.469,3.5,3.5,0,0,0,1.514-.144,6.713,6.713,0,0,0,1.478-1.8c.252-.5,1.522-6.394,1.522-6.394Z" transform="translate(-50.389 -98.508)" fill="#ff967f"/>
          <path id="Trazado_1261888" data-name="Trazado 1261888" d="M28.223,240.9a3.329,3.329,0,0,0,4.822-2.043,36.7,36.7,0,0,0,1.274-11.539c-.476-8.27-4.042-24.072-4.042-24.072l-4.747.825s-2.824,26.974-1.558,31.913a8.151,8.151,0,0,0,4.251,4.917" transform="translate(-8.875 -76.29)" fill="#ff967f"/>
          <path id="Trazado_1261889" data-name="Trazado 1261889" d="M26.248,193.7,21.2,189.292l-3.564,7.428s5.1,4.754,6.654,4.929,3.274-3.034,3.274-3.034Z" transform="translate(-6.619 -71.051)" fill="#ff967f"/>
          <path id="Trazado_1261890" data-name="Trazado 1261890" d="M24.163,188.959,22.6,198.667a1,1,0,0,0,.982,1.152H25.94a.994.994,0,0,0,.984-.858l.856-6.148v-2.829Z" transform="translate(-8.478 -70.926)" fill="#766a5a"/>
          <path id="Trazado_1261891" data-name="Trazado 1261891" d="M32.429,199.126s1.227-3.744.476-5.659a7.434,7.434,0,0,0-2.519-3.326,7.086,7.086,0,0,1-1.3-1.753,2.678,2.678,0,0,0-.425,2.266,8.243,8.243,0,0,0,1.353,1.945,24.827,24.827,0,0,0-.2,3.66c.067,1.662,2.125,3.346,2.125,3.346Z" transform="translate(-10.707 -70.712)" fill="#ff967f"/>
          <path id="Trazado_1261892" data-name="Trazado 1261892" d="M22.342,191.507s-1.456-1.653-1.405-2.768,1.254-1.055,1.467-1.049a14.548,14.548,0,0,1,1.861,1.377s1.657,2.76,1.195,3.226-1.532.032-1.908-1.016l-.976-.848Z" transform="translate(-7.858 -70.449)" fill="#db7e6b"/>
          <path id="Trazado_1261893" data-name="Trazado 1261893" d="M18.137,192.727s-.8-1.222-.628-1.7a1.256,1.256,0,0,1,1.072-.776,14.012,14.012,0,0,1,3.148,1.838,15.615,15.615,0,0,1,1.728,2.871c.193.435-.1.7-.944.666s-1.839-1.912-1.839-1.912Z" transform="translate(-6.563 -71.412)" fill="#db7e6b"/>
          <path id="Trazado_1261894" data-name="Trazado 1261894" d="M17.422,196.535s-.8-1.221-.628-1.7a1.256,1.256,0,0,1,1.072-.776,14.025,14.025,0,0,1,3.148,1.838,15.615,15.615,0,0,1,1.728,2.871c.193.435-.1.7-.944.666s-1.839-1.912-1.839-1.912Z" transform="translate(-6.294 -72.842)" fill="#db7e6b"/>
          <path id="Trazado_1261895" data-name="Trazado 1261895" d="M17.292,199.892s-.7-1.061-.546-1.474a1.092,1.092,0,0,1,.931-.675,12.184,12.184,0,0,1,2.735,1.6,13.528,13.528,0,0,1,1.5,2.494c.167.377-.086.608-.82.578s-1.6-1.661-1.6-1.661Z" transform="translate(-6.278 -74.224)" fill="#db7e6b"/>
          <path id="Trazado_1261896" data-name="Trazado 1261896" d="M7.78,163.485l20.2,12.642-1.157,5.581L2.667,178.333Z" transform="translate(-1.001 -61.365)" fill="#dc911b"/>
          <path id="Trazado_1261897" data-name="Trazado 1261897" d="M7.587,169.184a17.526,17.526,0,0,1-.7,2.574A18.549,18.549,0,0,1,5.5,174.808c-1.362,2.369-3,3.77-4.18,3.354-1.622-.57-1.771-4.368-.327-8.476s3.931-6.97,5.559-6.4c1.279.449,1.644,2.885,1.035,5.9" transform="translate(0 -61.263)" fill="#766a5a"/>
          <path id="Trazado_1261898" data-name="Trazado 1261898" d="M36.334,180.325s.791,4.389-2.376,7.06l4.507.695a1.385,1.385,0,0,0,1.558-1.045l.732-3.046a1.384,1.384,0,0,0-.663-1.529Z" transform="translate(-12.746 -67.686)" fill="#766a5a"/>
          <path id="Trazado_1261899" data-name="Trazado 1261899" d="M8.74,172.447a17.526,17.526,0,0,1-.7,2.574,18.55,18.55,0,0,1-1.384,3.051L3.071,175.2l1.306-3.289Z" transform="translate(-1.153 -64.527)" fill="#635749"/>
          <path id="Trazado_1261900" data-name="Trazado 1261900" d="M4.554,173.9c-.326.937-.943,1.574-1.376,1.423s-.522-1.033-.2-1.97.943-1.574,1.377-1.423.521,1.033.195,1.97" transform="translate(-1.046 -64.527)" fill="#918371"/>
          <path id="Trazado_1261901" data-name="Trazado 1261901" d="M252.067,364.508a73.581,73.581,0,0,1-3.66,22.956H98.267c-.025-.069-.044-.137-.069-.206a73.405,73.405,0,0,1-3.6-22.75,74.621,74.621,0,0,1,26.51-56.83,80.093,80.093,0,0,1,52.227-19.114c43.482,0,78.73,34,78.73,75.945" transform="translate(-35.508 -108.313)" fill="#fff2d4"/>
          <path id="Trazado_1261902" data-name="Trazado 1261902" d="M247.6,396.657,98.2,398.743a73.406,73.406,0,0,1-3.6-22.75,74.621,74.621,0,0,1,26.51-56.83Z" transform="translate(-35.508 -119.799)" fill="#efdebd"/>
          <path id="Trazado_1261903" data-name="Trazado 1261903" d="M235.531,324.81H249a6.916,6.916,0,0,1,6.791,5.591c2.494,12.783,8.445,43.532,9.218,49.913.982,8.1-5.647,14.486-5.647,14.486h-30.2Z" transform="translate(-86.017 -121.918)" fill="#5e4f45"/>
          <path id="Trazado_1261904" data-name="Trazado 1261904" d="M166.416,348.758,150.781,386.23l8.092,5.815s16.167-15.063,17.913-24.329-10.37-18.958-10.37-18.958" transform="translate(-56.596 -130.907)" fill="#dc911b"/>
          <path id="Trazado_1261905" data-name="Trazado 1261905" d="M207.989,334.134l15.645,6.262-6.231,43.99a34.63,34.63,0,0,1,6.875,16.205H181.555l2.455-17.024-8.2-40.954,14.644-7.171s6.2-5.892,17.535-1.309" transform="translate(-65.991 -124.763)" fill="#e7b142"/>
          <path id="Trazado_1261906" data-name="Trazado 1261906" d="M186.756,312.18s-6.3,14.777-4.669,18.783c.6,1.477,4.014,2.951,5.978.66a5.7,5.7,0,0,0,4.644-.66c2.641-1.469,2.723-10.963,2.723-10.963Z" transform="translate(-68.246 -117.178)"/>
          <path id="Trazado_1261907" data-name="Trazado 1261907" d="M214.3,312.18l-1.35,14.179s-3.6,7.411-10.9,6.451c0,0-.7-8.844-.635-11.239Z" transform="translate(-75.6 -117.178)" fill="#db7e6b"/>
          <path id="Trazado_1261908" data-name="Trazado 1261908" d="M200.4,333.394l1.645,4.194s10.269-8.591,11.92-8.824l1.071,1.864-8.165,12-4.826-3.509-3.963,2.132.8-4.513Z" transform="translate(-74.35 -123.402)" fill="#fff"/>
          <path id="Trazado_1261909" data-name="Trazado 1261909" d="M186.545,290.914c0,8.052,2.762,17.433,7.3,17.862,7.257.686,18.17-9.1,18.17-17.157s-5.97-14.947-13.259-14.947-12.215,6.189-12.215,14.241" transform="translate(-70.02 -103.85)" fill="#ff967f"/>
          <path id="Trazado_1261910" data-name="Trazado 1261910" d="M197.877,275.682c-1.464,3.139-1.465,8.022,4.755,13.014a23.9,23.9,0,0,0,9.576,4.419s-.082,5.075-2.783,5.075c0,0-.944,8.461,1.9,12.825s7.347,1.825,7.347,1.825a6.273,6.273,0,0,0,6.629.409c4.174-1.964,2.784-5.238,2.784-5.238s-7.517-17.821-8.35-24.144c-1.514-11.5-17.719-17.064-21.861-8.185" transform="translate(-73.973 -101.833)"/>
          <path id="Trazado_1261911" data-name="Trazado 1261911" d="M183.236,280.988a10.569,10.569,0,0,0,1.814,11.457s1.132-6.3,4.57-10.8a44.266,44.266,0,0,1,9.105-8.287s-10.661-2.844-15.489,7.632" transform="translate(-68.408 -102.473)"/>
          <path id="Trazado_1261912" data-name="Trazado 1261912" d="M247.487,345.208a10.991,10.991,0,0,0-5.22,4.809c-2.171,3.738-2.91,35.665-2.91,35.665s2.85,1.984,8.872-.977,5.018-28.753,4.224-33.434a7.946,7.946,0,0,0-4.967-6.063" transform="translate(-89.843 -129.575)" fill="#dc911b"/>
          <path id="Trazado_1261913" data-name="Trazado 1261913" d="M216.256,304.128l-11.83,11.036,5.869,6.892,10.941-11.716Z" transform="translate(-76.732 -114.155)" fill="#cb4f24"/>
          <path id="Trazado_1261914" data-name="Trazado 1261914" d="M220.5,337.183s2.953,35.909,6.391,41.557,9.453,3.437,9.453,3.437,3.34-4.721,2.7-9.085-11.663-38.086-11.663-38.086Z" transform="translate(-82.766 -125.745)" fill="#ff967f"/>
          <path id="Trazado_1261915" data-name="Trazado 1261915" d="M223.25,325.617,220.04,314.6s-2.923-4.016-3.2-4.318a6.093,6.093,0,0,0-3.466-.07,1.34,1.34,0,0,0,.628.6c.488.256,1.791.768,1.791.768l2.109,3.766-.315.267c-.73-.888-2.58-3.139-2.888-3.474a17.543,17.543,0,0,0-3.1-1.43,2.02,2.02,0,0,0,.454,1.36,10.472,10.472,0,0,0,1.326,1.274l2.143,4.025-.28.237c-.557-.99-1.714-3.036-1.9-3.286a16.867,16.867,0,0,0-2.512-1.448s-.565.888,1.482,2.493l1.432,3.509-.257.217a20.811,20.811,0,0,0-1.532-2.571c-.454-.477-2.462-2.1-2.462-2.1a3.981,3.981,0,0,0,1.743,3.352l2.354,4.556,2.926,6.182Z" transform="translate(-78.631 -116.357)" fill="#ff967f"/>
          <path id="Trazado_1261916" data-name="Trazado 1261916" d="M126.35,408.747,101.093,424.7c-2.544-.793-6.088-1.891-6.427-1.953-.534-.1-2.086,1.844-2.086,1.844l-1.5.146-1.019.776-1.8.485-.776,1.407-1.067.776-.728,2.329a1.448,1.448,0,0,0,1.5-.518l.049.76h9.946s.485.534,3.59.485a16.887,16.887,0,0,0,5.822-1.246s23.238-6.816,27.84-15.426c0,0-1.017-4.5-8.092-5.815" transform="translate(-32.164 -153.424)" fill="#ff967f"/>
          <path id="Trazado_1261917" data-name="Trazado 1261917" d="M97.745,391.523l9.833,32.294H158.37l-1.36-3.321H141.18l-8.733-28.973Z" transform="translate(-36.689 -146.959)" fill="#cb4f24"/>
          <rect id="Rectángulo_455377" data-name="Rectángulo 455377" width="222.617" height="2.993" transform="translate(20.134 276.156)" fill="#5e4f45"/>
          <rect id="Rectángulo_455378" data-name="Rectángulo 455378" width="17.31" height="27.438" transform="translate(178.695 220.752)" fill="#c5c5c5"/>
          <rect id="Rectángulo_455379" data-name="Rectángulo 455379" width="17.31" height="27.438" transform="translate(175.7 222.306)" fill="#d9d9d9"/>
          <rect id="Rectángulo_455380" data-name="Rectángulo 455380" width="17.31" height="27.438" transform="translate(173.245 223.534)" fill="#ececec"/>
          <rect id="Rectángulo_455381" data-name="Rectángulo 455381" width="17.31" height="27.438" transform="translate(171.035 224.857)" fill="#f6f6f6"/>
          <rect id="Rectángulo_455382" data-name="Rectángulo 455382" width="9.762" height="47.716" transform="translate(190.818 228.44)" fill="#9c897a"/>
          <rect id="Rectángulo_455383" data-name="Rectángulo 455383" width="5.975" height="8.267" transform="translate(192.682 230.978)" fill="#c5ba9f"/>
          <rect id="Rectángulo_455384" data-name="Rectángulo 455384" width="5.975" height="0.614" transform="translate(192.682 240.43)" fill="#c5ba9f"/>
          <path id="Trazado_1261918" data-name="Trazado 1261918" d="M275.945,381.835h-5.279v31.592h21.747V365.711Z" transform="translate(-101.595 -137.271)" fill="#917d70"/>
          <rect id="Rectángulo_455385" data-name="Rectángulo 455385" width="9.821" height="16.205" transform="translate(204.939 259.951)" fill="#9c897a"/>
          <path id="Trazado_1261919" data-name="Trazado 1261919" d="M97.745,391.523,140.7,423.115H107.364Z" transform="translate(-36.689 -146.959)" fill="#a8462c"/>
          <path id="Trazado_1261920" data-name="Trazado 1261920" d="M130.424,414.469c.449,1.644-.255,3.267-1.571,3.627s-2.747-.683-3.2-2.327.255-3.268,1.572-3.627,2.746.683,3.194,2.327" transform="translate(-47.115 -154.672)" fill="#e56441"/>
        </g>
      </g>
    </g>
  </g>
</svg>
