<svg xmlns="http://www.w3.org/2000/svg" width="144.765" height="117.619" viewBox="0 0 144.765 117.619">
  <g id="Grupo_1205216" data-name="Grupo 1205216" transform="translate(-1042.413 -3592.34)">
    <path id="Rectángulo_401180" data-name="Rectángulo 401180" d="M59,0H89a0,0,0,0,1,0,0V91a0,0,0,0,1,0,0H0a0,0,0,0,1,0,0V59A59,59,0,0,1,59,0Z" transform="translate(1042.413 3592.34)" fill="#fff"/>
    <g id="Grupo_1204803" data-name="Grupo 1204803" transform="translate(1044.973 3521.547)">
      <g id="Grupo_1204799" data-name="Grupo 1204799" transform="translate(83.434 106.719)">
        <path id="Trazado_1265952" data-name="Trazado 1265952" d="M362.228,113.92h-.134c-9.321.077-16.837,8.133-16.756,17.958.081,9.778,7.656,17.679,16.916,17.679h.134a16.364,16.364,0,0,0,12.009-5.422,18.226,18.226,0,0,0,4.747-12.536C379.064,121.821,371.489,113.92,362.228,113.92Z" transform="translate(-332.855 -113.92)" fill="#e5efd6"/>
        <path id="Trazado_1265953" data-name="Trazado 1265953" d="M334.09,249.73h-8.611a25.108,25.108,0,0,0-25.08,25.08v10.618H359.17V274.81A25.108,25.108,0,0,0,334.09,249.73Z" transform="translate(-300.399 -212.01)" fill="#e5efd6"/>
      </g>
      <g id="Grupo_1204800" data-name="Grupo 1204800" transform="translate(0 106.719)">
        <path id="Trazado_1265954" data-name="Trazado 1265954" d="M61.829,113.92h-.134c-9.321.077-16.837,8.133-16.756,17.958.081,9.778,7.656,17.679,16.916,17.679h.134A16.365,16.365,0,0,0,74,144.135,18.223,18.223,0,0,0,78.746,131.6C78.665,121.821,71.09,113.92,61.829,113.92Z" transform="translate(-32.456 -113.92)" fill="#88a160"/>
        <path id="Trazado_1265955" data-name="Trazado 1265955" d="M33.691,249.73H25.08A25.108,25.108,0,0,0,0,274.81v10.618H58.771V274.81A25.108,25.108,0,0,0,33.691,249.73Z" transform="translate(0 -212.01)" fill="#88a160"/>
      </g>
      <g id="Grupo_1204801" data-name="Grupo 1204801" transform="translate(36.812 103.95)">
        <path id="Trazado_1265956" data-name="Trazado 1265956" d="M201.54,288.871V300.8h-69V288.871a29.353,29.353,0,0,1,29.321-29.321h10.357A29.352,29.352,0,0,1,201.54,288.871Z" transform="translate(-132.54 -216.333)" fill="#a6cdec"/>
        <path id="Trazado_1265957" data-name="Trazado 1265957" d="M225.573,124.539c0,11.351-8.741,20.586-19.487,20.586-.069,0-.142,0-.211,0C195.227,145,186.6,135.816,186.6,124.539s8.627-20.467,19.275-20.586c.069,0,.142,0,.211,0C216.832,103.95,225.573,113.185,225.573,124.539Z" transform="translate(-171.585 -103.95)" fill="#a6cdec"/>
      </g>
      <g id="Grupo_1204802" data-name="Grupo 1204802" transform="translate(71.103 103.95)">
        <path id="Trazado_1265958" data-name="Trazado 1265958" d="M256.211,145.126c-.069,0-.142,0-.211,0v-41.17c.069,0,.142,0,.211,0,10.746,0,19.487,9.235,19.487,20.589S266.957,145.126,256.211,145.126Z" transform="translate(-256 -103.95)" fill="#a6cdec"/>
        <path id="Trazado_1265959" data-name="Trazado 1265959" d="M290.71,288.871V300.8H256V259.55h5.388A29.352,29.352,0,0,1,290.71,288.871Z" transform="translate(-256 -216.333)" fill="#a6cdec"/>
      </g>
    </g>
  </g>
</svg>
