<svg xmlns="http://www.w3.org/2000/svg" xmlns:xlink="http://www.w3.org/1999/xlink" width="400" height="315.5" viewBox="0 0 400 315.5">
  <defs>
    <clipPath id="clip-path">
      <rect id="Rectángulo_461906" data-name="Rectángulo 461906" width="254.629" height="315.5" fill="none"/>
    </clipPath>
  </defs>
  <g id="Grupo_1205212" data-name="Grupo 1205212" transform="translate(-1020 -411.27)">
    <g id="Grupo_1204481" data-name="Grupo 1204481" transform="translate(840 -14.997)">
      <path id="Trazado_145968" data-name="Trazado 145968" d="M66.711,0a66.711,66.711,0,1,0,66.711,66.711A66.711,66.711,0,0,0,66.711,0Z" transform="translate(190.252 591.707)" fill="#a6cdec"/>
      <path id="Trazado_145969" data-name="Trazado 145969" d="M45.584,0A45.584,45.584,0,1,0,91.168,45.584,45.584,45.584,0,0,0,45.584,0Z" transform="translate(451.561 447.276)" fill="#a6cdec"/>
      <rect id="Rectángulo_34812" data-name="Rectángulo 34812" width="400" height="300" transform="translate(180 430.356)" fill="none"/>
      <path id="Trazado_145967" data-name="Trazado 145967" d="M150.485,0A150.485,150.485,0,1,0,300.971,150.485,150.485,150.485,0,0,0,150.485,0Z" transform="translate(229.515 429.871)" fill="#aaca79"/>
      <path id="Trazado_145971" data-name="Trazado 145971" d="M12.533,0A12.533,12.533,0,1,0,25.066,12.533,12.533,12.533,0,0,0,12.533,0Z" transform="translate(505.419 680.454)" fill="#0a4666"/>
      <path id="Elipse_4044" data-name="Elipse 4044" d="M17,4.594A12.4,12.4,0,1,1,4.594,17,12.417,12.417,0,0,1,17,4.594M17,0a17,17,0,1,0,17,17A17,17,0,0,0,17,0Z" transform="translate(471.425 537.216)" fill="#fff"/>
      <g id="Grupo_1204497" data-name="Grupo 1204497" transform="translate(246.279 426.267)">
        <g id="Grupo_1204496" data-name="Grupo 1204496" clip-path="url(#clip-path)">
          <path id="Trazado_1262272" data-name="Trazado 1262272" d="M313.865,771.572c0,7.973-44.926,14.437-100.346,14.437s-100.346-6.464-100.346-14.437S158.1,757.135,213.52,757.135s100.346,6.464,100.346,14.437" transform="translate(-79.087 -529.093)" fill="#ffebb1"/>
          <path id="Trazado_1262273" data-name="Trazado 1262273" d="M247.793,143.9c-1.387-.792-2.785-1.563-4.159-2.378a71.608,71.608,0,0,1-14.076-10.9,71.1,71.1,0,0,1-20.05-39.105,72.116,72.116,0,0,1-.764-16.139,71.161,71.161,0,0,1,40.666-59.947,71.32,71.32,0,0,1,17.433-5.623,72.672,72.672,0,0,1,18.927-.942,71.253,71.253,0,0,1,57.842,38.747,70.855,70.855,0,0,1,6.733,20.553,71.727,71.727,0,0,1-5.652,42,70.953,70.953,0,0,1-13.477,19.611,70.069,70.069,0,0,1-11.874,9.836,3.374,3.374,0,0,0-1.063.824,6.129,6.129,0,0,0-1.615.9c-1.814,1.126-3.753,2.019-5.611,3.062l-5.752,2.44-1.356.517c-2.111.58-4.178,1.31-6.3,1.842a73.7,73.7,0,0,1-13.073,2.042,71.2,71.2,0,0,1-23.162-2.276c-.3-.08-.613-.119-.92-.176a4.929,4.929,0,0,0-1.23-.336c-1.727-.681-3.491-1.257-5.255-1.832-1.1-.475-2.2-.946-3.3-1.427-.972-.426-1.939-.862-2.908-1.294m-24.14-64.823a56.253,56.253,0,1,0,56.355-56.214,56.148,56.148,0,0,0-56.355,56.214" transform="translate(-145.77 -6.036)" fill="#445130"/>
          <path id="Trazado_1262274" data-name="Trazado 1262274" d="M525.17,453.157l1.357-.518c.329,1.46.594,2.937,1,4.374.622,2.2.88,4.524,2.166,6.505a1.647,1.647,0,0,1,.17.492c.672,2.664,1.338,5.33,2.013,7.993a43.4,43.4,0,0,0,2.708,8.754,15.976,15.976,0,0,1,1.157,3.126c1,3.91,2.005,7.818,3.063,11.712a64.678,64.678,0,0,0,1.835,6.416c.551,1.428,1.259,2.789,1.7,4.262,1.19,3.966,2.234,7.971,3.326,11.964.541,1.978,1.13,3.949,1.823,5.879,1.717,4.784,3.2,9.642,4.569,14.532,1.041,3.718,1.966,7.468,2.9,11.214a1.458,1.458,0,0,0,1.1,1.2,18.879,18.879,0,0,1,3.877,1.524c.091.051.2.041.281-.115-1.34-3.586-2.553-7.252-3.756-10.921-4.932-15.046-9.387-30.231-13.215-45.6-2.5-10.025-5.266-19.982-7.545-30.06-1.182-5.224-2.477-10.424-3.431-15.7,1.858-1.043,3.8-1.936,5.611-3.062a6.123,6.123,0,0,1,1.615-.9c1.091,6.6,2.71,13.082,4.227,19.585,1.6,6.878,3.415,13.708,5.151,20.554,1.633,6.442,3.11,12.924,4.9,19.326,3.205,11.46,6.434,22.912,10.234,34.2,1.5,4.451,3,8.9,4.693,13.284q.094.243.179.49c.278.816.278.838-.533.87-2.191.088-4.382.154-6.574.235a4.283,4.283,0,0,1-2.216-.5,19.885,19.885,0,0,0-3.658-1.513,2.512,2.512,0,0,1-1.919-1.938q-1.51-5.915-3.2-11.783c-1.323-4.615-2.683-9.22-4.323-13.737-1.117-3.077-1.972-6.235-2.848-9.386-.867-3.117-1.71-6.242-2.664-9.332-.46-1.49-1.135-2.915-1.742-4.356a21.155,21.155,0,0,1-.9-2.887c-1.3-4.948-2.617-9.889-3.9-14.842a18.062,18.062,0,0,0-1.268-3.417,28.118,28.118,0,0,1-1.877-5.524q-1.352-5.364-2.69-10.731a2.84,2.84,0,0,0-.254-.79c-1.319-2.159-1.631-4.645-2.28-7.019-.348-1.273-.588-2.576-.877-3.866" transform="translate(-366.994 -311.835)" fill="#437286"/>
          <path id="Trazado_1262275" data-name="Trazado 1262275" d="M269.277,462.283a4.943,4.943,0,0,1,1.23.336,35.112,35.112,0,0,1-1.783,4.788,52.8,52.8,0,0,0-2.578,7.821,82.757,82.757,0,0,1-2.662,8.127c-1.139,3.028-2.4,6.009-3.571,9.024a53.118,53.118,0,0,0-1.616,5.068c-.467,1.682-1.24,3.248-1.834,4.882q-1.514,4.168-3.074,8.32c-.731,1.954-1.495,3.894-2.119,5.889-.706,2.256-1.52,4.479-2.23,6.734-.742,2.358-1.545,4.695-2.439,7-1.5,3.86-2.949,7.74-4.213,11.681-1.04,3.246-2,6.515-3.228,9.7-.6,1.558-1.228,3.1-1.824,4.664a2.075,2.075,0,0,1-.928,1.076,43.814,43.814,0,0,0-4.219,2.887,4.593,4.593,0,0,1-3.235,1.134c-1.973-.117-3.959-.03-5.984-.03-.118-.392.1-.732.2-1.079,2.394-8.695,5.372-17.2,8.334-25.71,1.818-5.224,3.459-10.509,5.3-15.723,2.283-6.462,4.7-12.876,7.044-19.316,1.261-3.467,2.376-6.983,3.469-10.505,1.052-3.392,2.327-6.7,3.477-10.061a65.637,65.637,0,0,0,2.271-8.027,48.616,48.616,0,0,1,3.813-11.131c.33-.69.624-1.4.934-2.1.969.432,1.936.869,2.908,1.294,1.1.481,2.2.952,3.3,1.427-.257.866-.488,1.741-.775,2.6a80.949,80.949,0,0,0-3.109,10.388,68.642,68.642,0,0,1-2.55,9.031c-.76,2.24-1.6,4.453-2.321,6.7-2.133,6.659-4.268,13.316-6.74,19.861-2.188,5.792-4.369,11.587-6.307,17.47-1.85,5.616-3.721,11.225-5.755,16.779-1.711,4.672-3.262,9.4-4.687,14.165a2.107,2.107,0,0,0-.227,1.188,44.3,44.3,0,0,1,4.627-2.934c.264-.118.317-.353.4-.573,1.286-3.234,2.412-6.525,3.4-9.861.86-2.9,1.773-5.784,2.82-8.624s2.13-5.665,3.172-8.505c2.12-5.778,3.77-11.718,5.992-17.462,1.154-2.984,2.241-5.994,3.335-9,.582-1.6,1.321-3.139,1.789-4.786s.957-3.274,1.551-4.868c.947-2.541,1.988-5.048,2.992-7.568a94.389,94.389,0,0,0,3.319-9.883,47.48,47.48,0,0,1,1.487-5c.964-2.423,1.894-4.859,2.838-7.289" transform="translate(-155.791 -319.866)" fill="#437286"/>
          <path id="Trazado_1262276" data-name="Trazado 1262276" d="M258.579,112.083A56.253,56.253,0,1,1,314.7,168.436a56.127,56.127,0,0,1-56.117-56.354M313.81,76.564a35.211,35.211,0,1,0,35.231,35.154A35.238,35.238,0,0,0,313.81,76.564" transform="translate(-180.697 -39.042)" fill="#fff5d5"/>
          <path id="Trazado_1262277" data-name="Trazado 1262277" d="M360.346,124.58a35.211,35.211,0,1,1-35.175,35.213,35.039,35.039,0,0,1,35.175-35.213m-15.488,34.769c-.077,3.6,2.181,7.971,5.79,10.625a17.66,17.66,0,0,0,6.459,2.831,13.838,13.838,0,0,0,13.8-3.835,15.143,15.143,0,0,0,4.4-10.966,13.609,13.609,0,0,0-8.314-13.135,14.862,14.862,0,0,0-19.046,4.71,14.948,14.948,0,0,0-3.089,9.769" transform="translate(-227.233 -87.058)" fill="#445130"/>
          <path id="Trazado_1262278" data-name="Trazado 1262278" d="M390.531,202.581a14.947,14.947,0,0,1,3.089-9.769,14.861,14.861,0,0,1,19.045-4.71,13.609,13.609,0,0,1,8.314,13.135,15.143,15.143,0,0,1-4.4,10.966,13.838,13.838,0,0,1-13.8,3.835,17.659,17.659,0,0,1-6.459-2.831c-3.609-2.655-5.868-7.026-5.79-10.625" transform="translate(-272.905 -130.291)" fill="#fff4d5"/>
          <path id="Trazado_1262279" data-name="Trazado 1262279" d="M88.4,445.491c-.233,1.482-.436,2.969-.6,4.46-.1.907-.687,4.245-.791,4.705a2.991,2.991,0,0,1-2.112,2.492,2.788,2.788,0,0,1-3.153-1.112,2.849,2.849,0,0,1-.508-2.249c.218-1.286.482-2.567.639-3.86.482-3.967,1.134-7.906,1.886-11.829.641-3.34,1.338-6.67,2-10.007.215-1.084.19-1.066-.806-1.476a11.18,11.18,0,0,0-2.083-.45c-1.479-.3-2.856-.94-4.314-1.31-4.178-1.06-8.339-2.188-12.609-2.843a28.446,28.446,0,0,1-4.446-1.273c-1.105-.36-1.129-.353-1.422.812-.707,2.8-1.318,5.628-2.13,8.4-.757,2.583-2.852,12.559-3.278,14.934a8.493,8.493,0,0,1-.565,2.055,2.757,2.757,0,0,1-5.333-1.2,3.069,3.069,0,0,1,.036-.592c.873-4.019,1.314-8.122,2.334-12.11.509-1.992,1.17-3.946,1.7-5.933.852-3.17,1.674-6.347,2.221-9.59.154-.911.79-9.722,1.443-13.176.668-3.535,1.475-7.044,2.158-10.577,1.079-5.583,2.274-11.147,3.225-16.748.7-4.128,1.561-8.229,2.151-12.381.706-4.971,1.666-9.905,2.468-14.863.562-3.474,1.038-6.961,1.562-10.441.566-3.754,8.985-65.035,8.781-65.207q.479-4.6,1.409-9.138c.752-3.643,1.318-7.317,1.835-11,.341-2.427.525-4.876.794-7.313.469-4.245.935-8.488,1.769-12.684.648-3.256,1.982-12.711,1.984-13.582a2.3,2.3,0,0,1,1.979-2.3,2.438,2.438,0,0,1,2.551,1.516,4.352,4.352,0,0,1,.279,1.5c.039.628-.989,9.777-.79,9.954.076.391.37.456.7.5,5.058.659,9.953,2.134,14.974,2.981q3.619.611,7.226,1.286a11.294,11.294,0,0,1,2.052.565c1.272.5,2.66.351,3.941.78.4.133.436-.212.463-.494.149-1.572.311-3.142.438-4.715.108-1.338.147-2.683.27-4.02a3.514,3.514,0,0,1,1.294-2.695c1.978-1.453,5.056-.847,4.78,3.906.107,2.474-1.552,17.352-1.914,19.6-.237,1.472-1.064,7.753-1.129,8.229-.21.136-3.391,17.56-4.243,23.2q-1,6.63-1.964,13.266c-.463,3.217-1.256,6.363-1.933,9.536-1.479,6.925-3.215,13.794-4.556,20.749-.524,2.718-4.545,24.827-4.9,26.943-.205.148-2.412,15-2.619,16.408-.195.146-3.509,22.162-4.457,27.233-.036.193-2.343,13.691-3.081,17.87-.143.812-4.959,29.116-5.617,33.291M86.335,247.013c-.2.145-.236.3-.035.476l-.194,1.665c-.216.147-.235.305-.027.476-.064.509-.16,1.017-.188,1.529a89.938,89.938,0,0,1-1.31,9.87c-.272,1.625-.13,1.277,1.175,1.663.075.022.157.02.235.035,3.1.6,6.227,1.081,9.367,1.462,2.863.348,5.715.791,8.58,1.124A26.177,26.177,0,0,1,110.826,267c.91.37,1.827.723,2.765,1.095a2.376,2.376,0,0,0,.222-.466c.646-3.009,1.308-6.017,1.765-9.061.574-3.829.913-7.692,1.643-11.5.179-.932.364-1.863.493-2.8.124-.909.081-.863-.776-1.076-1.5-.372-3.073-.362-4.531-.882a32.606,32.606,0,0,0-5.548-1.241c-4.131-.7-8.245-1.5-12.315-2.5-1.958-.481-3.917-.956-5.9-1.3-.967-.165-1-.13-1.162.8-.511,2.961-.8,5.952-1.142,8.935m-9.176,68.268c.234.246.485.2.715.235,1.33.2,2.662.379,3.987.6,4.679.777,9.29,1.915,13.982,2.63,2.309.352,4.634.528,6.951.786,1.088.121,1.132.048,1.337-1.01.971-5.009,2.171-9.968,3.278-14.948.343-1.544.692-3.087,1.015-4.635.179-.859.1-.982-.763-1.014a12.5,12.5,0,0,1-1.752-.3c-1.558-.28-3.147-.287-4.706-.586q-2.917-.56-5.768-1.375c-4.769-1.365-9.775-1.449-14.56-2.724-.375-.1-.489.147-.535.451-.136.9-.3,1.794-.4,2.7-.486,4.284-1.191,8.537-1.84,12.8-.327,2.145-.633,4.294-.943,6.4m31.277-22.109c1.076.012,1.079.012,1.267-.977.066-.349.118-.7.17-1.053.521-3.516,1.027-7.035,1.567-10.549.312-2.03.681-4.052,1.021-6.077.069-.407.068-.71-.432-.942a28.626,28.626,0,0,0-6.436-2.378c-3.181-.626-6.415-.879-9.621-1.328a76.222,76.222,0,0,1-11.735-2.278c-.729-.222-.857-.153-.968.547-.42,2.653-.8,5.311-1.007,7.993-.166,2.166-.406,4.326-.625,6.488-.171,1.69-.371,3.378-.534,5.069-.088.921,0,1.029.91,1.15,1.331.178,2.662.362,4,.478a57.5,57.5,0,0,1,7.85,1.146c4.309.984,8.569,2.215,13.015,2.5a14.188,14.188,0,0,0,1.558.212M60.864,413.582c0,.4,0,.792,0,1.188.006,1,.008,1,.942,1.337a27.248,27.248,0,0,0,5.261,1.412A119.886,119.886,0,0,1,79.9,420.387a57.447,57.447,0,0,0,6.07,1.574c.774.115.858.106,1.041-.679.027-.115.027-.237.053-.352a58.549,58.549,0,0,0,.759-6.589c.434-4.09,1.259-8.119,2-12.159.451-2.444.407-2.53-2.06-2.8a46.957,46.957,0,0,1-5.989-.752,38.684,38.684,0,0,0-8.109-.905c-1.379-.037-2.753-.241-4.13-.368a41.377,41.377,0,0,1-5.039-.733.527.527,0,0,0-.706.435c-.251,1.032-.531,2.059-.737,3.1-.391,1.97-.753,3.946-1.1,5.923a44.477,44.477,0,0,0-1.088,7.5m12.853-73.52c-.071,1.252-.072,1.263,1.018,1.307a54.615,54.615,0,0,1,9.274,1.205c2.665.572,5.266,1.43,7.975,1.8,1.839.249,3.692.4,5.53.651,1.661.229,1.619.258,1.909-1.433.655-3.816,1.341-7.626,2.033-11.436.4-2.216.868-4.421,1.251-6.64.21-1.213.106-1.273-.982-1.331-.586-.031-1.175-.138-1.769-.147a19.436,19.436,0,0,1-2.135-.052c-4.512-.566-8.953-1.526-13.407-2.416-2.4-.48-4.822-.855-7.233-1.281-.525-.093-.795.04-.847.644-.1,1.14-.315,2.269-.426,3.409-.333,3.423-.881,6.817-1.37,10.219-.276,1.916-.57,3.83-.82,5.505m24.4,11.08c.167-.538-.11-.744-.484-.85a10,10,0,0,0-1.859-.349c-1.769-.156-3.54-.3-5.3-.613-2.338-.419-4.628-1.031-6.925-1.619a90.992,90.992,0,0,0-10.193-1.5c-.41-.057-.547.17-.6.541-.247,1.641-.5,3.283-.774,4.919q-1.218,7.187-2.464,14.37c-.094.543.012.781.62.836,1.416.128,2.837.266,4.234.523a145.982,145.982,0,0,1,18.439,4.382,9.9,9.9,0,0,0,1.157.258c.508.1.814-.043.9-.626.469-3.046.962-6.087,1.452-9.13.389-2.413.789-4.824,1.179-7.237.214-1.326.418-2.654.614-3.9m-7.7,43.8c.385.084.623-.042.7-.442.057-.311.139-.617.188-.929q.679-4.334,1.349-8.669c.372-2.382.753-4.764,1.119-7.147.117-.764.08-.838-.662-.891a6.49,6.49,0,0,1-2.077-.447,22.78,22.78,0,0,0-3.172-.963c-6.01-1.558-12.053-2.96-18.19-3.929-.953-.15-.955-.149-1.171.785-.4,1.736-.576,3.508-.878,5.258-.55,3.193-1.25,6.359-1.873,9.54-.228,1.163-.352,2.35-.633,3.5-.414,1.7-.22,1.478,1.187,1.633,3.221.354,6.445.722,9.693.768.752.011,1.509,0,2.255.083,2.749.3,5.419,1.1,8.192,1.274a17.675,17.675,0,0,1,3.978.577" transform="translate(-34.083 -152.394)" fill="#ffdc5a"/>
          <path id="Trazado_1262280" data-name="Trazado 1262280" d="M172.321,321.254c.21.171.192.329-.026.476-.208-.17-.189-.329.026-.476" transform="translate(-120.299 -224.495)" fill="#ffeeae"/>
          <path id="Trazado_1262281" data-name="Trazado 1262281" d="M173.089,314.148c.216.175.2.333-.035.476-.2-.174-.167-.331.035-.476" transform="translate(-120.837 -219.53)" fill="#ffeeae"/>
          <path id="Trazado_1262282" data-name="Trazado 1262282" d="M290.313,110.683a9.66,9.66,0,0,1,1.016,2.462,39.77,39.77,0,0,1,2.145,6.5,8.215,8.215,0,0,0,.52,1.539c.389.951.092,1.469-.931,1.654a4.775,4.775,0,0,1-1.385.081c-1.028-.114-2.06-.195-3.091-.289a9.387,9.387,0,0,0-3.793-.467l-2.366-.211c-.462-.105-.9-.386-1.4-.189-.791-.3-.947-.595-.6-1.366a14.155,14.155,0,0,1,1.645-2.537c.341-.458,1.044-.841.909-1.4-.105-.433-.747-.736-1.153-1.094-1.771-1.561-3.526-3.139-5.318-4.676-2.143-1.838-4.229-3.746-6.288-5.667-2.923-2.729-5.918-5.371-8.917-8.01-4.011-3.53-8.06-7.016-12.2-10.392Q244.65,83,240.178,79.4c-3.316-2.668-6.518-5.468-9.677-8.319a2.975,2.975,0,0,1-.924-1.026c.792-.3,1.576-.629,2.379-.9.337-.111.542-.261.571-.617a.456.456,0,0,0,.227.034,37.918,37.918,0,0,0,3.969,3.362c1.941,1.514,3.925,2.973,5.862,4.493,3.83,3.006,7.725,5.932,11.438,9.085,4.334,3.68,8.684,7.342,12.961,11.088,4.161,3.644,8.263,7.356,12.338,11.1,1.532,1.406,3.219,2.642,4.624,4.19a5.544,5.544,0,0,0,.769.509c1.352,1.044,1.351,1.048,2.443-.327a5.793,5.793,0,0,1,2.017-1.991l.944.319,0,0a.312.312,0,0,0,.2.286" transform="translate(-160.43 -47.9)" fill="#88a160"/>
          <path id="Trazado_1262283" data-name="Trazado 1262283" d="M169.642,15.467l-6.119-6.153a1.585,1.585,0,0,1,1.2-.38c1.888-.2,3.777-.4,5.669-.566.6-.051.829-.213.871-.89.145-2.319.4-4.632.614-6.947A.61.61,0,0,1,172.108,0c.085.021.224.013.3.079q2.859,2.637,5.705,5.287a.8.8,0,0,0-.089.209,14.17,14.17,0,0,0-.771,3.622,26.726,26.726,0,0,1-.674,3.766c-.1.4-.219.7-.667.843a28.264,28.264,0,0,1-4.915,1.359,3.8,3.8,0,0,0-1.35.3" transform="translate(-114.271)" fill="#fedc5a"/>
          <path id="Trazado_1262284" data-name="Trazado 1262284" d="M195.716,20.639a7.361,7.361,0,0,1,2,1.555,10.942,10.942,0,0,1,2.141,1.941c-.218-.082-.46-.2-.563.13a9.717,9.717,0,0,0-.289,1.125c-.332,1.793-.723,3.58-.951,5.387a2.39,2.39,0,0,1-2.015,2.218c-.263.067-.519.161-.78.239l-4.349,1.305a32.114,32.114,0,0,1-3.538-3.6,38.905,38.905,0,0,0,5.839-1.551,1.709,1.709,0,0,0,1.242-1.217c.8-2.338.857-4.806,1.352-7.2.021-.1-.059-.222-.092-.334" transform="translate(-130.939 -14.423)" fill="#fcda59"/>
          <path id="Trazado_1262285" data-name="Trazado 1262285" d="M213.141,44.752c-.029.356-.235.505-.571.617-.8.266-1.588.593-2.379.9-1.536.535-3.08,1.05-4.605,1.616a1.09,1.09,0,0,1-1.36-.231c-.783-.858-1.592-1.693-2.389-2.538,1.46-.382,2.922-.759,4.381-1.149a7.583,7.583,0,0,0,1.731-.67,2.781,2.781,0,0,0,1.451-1.847c.44-1.731.725-3.49,1.071-5.238a4.452,4.452,0,0,0,.262-1.71,29.456,29.456,0,0,1,3.734,3.012c.488.407.083.842,0,1.263a.612.612,0,0,0-.242.9q-.481,1.931-.962,3.863a.772.772,0,0,0-.117,1.221" transform="translate(-141.045 -24.107)" fill="#fddb5a"/>
          <path id="Trazado_1262286" data-name="Trazado 1262286" d="M208.833,32.715a4.439,4.439,0,0,1-.262,1.71c-.346,1.748-.631,3.507-1.071,5.238a2.781,2.781,0,0,1-1.451,1.847,7.6,7.6,0,0,1-1.731.67c-1.458.39-2.92.767-4.381,1.149a2.107,2.107,0,0,1-.818-.888l4.349-1.305c.26-.078.517-.172.779-.239a2.39,2.39,0,0,0,2.015-2.218c.227-1.807.618-3.593.95-5.387a9.71,9.71,0,0,1,.29-1.125c.1-.331.345-.211.563-.13.27.212.371.611.767.679" transform="translate(-139.147 -22.325)" fill="#4a7582"/>
          <path id="Trazado_1262287" data-name="Trazado 1262287" d="M193.245,19.152c.033.112.113.233.092.334-.495,2.39-.556,4.858-1.352,7.2a1.709,1.709,0,0,1-1.242,1.217A38.9,38.9,0,0,1,184.9,29.45,3.353,3.353,0,0,1,183.84,28.4a3.782,3.782,0,0,1,1.35-.3,28.3,28.3,0,0,0,4.915-1.36c.449-.139.564-.446.667-.843a26.726,26.726,0,0,0,.674-3.766,14.167,14.167,0,0,1,.771-3.622l.563.445.465.2" transform="translate(-128.469 -12.936)" fill="#497582"/>
          <path id="Trazado_1262288" data-name="Trazado 1262288" d="M412.908,246.473a9.392,9.392,0,0,1,3.793.467,20.579,20.579,0,0,1-3.793-.467" transform="translate(-288.544 -172.207)" fill="#95d0d6"/>
          <path id="Trazado_1262289" data-name="Trazado 1262289" d="M238.806,65.712a.772.772,0,0,1,.117-1.221,1.566,1.566,0,0,1,.109,1.256.456.456,0,0,1-.226-.034" transform="translate(-166.709 -45.067)" fill="#ffe893"/>
          <path id="Trazado_1262290" data-name="Trazado 1262290" d="M242.714,49.585a.612.612,0,0,1,.242-.9.638.638,0,0,1-.242.9" transform="translate(-169.538 -34.024)" fill="#ffe893"/>
          <path id="Trazado_1262291" data-name="Trazado 1262291" d="M400.393,245.091c.5-.2.941.084,1.4.189a1.824,1.824,0,0,1-1.4-.189" transform="translate(-279.798 -171.224)" fill="#78b6c0"/>
          <path id="Trazado_1262292" data-name="Trazado 1262292" d="M212.217,18.47l-.563-.444a.8.8,0,0,1,.089-.21c.3.114.539.274.474.654" transform="translate(-147.906 -12.45)" fill="#c7b96a"/>
          <path id="Trazado_1262293" data-name="Trazado 1262293" d="M428.392,206.541l-.944-.319a.627.627,0,0,1,.944.319" transform="translate(-298.705 -144.039)" fill="#9691a1"/>
          <path id="Trazado_1262294" data-name="Trazado 1262294" d="M430.769,207.789a.312.312,0,0,1-.2-.286.275.275,0,0,1,.2.286" transform="translate(-300.886 -145.005)" fill="#9691a1"/>
          <path id="Trazado_1262295" data-name="Trazado 1262295" d="M90.695,560.117c-.772-.045-1.548-.052-2.314-.143-1.437-.171-2.28-.938-2.279-2a3.342,3.342,0,0,1,2.307-2.793c.5-.091,1.14.229,1.466-.2s.179-1.079.187-1.63a16.805,16.805,0,0,1,.518-3.954,8.444,8.444,0,0,0,.216-2.047,21.628,21.628,0,0,1,.6-5.368,4.019,4.019,0,0,0-.136-2.392,12.791,12.791,0,0,1-.168-5.492,23.808,23.808,0,0,1,.933-4.408,36.153,36.153,0,0,0,.706-5.1c1.039-6.939,1.337-13.944,1.913-20.926.365-4.423.512-8.838.466-13.268a2.586,2.586,0,0,0-.383-1.846c-.479,2.742-1.771,5.168-2.683,7.729a78.62,78.62,0,0,0-2.974,10.517,38.372,38.372,0,0,0-.926,8.824,35.782,35.782,0,0,1-.579,5.891,3.926,3.926,0,0,1-1.234,2.077,4.858,4.858,0,0,0-1.248,2.611c-.79,4.574-1.773,9.115-2.271,13.738a13.324,13.324,0,0,0,.071,4.108,33.538,33.538,0,0,1,.422,6.678,10.628,10.628,0,0,1-.662,3.272c-.154.476-.116.73.42.982a2.073,2.073,0,0,1,1.4,2.453,2.273,2.273,0,0,1-2.287,1.727c-1.63.095-3.264.117-4.9.17-3.109-.144-6.2.237-9.3.3a3.737,3.737,0,0,0-.742.167c-.816.038-1.632.065-2.447.116a4.139,4.139,0,0,1-1.535-.107,1.893,1.893,0,0,1-1.4-1.385,1.822,1.822,0,0,1,.782-1.916,3.222,3.222,0,0,1,1.416-.585c.5-.1,1-.22,1.494-.332-.14-1.62-.306-3.191-.4-4.766a7.289,7.289,0,0,1,1.008-4.332,10.95,10.95,0,0,0,1.385-5.028,36.7,36.7,0,0,0-.473-9.627,13.015,13.015,0,0,1-.092-1.67,15.038,15.038,0,0,0-.148-2.312,17.184,17.184,0,0,1,.674-8.767,96.588,96.588,0,0,0,2.311-10.962c1.225-6.646,1.552-13.4,2.588-20.064a62.443,62.443,0,0,1,3.419-13.995,3.724,3.724,0,0,0,1.244.285A64.961,64.961,0,0,1,84.7,475.4a58.913,58.913,0,0,0,10.044,1.477,153.62,153.62,0,0,1,16.874,1.816,10.205,10.205,0,0,0,3.706.243,19.024,19.024,0,0,1,.1,5.654c-.432,3.542-.7,7.1-1.23,10.636-.542,3.612-.832,7.262-1.266,10.891-.72,6.021-1.494,12.035-2.2,18.059-.662,5.681-1.341,11.361-1.746,17.069-.14,1.972-.429,3.933-.615,5.9-.073.768-.051,1.546-.069,2.319a1.485,1.485,0,0,0,.287.973,4.408,4.408,0,0,1,.431,4.293c-.281.921-.307.913.55,1.258a2.193,2.193,0,0,1,.649,3.965,3.806,3.806,0,0,1-2.837.969c-2.531-.139-5.067-.182-7.6-.264l-9.087-.539m8.77-70.4A7.244,7.244,0,0,0,102,496.159a3.192,3.192,0,0,0,1.441.8,11.616,11.616,0,0,0,3.568.367,4.721,4.721,0,0,0,4.639-4.567c.018-.212.083-.421.1-.634.137-1.749.265-3.5.4-5.248.049-.625-.15-.938-.853-.946a75.849,75.849,0,0,1-7.689-.488c-.976-.111-1.941-.318-2.912-.468-.75-.117-.828-.014-.989.754a20,20,0,0,0-.243,3.985M76,490.165c0,.335.012.593,0,.85a2.722,2.722,0,0,0,1.762,2.838,12.864,12.864,0,0,0,3.422,1.039,4.019,4.019,0,0,0,4.167-1.337,8.111,8.111,0,0,0,.887-1.257,24.674,24.674,0,0,0,1.88-5.725,8.5,8.5,0,0,0,.262-2.423c-.036-.983-.033-1.045-1.031-1.008-2.538.1-5.055-.267-7.584-.27-.719,0-1.509-.617-2.107-.08-.572.515-.461,1.436-.695,2.166A14.852,14.852,0,0,0,76,490.165m-.97,65.016c-1.457-.053-2.917.089-4.372-.106-.414-.056-.987-.114-1.041.448-.057.6.571.543.953.609a16.076,16.076,0,0,0,2.045.205c3,.123,6-.138,9.006-.163a2.232,2.232,0,0,0,.631-.085.485.485,0,0,0,.367-.473.421.421,0,0,0-.393-.433,9.259,9.259,0,0,0-1.791-.137c-1.8.148-3.6.075-5.4.134M108.19,518.1a.452.452,0,0,0-.882-.149,6.93,6.93,0,0,1-2,2.469,18.879,18.879,0,0,1-3.439,1.992c-1.424.693-2.738,1.6-4.229,2.162-.246.093-.463.278-.351.587s.394.318.648.261a3.671,3.671,0,0,0,.844-.3c1.757-.891,3.518-1.776,5.258-2.7a9.786,9.786,0,0,0,3.788-3.385,1.58,1.58,0,0,0,.367-.939m-7.56,37.24c.946,0,1.891-.005,2.837,0a3.417,3.417,0,0,0,1.259-.235c.207-.079.386-.2.336-.468-.039-.208-.224-.247-.391-.261-.769-.069-1.538-.167-2.309-.179a61.6,61.6,0,0,1-6.952-.264,7.661,7.661,0,0,0-1.159-.042c-.36.008-.866-.137-.9.428-.028.436.4.5.738.553.466.077.932.158,1.4.211a33.856,33.856,0,0,0,5.143.256M74.6,530.322a6.614,6.614,0,0,0,.816-.42,36.156,36.156,0,0,0,6.4-5.939,2.747,2.747,0,0,0,.454-.773.554.554,0,0,0-.3-.754c-.295-.136-.452.064-.6.313a5.831,5.831,0,0,1-.723,1.058A44.618,44.618,0,0,1,75.11,528.8c-.3.232-.723.3-.935.658a.487.487,0,0,0-.013.6,1.748,1.748,0,0,0,.44.267m18.529,8.632a.377.377,0,0,0-.3.372,1.893,1.893,0,0,0,.28.844c.858,2.006,2.672,3.073,4.278,4.34a1.22,1.22,0,0,0,.849.255c.313-.027.617-.112.667-.477.046-.332-.223-.422-.48-.486a3.822,3.822,0,0,1-1.393-.886,11,11,0,0,1-3.317-3.524.7.7,0,0,0-.582-.438m1.933-54.033a3.418,3.418,0,0,0-1.831-3.413c-.2-.081-.411-.182-.6,0a.472.472,0,0,0,.026.691c.3.365.66.684.933,1.066.411.576.275.837-.418.891-.47.036-.943.044-1.413.084a.393.393,0,0,0-.366.316c-.028.266.188.356.417.379.513.051,1.026.111,1.54.137.387.02.661.116.708.564.036.351.137.758.6.657.4-.089.394-.51.406-.856.006-.172,0-.344,0-.516m-18.5,15.156a.54.54,0,0,0,.461.541,9.023,9.023,0,0,0,4.66-.408c.206-.073.376-.226.268-.488a.4.4,0,0,0-.408-.251c-.253.021-.5.094-.752.131-1.254.184-2.5.612-3.78.157-.251-.089-.387.085-.448.318" transform="translate(-43.194 -331.274)" fill="#0a4666"/>
          <path id="Trazado_1262296" data-name="Trazado 1262296" d="M126.319,346.227a11.442,11.442,0,0,1-3.842.555,144.737,144.737,0,0,0-16.356-1.957,64.2,64.2,0,0,1-10.5-1.468,65.968,65.968,0,0,0-7.566-1.722,3.713,3.713,0,0,1-1.244-.285,42.671,42.671,0,0,1,1.668-6.3q1.022-3.907,2.033-7.816c1.2-.652,1.347-1.307.5-2.292a4.163,4.163,0,0,0-.833-.8c-2.3-1.5-4.3-3.368-6.468-5.036a23.747,23.747,0,0,1-3.963-3.231,5.773,5.773,0,0,0-2.2-1.842,64.336,64.336,0,0,1,5.437-6.855,78.344,78.344,0,0,1,6.194-6.169,3.184,3.184,0,0,0,2.3,1.893c1.073.311,2.154.593,3.237.863A30.619,30.619,0,0,0,102.976,305c1.763-.048,3.531-.072,5.291.014a23.11,23.11,0,0,0,7.479-1.15,9.264,9.264,0,0,0,4.359-3.085,3.137,3.137,0,0,0,.718-2.152,4.655,4.655,0,0,0-1.243-2.9,1.979,1.979,0,0,1-.654-1.478,1.113,1.113,0,0,0,.462-1.655c.915-.619,1.841-1.223,2.743-1.862.694-.492,1.452-.988,1.583-1.911a5.179,5.179,0,0,1,1.76-3.161l.246-.184a5.445,5.445,0,0,0,1.833-1.044l.867-.272a7.22,7.22,0,0,0,.825,2.017,39.2,39.2,0,0,1,2.827,5.636c1.045,2.874,2.573,5.526,3.785,8.322.277.639.592,1.275,1.46,1.232a4.932,4.932,0,0,1-3.1,4.253,4.2,4.2,0,0,0-2.7,3.349,3.336,3.336,0,0,1-1.17,2.1,1.12,1.12,0,0,0-.486.867,28.324,28.324,0,0,1-.57,4.212,56.639,56.639,0,0,0-.427,5.784c-.214,3.219-.635,6.413-.941,9.621-.211,2.223-.448,4.444-.644,6.668s-.365,4.453-.523,6.682a3.109,3.109,0,0,1-.436,1.332m-7.365-19.688c-.059-.349-.146-.7-.5-.845a.731.731,0,0,0-.919.277,15.178,15.178,0,0,1-2.63,2.617,31.931,31.931,0,0,1-5.251,3.9c-.955.573-1.964,1.055-2.925,1.618-.565.331-.755.876-.5,1.287a.99.99,0,0,0,1.329.443c.238-.1.465-.221.7-.33a26.419,26.419,0,0,0,3.936-2.42,40.79,40.79,0,0,0,6.082-5.331,2.41,2.41,0,0,0,.674-1.218m5.521-26.978c-.307.061-.549.258-.463.608a1.918,1.918,0,0,0,.423.783,49.973,49.973,0,0,0,5.3,4.878c.356.3.834.733,1.231.282.445-.5-.2-.82-.492-1.133-1.683-1.779-3.711-3.2-5.314-5.063a.806.806,0,0,0-.686-.356m-16.924,21.411c.445,0,.617,0,.788,0,.37-.013.688-.128.779-.531a.756.756,0,0,0-.462-.837,2.531,2.531,0,0,0-.731-.206,20.353,20.353,0,0,1-4.4-1.367,1.683,1.683,0,0,0-.618-.141c-.593-.024-.876.415-.579.919a1.575,1.575,0,0,0,.535.541,13.251,13.251,0,0,0,4.69,1.625M97.034,307.844c0-.16.006-.332,0-.5-.011-.228-.088-.445-.333-.484a.535.535,0,0,0-.592.392,5.349,5.349,0,0,0-.18.748c-.332,1.548-.71,3.084-1.153,4.606-.145.5-.4.95-.51,1.451-.094.426-.151.96.357,1.106.526.151.522-.41.67-.747a30.652,30.652,0,0,0,1.48-5.046,3.988,3.988,0,0,0,.263-1.523m-2.866,2.535.054,0a15.25,15.25,0,0,0-.113-1.528.607.607,0,0,0-.673-.478c-.394.008-.5.269-.5.6,0,.77,0,1.54.03,2.309a1.707,1.707,0,0,0,.194.6c.106.234.243.478.551.446a.517.517,0,0,0,.445-.544c.028-.468.008-.94.008-1.41m32.051.8a5.4,5.4,0,0,0,.717-.055.6.6,0,0,0,.537-.619.522.522,0,0,0-.473-.533,20.093,20.093,0,0,0-2.917-.324c-.268.033-.512.141-.567.432-.058.309.173.47.414.57a13.5,13.5,0,0,0,2.289.529" transform="translate(-54.193 -198.569)" fill="#61a9d8"/>
          <path id="Trazado_1262297" data-name="Trazado 1262297" d="M145.911,258.6a1.981,1.981,0,0,0,.654,1.478,4.654,4.654,0,0,1,1.243,2.9,3.136,3.136,0,0,1-.718,2.152,9.263,9.263,0,0,1-4.359,3.085,21.31,21.31,0,0,1-8.454,1.069,14.357,14.357,0,0,0-3.131-.008,27.425,27.425,0,0,1-9.444-1.153c-1.084-.27-2.165-.552-3.237-.863a3.184,3.184,0,0,1-2.3-1.893,5.187,5.187,0,0,0,.066-1.025,3.343,3.343,0,0,1,1.434-3.125c.439-.365.881-.71.836-1.36-.139-2.044,1.086-3.251,2.621-4.262a14.848,14.848,0,0,0,3.4-2.977,2.969,2.969,0,0,0,.6-2.185.648.648,0,0,0-.01-.072,6.481,6.481,0,0,1,2.174-6.273,18.148,18.148,0,0,1,2.887-2.564,2.69,2.69,0,0,0,1.032-1.281,32.656,32.656,0,0,1,1.6-3.232,7.625,7.625,0,0,1,4.881-3.527,11.47,11.47,0,0,1,3.844-.3,3.737,3.737,0,0,1,1.947.6,3.813,3.813,0,0,0,1.652.662,3.983,3.983,0,0,1,2.03,1.3,7.547,7.547,0,0,1,1.776,2.349.354.354,0,0,1-.493.258,2.7,2.7,0,0,1-1.74-1.207,5.6,5.6,0,0,0-2.151-2.284,2.2,2.2,0,0,0-.225,1.435,13.638,13.638,0,0,1-1.468,6.473c-.515,1.021-.992,1.889-.2,2.985a3.081,3.081,0,0,1,.339,1.752,2.178,2.178,0,0,0,.277,1.111c.354.589.719,1.172,1.048,1.775a7.363,7.363,0,0,1,.458,1.869,9.925,9.925,0,0,0,5.546-3.463,1.685,1.685,0,0,0,.6-1.485,12.09,12.09,0,0,0-1.125-3.484,6.279,6.279,0,0,1-1.172.432c-.446.067-1.227.329-1.377-.336.091-.089.23-.387.1-.364-.415.075.166-.283.166-.283a2.438,2.438,0,0,0,2.07-.293l0,0c.036.146,1.676.574,2.009.789,0,0,2.117.9.917,4.3a1.137,1.137,0,0,0-.069.509,2.335,2.335,0,0,1,.046.919c-.016.093-.032.268-.029.157l-.01.343a5.178,5.178,0,0,0-1.761,3.161c-.131.923-.889,1.419-1.583,1.911-.9.639-1.827,1.243-2.742,1.862-.272-.092-.679-.5-.69.173a2.447,2.447,0,0,0,.227,1.482" transform="translate(-81.177 -162.93)" fill="#522f27"/>
          <path id="Trazado_1262298" data-name="Trazado 1262298" d="M244.437,161.273l-.867.271a8.616,8.616,0,0,1,1.476-3.086,60.917,60.917,0,0,0,3.335-6.533c1.367-3.055,2.579-6.184,4.031-9.2a58.111,58.111,0,0,0,4.556-12.825c.32-1.464.692-2.917.97-4.389a6,6,0,0,0-.028-2.181c-.307-1.685-.777-3.336-1.014-5.037a2.642,2.642,0,0,0-.843-1.824A2.7,2.7,0,0,1,255.31,115a1.136,1.136,0,0,1,.9-1.544,2.081,2.081,0,0,1,2.007.608c.6.614,1.22,1.212,1.789,1.854.287.324.518.309.707-.014a8.656,8.656,0,0,0,1.409-4.226,1.038,1.038,0,0,0-.578-1.032c-.81-.486-1.07-1.033-.859-1.522a1.713,1.713,0,0,1,1.882-.761,2.378,2.378,0,0,1,1.588.753,2,2,0,0,1,.444,1.54,10.261,10.261,0,0,0-.319,3.194,2.905,2.905,0,0,0,.667-2.235c-.036-.47-.121-1.012.437-1.23a1.321,1.321,0,0,1,1.491.507,2.556,2.556,0,0,1,.658,2.266c.378.015.4-.32.584-.468.294-.236.518-.606.99-.415a1.374,1.374,0,0,1,1.006,1.068,1.95,1.95,0,0,1-.2,1.252,6.021,6.021,0,0,0-.575,1.632c.306.234.489.048.652-.041a.909.909,0,0,1,1.267.233,1.123,1.123,0,0,1-.023,1.335,8.84,8.84,0,0,1-1.258,1.464A10.312,10.312,0,0,0,266.4,125.7a22.319,22.319,0,0,1-1.164,4.2,56.027,56.027,0,0,0-1.316,5.887c-1.083,4.98-1.925,10.015-3.578,14.863a51.99,51.99,0,0,1-2.252,5.056c-1.41,3.041-2.625,6.162-3.987,9.22a52.514,52.514,0,0,1-3.075,6.087,2.022,2.022,0,0,1-.543-.992,42.641,42.641,0,0,0-4.071-8.234c-.647-1.018-.8-1.032-1.976-.52m23.13-47.675c-.574.524-.829.9-.716,1.561a1.907,1.907,0,0,0,.716-1.561" transform="translate(-170.209 -75.689)" fill="#f3a9d9"/>
          <path id="Trazado_1262299" data-name="Trazado 1262299" d="M35.131,407.544c-1.832,1.984-3.546,4.071-5.405,6.032-2.152,2.27-4.181,4.65-6.134,7.1-.935,1.171-1.9,2.322-2.9,3.442a2.029,2.029,0,0,0-.593,1.495c.03,1.073-.009,2.148.019,3.221a2.832,2.832,0,0,1-.458,1.582,1.7,1.7,0,0,1-1.722.87c-.7-.142-.937-.7-1.114-1.286A6.876,6.876,0,0,1,16.7,429c-1.035.761-1.757,1.67-2.667,2.37-2.036,1.566-3.961,3.273-5.859,5.006a5.763,5.763,0,0,1-.8.632.992.992,0,0,1-1.3-.05,1.008,1.008,0,0,1-.23-1.285,10.222,10.222,0,0,1,1.6-2.628,7.479,7.479,0,0,0,1.117-1.613c-.532-.118-.738.193-.95.419a34.816,34.816,0,0,1-3.809,3.255,2.349,2.349,0,0,1-1.13.578c-.652.09-.971-.251-.853-.909a2.286,2.286,0,0,1,.532-1.015c.751-.936,1.5-1.874,2.252-2.806a1.012,1.012,0,0,0,.318-.679l.112-.125-.134.1a9.7,9.7,0,0,0-2.4,1.2A9.617,9.617,0,0,1,1.317,432a.933.933,0,0,1-1.195-.5.875.875,0,0,1,.242-1.161c.535-.429,1.107-.81,1.653-1.225a21.016,21.016,0,0,0,2.725-2.122,1.656,1.656,0,0,0-1.078.094A2.2,2.2,0,0,1,2.274,427c-.878-.376-.98-1.087-.182-1.636.67-.461,1.392-.848,2.1-1.245a33.075,33.075,0,0,0,4.659-3.632c.4-.326.777-.669,1.205-.962A13.87,13.87,0,0,0,13,416.511c4-5.053,7.505-10.452,11.265-15.672.324-.451.687-.875,1.031-1.312a21.335,21.335,0,0,1,3.085,2.2c1.533,1.017,2.64,2.526,4.122,3.618a12.589,12.589,0,0,1,2.626,2.2M5.858,425.685a.321.321,0,0,0-.282.323c-.171,1.243.693,1.889,1.532,2.473a14.675,14.675,0,0,0,4.368,1.837.928.928,0,0,0,1.029-.18c-1.008-.38-1.96-.721-2.9-1.1-1.659-.667-3.358-1.3-3.748-3.354" transform="translate(0 -279.193)" fill="#f3a9d9"/>
          <path id="Trazado_1262300" data-name="Trazado 1262300" d="M86.674,766.414c1.3.206,1.35.265,1.316,1.486-.008.295-.006.59-.009.884-.008.154.069.213.217.192l.544.013a5.789,5.789,0,0,1,.811,2.788,1.5,1.5,0,0,0,.108.5c.118.342.3.648.728.556.361-.078.416-.4.388-.709-.038-.423-.122-.842-.152-1.265a12.628,12.628,0,0,1-.37-1.866l.808.009c.26,1.041.991,1.891,1.18,2.968a.55.55,0,0,0,.716.387c.362-.082.411-.385.41-.7a4.4,4.4,0,0,0-.56-1.689c-.132-.315-.6-.575-.232-1.011a4.342,4.342,0,0,1,3.52,2.513c.831,1.775.469,3.6-1.657,4.438a17.622,17.622,0,0,1-5.078,1.4c-.806.062-1.592.354-2.4.5q-3.425.609-6.856,1.177a6.425,6.425,0,0,1-3.492-.7,1.5,1.5,0,0,1-.856-1.205,13.517,13.517,0,0,1-.11-3.087c.046-1.8.139-3.609.184-5.414a16.268,16.268,0,0,1,.26-1.653,1.048,1.048,0,0,1,.686-.863,94.076,94.076,0,0,0,9.893.361" transform="translate(-52.842 -535.325)" fill="#445130"/>
          <path id="Trazado_1262301" data-name="Trazado 1262301" d="M161.561,772.831a3.29,3.29,0,0,1-.08,1.511c-.669,3.767,2.735,2.889,2.735,2.889a19.994,19.994,0,0,1,4.128-.057,3.732,3.732,0,0,1,1.877,1.3,2.23,2.23,0,0,1-.2,3.32c-1.09,1.06-6.538,3.258-8.979,3.463-.448.022-6.817,1.422-9.206.153a1.848,1.848,0,0,1-1.076-1.762c.011-1.547.083-3.087.2-4.631.113-1.5.086-3,.1-4.507a3.626,3.626,0,0,1,.289-1.5,1.157,1.157,0,0,1,1.189-.791c2.518.146,5.031.38,7.558.3a1.989,1.989,0,0,1,1.467.311" transform="translate(-105.35 -539.636)" fill="#445130"/>
          <path id="Trazado_1262302" data-name="Trazado 1262302" d="M207.98,247.747c.15.665.684.575,1.129.508a6.271,6.271,0,0,0,1.172-.432,12.09,12.09,0,0,1,1.125,3.484,1.685,1.685,0,0,1-.6,1.485,9.925,9.925,0,0,1-5.546,3.462,7.362,7.362,0,0,0-.458-1.869c-.329-.6-.694-1.186-1.048-1.775a2.175,2.175,0,0,1-.277-1.111,3.081,3.081,0,0,0-.339-1.752c-.794-1.1-.317-1.964.2-2.985a13.634,13.634,0,0,0,1.468-6.473,2.2,2.2,0,0,1,.225-1.435,5.6,5.6,0,0,1,2.151,2.284,2.7,2.7,0,0,0,1.74,1.207.353.353,0,0,0,.492-.258c.138.21.266.426.415.627.422.57.2.943-.356,1.224-.764.677-.764.677-.367,1.569.674,1.512.66,1.543-.846,1.972h0c-.18,0-.279.079-.273.267m-1.247-5.006c-.064-.371-.267-.661-.652-.64a.665.665,0,0,0-.647.776.612.612,0,0,0,.643.641.681.681,0,0,0,.655-.777" transform="translate(-141.659 -166.914)" fill="#efa5d4"/>
          <path id="Trazado_1262303" data-name="Trazado 1262303" d="M87.214,396.255a12.6,12.6,0,0,0-2.625-2.2c-1.482-1.092-2.589-2.6-4.122-3.618a21.367,21.367,0,0,0-3.085-2.2,6.1,6.1,0,0,0-1.516-1.521c-.136-.1-.289-.179-.418-.288-.906-.769-1.5-2.1-.007-3.057a5.783,5.783,0,0,1,2.2,1.842,23.744,23.744,0,0,0,3.963,3.231c2.163,1.669,4.17,3.538,6.468,5.036a4.179,4.179,0,0,1,.833.8c.849.985.7,1.64-.5,2.292l-1.193-.315" transform="translate(-52.082 -267.904)" fill="#ececd0"/>
          <path id="Trazado_1262304" data-name="Trazado 1262304" d="M246.447,283.384c1.176-.512,1.329-.5,1.976.52a42.641,42.641,0,0,1,4.071,8.234,2.022,2.022,0,0,0,.543.992,3.079,3.079,0,0,0,.468,1.179c.673,1.376,1.4,2.726,2.008,4.131.3.689.829,1.514-.17,2.152-.868.042-1.183-.593-1.46-1.232-1.212-2.8-2.74-5.448-3.785-8.322a39.254,39.254,0,0,0-2.827-5.637,7.2,7.2,0,0,1-.825-2.016" transform="translate(-172.22 -197.799)" fill="#ececd0"/>
          <path id="Trazado_1262305" data-name="Trazado 1262305" d="M165.686,764.146a1.989,1.989,0,0,0-1.467-.311c-2.527.084-5.04-.151-7.558-.3-.035-1.26.418-2.479.314-3.745l9.087.54q-.188,1.906-.376,3.813" transform="translate(-109.475 -530.951)" fill="#f0a8d7"/>
          <path id="Trazado_1262306" data-name="Trazado 1262306" d="M89.375,760.107a94.076,94.076,0,0,1-9.893-.361q.051-1.109.1-2.217a3.724,3.724,0,0,1,.742-.167c3.1-.065,6.194-.446,9.3-.3a26.059,26.059,0,0,1-.255,3.047" transform="translate(-55.543 -529.018)" fill="#f0a8d7"/>
          <path id="Trazado_1262307" data-name="Trazado 1262307" d="M120.7,775.206a12.638,12.638,0,0,0,.37,1.866c.031.423.115.842.153,1.265.028.312-.027.631-.388.709-.424.092-.609-.214-.728-.556a1.5,1.5,0,0,1-.108-.5,5.789,5.789,0,0,0-.811-2.787,1.243,1.243,0,0,1,1.511,0" transform="translate(-83.293 -541.543)" fill="#ececd0"/>
          <path id="Trazado_1262308" data-name="Trazado 1262308" d="M203.561,787.849a12.639,12.639,0,0,0,.37,1.866c.031.423.115.842.153,1.265.028.312-.027.631-.388.709-.424.092-.61-.214-.728-.556a1.493,1.493,0,0,1-.108-.5,5.789,5.789,0,0,0-.811-2.788,1.244,1.244,0,0,1,1.511,0" transform="translate(-141.194 -550.378)" fill="#ececd0"/>
          <path id="Trazado_1262309" data-name="Trazado 1262309" d="M196.06,788.106a14.641,14.641,0,0,0,.413,2.007c.03.423.114.842.152,1.265.028.312-.027.631-.388.709-.424.092-.609-.214-.728-.556a1.5,1.5,0,0,1-.108-.5,5.791,5.791,0,0,0-.811-2.788,1.2,1.2,0,0,1,1.469-.142" transform="translate(-135.982 -550.6)" fill="#ececd0"/>
          <path id="Trazado_1262310" data-name="Trazado 1262310" d="M128.407,775.172c-.37.436.1.7.232,1.011a4.4,4.4,0,0,1,.56,1.689c0,.319-.048.622-.41.7a.551.551,0,0,1-.716-.387c-.189-1.077-.92-1.927-1.18-2.969a1.327,1.327,0,0,1,1.514-.048" transform="translate(-88.674 -541.548)" fill="#ececd0"/>
          <path id="Trazado_1262311" data-name="Trazado 1262311" d="M221.12,259.275c1.507-.429,1.52-.46.846-1.972-.4-.892-.4-.892.366-1.569a7.2,7.2,0,0,1,0,1.02,2.691,2.691,0,0,0,.6,2.021,1.987,1.987,0,0,1-1.816.5" transform="translate(-154.521 -178.71)" fill="#522f27"/>
          <path id="Trazado_1262312" data-name="Trazado 1262312" d="M116.883,775.313c-.147.021-.224-.038-.217-.192l.217.192" transform="translate(-81.527 -541.662)" fill="#ececd0"/>
          <path id="Trazado_1262313" data-name="Trazado 1262313" d="M186.661,514.953a20.023,20.023,0,0,1,.243-3.985c.161-.769.239-.871.989-.754.972.151,1.936.357,2.912.468a75.753,75.753,0,0,0,7.689.488c.7.008.9.321.853.946-.137,1.749-.265,3.5-.4,5.248-.017.213-.082.421-.1.634a4.721,4.721,0,0,1-4.638,4.567,11.618,11.618,0,0,1-3.568-.367,3.19,3.19,0,0,1-1.441-.8,7.244,7.244,0,0,1-2.535-6.445" transform="translate(-130.391 -356.514)" fill="#ffdb57"/>
          <path id="Trazado_1262314" data-name="Trazado 1262314" d="M108.889,509.928a14.858,14.858,0,0,1,.962-5.206c.234-.729.123-1.651.7-2.166.6-.538,1.388.079,2.107.08,2.529,0,5.047.366,7.584.27,1-.038,1,.025,1.03,1.008a8.486,8.486,0,0,1-.262,2.422,24.672,24.672,0,0,1-1.88,5.725,8.127,8.127,0,0,1-.887,1.257,4.019,4.019,0,0,1-4.167,1.337,12.871,12.871,0,0,1-3.422-1.039,2.722,2.722,0,0,1-1.762-2.838c.014-.257,0-.516,0-.85" transform="translate(-76.086 -351.037)" fill="#ffdb57"/>
          <path id="Trazado_1262315" data-name="Trazado 1262315" d="M93.123,743.065c1.8-.059,3.6.014,5.4-.134a9.258,9.258,0,0,1,1.791.137.421.421,0,0,1,.393.433.486.486,0,0,1-.367.473,2.223,2.223,0,0,1-.631.085c-3,.024-6,.286-9.006.163a16.021,16.021,0,0,1-2.045-.206c-.382-.065-1.01-.012-.953-.608.054-.563.626-.5,1.041-.448,1.456.2,2.916.053,4.373.106" transform="translate(-61.29 -519.16)" fill="#3f484a"/>
          <path id="Trazado_1262316" data-name="Trazado 1262316" d="M190.428,619.22a1.581,1.581,0,0,1-.367.938,9.786,9.786,0,0,1-3.788,3.385c-1.739.925-3.5,1.81-5.258,2.7a3.673,3.673,0,0,1-.844.3c-.254.057-.539.039-.647-.261s.105-.494.351-.587c1.492-.561,2.806-1.468,4.23-2.162a18.889,18.889,0,0,0,3.439-1.992,6.926,6.926,0,0,0,2-2.469.452.452,0,0,1,.882.149" transform="translate(-125.432 -432.389)" fill="#3f484a"/>
          <path id="Trazado_1262317" data-name="Trazado 1262317" d="M173.8,740.565a33.859,33.859,0,0,1-5.143-.256c-.469-.053-.935-.135-1.4-.211-.342-.057-.766-.116-.738-.553.036-.565.542-.42.9-.428a7.661,7.661,0,0,1,1.159.042,61.567,61.567,0,0,0,6.952.264c.77.012,1.54.11,2.309.179.166.015.351.054.391.261.05.264-.129.389-.336.468a3.414,3.414,0,0,1-1.259.235c-.945-.008-1.891,0-2.836,0" transform="translate(-116.363 -516.494)" fill="#3f484a"/>
          <path id="Trazado_1262318" data-name="Trazado 1262318" d="M103.031,642.47a1.751,1.751,0,0,1-.44-.267.488.488,0,0,1,.013-.6c.212-.356.632-.426.935-.658a44.591,44.591,0,0,0,5.538-4.993,5.824,5.824,0,0,0,.723-1.058c.145-.249.3-.448.6-.312a.554.554,0,0,1,.3.754,2.758,2.758,0,0,1-.454.773,36.167,36.167,0,0,1-6.4,5.939,6.623,6.623,0,0,1-.816.42" transform="translate(-71.623 -443.422)" fill="#3f484a"/>
          <path id="Trazado_1262319" data-name="Trazado 1262319" d="M165.093,689.529a.7.7,0,0,1,.582.438,11,11,0,0,0,3.317,3.523,3.815,3.815,0,0,0,1.393.886c.257.064.526.154.48.486-.051.365-.354.45-.667.477a1.217,1.217,0,0,1-.849-.255c-1.606-1.267-3.42-2.334-4.278-4.339a1.894,1.894,0,0,1-.28-.844.376.376,0,0,1,.3-.371" transform="translate(-115.156 -481.849)" fill="#3f484a"/>
          <path id="Trazado_1262320" data-name="Trazado 1262320" d="M163.7,501.975c0,.172,0,.344,0,.516-.012.347,0,.767-.406.856-.459.1-.559-.305-.6-.656-.047-.448-.321-.545-.708-.565-.514-.026-1.027-.086-1.539-.137-.229-.023-.445-.113-.417-.379a.393.393,0,0,1,.366-.316c.47-.04.943-.048,1.413-.084.693-.054.829-.315.418-.891-.273-.382-.633-.7-.932-1.066a.472.472,0,0,1-.026-.691c.185-.183.4-.081.6,0a3.417,3.417,0,0,1,1.831,3.413" transform="translate(-111.832 -348.328)" fill="#3f484a"/>
          <path id="Trazado_1262321" data-name="Trazado 1262321" d="M110.8,559.04c.06-.233.2-.407.447-.318,1.284.456,2.526.027,3.78-.157.252-.037.5-.11.752-.131a.4.4,0,0,1,.408.251c.109.262-.061.414-.267.488a9.024,9.024,0,0,1-4.66.408.539.539,0,0,1-.461-.541" transform="translate(-77.429 -390.237)" fill="#3f484a"/>
          <path id="Trazado_1262322" data-name="Trazado 1262322" d="M185.244,422.772a2.413,2.413,0,0,1-.674,1.219,40.805,40.805,0,0,1-6.082,5.331,26.417,26.417,0,0,1-3.936,2.42c-.233.109-.461.231-.7.33a.99.99,0,0,1-1.329-.443c-.26-.411-.07-.956.5-1.287.962-.563,1.97-1.045,2.925-1.618a31.933,31.933,0,0,0,5.251-3.9,15.18,15.18,0,0,0,2.63-2.617.731.731,0,0,1,.919-.277c.352.149.44.5.5.845" transform="translate(-120.482 -294.802)" fill="#49809b"/>
          <path id="Trazado_1262323" data-name="Trazado 1262323" d="M232.238,335.31a.805.805,0,0,1,.685.356c1.6,1.866,3.631,3.283,5.314,5.063.3.312.937.629.492,1.133-.4.451-.875.017-1.231-.282a49.97,49.97,0,0,1-5.3-4.878,1.916,1.916,0,0,1-.423-.783c-.086-.351.156-.548.463-.608" transform="translate(-161.954 -234.317)" fill="#43768c"/>
          <path id="Trazado_1262324" data-name="Trazado 1262324" d="M164.763,399.242a13.245,13.245,0,0,1-4.69-1.625,1.571,1.571,0,0,1-.535-.54c-.3-.5-.014-.942.579-.919a1.671,1.671,0,0,1,.618.141,20.352,20.352,0,0,0,4.4,1.367,2.532,2.532,0,0,1,.731.206.756.756,0,0,1,.462.837c-.091.4-.408.519-.779.531-.171.006-.343,0-.788,0" transform="translate(-111.404 -276.838)" fill="#49809b"/>
          <path id="Trazado_1262325" data-name="Trazado 1262325" d="M135.67,360.5a3.975,3.975,0,0,1-.263,1.523,30.645,30.645,0,0,1-1.479,5.046c-.148.336-.143.9-.67.746-.508-.146-.451-.679-.357-1.106.11-.5.365-.953.51-1.451.442-1.522.82-3.058,1.153-4.607a5.372,5.372,0,0,1,.18-.748.535.535,0,0,1,.592-.392c.245.039.323.256.334.484.008.171,0,.343,0,.5" transform="translate(-92.828 -251.229)" fill="#43768c"/>
          <path id="Trazado_1262326" data-name="Trazado 1262326" d="M129.875,366.567c0,.47.02.942-.008,1.41a.517.517,0,0,1-.445.544c-.308.032-.446-.211-.552-.445a1.717,1.717,0,0,1-.194-.605c-.029-.769-.027-1.539-.03-2.309,0-.333.1-.595.5-.6a.607.607,0,0,1,.673.478,15.228,15.228,0,0,1,.113,1.528h-.055" transform="translate(-89.899 -254.757)" fill="#43768c"/>
          <path id="Trazado_1262327" data-name="Trazado 1262327" d="M232.847,370.275a13.49,13.49,0,0,1-2.289-.529c-.241-.1-.472-.261-.414-.57.055-.291.3-.4.567-.432a20.089,20.089,0,0,1,2.917.324.522.522,0,0,1,.473.533.6.6,0,0,1-.537.619,5.4,5.4,0,0,1-.717.055" transform="translate(-160.82 -257.667)" fill="#43768c"/>
          <path id="Trazado_1262328" data-name="Trazado 1262328" d="M214.37,313.329a2.447,2.447,0,0,1-.227-1.482c.01-.673.417-.265.69-.173a1.114,1.114,0,0,1-.463,1.655" transform="translate(-149.637 -217.656)" fill="#ececd0"/>
          <path id="Trazado_1262329" data-name="Trazado 1262329" d="M321.519,125.865a1.907,1.907,0,0,1-.716,1.561c-.113-.656.142-1.037.716-1.561" transform="translate(-224.162 -87.956)" fill="#fff"/>
          <path id="Trazado_1262330" data-name="Trazado 1262330" d="M18.746,486.376c.39,2.053,2.089,2.687,3.748,3.354.938.378,1.891.719,2.9,1.1a.928.928,0,0,1-1.029.18A14.675,14.675,0,0,1,20,489.172c-.84-.584-1.7-1.23-1.532-2.473a.321.321,0,0,1,.282-.323" transform="translate(-12.887 -339.884)" fill="#78484b"/>
          <path id="Trazado_1262331" data-name="Trazado 1262331" d="M16.229,501.311l.134-.1-.112.125-.022-.022" transform="translate(-11.341 -350.248)" fill="#fff"/>
          <path id="Trazado_1262332" data-name="Trazado 1262332" d="M213.042,250.27a.681.681,0,0,1-.655.777.612.612,0,0,1-.643-.641.665.665,0,0,1,.647-.776c.385-.021.588.269.652.64" transform="translate(-147.967 -174.443)" fill="#78484b"/>
          <path id="Trazado_1262333" data-name="Trazado 1262333" d="M742.671,568.426c-.112,2.382-.272,4.761-.351,7.147-.06,1.816-.2,3.632-.121,5.448a72.466,72.466,0,0,0,.794,9.155c.127.746.057,1.516.255,2.255a26.886,26.886,0,0,1,.42,7.893,42.054,42.054,0,0,0,.015,4.3,16.749,16.749,0,0,1-.881,6.485,33.851,33.851,0,0,1-2.958,3.379,3.614,3.614,0,0,0-.673.408,16.309,16.309,0,0,1-5.093,2.884c-1.88.807-3.872,1.264-5.791,1.945a8.262,8.262,0,0,0-1,.157,11.561,11.561,0,0,1-4.368.388c-.635-.066-1.281-.028-1.922-.037a10.386,10.386,0,0,0-3.041-.233,13.378,13.378,0,0,1-6.438-1.551c-.6-.313-1.226-.587-1.839-.878l-3.587-2.239a3.534,3.534,0,0,0-.518-.431c-2.372-1.317-3-3.543-3.15-6.019a.922.922,0,0,1,.075-.437,18.587,18.587,0,0,0,.751-2.954c.568-1.949.389-3.975.7-5.948.435-2.8.49-5.636.839-8.444.237-1.909.36-3.831.534-5.748a3.1,3.1,0,0,0,.212-.749,27.737,27.737,0,0,0,.285-3.014,22.547,22.547,0,0,0,.161-5.008,10.74,10.74,0,0,1,1.792-5.056,14.816,14.816,0,0,0,1.908-8.137c-.1-1.873-1.267-3.076-2.3-4.41a2.681,2.681,0,0,0-2.2-.923c-.1-.006-.2-.1-.3-.151.29-.623,1.083-.442,1.467-.916a1.707,1.707,0,0,0,1.521-.463c2.827-.651,5.725-1.02,8.434-2.137a3.958,3.958,0,0,1,1.759-.373c.282.628.859.624,1.421.687a71.59,71.59,0,0,0,7.653.243,4.617,4.617,0,0,1,1.346.057,3.05,3.05,0,0,0,2.58-.4,50.357,50.357,0,0,1,7.446,1.357,5.843,5.843,0,0,0,1.347.126c.49.026.892.164,1.046.689-.2.645-.423,1.285-.595,1.937a7.208,7.208,0,0,0-.039,3.68,17.706,17.706,0,0,0,2.028,4.872,2.762,2.762,0,0,1,.393,1.163m-23.426,40.265c-.014.3-.03.605-.04.908s-.027.661.365.723.494-.267.539-.581c.054-.374.106-.75.13-1.126.149-2.342.341-4.681.63-7.01.426-3.418.836-6.838,1.267-10.255.436-3.456.756-6.924,1.01-10.4.256-3.51.394-7.029.586-10.544.013-.247-.028-.477-.29-.545a.5.5,0,0,0-.556.3,2.873,2.873,0,0,0-.228,1.33c-.141,2.8-.25,5.6-.415,8.4-.3,5.143-.875,10.262-1.512,15.371-.558,4.471-1.223,8.928-1.486,13.431m10.608-14.116c-.045-3.105-.241-6.2-.48-9.3-.332-4.3-.742-8.6-1.385-12.868a6.925,6.925,0,0,0-.267-1.1.472.472,0,0,0-.521-.349.557.557,0,0,0-.461.445.787.787,0,0,0,.05.66,4.313,4.313,0,0,1,.427,1.75c.413,2.885.68,5.786.953,8.688.464,4.939.7,9.888.794,14.846.03,1.631-.117,3.252-.188,4.878-.023.529-.043,1.06-.045,1.589,0,.242.1.456.377.475s.41-.182.464-.411a5.749,5.749,0,0,0,.073-.676,85.7,85.7,0,0,0,.207-8.627m-9.676-28.713c-2.163.028-3.825.223-5.495.148a2.134,2.134,0,0,0-.668.088.417.417,0,0,0-.283.443.4.4,0,0,0,.317.417,2.6,2.6,0,0,0,.675.062c1.249-.042,2.5-.07,3.747-.154a30.4,30.4,0,0,1,5.338-.016c4.192.461,8.4.377,12.6.544a2.054,2.054,0,0,0,.453-.018c.261-.049.582-.1.594-.423.013-.375-.319-.5-.624-.527-.566-.046-1.136-.046-1.7-.052-2.5-.023-5,.026-7.5-.187a52.56,52.56,0,0,0-7.449-.326" transform="translate(-490.855 -387.149)" fill="#fedb59"/>
          <path id="Trazado_1262334" data-name="Trazado 1262334" d="M670.031,747.817l3.587,2.238a10.444,10.444,0,0,1-.957,2.293,15.846,15.846,0,0,0-.86,7.583,4.287,4.287,0,0,0,2.3,3.449,10.393,10.393,0,0,0,3.7.948,3.686,3.686,0,0,0,3.5-1.453,11.906,11.906,0,0,0,2.072-3.489c.257-.75.48-1.513.767-2.252a10.753,10.753,0,0,0,.8-4.417c.641.009,1.287-.029,1.922.037a11.559,11.559,0,0,0,4.368-.388,8.176,8.176,0,0,1,1-.157c.348,1.851.625,3.718,1.136,5.534.652,2.323,3.043,4.945,6.509,3.9a17.027,17.027,0,0,0,4.31-1.989,4.244,4.244,0,0,0,1.931-3.55,13.377,13.377,0,0,0-.7-4.453,20.45,20.45,0,0,0-1.628-4.68,33.891,33.891,0,0,0,2.958-3.379,5.636,5.636,0,0,1,.211,1.684c0,6.671.038,13.343-.029,20.013-.022,2.228-.307,4.454-.494,6.679-.174,2.074-.421,4.143-.558,6.219-.316,4.759-.585,9.522-.871,14.283-.014.227-.018.455-.017.682.023,4.586-.278,9.162-.43,13.742-.048,1.439-.037,2.881-.012,4.321.061,3.489-.292,6.964-.327,10.45,0,.189-.013.379-.009.568.018.775.034.8.856.818.72.016,1.44,0,2.16.006a4.576,4.576,0,0,1,.793.038,1.633,1.633,0,0,1,1.406,1.673,1.609,1.609,0,0,1-1.547,1.4c-.414.036-.833.01-1.25.015l-3.068.041-9.025-.013c-.679-.057-1.363-.078-2.035-.18-.963-.146-1.451-.688-1.41-1.47.039-.726.529-1.167,1.453-1.306.971-.147.953-.146.907-1.09-.1-2.119-.183-4.238-.279-6.357a57.3,57.3,0,0,0-.736-6.542,74.606,74.606,0,0,1-.65-7.577c-.222-3.818-.409-7.637-.611-11.456,0-.076-.008-.151-.008-.227,0-3.678-.309-7.341-.539-11.007-.251-4-.554-8.006-.837-12.009-.01-.148-.048-.295-.085-.511a1.9,1.9,0,0,0-.656,1.063,120.475,120.475,0,0,0-5.18,14.306,78.233,78.233,0,0,1-3.663,9.3c-1.67,3.983-3.056,8.076-4.61,12.1-1.09,2.826-2.343,5.586-3.7,8.3-1.253,2.5-2.367,5.069-3.582,7.694a3.374,3.374,0,0,0,1.672.135c1.389-.084,1.726.578,1.5,1.845-.039.223-.131.436-.177.658-.113.544-.446.7-.985.706a30.633,30.633,0,0,0-3.748.062q-4.889-.321-9.786-.26c-1.629-.031-3.258-.057-4.887-.1-1.008-.024-1.145-.161-1.063-1.129a10.974,10.974,0,0,1,.257-1.682,1.685,1.685,0,0,1,1.991-1.426,22.605,22.605,0,0,0,2.483.217.9.9,0,0,0,1-.8c.711-2.6,1.193-5.238,1.7-7.878.666-3.495,1.385-6.979,1.963-10.491.559-3.4,1.082-6.8,1.725-10.186.976-5.131,2.078-10.239,3.06-15.369.961-5.021,2.151-9.991,3.186-14.995.536-2.592.859-5.227,1.291-7.84.161-.97.358-1.935.539-2.9m5.155,44.488a10.438,10.438,0,0,0-1.768,1.99,41.013,41.013,0,0,1-6,5.988c-.76.685-1.479,1.405-2.208,2.118-.2.2-.334.432-.063.681a.492.492,0,0,0,.714-.017c.174-.145.332-.309.5-.467.407-.4.789-.821,1.224-1.183a57.586,57.586,0,0,0,5.593-5.435,16.223,16.223,0,0,0,1.913-2.522c.2-.332.44-.625.1-1.153m21.052,30.017,0,.046c-.265,0-.53,0-.8,0a1.857,1.857,0,0,0-1.1.212.385.385,0,0,0-.215.464c.053.178.207.2.357.216a3.4,3.4,0,0,0,.34,0,40.973,40.973,0,0,1,7.538.653,1.27,1.27,0,0,0,.989-.123.447.447,0,0,0,.214-.377.328.328,0,0,0-.257-.328,5.265,5.265,0,0,0-.879-.218c-2.064-.192-4.129-.366-6.193-.546M662.5,819.391c.189,0,.377,0,.566,0a10.5,10.5,0,0,0,3.139-.238c.273-.086.5-.224.491-.533-.015-.38-.334-.344-.591-.347a4.23,4.23,0,0,0-.676.039,21.336,21.336,0,0,1-5.729.02,17.284,17.284,0,0,0-1.807-.056c-.2,0-.383.06-.429.282a.443.443,0,0,0,.322.523,1.543,1.543,0,0,0,.439.085,24.982,24.982,0,0,0,4.275.226m35.536-11.612c.371-.027.574-.329.8-.573a49.913,49.913,0,0,0,5.023-6.42c.2-.314.893-.719.384-1.083-.422-.3-.755.36-1,.7-.566.8-1.128,1.608-1.76,2.363q-1.672,2-3.323,4.016a2.459,2.459,0,0,0-.377.692c-.058.155.056.28.253.3m-5.828-47.3c0-.172.007-.587,0-1a.32.32,0,0,0-.276-.312.372.372,0,0,0-.375.193,1.817,1.817,0,0,0-.217,1.2,6.842,6.842,0,0,1-1,3.662c-.088.166-.229.307-.3.478-.1.248-.168.538.134.693.268.138.4-.1.527-.286a6.722,6.722,0,0,0,1.507-4.63m-18.734,27.911a2,2,0,0,0-.564-.693,12.031,12.031,0,0,1-2.467-2.938c-.172-.347-.386-.947-.824-.686-.4.238-.01.753.163,1.116a12.343,12.343,0,0,0,2.783,3.257.746.746,0,0,0,.617.229.287.287,0,0,0,.291-.285m20.359-24.048a4.64,4.64,0,0,0-1.983.227c-.208.091-.467.161-.417.438.054.3.356.267.552.22a5.883,5.883,0,0,1,3.113-.01c.164.049.39.049.448-.2.039-.17-.086-.277-.191-.379-.472-.455-1.07-.239-1.521-.292m3.236,23.9c-.2.012-.369.023-.394.2a.352.352,0,0,0,.106.283,3.726,3.726,0,0,0,1.177.6.327.327,0,0,0,.288-.093.316.316,0,0,0-.016-.294,1.76,1.76,0,0,0-1.16-.695" transform="translate(-454.8 -519.631)" fill="#083851"/>
          <path id="Trazado_1262335" data-name="Trazado 1262335" d="M742.23,431.034c-1.66-.9-1.785-2.081-.513-3.427a16.351,16.351,0,0,1,9.409-4.653,7.314,7.314,0,0,1,5.424,1.149,20.078,20.078,0,0,1,4.041,3.64,3.986,3.986,0,0,1,.731,1.143,2.843,2.843,0,0,0,1.541,1.582,2.247,2.247,0,0,1,1.491,2.315.778.778,0,0,0,.7.872,9.477,9.477,0,0,1,1.2.33,1.9,1.9,0,0,1,1.237,2.557,6.613,6.613,0,0,1-.659,1.443c-.22.407-.156.653.36.645.417-.006.836-.047,1.25-.02a1.136,1.136,0,0,1,.941,1.914c-.25.378-.587.7-.829,1.081-.409.645-.286.958.428,1.173.289.087.6.116.892.18a1.713,1.713,0,0,1,1.174,2.764,18.363,18.363,0,0,1-1.271,1.6.868.868,0,0,0-.261.6c.338.108.716.22,1.089.352a2.268,2.268,0,0,1,.795,4.034,5.756,5.756,0,0,1-4.625,1.465,1.372,1.372,0,0,0-1.284.435,3.318,3.318,0,0,1-3.974.679c-.3-.134-.538-.311-.909-.008a5.486,5.486,0,0,1-4.384,1.082,5.857,5.857,0,0,1-1.427-1.081c-.657.379-1.27.748-1.9,1.09A7.66,7.66,0,0,1,750.647,457c-1.243.22-2.494.375-3.348-.9a8.287,8.287,0,0,1-.452-2.564c.02-2.2.057-4.39.05-6.585a7.371,7.371,0,0,1,.424-2.444,1.355,1.355,0,0,1,.854-.961,2.32,2.32,0,0,0,1.459-2.123,8.3,8.3,0,0,0,.012-1.249,2.12,2.12,0,0,0-2.9-2.178c-1.126.283-1.376.046-1.167-1.137a4.151,4.151,0,0,1,.914-1.8c.173-.225.5-.333.56-.727a13.84,13.84,0,0,1-3.541-2.217c-.43-.355-.717-.882-1.282-1.076" transform="translate(-517.721 -295.481)" fill="#2e1b17"/>
          <path id="Trazado_1262336" data-name="Trazado 1262336" d="M623.654,566.943c.1.052.2.145.3.151a2.682,2.682,0,0,1,2.2.923c1.037,1.335,2.209,2.537,2.3,4.41a14.816,14.816,0,0,1-1.908,8.137,10.739,10.739,0,0,0-1.792,5.056c-.368.212-.417.611-.545.956a15.76,15.76,0,0,1-1.105,2.348c-.858,1.5-1.878,2.9-2.622,4.47a15.757,15.757,0,0,0-1.182,3.388c-.49.982-1.026,1.944-1.46,2.949a3.216,3.216,0,0,1-3.163,1.986,14.056,14.056,0,0,1-4.354-.554c-5.052-1.56-10.115-3.081-15.174-4.616-1.415-.429-2.729-1.112-4.1-1.642-1.075-.415-1.531-1.43-2.193-2.233a34.906,34.906,0,0,1-2.266-3.793,2.312,2.312,0,0,1-.29-1.2c-.05-1.585-.081-3.177-.1-4.755-.015-1.494.073-3.015.12-4.524a.8.8,0,0,1,.533-.789c.626-.045.885.372,1.015.873a8.356,8.356,0,0,1,.272,1.563,26.043,26.043,0,0,0,.927,4.9c.158.614.3.671.881.429a2.4,2.4,0,0,0,1.593-2.49c.068-.088.17-.165.2-.264.132-.47.363-.908.9-.824.586.092.661.651.716,1.143.033.3.006.6.015.9.019.638.044,1.277.066,1.916a4.1,4.1,0,0,0,.14,1.113,1.274,1.274,0,0,0,1.079,1.251c.838.21,1.66.487,2.489.734a59.259,59.259,0,0,0,10.444,2.318c-.021.11-.1.265-.055.324a11.079,11.079,0,0,1,1.367,2.586.353.353,0,0,0,.453.238c.282-.1.27-.356.19-.571a4.7,4.7,0,0,0-1.656-2.637,35.6,35.6,0,0,0,3.414-4.894c.835-1.725,1.686-3.441,2.531-5.161l1.18-2.518a1.774,1.774,0,0,0,.826-1.314c.279-.168.364-.473.519-.729,1.3-2.158,2.171-4.573,4.067-6.376a44.343,44.343,0,0,1,3.224-3.178M589.288,586.26c-.007-.146-.038-.256-.158-.3a.229.229,0,0,0-.28.112c-.142.22-.281.442-.426.661-.113.17-.408.32-.152.549.222.2.423-.013.571-.167a1.457,1.457,0,0,0,.445-.857m.841-.291a1.278,1.278,0,0,0,.458,1.538.262.262,0,0,0,.4,0,.287.287,0,0,0,.015-.4c-.24-.324-.49-.641-.869-1.133" transform="translate(-409.646 -396.185)" fill="#f3a8d8"/>
          <path id="Trazado_1262337" data-name="Trazado 1262337" d="M582.722,552.8a2.4,2.4,0,0,1-1.593,2.49c-.585.242-.723.185-.881-.429a26.09,26.09,0,0,1-.927-4.9,8.353,8.353,0,0,0-.272-1.563c-.129-.5-.388-.918-1.014-.873q-2.127-8.722-4.253-17.443c-.036-.147-.084-.292-.113-.44-.192-.956-.158-1.017.82-1.133q8.068-.958,16.136-1.906,10.1-1.2,20.2-2.416c.864-.1,1.733-.175,2.6-.285.458-.058.672.12.812.555,1.185,3.677,2.389,7.348,3.587,11.02a1.7,1.7,0,0,1-1.521.463c-.744-2.779-1.685-5.5-2.335-8.308-.326-1.411-.334-1.431-1.767-1.253q-5.69.707-11.375,1.448c-3.865.5-7.729,1.02-11.594,1.521-3.715.482-7.433.943-11.148,1.433-1.333.176-1.342.205-.977,1.546q2.1,7.727,4.215,15.449c.46,1.677.834,3.378,1.409,5.023" transform="translate(-400.82 -366.103)" fill="#e2762c"/>
          <path id="Trazado_1262338" data-name="Trazado 1262338" d="M731.553,450.057c.565.194.851.721,1.282,1.076a13.85,13.85,0,0,0,3.541,2.217c-.06.393-.386.5-.56.727a4.153,4.153,0,0,0-.914,1.8c-.209,1.182.041,1.42,1.167,1.137a2.12,2.12,0,0,1,2.9,2.178,8.308,8.308,0,0,1-.012,1.249,2.32,2.32,0,0,1-1.459,2.123,1.355,1.355,0,0,0-.854.961,7.371,7.371,0,0,0-.424,2.444c.006,2.2-.031,4.39-.05,6.585a18.536,18.536,0,0,1-5.2-.549c-.286-.183-.578-.358-.857-.551a4.79,4.79,0,0,1-2.176-3.439,27.075,27.075,0,0,1-.063-2.719.443.443,0,0,1,.449-.519c2.335-.3,3.123-2.14,3.9-3.975.122-.286.169-.63-.195-.781-.387-.161-.533.17-.661.442a14.9,14.9,0,0,1-1.21,2.178,2.516,2.516,0,0,1-2.052,1.182c-.237-.49-.033-.938-.046-1.381-.006-.217.078-.5-.209-.576a17.028,17.028,0,0,1-2.274-1.207,8.032,8.032,0,0,1,1.383-2.444,9.317,9.317,0,0,0,2.009-2.486,11.852,11.852,0,0,0,1.841-3.573,4.994,4.994,0,0,0,.738-2.1m.678,3.856a.661.661,0,0,0-.35-.655c-.275-.137-.505.007-.724.161a1.354,1.354,0,0,0-.58,1.562.555.555,0,0,0,.666.279,1.4,1.4,0,0,0,.987-1.347" transform="translate(-507.044 -314.504)" fill="#efa5d6"/>
          <path id="Trazado_1262339" data-name="Trazado 1262339" d="M639.531,1020.875a1.445,1.445,0,0,1,.253,1.681c-.346.84-.638,1.7-.976,2.547a2.5,2.5,0,0,1-2.776,1.844c-.94-.1-1.894-.063-2.839-.117-3.751-.216-7.5.073-11.255-.033-.947-.027-1.895-.047-2.842-.064a5.741,5.741,0,0,1-2.667-.888c-.878-.483-.586-1.311-.594-2.033-.008-.655.511-.9,1.033-1.045a11.861,11.861,0,0,1,1.673-.311,105.42,105.42,0,0,0,11.137-2.209,9.023,9.023,0,0,0,.961-.34,3.415,3.415,0,0,1,1.33-.02,18.883,18.883,0,0,0,1.883.3c1.892.237,3.786.462,5.68.692" transform="translate(-430.323 -712.667)" fill="#445130"/>
          <path id="Trazado_1262340" data-name="Trazado 1262340" d="M776.031,1026.018a2.066,2.066,0,0,1,1.632,2.53c-.1.632-.17,1.273-.306,1.9a2.066,2.066,0,0,1-2.353,1.938c-3.214-.146-6.43-.329-9.646-.352-2.584-.018-5.112-.586-7.69-.605a8.382,8.382,0,0,1-1.463-.189c-.663-.124-1.257-.384-1.391-1.138a1.8,1.8,0,0,1,1.252-1.7c1.013-.309,2.031-.612,3.066-.83,2.666-.564,5.343-1.08,8.015-1.616a7.225,7.225,0,0,1,1.115-.076c2.588.213,5.18.087,7.769.141" transform="translate(-527.463 -716.887)" fill="#445130"/>
          <path id="Trazado_1262341" data-name="Trazado 1262341" d="M714.724,483.695A17.027,17.027,0,0,0,717,484.9c.286.071.2.359.209.576.013.442-.192.891.045,1.381a2.517,2.517,0,0,0,2.052-1.182,14.9,14.9,0,0,0,1.211-2.178c.127-.272.273-.6.661-.442.364.151.317.494.2.781-.779,1.835-1.567,3.672-3.9,3.975a.442.442,0,0,0-.449.518,26.877,26.877,0,0,0,.063,2.719,4.79,4.79,0,0,0,2.175,3.439c.279.193.571.367.857.551a19.9,19.9,0,0,1-6.431-.345,8.455,8.455,0,0,1-2.307-.924,2.28,2.28,0,0,1-.26-4.009c.58-.422.73-.78.429-1.388-.083-.167-.111-.361-.178-.539-.836-2.226.566-3.42,2.243-3.923a10.956,10.956,0,0,1,1.113-.217" transform="translate(-496.186 -337.535)" fill="#321e1a"/>
          <path id="Trazado_1262342" data-name="Trazado 1262342" d="M673.972,1010.65c-1.893-.229-3.787-.454-5.68-.692a18.886,18.886,0,0,1-1.883-.3,3.417,3.417,0,0,0-1.33.02c.476-1.523,1.262-2.93,1.674-4.477q4.9-.054,9.787.26a8.093,8.093,0,0,1-1.178,2.267,15.3,15.3,0,0,0-1.391,2.917" transform="translate(-464.764 -702.442)" fill="#f3a8d8"/>
          <path id="Trazado_1262343" data-name="Trazado 1262343" d="M767.3,547.786a3.05,3.05,0,0,1-2.58.4,4.617,4.617,0,0,0-1.346-.057,71.559,71.559,0,0,1-7.653-.243c-.562-.063-1.14-.058-1.421-.687a6.618,6.618,0,0,1,.176-2.007,1.151,1.151,0,0,1,1.22-.935,35.353,35.353,0,0,0,4.921.44c1.688.114,3.389.027,5.085.027a1.982,1.982,0,0,1,1.56,1.957c.027.367.027.736.039,1.1" transform="translate(-527.114 -380.332)" fill="#fdf4d5"/>
          <path id="Trazado_1262344" data-name="Trazado 1262344" d="M768.933,534.221c-1.7,0-3.4.087-5.085-.027a35.455,35.455,0,0,1-4.921-.44c0-.067,0-.133,0-.2l.178-.232a21.213,21.213,0,0,0,.82-2.876c.854,1.273,2.1,1.118,3.348.9a7.66,7.66,0,0,0,2.255-1.028c.628-.342,1.241-.711,1.9-1.09a5.854,5.854,0,0,0,1.427,1.081c-.519.168-.379.544-.309.92a15.288,15.288,0,0,1,.394,2.994" transform="translate(-530.343 -369.828)" fill="#f3a8d8"/>
          <path id="Trazado_1262345" data-name="Trazado 1262345" d="M829.941,574.834a2.766,2.766,0,0,0-.393-1.163,17.709,17.709,0,0,1-2.028-4.872,7.207,7.207,0,0,1,.04-3.68c.172-.653.394-1.292.595-1.937a2.185,2.185,0,0,1,1.986,1.775c.858,2.669,1.5,5.4.824,8.224-.15.631-.227,1.387-1.023,1.653" transform="translate(-578.125 -393.558)" fill="#f3a8d8"/>
          <path id="Trazado_1262346" data-name="Trazado 1262346" d="M696.111,640.113a15.761,15.761,0,0,1,1.182-3.388c.745-1.573,1.765-2.972,2.622-4.47a15.744,15.744,0,0,0,1.105-2.348c.128-.345.177-.744.545-.956a22.538,22.538,0,0,1-.161,5.008,27.646,27.646,0,0,1-.285,3.014,3.113,3.113,0,0,1-.211.749c-1.193.614-2.382,1.232-3.578,1.838-.4.2-.812.37-1.219.553" transform="translate(-486.449 -439.517)" fill="#e2762c"/>
          <path id="Trazado_1262347" data-name="Trazado 1262347" d="M804.674,1020.46c-2.589-.055-5.182.072-7.769-.141a7.224,7.224,0,0,0-1.115.076q.026-1.239.052-2.479l9.025.014a8.688,8.688,0,0,0-.192,2.53" transform="translate(-556.105 -711.329)" fill="#f3a8d8"/>
          <path id="Trazado_1262348" data-name="Trazado 1262348" d="M732.182,468.906a9.321,9.321,0,0,1-2.009,2.486,2.82,2.82,0,0,1,2.009-2.486" transform="translate(-510.252 -327.676)" fill="#321e1a"/>
          <path id="Trazado_1262349" data-name="Trazado 1262349" d="M759.1,542.826l-.178.232.178-.232" transform="translate(-530.343 -379.332)" fill="#fdf4d5"/>
          <path id="Trazado_1262350" data-name="Trazado 1262350" d="M590.419,558.4c-.575-1.645-.949-3.346-1.409-5.023q-2.118-7.721-4.215-15.449c-.364-1.341-.356-1.371.977-1.546,3.715-.49,7.432-.951,11.148-1.433,3.865-.5,7.728-1.02,11.594-1.521q5.686-.737,11.375-1.448c1.433-.178,1.44-.158,1.767,1.254.649,2.806,1.591,5.529,2.335,8.308-.384.473-1.176.292-1.466.916a44.319,44.319,0,0,0-3.224,3.177c-1.9,1.8-2.767,4.218-4.067,6.376-.155.257-.239.562-.518.729-.84.223-1.672.488-2.523.662-4.3.88-8.623,1.628-12.874,2.731-1.464.38-2.94.716-4.412,1.067-.332.08-.691.188-.88-.24a16.147,16.147,0,0,1-1.579-4.942c.648-.688,1.3-1.371,1.944-2.067a2.114,2.114,0,0,1,2.774-.608c.518.23,1.031.476,1.525.753.895.5,1.01.479,1.422-.453a34.1,34.1,0,0,0,1.431-3.706c.17-.551.451-1.055,1.032-1.071,2.054-.058,3.991-.944,6.061-.828a2.043,2.043,0,0,0,2.328-1.534,2.8,2.8,0,0,1,.8-1.356,9.357,9.357,0,0,1,3.2-2.014c1.415-.413,2.532-1.525,4.058-1.7a.592.592,0,0,0,.483-.776c-.1-.4-.448-.48-.81-.456a.743.743,0,0,0-.589.3,3.19,3.19,0,0,1-1.376.969c-1.114.561-2.255,1.07-3.382,1.607a1.7,1.7,0,0,1-1.287.261c-.393-.115-.868.021-.9.458-.063.972-.795,1.62-1.058,2.483a1.158,1.158,0,0,1-1.267.9,17.083,17.083,0,0,0-4.041.52,4.169,4.169,0,0,1-2.775,0,.858.858,0,0,0-1.164.858c-.049,1.606-.868,2.951-1.419,4.387-.086.224-.222.4-.511.254a13.092,13.092,0,0,1-2.818-1.433c-.648-.552-1.236-.477-1.547.336a9.846,9.846,0,0,1-2.554,3.251c-1.1-3.378-1.824-6.864-2.89-10.252-.069-.219-.167-.46.013-.645.51-.527.15-.868-.223-1.227-.245-.236-.479-.484-.7-.74-.177-.2-.344-.456-.636-.409-.335.055-.3.383-.346.636-.092.482-.186.964-.292,1.443-.067.3.016.623.307.624.884,0,1.006.643,1.189,1.263.192.653.416,1.3.578,1.957a91.832,91.832,0,0,0,4.132,13.3c.449,1.082.47,1.136,1.576.876,6.363-1.5,12.755-2.857,19.167-4.126l-1.18,2.518a6.511,6.511,0,0,0-.784.089q-9.807,2.3-19.612,4.611c-.023-.639-.047-1.277-.066-1.916-.009-.3.018-.6-.015-.9-.055-.491-.13-1.051-.716-1.142-.538-.084-.768.355-.9.824-.028.1-.13.177-.2.264" transform="translate(-408.517 -371.695)" fill="#fdf4d5"/>
          <path id="Trazado_1262351" data-name="Trazado 1262351" d="M799.867,754.814a20.447,20.447,0,0,1,1.628,4.68,13.373,13.373,0,0,1,.7,4.453,4.244,4.244,0,0,1-1.931,3.55,17.037,17.037,0,0,1-4.31,1.988c-3.467,1.046-5.857-1.576-6.509-3.9-.51-1.817-.788-3.683-1.136-5.534,1.919-.682,3.911-1.138,5.791-1.946a16.315,16.315,0,0,0,5.093-2.884,3.59,3.59,0,0,1,.673-.407" transform="translate(-550.878 -527.471)" fill="#497e98"/>
          <path id="Trazado_1262352" data-name="Trazado 1262352" d="M733.342,767.708a10.758,10.758,0,0,1-.8,4.417c-.287.739-.51,1.5-.767,2.252a11.913,11.913,0,0,1-2.072,3.489,3.687,3.687,0,0,1-3.5,1.453,10.393,10.393,0,0,1-3.7-.948,4.287,4.287,0,0,1-2.3-3.449,15.846,15.846,0,0,1,.86-7.583,10.433,10.433,0,0,0,.957-2.293c.614.292,1.237.566,1.84.878a13.375,13.375,0,0,0,6.438,1.552,10.373,10.373,0,0,1,3.041.233" transform="translate(-503.206 -534.621)" fill="#497e98"/>
          <path id="Trazado_1262353" data-name="Trazado 1262353" d="M758.19,645.436c.262-4.5.927-8.96,1.486-13.432.638-5.109,1.208-10.228,1.512-15.371.165-2.8.274-5.6.415-8.395a2.876,2.876,0,0,1,.229-1.33.5.5,0,0,1,.556-.3c.262.068.3.3.29.545-.192,3.515-.329,7.034-.586,10.544-.254,3.472-.573,6.941-1.009,10.4-.431,3.417-.842,6.837-1.267,10.255-.29,2.33-.481,4.668-.63,7.01-.024.377-.076.753-.13,1.127-.045.313-.138.645-.539.581s-.375-.415-.365-.723.026-.605.04-.908" transform="translate(-529.8 -423.894)" fill="#527a80"/>
          <path id="Trazado_1262354" data-name="Trazado 1262354" d="M786.176,633.882a85.7,85.7,0,0,1-.207,8.627,5.765,5.765,0,0,1-.073.676c-.055.228-.19.429-.464.411s-.378-.233-.377-.475c0-.53.022-1.06.045-1.589.071-1.626.218-3.247.188-4.878-.092-4.958-.33-9.907-.794-14.847-.273-2.9-.541-5.8-.953-8.687a4.313,4.313,0,0,0-.427-1.75.787.787,0,0,1-.05-.66.558.558,0,0,1,.461-.445.472.472,0,0,1,.521.349,6.922,6.922,0,0,1,.266,1.1c.643,4.27,1.053,8.565,1.385,12.868.239,3.1.435,6.194.48,9.3" transform="translate(-547.178 -426.455)" fill="#527a80"/>
          <path id="Trazado_1262355" data-name="Trazado 1262355" d="M746.427,593.25a52.56,52.56,0,0,1,7.449.326c2.5.214,5,.164,7.5.187.568.005,1.138.006,1.7.052.3.024.637.153.624.527-.011.322-.333.374-.594.423a2.05,2.05,0,0,1-.453.018c-4.2-.167-8.407-.083-12.6-.544a30.419,30.419,0,0,0-5.338.016c-1.247.084-2.5.111-3.747.154a2.6,2.6,0,0,1-.675-.062.4.4,0,0,1-.317-.417.417.417,0,0,1,.283-.443,2.141,2.141,0,0,1,.668-.088c1.67.076,3.332-.119,5.495-.148" transform="translate(-517.106 -414.538)" fill="#527a80"/>
          <path id="Trazado_1262356" data-name="Trazado 1262356" d="M708.075,905.321c.343.528.1.821-.1,1.153A16.212,16.212,0,0,1,706.065,909a57.586,57.586,0,0,1-5.593,5.435c-.435.362-.817.788-1.224,1.183-.163.158-.321.322-.5.467a.492.492,0,0,1-.714.017c-.271-.248-.14-.482.063-.681.729-.713,1.448-1.434,2.208-2.118a41.013,41.013,0,0,0,6-5.988,10.456,10.456,0,0,1,1.768-1.99" transform="translate(-487.689 -632.647)" fill="#4b829e"/>
          <path id="Trazado_1262357" data-name="Trazado 1262357" d="M796.672,1004.984c2.065.18,4.13.354,6.193.546a5.242,5.242,0,0,1,.879.218.328.328,0,0,1,.257.327.445.445,0,0,1-.214.377,1.271,1.271,0,0,1-.989.124,40.946,40.946,0,0,0-7.538-.653,3.366,3.366,0,0,1-.34,0c-.151-.014-.3-.038-.357-.215a.386.386,0,0,1,.215-.464,1.86,1.86,0,0,1,1.1-.212c.265,0,.53,0,.8,0l0-.046" transform="translate(-555.234 -702.292)" fill="#4b829e"/>
          <path id="Trazado_1262358" data-name="Trazado 1262358" d="M677.884,992.651a24.984,24.984,0,0,1-4.275-.226,1.533,1.533,0,0,1-.439-.085.442.442,0,0,1-.322-.523c.046-.222.232-.284.429-.281a17.151,17.151,0,0,1,1.807.056,21.337,21.337,0,0,0,5.729-.02,4.185,4.185,0,0,1,.676-.039c.257,0,.576-.033.591.347.012.31-.218.447-.492.533a10.5,10.5,0,0,1-3.139.238c-.188,0-.377,0-.566,0" transform="translate(-470.185 -692.891)" fill="#4b829e"/>
          <path id="Trazado_1262359" data-name="Trazado 1262359" d="M806.956,937.776c-.2-.021-.311-.147-.253-.3a2.465,2.465,0,0,1,.377-.691q1.649-2.019,3.323-4.016c.632-.755,1.193-1.559,1.76-2.363.242-.344.575-1.007,1-.705.509.365-.181.77-.384,1.084a49.921,49.921,0,0,1-5.023,6.42c-.223.245-.426.546-.8.573" transform="translate(-563.721 -649.629)" fill="#4b829e"/>
          <path id="Trazado_1262360" data-name="Trazado 1262360" d="M783,796.6a6.721,6.721,0,0,1-1.507,4.629c-.131.186-.258.424-.527.286-.3-.155-.236-.445-.134-.693.07-.171.212-.312.3-.478a6.844,6.844,0,0,0,1-3.662,1.817,1.817,0,0,1,.217-1.2.372.372,0,0,1,.375-.193.32.32,0,0,1,.276.312c.011.415,0,.83,0,1" transform="translate(-545.594 -555.751)" fill="#4b829e"/>
          <path id="Trazado_1262361" data-name="Trazado 1262361" d="M716.681,882.17a.287.287,0,0,1-.291.285.747.747,0,0,1-.617-.228,12.34,12.34,0,0,1-2.783-3.257c-.173-.363-.563-.878-.163-1.116.438-.26.652.339.824.686a12.031,12.031,0,0,0,2.467,2.938,1.994,1.994,0,0,1,.563.692" transform="translate(-498.008 -613.408)" fill="#4b829e"/>
          <path id="Trazado_1262362" data-name="Trazado 1262362" d="M788.04,812.476c.451.053,1.049-.163,1.521.292.106.1.23.21.192.379-.058.252-.284.252-.448.2a5.882,5.882,0,0,0-3.113.01c-.2.047-.5.084-.552-.22-.049-.277.209-.348.417-.438a4.641,4.641,0,0,1,1.983-.227" transform="translate(-549.009 -567.761)" fill="#4b829e"/>
          <path id="Trazado_1262363" data-name="Trazado 1262363" d="M803.446,891.859a1.76,1.76,0,0,1,1.16.695.316.316,0,0,1,.016.294.327.327,0,0,1-.288.093,3.724,3.724,0,0,1-1.177-.6.352.352,0,0,1-.106-.283c.026-.18.193-.191.394-.2" transform="translate(-561.179 -623.24)" fill="#4b829e"/>
          <path id="Trazado_1262364" data-name="Trazado 1262364" d="M610.2,618.505q9.806-2.307,19.612-4.611a6.5,6.5,0,0,1,.783-.089c-.845,1.72-1.7,3.437-2.531,5.161a35.491,35.491,0,0,1-3.414,4.893l-.3.061a59.223,59.223,0,0,1-10.444-2.318c-.829-.247-1.651-.523-2.489-.734a1.274,1.274,0,0,1-1.079-1.251,4.108,4.108,0,0,1-.14-1.113" transform="translate(-426.4 -428.934)" fill="#e17328"/>
          <path id="Trazado_1262365" data-name="Trazado 1262365" d="M619.293,568.38c-6.411,1.269-12.8,2.631-19.166,4.126-1.107.26-1.128.206-1.576-.876a91.828,91.828,0,0,1-4.132-13.3c-.162-.66-.386-1.3-.578-1.956-.183-.62-.305-1.261-1.189-1.263-.292,0-.374-.321-.307-.624.105-.479.2-.961.292-1.443.049-.254.01-.582.346-.637.292-.047.459.208.636.409.225.255.459.5.7.74.372.359.733.7.223,1.227-.179.185-.082.425-.012.645,1.066,3.388,1.788,6.874,2.891,10.253a.672.672,0,0,0,.429.659,16.158,16.158,0,0,0,1.579,4.943c.188.429.547.32.88.24,1.472-.352,2.947-.687,4.412-1.067,4.251-1.1,8.576-1.851,12.874-2.731.851-.174,1.682-.439,2.523-.662a1.777,1.777,0,0,1-.826,1.315" transform="translate(-413.92 -386.025)" fill="#6eafd8"/>
          <path id="Trazado_1262366" data-name="Trazado 1262366" d="M657.065,647.249l.3-.061a4.7,4.7,0,0,1,1.656,2.638c.081.215.092.47-.19.57a.354.354,0,0,1-.453-.238,11.1,11.1,0,0,0-1.366-2.586c-.045-.059.034-.214.055-.324" transform="translate(-459.115 -452.261)" fill="#321e1a"/>
          <path id="Trazado_1262367" data-name="Trazado 1262367" d="M593.846,630.355a1.455,1.455,0,0,1-.445.858c-.149.154-.35.366-.572.167-.256-.23.039-.379.152-.549.145-.218.284-.441.426-.661a.228.228,0,0,1,.28-.112c.121.042.151.151.158.3" transform="translate(-414.204 -440.28)" fill="#321e1a"/>
          <path id="Trazado_1262368" data-name="Trazado 1262368" d="M599.014,630.113c.379.493.629.809.869,1.133a.287.287,0,0,1-.015.4.262.262,0,0,1-.4,0,1.278,1.278,0,0,1-.458-1.538" transform="translate(-418.531 -440.329)" fill="#321e1a"/>
          <path id="Trazado_1262369" data-name="Trazado 1262369" d="M743.626,461.212a1.4,1.4,0,0,1-.987,1.347.556.556,0,0,1-.666-.279,1.354,1.354,0,0,1,.58-1.562c.218-.154.449-.3.724-.161a.659.659,0,0,1,.35.655" transform="translate(-518.439 -321.803)" fill="#321e1a"/>
          <path id="Trazado_1262370" data-name="Trazado 1262370" d="M609.684,561.986a.673.673,0,0,1-.429-.659,9.848,9.848,0,0,0,2.554-3.251c.311-.813.9-.888,1.547-.336a13.088,13.088,0,0,0,2.818,1.433c.289.146.425-.029.511-.254.551-1.436,1.369-2.781,1.418-4.387a.859.859,0,0,1,1.164-.858,4.167,4.167,0,0,0,2.775,0,17.077,17.077,0,0,1,4.041-.52,1.159,1.159,0,0,0,1.267-.9c.264-.863,1-1.511,1.058-2.483.028-.436.5-.573.9-.458a1.7,1.7,0,0,0,1.287-.261c1.126-.538,2.267-1.047,3.381-1.608a3.189,3.189,0,0,0,1.376-.969.742.742,0,0,1,.589-.3c.363-.023.708.055.81.456a.592.592,0,0,1-.483.775c-1.525.172-2.643,1.283-4.058,1.7a9.358,9.358,0,0,0-3.2,2.015,2.8,2.8,0,0,0-.8,1.356,2.043,2.043,0,0,1-2.328,1.534c-2.07-.115-4.006.77-6.061.828-.581.016-.862.52-1.032,1.071a34.147,34.147,0,0,1-1.43,3.706c-.412.932-.527.955-1.422.453-.494-.277-1.008-.523-1.525-.753a2.114,2.114,0,0,0-2.774.607c-.64.7-1.3,1.378-1.944,2.067" transform="translate(-425.753 -381.669)" fill="#537c8b"/>
        </g>
      </g>
    </g>
  </g>
</svg>
