<svg xmlns="http://www.w3.org/2000/svg" width="107" height="107" viewBox="0 0 107 107">
  <g id="Grupo_1205214" data-name="Grupo 1205214" transform="translate(-285.333 -792.66)">
    <g id="Grupo_1204390" data-name="Grupo 1204390" transform="translate(0.333)">
      <g id="Grupo_1194861" data-name="Grupo 1194861" transform="translate(-5 -6324.15)">
        <g id="Grupo_156312" data-name="Grupo 156312" transform="translate(1.332 2668.374)">
          <path id="Elipse_5845" data-name="Elipse 5845" d="M53.5,0A53.5,53.5,0,1,1,0,53.5,53.5,53.5,0,0,1,53.5,0Z" transform="translate(288.668 4448.437)" fill="#aaca79"/>
        </g>
      </g>
      <g id="layer1" transform="translate(305.019 812.68)">
        <path id="path4919" d="M16.909,32.3V16.925a3.287,3.287,0,0,1,3.3-3.295H25.7v4.394l8.787-7.689L25.7,2.646V7.04H18.008a7.672,7.672,0,0,0-7.689,7.689v13.18Z" transform="translate(30.851 6.671)" fill="#88a160"/>
        <path id="path4904" d="M18.368,32.3V16.925a3.287,3.287,0,0,0-3.3-3.295H9.581v4.394L.794,10.335,9.581,2.646V7.04H17.27a7.672,7.672,0,0,1,7.689,7.689v13.18Z" transform="translate(0.834 6.671)" fill="#88a160"/>
        <path id="path4891" d="M11.1,16.173l-.088-6.59H6.615L14.3.794l7.689,8.79H17.6l.015,6.59Z" transform="translate(19.178 0.834)" fill="#549ad4"/>
        <path id="path4901" d="M14.3.794,6.615,9.583H9.361l6.316-7.219Z" transform="translate(19.178 0.834)" fill="#f5f9fb"/>
        <path id="path4893" d="M13.051,1.382c-.438,8.8-3.248,11.145-5.361,11.683l.017,1.255h6.517L14.21,7.73H18.6Z" transform="translate(22.567 2.687)" fill="#3588cb"/>
        <path id="path4874" d="M6.591,10.595a8.83,8.83,0,0,0-5.8,8.33V20.4a4.4,4.4,0,0,0,4.394,4.426h8.787A4.4,4.4,0,0,0,18.366,20.4V18.925a8.828,8.828,0,0,0-5.794-8.33Z" transform="translate(0.835 31.721)" fill="#e4eff8"/>
        <path id="path4872" d="M13.031,10.658a6.211,6.211,0,0,0-.277,1.886c0,8.31-9.886,8.787-9.886,8.787H.833a4.377,4.377,0,0,0,4.233,3.3h8.787A4.4,4.4,0,0,0,18.244,20.2V18.725a8.813,8.813,0,0,0-5.213-8.066Z" transform="translate(0.957 31.921)" fill="#c4dcf0"/>
        <path id="path4859" d="M17.7,10.595a8.83,8.83,0,0,0-5.8,8.33V20.4A4.4,4.4,0,0,0,16.3,24.827h8.787A4.4,4.4,0,0,0,29.478,20.4V18.925a8.828,8.828,0,0,0-5.794-8.33Z" transform="translate(35.854 31.721)" fill="#e4eff8"/>
        <path id="path4867" d="M23.867,12.544c0,8.31-9.886,8.787-9.886,8.787H11.945a4.377,4.377,0,0,0,4.233,3.3h8.787A4.4,4.4,0,0,0,29.356,20.2V18.725a8.813,8.813,0,0,0-5.213-8.066,6.21,6.21,0,0,0-.277,1.886Z" transform="translate(35.976 31.921)" fill="#c4dcf0"/>
        <path id="path4813" d="M30.026,29.54l-16.6-4.266a3.4,3.4,0,0,0-1.751,6.566L31.25,37.11c2.939.572,4.268-.982,4.268-3.176V24.045a15.344,15.344,0,0,0-10.507-14.6H15.269a15.344,15.344,0,0,0-10.507,14.6v9.889c0,2.194,1.33,3.748,4.268,3.176L28.6,31.839a3.4,3.4,0,0,0-1.751-6.566l-16.6,4.266Z" transform="translate(13.341 28.11)" fill="#549ad4"/>
        <path id="rect4837" d="M6.387,12.73V18.1H8.431V14.854A2.294,2.294,0,0,0,6.387,12.73Z" transform="translate(18.46 38.45)" fill="#3588cb"/>
        <g id="Grupo_1204389" data-name="Grupo 1204389" transform="translate(6.02 23.597)">
          <path id="ellipse4779" d="M21.992,13.775A7.689,7.689,0,1,1,14.3,6.086,7.689,7.689,0,0,1,21.992,13.775Z" transform="translate(13.158 -6.086)" fill="#ffd1b5"/>
          <path id="circle4781" d="M21.752,13.125a4.394,4.394,0,1,1-4.394-4.394,4.394,4.394,0,0,1,4.394,4.394Z" transform="translate(33.17 2.251)" fill="#ffd1b5"/>
          <path id="circle4783" d="M10.639,13.125A4.394,4.394,0,1,1,6.245,8.731a4.394,4.394,0,0,1,4.394,4.394Z" transform="translate(-1.852 2.251)" fill="#ffd1b5"/>
        </g>
        <path id="path4842" d="M22.684,12.815,6.671,16.929l-.586,2.347,16.6-4.265A3.423,3.423,0,0,1,24.318,15V12.8a3.421,3.421,0,0,0-.953-.09,3.519,3.519,0,0,0-.682.105Z" transform="translate(17.51 38.372)" fill="#3588cb"/>
        <path id="path4827" d="M8.582,9.449a15.344,15.344,0,0,1,10.506,14.6v9.89a3.163,3.163,0,0,1-1.3,2.791l1.422.384c2.939.572,4.269-.981,4.269-3.175v-9.89a15.344,15.344,0,0,0-10.506-14.6Z" transform="translate(25.378 28.109)" fill="#3588cb"/>
        <path id="ellipse4803" d="M10.136,6.086a7.688,7.688,0,0,0-2.195.324,7.684,7.684,0,0,1,0,14.73,7.688,7.688,0,1,0,2.2-15.054Z" transform="translate(23.345 17.512)" fill="#ffb98d"/>
        <path id="ellipse4808" d="M14.3,6.086a7.689,7.689,0,1,0,1.1,15.29,7.678,7.678,0,0,1-.013-15.2A7.689,7.689,0,0,0,14.3,6.086Z" transform="translate(19.178 17.512)" fill="#f5f9fb"/>
        <path id="path4834" d="M28.663,13.274c.016.051.042.1.056.148a3.4,3.4,0,0,1-2.407,4.166L6.74,22.859a5.051,5.051,0,0,1-1.948.041c.373,1.621,1.692,2.634,4.145,2.156l19.572-5.271a3.4,3.4,0,0,0,2.407-4.166,3.356,3.356,0,0,0-2.253-2.345Z" transform="translate(13.436 40.163)" fill="#3588cb"/>
        <path id="path4883" d="M15.268,9.449a15.344,15.344,0,0,0-10.506,14.6v9.89c0,2.194,1.33,3.747,4.269,3.175l.062-.017a2.95,2.95,0,0,1-2.135-3.158v-9.89a15.344,15.344,0,0,1,10.506-14.6Z" transform="translate(13.341 28.109)" fill="#f5f9fb"/>
        <path id="path4876" d="M13.631,11.333A8.857,8.857,0,0,0,11.906,16.6v1.476a4.4,4.4,0,0,0,3.3,4.269V18.106a15.355,15.355,0,0,0-1.57-6.773Z" transform="translate(35.854 34.048)" fill="#c4dcf0"/>
        <path id="circle4791" d="M15.275,8.731a4.394,4.394,0,0,0-1.65.324,4.388,4.388,0,0,1,0,8.139,4.392,4.392,0,1,0,1.648-8.463Z" transform="translate(41.272 25.848)" fill="#ffb98d"/>
        <path id="path4801" d="M17.358,8.731a4.394,4.394,0,1,0,1.1,8.643,4.388,4.388,0,0,1-.011-8.5,4.394,4.394,0,0,0-1.094-.144Z" transform="translate(39.189 25.848)" fill="#f5f9fb"/>
        <path id="path4794" d="M4.163,8.731a4.394,4.394,0,0,0-1.65.324,4.388,4.388,0,0,1,0,8.139A4.392,4.392,0,1,0,4.163,8.731Z" transform="translate(6.252 25.848)" fill="#ffb98d"/>
        <path id="circle4798" d="M6.245,8.731a4.394,4.394,0,1,0,1.1,8.643,4.388,4.388,0,0,1-.011-8.5,4.394,4.394,0,0,0-1.094-.144Z" transform="translate(4.167 25.848)" fill="#f5f9fb"/>
        <path id="path4888" d="M6.593,10.595a8.832,8.832,0,0,0-5.8,8.33V20.4a4.4,4.4,0,0,0,4.4,4.426h2.2a4.4,4.4,0,0,1-4.4-4.426V18.925a8.832,8.832,0,0,1,5.8-8.33Z" transform="translate(0.834 31.721)" fill="#f5f9fb"/>
        <path id="Ic_08" d="M33.481.529A1.1,1.1,0,0,0,32.655.9l-7.687,8.79a1.1,1.1,0,0,0,.826,1.826H29.1l.073,5.505a1.1,1.1,0,1,0,2.2-.032l-.09-6.584A1.1,1.1,0,0,0,30.19,9.319H28.219L33.481,3.3l5.262,6.016H36.774a1.1,1.1,0,0,0-1.094,1.1l.017,6.584a1.1,1.1,0,1,0,2.2,0l-.017-5.488h3.291A1.1,1.1,0,0,0,42,9.692L34.309.9a1.1,1.1,0,0,0-.828-.373ZM10.411,8.218a1.1,1.1,0,0,0-.717.275L.9,16.18a1.1,1.1,0,0,0,0,1.654l8.789,7.687a1.1,1.1,0,0,0,1.826-.828V21.4H15.9A2.166,2.166,0,0,1,18.1,23.6V38.973a1.1,1.1,0,1,0,2.2,0V23.6A4.408,4.408,0,0,0,15.9,19.2h-5.49A1.1,1.1,0,0,0,9.321,20.3v1.978L3.305,17.006l6.015-5.269v1.978a1.1,1.1,0,0,0,1.094,1.094H18.1A6.556,6.556,0,0,1,24.692,21.4v9.884a8.755,8.755,0,0,0,2.169,5.771,16.486,16.486,0,0,0-8.259,8,9.888,9.888,0,0,0-3.525-3.2,5.488,5.488,0,1,0-9.324,0A9.958,9.958,0,0,0,.531,50.65v1.474a5.517,5.517,0,0,0,5.49,5.522h8.789a5.455,5.455,0,0,0,2.195-.457v4.853a4.434,4.434,0,0,0,1.42,3.469,4.861,4.861,0,0,0,4.2.779l10.853-2.92,10.868,2.92a4.887,4.887,0,0,0,4.188-.779,4.395,4.395,0,0,0,1.427-3.445V57.189a5.482,5.482,0,0,0,2.2.457h8.789a5.515,5.515,0,0,0,5.488-5.522V50.65a9.956,9.956,0,0,0-5.222-8.785,5.5,5.5,0,1,0-9.328,0,9.887,9.887,0,0,0-3.52,3.194,16.487,16.487,0,0,0-8.259-8,8.752,8.752,0,0,0,2.169-5.771V21.4a6.549,6.549,0,0,1,6.584-6.593h7.693a1.1,1.1,0,0,0,1.094-1.094V11.737l6.018,5.269-6.018,5.271V20.3A1.1,1.1,0,0,0,56.548,19.2h-5.5A4.4,4.4,0,0,0,46.666,23.6v14.28a1.094,1.094,0,1,0,2.188,0V23.6a2.166,2.166,0,0,1,2.195-2.2h4.4v3.291a1.1,1.1,0,0,0,1.824.828l8.789-7.687a1.1,1.1,0,0,0,0-1.654L57.268,8.493a1.1,1.1,0,0,0-1.824.826v3.293h-6.59a8.789,8.789,0,0,0-8.781,8.79s0,2.141,0,4.081a8.768,8.768,0,0,0-13.185,0V21.4a8.794,8.794,0,0,0-8.787-8.79H11.52V9.319a1.1,1.1,0,0,0-1.109-1.1ZM33.483,24.693a6.593,6.593,0,1,1-6.593,6.593A6.607,6.607,0,0,1,33.483,24.693ZM10.374,35.681a3.3,3.3,0,1,1-3.248,3.291A3.3,3.3,0,0,1,10.374,35.681Zm46.135,0a3.3,3.3,0,1,1-3.259,3.291A3.3,3.3,0,0,1,56.509,35.681ZM28.738,38.676a8.754,8.754,0,0,0,9.491,0,14.239,14.239,0,0,1,9.532,13.48v9.907a2.2,2.2,0,0,1-.641,1.768,2.64,2.64,0,0,1-2.308.309l-7.1-1.912,4.522-1.219A4.521,4.521,0,0,0,45.409,55.5a4.44,4.44,0,0,0-2.042-2.686v-.654a1.1,1.1,0,1,0-2.2.011,5.007,5.007,0,0,0-1.249.15L25.8,55.949V52.158a1.1,1.1,0,0,0-2.2,0v4.355l-.275.071a1.1,1.1,0,0,0,.543,2.133l16.6-4.265a2.3,2.3,0,1,1,1.193,4.437L22.16,64.142a2.643,2.643,0,0,1-2.313-.309,2.241,2.241,0,0,1-.639-1.791V52.158a14.238,14.238,0,0,1,9.529-13.482ZM13.483,43.527a7.721,7.721,0,0,1,4.1,4.3,16.57,16.57,0,0,0-.575,4.336v2.448a3.239,3.239,0,0,1-2.2.843H6.023a3.275,3.275,0,0,1-3.291-3.325V50.65a7.723,7.723,0,0,1,4.623-7.121,5.448,5.448,0,0,0,6.127,0Zm40,0a5.45,5.45,0,0,0,6.125,0,7.729,7.729,0,0,1,4.627,7.118v1.474a3.275,3.275,0,0,1-3.291,3.325H52.156a3.243,3.243,0,0,1-2.2-.843v-2.45a16.544,16.544,0,0,0-.573-4.334,7.724,7.724,0,0,1,4.1-4.3ZM37.875,45.563a1.1,1.1,0,1,0,0,2.2h3.3a1.1,1.1,0,1,0,0-2.2Z" transform="translate(0 0)" fill="#333"/>
      </g>
    </g>
  </g>
</svg>
