<svg xmlns="http://www.w3.org/2000/svg" width="156.273" height="156.283" viewBox="0 0 156.273 156.283">
  <g id="Grupo_1205216" data-name="Grupo 1205216" transform="translate(-409.863 -1761.34)">
    <g id="desventaja_1_" data-name="desventaja (1)" transform="translate(407.514 1758.992)">
      <g id="Grupo_1205040" data-name="Grupo 1205040" transform="translate(2.349 2.347)">
        <g id="Grupo_1205034" data-name="Grupo 1205034" transform="translate(48.187 0)">
          <path id="Trazado_1266592" data-name="Trazado 1266592" d="M198.1,223.39l-17.553,20.674a1.274,1.274,0,0,0,.972,2.1H189.7v56.888h18.756V246.164h8.175a1.274,1.274,0,0,0,.972-2.1L200.048,223.39a1.275,1.275,0,0,0-1.944,0Z" transform="translate(-180.244 -222.94)" fill="#0a4666" fill-rule="evenodd"/>
        </g>
        <g id="Grupo_1205035" data-name="Grupo 1205035" transform="translate(0 0)">
          <path id="Trazado_1266594" data-name="Trazado 1266594" d="M33.86,148.357,16.307,169.031a1.274,1.274,0,0,0,.972,2.1h8.175v78.9H44.21v-78.9h8.175a1.274,1.274,0,0,0,.972-2.1L35.8,148.357a1.275,1.275,0,0,0-1.944,0Z" transform="translate(-16 -147.907)" fill="#445130" fill-rule="evenodd"/>
        </g>
        <g id="Grupo_1205036" data-name="Grupo 1205036" transform="translate(96.374 0)">
          <path id="Trazado_1266596" data-name="Trazado 1266596" d="M362.349,298.423,344.8,319.1a1.274,1.274,0,0,0,.972,2.1h8.175v34.874H372.7V321.2h8.175a1.274,1.274,0,0,0,.972-2.1l-17.553-20.674A1.275,1.275,0,0,0,362.349,298.423Z" transform="translate(-344.49 -297.973)" fill="#aaca79" fill-rule="evenodd"/>
          <path id="Trazado_1266597" data-name="Trazado 1266597" d="M402.3,298.422l-1.272,1.5L417.309,319.1a1.274,1.274,0,0,1-.972,2.1h4.488a1.274,1.274,0,0,0,.972-2.1l-17.553-20.674A1.275,1.275,0,0,0,402.3,298.422Zm5.862,57.649V321.2h4.488v34.874Z" transform="translate(-384.441 -297.972)" fill="#aaca79" fill-rule="evenodd"/>
        </g>
        <g id="Grupo_1205037" data-name="Grupo 1205037" transform="translate(50.633 50.642)">
          <circle id="Elipse_11852" data-name="Elipse 11852" cx="37.35" cy="37.35" r="37.35" transform="translate(52.82 0) rotate(45)" fill="#fff"/>
          <path id="Trazado_1266598" data-name="Trazado 1266598" d="M361.609,16a37.355,37.355,0,0,1,0,74.711q-1.481,0-2.934-.114a37.357,37.357,0,0,0,0-74.482Q360.127,16,361.609,16Z" transform="translate(-308.772 -0.528)" fill="#636363" fill-rule="evenodd"/>
        </g>
        <g id="Grupo_1205039" data-name="Grupo 1205039" transform="translate(76.991 72.95)">
          <path id="Trazado_1266599" data-name="Trazado 1266599" d="M411.574,80.6q-.027,27.17,0,27.126H420.6a1.428,1.428,0,0,0,1.426-1.426V82.021A1.428,1.428,0,0,0,420.6,80.6Z" transform="translate(-372.5 -58.798)" fill="#636363" fill-rule="evenodd"/>
          <path id="Trazado_1266600" data-name="Trazado 1266600" d="M422.037,106.3v0a1.428,1.428,0,0,1-1.426,1.422h-9.038V80.6H413v25.7h9.038Z" transform="translate(-372.509 -58.797)" fill="#b1b1b5" fill-rule="evenodd"/>
          <path id="Trazado_1266601" data-name="Trazado 1266601" d="M322.355,117.725c10.513,1.81,16.626,3.133,22.737-2.72V87.879c-4.817-3.618-11.179-6.718-11.179-13.562V66.081a9.9,9.9,0,0,0-9.877,9.876v6.388a9.5,9.5,0,0,0,2.739,5.028C311.481,91.306,317.992,117.912,322.355,117.725Z" transform="translate(-305.805 -66.081)" fill="#f6dccd" fill-rule="evenodd"/>
          <path id="Trazado_1266602" data-name="Trazado 1266602" d="M366.392,124.855a17.223,17.223,0,0,0,2.4-1.937V95.792c-4.817-3.618-11.179-6.718-11.179-13.562V74a9.843,9.843,0,0,0-6.9,2.827,9.8,9.8,0,0,1,5.055-1.4v8.235c0,6.844,6.361,9.944,11.179,13.562v27.126q-.278.265-.555.511Z" transform="translate(-329.505 -73.995)" fill="#f1cbbc" fill-rule="evenodd"/>
          <path id="Trazado_1266603" data-name="Trazado 1266603" d="M293.78,102.081h-6.335a3.924,3.924,0,1,1,0-7.849H285.1a3.924,3.924,0,1,1,0-7.849h-2.754a3.924,3.924,0,1,1,0-7.849H284a3.924,3.924,0,0,1,0-7.849h9.777a3.924,3.924,0,0,1,0,7.849h1.653a3.924,3.924,0,1,1,0,7.849H293.78a3.924,3.924,0,1,1,0,7.849,3.924,3.924,0,0,1,0,7.849Z" transform="translate(-278.426 -50.25)" fill="#f6dccd" fill-rule="evenodd"/>
          <g id="Grupo_1205038" data-name="Grupo 1205038" transform="translate(0 24.361)">
            <path id="Trazado_1266604" data-name="Trazado 1266604" d="M306.05,74.61h-6.335a3.936,3.936,0,0,1-3.924-3.924h14.184A3.936,3.936,0,0,1,306.05,74.61Z" transform="translate(-290.696 -47.14)" fill="#f1cbbc" fill-rule="evenodd"/>
            <path id="Trazado_1266605" data-name="Trazado 1266605" d="M294.077,101.362h-2.341a3.936,3.936,0,0,1-3.924-3.924h16.525a3.936,3.936,0,0,1-3.925,3.924Z" transform="translate(-285.058 -81.741)" fill="#f1cbbc" fill-rule="evenodd"/>
            <path id="Trazado_1266606" data-name="Trazado 1266606" d="M285.1,128.114H282.35a3.936,3.936,0,0,1-3.925-3.924h20.932a3.936,3.936,0,0,1-3.925,3.924H285.1Z" transform="translate(-278.425 -116.341)" fill="#f1cbbc" fill-rule="evenodd"/>
            <path id="Trazado_1266607" data-name="Trazado 1266607" d="M287.985,154.866a3.936,3.936,0,0,1-3.924-3.924h17.625a3.936,3.936,0,0,1-3.924,3.924Z" transform="translate(-282.408 -150.942)" fill="#f1cbbc" fill-rule="evenodd"/>
          </g>
        </g>
      </g>
    </g>
  </g>
</svg>
