<svg xmlns="http://www.w3.org/2000/svg" width="107" height="107" viewBox="0 0 107 107">
  <g id="Grupo_1205215" data-name="Grupo 1205215" transform="translate(-285.333 -920.581)">
    <g id="Grupo_1204392" data-name="Grupo 1204392" transform="translate(0.333)">
      <g id="Grupo_1194859" data-name="Grupo 1194859" transform="translate(-5 -6409.166)">
        <g id="Grupo_156312" data-name="Grupo 156312" transform="translate(1.332 2881.311)">
          <path id="Elipse_5845" data-name="Elipse 5845" d="M53.5,0A53.5,53.5,0,1,1,0,53.5,53.5,53.5,0,0,1,53.5,0Z" transform="translate(288.668 4448.437)" fill="#aaca79"/>
        </g>
      </g>
      <g id="layer2" transform="translate(307.569 943.149)">
        <path id="path6751" d="M56.529,5.821a3.034,3.034,0,0,1,3.04,3.04V42.3a3.034,3.034,0,0,1-3.04,3.04H4.339A3.585,3.585,0,0,1,.817,42.05C.814,28.815.794,18.995.794,5.821" transform="translate(0.75 14.976)" fill="#e4eff8"/>
        <path id="path6753" d="M59.4,42.21a3.034,3.034,0,0,1-3.04,3.04H4.167A3.7,3.7,0,0,1,.855,42.958a3.375,3.375,0,0,0,1.285.265h52.19a3.034,3.034,0,0,0,3.04-3.04V6.727a3.015,3.015,0,0,0-.141-.873,3.024,3.024,0,0,1,2.167,2.9Z" transform="translate(0.923 15.069)" fill="#c4dcf0"/>
        <path id="path6755" d="M.794,8.022a4.054,4.054,0,0,1,8.107,0V40.451a3.034,3.034,0,0,1-3.04,3.04H4.341A3.539,3.539,0,0,0,.794,47.038Z" transform="translate(0.749 9.735)" fill="#549ad4"/>
        <path id="path6757" d="M8.9,40.189a3.034,3.034,0,0,1-3.04,3.04H4.341A3.539,3.539,0,0,0,.794,46.776V41.553a3.53,3.53,0,0,1,1.52-.35h1.52a3.034,3.034,0,0,0,3.04-3.04V5.726a4.043,4.043,0,0,0-.362-1.665A4.039,4.039,0,0,1,8.9,7.753Z" transform="translate(0.749 9.996)" fill="#3588cb"/>
        <path id="path6761" d="M28.29,12.954A12.161,12.161,0,1,1,16.13.794,12.161,12.161,0,0,1,28.29,12.954Z" transform="translate(9.735 0.749)" fill="#88a160"/>
        <path id="path6767" d="M13.713,7.408h4.054A1.011,1.011,0,0,1,18.78,8.422v3.04a1.011,1.011,0,0,1-1.013,1.013H13.713A1.011,1.011,0,0,1,12.7,11.462V8.422A1.011,1.011,0,0,1,13.713,7.408Z" transform="translate(34.445 19.469)" fill="#549ad4"/>
        <path id="path6769" d="M13.713,7.408A1.011,1.011,0,0,0,12.7,8.422v3.04a1.011,1.011,0,0,0,1.013,1.013h4.054a1.011,1.011,0,0,0,1.013-1.013V10.449H15.74a1.011,1.011,0,0,1-1.013-1.013V7.408Z" transform="translate(34.445 19.469)" fill="#3588cb"/>
        <path id="path6771" d="M13.494,2.618,23.628,7.685,13.494,11.738" transform="translate(36.692 5.911)" fill="#88a160"/>
        <g id="Grupo_1204391" data-name="Grupo 1204391" transform="translate(23.837 8.529)">
          <path id="path6773" d="M13.494,2.618v9.121l2.027-.812v-7.3Z" transform="translate(12.855 -2.618)" fill="#88a160"/>
        </g>
        <path id="path6779" d="M12.69,13.7a13.075,13.075,0,0,0,1.49,6.082H10.667V17.759a5.069,5.069,0,0,0-10.138,0V56.771a4.553,4.553,0,0,0,4.564,4.562H57.279a4.052,4.052,0,0,0,4.054-4.054V23.839a4.044,4.044,0,0,0-4.054-4.054H51.2V18.335l9.5-3.8a1.013,1.013,0,0,0,.075-1.841L51.2,7.9V7.621a1.013,1.013,0,1,0-2.027,0V19.786H37.542A13.171,13.171,0,1,0,12.69,13.7ZM50.172.529a1.013,1.013,0,0,0-1,1.025V2.572a1.014,1.014,0,0,0,2.027,0V1.555A1.013,1.013,0,0,0,50.172.529Zm-24.3,2.029A11.145,11.145,0,1,1,14.717,13.7,11.149,11.149,0,0,1,25.868,2.558ZM44.7,4.628l.717.718A1.015,1.015,0,0,0,46.85,3.912l-.718-.718a.965.965,0,0,0-.708-.3A1.012,1.012,0,0,0,44.7,4.628Zm9.552-1.435-.718.718a1.015,1.015,0,0,0,1.437,1.435l.718-.718a1.015,1.015,0,0,0-.752-1.73.973.973,0,0,0-.685.295Zm-29.4,3.418V13.7a1.014,1.014,0,0,0,.3.718l3.036,3.036a1.013,1.013,0,0,0,1.437-1.429l-2.745-2.745V6.612a1.014,1.014,0,0,0-2.029,0ZM51.2,10.172l6.65,3.321-6.65,2.66Zm-45.6,4.54a3.042,3.042,0,0,1,3.044,3.046V50.188a2.028,2.028,0,0,1-2.027,2.027H5.094a4.555,4.555,0,0,0-2.535.758V17.759a3.036,3.036,0,0,1,3.036-3.046Zm5.073,7.1h4.814a13.178,13.178,0,0,0,20.769,0H49.17v4.056H48.161a2.021,2.021,0,0,0-2.029,2.027v3.036a1.016,1.016,0,1,0,0,2.029H48.1L40.1,38.84A3.033,3.033,0,0,0,36,38.795l-7.175-5.176a2.973,2.973,0,0,0,.077-.659,3.041,3.041,0,1,0-6.082,0,2.946,2.946,0,0,0,.109.752l-9.849,7.565a1.014,1.014,0,1,0,1.243,1.6l9.73-7.478a3.048,3.048,0,0,0,3.693-.055l7.274,5.243a3.319,3.319,0,0,0-.034.481,3.041,3.041,0,0,0,6.082,0,2.844,2.844,0,0,0-.031-.406l10.488-7.7h2.714a1.014,1.014,0,0,0,0-2.029V27.895a2.03,2.03,0,0,0-2.027-2.027H51.2V21.812H57.28a2.015,2.015,0,0,1,2.027,2.027v33.44a2.02,2.02,0,0,1-2.027,2.027H5.094a2.532,2.532,0,1,1,0-5.065H6.612a4.054,4.054,0,0,0,4.056-4.054ZM36,27.887a1.019,1.019,0,0,0-.718,1.736l.806.8-.806.806a1.013,1.013,0,0,0,1.437,1.429l.8-.8.806.8a1.01,1.01,0,1,0,1.429-1.429l-.8-.806.8-.8a1.013,1.013,0,0,0-.724-1.736,1.024,1.024,0,0,0-.7.3l-.806.806-.8-.806a.988.988,0,0,0-.718-.3Zm12.165.008h4.054v3.036H48.161ZM25.868,31.941a1.018,1.018,0,0,1,1.009,1.019,1.006,1.006,0,0,1-1.009,1.009,1.014,1.014,0,1,1,0-2.029ZM51.2,38.023a1.012,1.012,0,0,0-.726,1.728l.806.806-.806.8A1.016,1.016,0,1,0,51.916,42.8l.8-.806.806.806a1.013,1.013,0,0,0,1.429-1.437l-.8-.8.8-.806a1.013,1.013,0,0,0-.748-1.728.986.986,0,0,0-.689.3l-.806.8-.8-.8A.97.97,0,0,0,51.2,38.023ZM38.023,40.05a1.014,1.014,0,1,1-1.009,1.019A1.017,1.017,0,0,1,38.023,40.05ZM18.761,44.1a1.013,1.013,0,0,0-.554.172L15.17,46.3a1.015,1.015,0,1,0,1.122,1.692l2.476-1.655,2.484,1.655a1.013,1.013,0,0,0,1.12,0l2.476-1.655,2.478,1.655a1.014,1.014,0,0,0,1.128,0l2.476-1.655,2.476,1.655A1.015,1.015,0,1,0,34.53,46.3L31.493,44.27a1.013,1.013,0,0,0-1.122,0l-2.476,1.653L25.411,44.27a1.014,1.014,0,0,0-1.122,0l-2.476,1.653L19.329,44.27a1.013,1.013,0,0,0-.568-.172Zm25.345,4.061a1.013,1.013,0,1,0,0,2.027h1.013a1.013,1.013,0,1,0,0-2.027Zm5.067,0a1.013,1.013,0,1,0,0,2.027h1.013a1.013,1.013,0,1,0,0-2.027Zm5.067,0a1.013,1.013,0,1,0,0,2.027h1.013a1.013,1.013,0,1,0,0-2.027ZM18.761,49.17a1.013,1.013,0,0,0-.554.172L15.17,51.361a1.015,1.015,0,1,0,1.122,1.69L18.768,51.4l2.484,1.653a1.013,1.013,0,0,0,1.12,0L24.849,51.4l2.478,1.653a1.013,1.013,0,0,0,1.128,0L30.931,51.4l2.476,1.653a1.015,1.015,0,1,0,1.122-1.69l-3.036-2.019a1.013,1.013,0,0,0-1.122,0l-2.476,1.645-2.484-1.645a1.014,1.014,0,0,0-1.122,0l-2.476,1.645-2.484-1.645a1.013,1.013,0,0,0-.568-.172Z" transform="translate(0 0)"/>
      </g>
    </g>
  </g>
</svg>
