<svg xmlns="http://www.w3.org/2000/svg" xmlns:xlink="http://www.w3.org/1999/xlink" width="299.17" height="228.409" viewBox="0 0 299.17 228.409">
  <defs>
    <clipPath id="clip-path">
      <rect id="Rectángulo_462007" data-name="Rectángulo 462007" width="188.152" height="188.609" fill="none"/>
    </clipPath>
  </defs>
  <g id="Grupo_1205218" data-name="Grupo 1205218" transform="translate(-1020.904 -1535.98)">
    <g id="Grupo_1102744" data-name="Grupo 1102744" transform="translate(790.49 -3084.02)">
      <g id="Grupo_1099952" data-name="Grupo 1099952" transform="translate(12928.802 17229.016)">
        <path id="Trazado_145968" data-name="Trazado 145968" d="M49.9,0a49.895,49.895,0,1,0,49.9,49.895A49.895,49.895,0,0,0,49.9,0Z" transform="translate(-12690.719 -12487.975)" fill="#a6cdec"/>
        <path id="Trazado_145969" data-name="Trazado 145969" d="M34.094,0A34.094,34.094,0,1,0,68.187,34.094,34.094,34.094,0,0,0,34.094,0Z" transform="translate(-12495.28 -12595.998)" fill="#a6cdec"/>
        <rect id="Rectángulo_34812" data-name="Rectángulo 34812" width="299.17" height="224.377" transform="translate(-12698.387 -12608.653)" fill="none"/>
        <path id="Trazado_145967" data-name="Trazado 145967" d="M112.552,0A112.552,112.552,0,1,0,225.1,112.552,112.552,112.552,0,0,0,112.552,0Z" transform="translate(-12661.354 -12609.016)" fill="#88a160"/>
        <path id="Trazado_145971" data-name="Trazado 145971" d="M9.374,0a9.374,9.374,0,1,0,9.374,9.374A9.374,9.374,0,0,0,9.374,0Z" transform="translate(-12454.998 -12421.599)" fill="#0a4666"/>
        <path id="Elipse_4044" data-name="Elipse 4044" d="M12.712,3.436a9.277,9.277,0,1,1-9.277,9.277,9.287,9.287,0,0,1,9.277-9.277m0-3.436A12.712,12.712,0,1,0,25.425,12.712,12.712,12.712,0,0,0,12.712,0Z" transform="translate(-12480.423 -12528.729)" fill="#fff"/>
      </g>
      <g id="Grupo_1204638" data-name="Grupo 1204638" transform="translate(282.216 4659.796)">
        <rect id="Rectángulo_461991" data-name="Rectángulo 461991" width="20.463" height="20.463" transform="translate(77.974 71.87)" fill="#fff"/>
        <g id="Grupo_1204637" data-name="Grupo 1204637" transform="translate(0 0.004)">
          <g id="Grupo_1204636" data-name="Grupo 1204636" transform="translate(0 0)" clip-path="url(#clip-path)">
            <path id="Trazado_1262614" data-name="Trazado 1262614" d="M758.337,733.346H737.873a.1.1,0,0,1-.1-.1V712.779a.1.1,0,0,1,.1-.1h20.464a.1.1,0,0,1,.1.1v20.463a.1.1,0,0,1-.1.1m-20.36-.206h20.257V712.882H737.976Z" transform="translate(-661.659 -639.154)" fill="#fff"/>
            <path id="Trazado_1262615" data-name="Trazado 1262615" d="M786.051,729.466l-7.577-8.126L780.994,719l4.658,4.983,6.96-10.107,2.832,1.95Z" transform="translate(-698.164 -640.231)" fill="#efbc73"/>
            <rect id="Rectángulo_461992" data-name="Rectángulo 461992" width="53.411" height="37.936" transform="translate(37.064 14.199)" fill="#fff"/>
            <path id="Trazado_1262616" data-name="Trazado 1262616" d="M412.322,178.336h-53.1a.1.1,0,0,1-.1-.1V139.271a.1.1,0,0,1,.1-.1h53.1a.1.1,0,0,1,.1.1v38.962a.1.1,0,0,1-.1.1m-53-.206h52.895V139.374H359.324Z" transform="translate(-322.07 -124.811)" fill="#e6d0be"/>
            <rect id="Rectángulo_461993" data-name="Rectángulo 461993" width="53.411" height="3.367" transform="translate(37.064 14.199)" fill="#445130"/>
            <path id="Trazado_1262617" data-name="Trazado 1262617" d="M375.086,147.527a.766.766,0,1,1-.766-.766.766.766,0,0,1,.766.766" transform="translate(-335.018 -131.621)" fill="#fff"/>
            <path id="Trazado_1262618" data-name="Trazado 1262618" d="M399.067,147.527a.766.766,0,1,1-.766-.766.766.766,0,0,1,.766.766" transform="translate(-356.525 -131.621)" fill="#fff"/>
            <path id="Trazado_1262619" data-name="Trazado 1262619" d="M423.049,147.527a.766.766,0,1,1-.766-.766.766.766,0,0,1,.766.766" transform="translate(-378.033 -131.621)" fill="#fff"/>
            <path id="Trazado_1262620" data-name="Trazado 1262620" d="M445.105,215.623H398.788V185.192a.1.1,0,0,1,.206,0v30.225h46.111a.1.1,0,0,1,0,.206" transform="translate(-357.648 -165.995)" fill="#e6d0be"/>
            <rect id="Rectángulo_461994" data-name="Rectángulo 461994" width="5.925" height="5.791" transform="translate(46.277 38.956)" fill="#445130"/>
            <rect id="Rectángulo_461995" data-name="Rectángulo 461995" width="5.925" height="10.385" transform="translate(56.055 34.361)" fill="#445130"/>
            <rect id="Rectángulo_461996" data-name="Rectángulo 461996" width="5.925" height="16.312" transform="translate(65.834 28.434)" fill="#445130"/>
            <rect id="Rectángulo_461997" data-name="Rectángulo 461997" width="5.925" height="21.498" transform="translate(75.612 23.249)" fill="#445130"/>
            <path id="Trazado_1262621" data-name="Trazado 1262621" d="M448.321,17.141,443.716,1.8l-13.37,8.817,3.668,1.331a29.614,29.614,0,0,1-6.731,11.906,30.822,30.822,0,0,1-20.391,9.407c1.761.574,14.064,4.354,25.78-2.993A30.546,30.546,0,0,0,444.634,15.8Z" transform="translate(-364.916 -1.617)" fill="#e5efd6"/>
            <path id="Trazado_1262622" data-name="Trazado 1262622" d="M1021.322,94.4a42.091,42.091,0,1,1-42.091-42.091A42.091,42.091,0,0,1,1021.322,94.4" transform="translate(-840.461 -46.911)" fill="#fff"/>
            <path id="Trazado_1262623" data-name="Trazado 1262623" d="M980.527,137.913a42.062,42.062,0,1,1,16.424-3.316,41.933,41.933,0,0,1-16.424,3.316m0-84.183a41.988,41.988,0,1,0,41.988,41.988A42.036,42.036,0,0,0,980.527,53.73" transform="translate(-841.531 -48.003)" fill="#d3bba3"/>
            <path id="Trazado_1262624" data-name="Trazado 1262624" d="M1072.581,156.4a31.353,31.353,0,1,0,31.353,31.353,31.353,31.353,0,0,0-31.353-31.353m0,50.165a18.812,18.812,0,1,1,18.812-18.812,18.812,18.812,0,0,1-18.812,18.812" transform="translate(-933.811 -140.262)" fill="#e4f0f9"/>
            <path id="Trazado_1262625" data-name="Trazado 1262625" d="M1280.31,387.049a8.427,8.427,0,1,1-8.427-8.427,8.428,8.428,0,0,1,8.427,8.427" transform="translate(-1133.112 -339.562)" fill="#a6cdec"/>
            <rect id="Rectángulo_461998" data-name="Rectángulo 461998" width="28.126" height="3.326" transform="matrix(0.72, -0.694, 0.694, 0.72, 151.942, 32.127)" fill="#8b865c"/>
            <path id="Trazado_1262626" data-name="Trazado 1262626" d="M1355.719,336.673l-13.246,11.344,11.817-12.826Z" transform="translate(-1203.978 -300.612)" fill="#363e44"/>
            <path id="Trazado_1262627" data-name="Trazado 1262627" d="M1685.342,5.639l-7.626,7.354-1.327-5.636L1684.015,0Z" transform="translate(-1503.447 -0.004)" fill="#efbc73"/>
            <path id="Trazado_1262628" data-name="Trazado 1262628" d="M1703.4,61.393l-7.625,7.354,5.583,1.531,7.625-7.354Z" transform="translate(-1520.835 -55.06)" fill="#d87355"/>
            <rect id="Rectángulo_461999" data-name="Rectángulo 461999" width="1.438" height="4.738" transform="translate(149.382 33.615) rotate(-43.959)" fill="#fff"/>
            <rect id="Rectángulo_462000" data-name="Rectángulo 462000" width="1.438" height="4.738" transform="translate(150.417 32.617) rotate(-43.96)" fill="#fff"/>
            <rect id="Rectángulo_462001" data-name="Rectángulo 462001" width="9.557" height="71.807" transform="translate(166.982 114.007)" fill="#a6cdec"/>
            <rect id="Rectángulo_462002" data-name="Rectángulo 462002" width="9.557" height="57.611" transform="translate(151.582 128.203)" fill="#a6cdec"/>
            <rect id="Rectángulo_462003" data-name="Rectángulo 462003" width="9.557" height="44.921" transform="translate(136.181 140.894)" fill="#a6cdec"/>
            <rect id="Rectángulo_462004" data-name="Rectángulo 462004" width="9.557" height="34.788" transform="translate(120.781 151.027)" fill="#a6cdec"/>
            <rect id="Rectángulo_462005" data-name="Rectángulo 462005" width="9.557" height="25.968" transform="translate(105.338 159.847)" fill="#a6cdec"/>
            <rect id="Rectángulo_462006" data-name="Rectángulo 462006" width="9.557" height="15.944" transform="translate(89.938 169.87)" fill="#a6cdec"/>
            <path id="Trazado_1262629" data-name="Trazado 1262629" d="M877.711,891.032a.1.1,0,0,1-.075-.174L925.1,841.27a.1.1,0,0,1,.157.009l5.4,7.04,36.27-38.337a.1.1,0,0,1,.15.142l-36.353,38.424a.1.1,0,0,1-.08.032.1.1,0,0,1-.077-.04l-5.4-7.041L877.786,891a.1.1,0,0,1-.075.032" transform="translate(-787.071 -726.392)" fill="#84524d"/>
            <path id="Trazado_1262630" data-name="Trazado 1262630" d="M1648.148,818.916a.1.1,0,0,1-.029,0,.1.1,0,0,1-.07-.128l3.208-10.8-10.645,1.661a.1.1,0,0,1-.032-.2l10.806-1.686a.1.1,0,0,1,.094.034.1.1,0,0,1,.021.1l-3.254,10.954a.1.1,0,0,1-.1.074" transform="translate(-1471.254 -724.425)" fill="#84524d"/>
            <path id="Trazado_1262631" data-name="Trazado 1262631" d="M9.883,1112.834l.978.371,17.648-24.371L10.3,1072.587,1.38,1092.18a15.307,15.307,0,0,0,8.5,20.655" transform="translate(0 -961.935)" fill="#84524d"/>
            <path id="Trazado_1262632" data-name="Trazado 1262632" d="M805.845,810.11s9.433,8.677,14.624,3.06c5.391-5.832,11.685-12.551,14.949-15.711,6.73-6.514,17.615-15.152,18.8-13.614.677.876-.564,2.361-4.144,6.11a2.472,2.472,0,0,1,1.994,1.159,2.032,2.032,0,0,1-.245,2.364,2.827,2.827,0,0,1,2.206.739,2.352,2.352,0,0,1,.13,2.727,2.9,2.9,0,0,1,2.23.922,2.45,2.45,0,0,1-.632,3.126c-1.443,1.356-5.477,4.962-7.367,7.141-2.351,2.711-11.568,13.979-18.031,21.9a16.921,16.921,0,0,1-16.784,5.822l-7.453-1.656Z" transform="translate(-722.711 -702.82)" fill="#84524d"/>
            <path id="Trazado_1262633" data-name="Trazado 1262633" d="M1138.153,890.925a.1.1,0,0,1-.092-.149,9.826,9.826,0,0,0,.9-4.8c-.006-1.325-.012-2.372,1.025-2.775a4.82,4.82,0,0,0,2.13-2.036.73.73,0,0,0-.037-.849.74.74,0,0,0-.819-.267l-5.828,1.761a.1.1,0,1,1-.06-.2l5.828-1.761a.953.953,0,0,1,1.043.34.931.931,0,0,1,.047,1.084,5.013,5.013,0,0,1-2.23,2.118c-.9.351-.9,1.238-.893,2.581a10,10,0,0,1-.92,4.892.1.1,0,0,1-.092.057" transform="translate(-1018.175 -789.047)" fill="#363e44"/>
            <path id="Trazado_1262634" data-name="Trazado 1262634" d="M1212.844,862.273a.1.1,0,0,1-.075-.032,3.156,3.156,0,0,1-.029-4.291l.167-.181-1.159.819a2.05,2.05,0,0,1-2.611-3.144l1.009-.98a1.659,1.659,0,0,1-2.011-2.6l1.559-1.594a.1.1,0,0,1,.147.144l-1.559,1.594a1.453,1.453,0,0,0,1.934,2.159l1.21-.948a.1.1,0,0,1,.135.155l-2.282,2.216a1.844,1.844,0,0,0,2.349,2.828l1.951-1.379a.1.1,0,0,1,.135.154l-.823.895a2.949,2.949,0,0,0,.027,4.009.1.1,0,0,1-.075.174" transform="translate(-1083.074 -762.527)" fill="#363e44"/>
            <path id="Trazado_1262635" data-name="Trazado 1262635" d="M30.888,950.67,12.96,943.107s8.285-35.083,43.1-30.392c10.9,1.468,16.9,2.265,31.976,7.142,19.049,6.163,19.889,6.723,19.889,6.723l-9.8,26.052-6.443-1.681,6.386,55.546c.871-.525-47.149.523-74.379.228,0,0,4.964-47.089,7.2-56.053" transform="translate(-11.623 -818.169)" fill="#f2c579"/>
            <path id="Trazado_1262636" data-name="Trazado 1262636" d="M492.744,1148.5a.107.107,0,0,1-.035-.006.1.1,0,0,1-.063-.132l11.863-33.306a.1.1,0,0,1,.1-.069l26.007.227a.1.1,0,0,1,0,.207h0l-25.933-.227-11.838,33.238a.1.1,0,0,1-.1.069" transform="translate(-441.818 -999.962)" fill="#fff"/>
            <path id="Trazado_1262637" data-name="Trazado 1262637" d="M538.593,1171.338H512.586l11.863-33.307h26.006Z" transform="translate(-459.706 -1020.629)" fill="#445130"/>
            <path id="Trazado_1262638" data-name="Trazado 1262638" d="M98.037,1284.411c8.9.6,29.92.959,31.971,1.076,3.834.219,24.376,1.93,24.451,4.92.036,1.429-3.937,1.279-5.278,1.189,1.048.607,5.323,2.5,4.946,4.059-.443,1.83-5.883.352-5.982.383,1.126.508,5.695,2.351,5.458,3.53-.309,1.534-5.073,1.094-6.493.9.122.215,4.713,1.332,4.423,3.177-.213,1.354-4.583.943-6.48.771-3.406-.192-43.141-.283-50.523-1.243-2.89-.376-.4-15.972,3.51-18.758" transform="translate(-83.65 -1151.907)" fill="#84524d"/>
            <path id="Trazado_1262639" data-name="Trazado 1262639" d="M106.905,1280.432h0c-4.034-.179-7.942-.354-9.215-.425a.1.1,0,0,1,.011-.206c1.271.071,5.179.246,9.213.425a.1.1,0,0,1,0,.206" transform="translate(-87.521 -1147.772)" fill="#363e44"/>
            <path id="Trazado_1262640" data-name="Trazado 1262640" d="M577.813,1339.537a.1.1,0,0,1-.041-.008,17.426,17.426,0,0,0-6.522-1.416.1.1,0,0,1,0-.206h0a17.64,17.64,0,0,1,6.6,1.433.1.1,0,0,1-.041.2" transform="translate(-512.228 -1199.884)" fill="#363e44"/>
            <path id="Trazado_1262641" data-name="Trazado 1262641" d="M583.533,1388.731a.105.105,0,0,1-.03,0c-.162-.05-.327-.1-.491-.143a17.537,17.537,0,0,0-4.257-.621.1.1,0,0,1,0-.206h0a17.744,17.744,0,0,1,4.307.628c.166.046.333.094.5.145a.1.1,0,0,1-.03.2" transform="translate(-518.957 -1244.59)" fill="#363e44"/>
            <path id="Trazado_1262642" data-name="Trazado 1262642" d="M588.8,1436.256l-.019,0a17.678,17.678,0,0,0-2.807-.288.1.1,0,0,1,0-.206h0a17.835,17.835,0,0,1,2.84.292.1.1,0,0,1-.019.2" transform="translate(-525.436 -1287.642)" fill="#363e44"/>
            <path id="Trazado_1262643" data-name="Trazado 1262643" d="M187,1161.968a.1.1,0,0,1-.089-.156l8.313-14.052a.1.1,0,1,1,.177.1l-8.312,14.052a.1.1,0,0,1-.089.051" transform="translate(-167.619 -1029.308)" fill="#363e44"/>
            <path id="Trazado_1262644" data-name="Trazado 1262644" d="M465.855,674.518c-2.19,2.945-12.01.067-12.01.067l-7.722-8.128a9.348,9.348,0,1,1,17.782-5.772s4.181,10.833,1.95,13.833" transform="translate(-399.688 -586.73)" fill="#84524d"/>
            <path id="Trazado_1262645" data-name="Trazado 1262645" d="M428.793,751.153h0a6.474,6.474,0,0,0,8.428-3.579l7.751-19.191a1.961,1.961,0,0,0-1.084-2.553l-8.369-3.38a1.961,1.961,0,0,0-2.553,1.084l-7.751,19.191a6.474,6.474,0,0,0,3.579,8.428" transform="translate(-380.924 -647.791)" fill="#84524d"/>
            <path id="Trazado_1262646" data-name="Trazado 1262646" d="M619.934,742.757s3.342,1.8,3.433,2.536c.109.875-2.506,2.279-2.506,2.279s-.859-4.83-.927-4.815" transform="translate(-555.979 -666.132)" fill="#84524d"/>
            <path id="Trazado_1262647" data-name="Trazado 1262647" d="M532.743,739.045a7.361,7.361,0,0,1,2.742-1.693c.346-.112.593,2.871.213,2.821a7.377,7.377,0,0,1-2.955-1.128" transform="translate(-477.783 -661.282)" fill="#fff"/>
            <path id="Trazado_1262648" data-name="Trazado 1262648" d="M558.392,738a6.921,6.921,0,0,0,3.845-1.926,6.921,6.921,0,0,0-4.143-1.153,5.189,5.189,0,0,0-1.1.235,2.893,2.893,0,0,0,.208,2.819,5.221,5.221,0,0,0,1.189.026" transform="translate(-499.289 -659.083)" fill="#363e44"/>
            <path id="Trazado_1262649" data-name="Trazado 1262649" d="M506.9,745.614a7.5,7.5,0,0,0,3.052-4.7,8.162,8.162,0,0,0-1.235-6.052,11.976,11.976,0,0,1-5.7,1.666c-1.238.035-4.79.135-7.388-2.5a8.6,8.6,0,0,1-2.245-4.291l.206,2.431a13.972,13.972,0,0,1,.83,7.543,12.8,12.8,0,0,1-.481,1.859c4.165,4.741,9.782,6.071,12.961,4.036" transform="translate(-442.486 -654.462)" fill="#363e44"/>
            <path id="Trazado_1262650" data-name="Trazado 1262650" d="M596.458,808.509a1.4,1.4,0,0,1-.363-.048,1.426,1.426,0,0,1-1.021-1.095.1.1,0,1,1,.2-.04,1.206,1.206,0,0,0,2.121.53.1.1,0,0,1,.16.131,1.423,1.423,0,0,1-1.1.522" transform="translate(-533.683 -723.966)" fill="#84524d"/>
            <path id="Trazado_1262651" data-name="Trazado 1262651" d="M400.014,588.26c1.14-4.744,2.9-6.272,4.33-6.775,1.848-.652,3.187.4,5.951.119a11.662,11.662,0,0,0,6.163-2.729c2.606,2.489,4.095,5.825,3.258,8.453-1.232,3.868-7.671,6.738-14.507,3.714q.247,2.914.493,5.828c-.356-1.7-1.452-2.267-2.348-2.151-1.05.136-1.674,1.507-1.658,2.543.055,3.654,2.586,4.442,2.808,4.593-1.087,1.8-1.281,2.147-2.079,3.479-3.934-1.72-7.459-6.476-7-10.43a9.525,9.525,0,0,1,1.784-4.439,8.164,8.164,0,0,1,2.8-2.206" transform="translate(-354.596 -519.156)" fill="#363e44"/>
            <path id="Trazado_1262652" data-name="Trazado 1262652" d="M468.387,751.416h-.017a.1.1,0,0,1-.085-.118,1.581,1.581,0,0,0-.644-1.625,1.449,1.449,0,0,0-.968-.183.1.1,0,1,1-.03-.2,1.657,1.657,0,0,1,1.107.212,1.786,1.786,0,0,1,.739,1.833.1.1,0,0,1-.1.087" transform="translate(-418.423 -671.969)" fill="#363e44"/>
          </g>
        </g>
      </g>
    </g>
  </g>
</svg>
