<svg xmlns="http://www.w3.org/2000/svg" xmlns:xlink="http://www.w3.org/1999/xlink" width="295" height="377" viewBox="0 0 295 377">
  <defs>
    <clipPath id="clip-path">
      <rect id="Rectángulo_461805" data-name="Rectángulo 461805" width="295" height="377" transform="translate(1124.667 787.678)" fill="#fff" stroke="#707070" stroke-width="1"/>
    </clipPath>
    <clipPath id="clip-path-2">
      <rect id="Rectángulo_461804" data-name="Rectángulo 461804" width="377" height="376.464" fill="none"/>
    </clipPath>
  </defs>
  <g id="Grupo_1205217" data-name="Grupo 1205217" transform="translate(-1124.667 -787.678)">
    <g id="Enmascarar_grupo_1119194" data-name="Enmascarar grupo 1119194" clip-path="url(#clip-path)">
      <g id="Grupo_1204395" data-name="Grupo 1204395" transform="translate(1110 788.081)">
        <g id="Grupo_1204394" data-name="Grupo 1204394" transform="translate(0)" clip-path="url(#clip-path-2)">
          <path id="Trazado_1261963" data-name="Trazado 1261963" d="M124.848,323.394a36.336,36.336,0,0,0-10.161.122c-3.723,7.632-11.155,14.8-19.083,17.816-8.571,3.264-11.025.217-11.554-8.31l-.992-.292c1.118-1.256-.614-2.383-1.334-.889-1.783,0-8.369,3.121-10.385,4.064a156.633,156.633,0,0,0-14.956,8.384c-6.853,6.486-10.812,15.775-13.552,24.749-.933,3.054-3.837,13.138-3.292,15.5a6.014,6.014,0,0,0,.394,1.1,246.623,246.623,0,0,0-1.766,33.231l.432.556.595,1.318a201.315,201.315,0,0,1,25.012,20.818l1.513.093a3.436,3.436,0,0,0,2.379-.034,10.87,10.87,0,0,0,1.622,3.146l-.854,1.293c.012,8.166-4.07,15.6-9.259,21.672l-.113,1.487-.608-.08q-2.335,2.415-4.679,4.834,2.679,2.176,5.2,4.546c6.361,10.2,13.917,20.363,23.645,27.6A125.265,125.265,0,0,0,98.066,518.8c6.957,5.222,16.444,12.309,24.264,15.793a1.856,1.856,0,0,0,1.183-.026,1.444,1.444,0,0,0,.482.928c6.693,4.153,15.815,7.825,23.259,10.567,19.829,7.3,45.456,13.456,64.73,2.732.952,1.1,1.384.185,1.778-.889,35.954-25.929,30.147-83.168,19.88-121.02-15.061-55.529-45.741-101.655-108.794-103.49" transform="translate(122.781 -215.03)" fill="#84a4bc"/>
          <path id="Trazado_1261964" data-name="Trazado 1261964" d="M852.52,903.334c18.288.388,38.012.389,56.461,0,.388-.126.383-.275,0-.444-2.493-10.484-3.519-23.169-4.035-34.408-1.088-23.74.779-48.7,16.31-67.664l.172-1.069-.439-.992a128.162,128.162,0,0,0-19.236-5.06l-1.219.717c-55.479-7.439-57.048,44.59-51.959,85.079,1.005,8,2.779,15.878,3.944,23.842" transform="translate(-827.624 -528.225)" fill="#0a4666"/>
          <path id="Trazado_1261965" data-name="Trazado 1261965" d="M691.446,499.469c-.565.884-1.278,1.475-.7,2.673l19.814,41.34.938.345a62.489,62.489,0,0,1,8.844-6v-1.012c8.289-6.717,22.323-6.419,8.877,5.171-.216.718.022,1.041.743.943l7.969-3.387c11.634-3.749,9.441,5.5,1.842,9.1l.273.739c11.679-2.51,9.508,4.526,1.986,8.858l.209.655c5.165,3.081-2.087,8.631-4.915,10.7a24.769,24.769,0,0,0-5.869,4.571c-1.4.221-.652,2.225.137,2.953,1.56,1.439,9.557,1.62,11.422.159,1.447.3,2.9.584,4.356.8a43.343,43.343,0,0,0,4.367.5c14.009.655,28.979,1.324,42.113,1.707q2.1-.163,2.069-1.677l.658-.673-39.631-79.7-1.039-.093-.852-.652q-28.083.818-57.789.972a29.216,29.216,0,0,0-5.822,1.014" transform="translate(-650.545 -331.088)" fill="#a9a9af"/>
          <path id="Trazado_1261966" data-name="Trazado 1261966" d="M505,87.024c3.261-10.374,6.146-21.008,7.494-31.85,1.745-14.025,3.289-37.174-15.941-38.4a11.889,11.889,0,0,0,1.776-7.107c-1.276-.213-.735.277-.947,1.028-.43,1.528-.27,3.868-1.714,4.749C491.419-.86,477.238-2.619,463.09,2.659c-1.869.7-9.078,4.705-9.868,4.729-1.878.056-7.038-1.889-9.854-2.109-10.459-.815-24.375,3.473-22.286,16.507.168,1.051,1.962,4.329,1.654,4.756-9.654,3.8-10.216,15.573-3.995,22.926,5.1,6.03,13.479,7.638,20.906,5.547a1.057,1.057,0,0,1,.982.616c1.819.516,12.292-7.45,14.263-9.028,8.382,3.98,17.083-1.218,23.491-6.669.733,6.672,3.745,10.8,8.84,14.93a77.111,77.111,0,0,0,2.559,10.3c.958,1.533,5.594,1.461,4.547-.593,1.477-.427,1.362-5.979,0-6.669l.9-.062c3.125-5.627,10.865-3.894,12.84,1.8,2.512,7.245-.635,13.448-7.247,16.927-.945,1.15,2.157,9.235,3.1,10.711Z" transform="translate(-275.152 0)" fill="#421819"/>
          <path id="Trazado_1261967" data-name="Trazado 1261967" d="M386.791,129.982c1.1.314.767,1.215.9,1.991.389,2.268,1,4.736,1.323,6.9l1.025.3c1.971-1.484,8.63-2.658,6.649,1.3q-4.435-.255-6.785,2.4c3.332,13.7,7.944,42.22,26.9,42.271,2.556.007,5.708-1.393,8.223-.926,7.081-1.587,13.28-6.531,17.723-12.1A58.1,58.1,0,0,1,427.965,191.6l.171,1.069c.758,2.614.3,6.587,2.423,8.914,4.14,4.536,13.245-.407,17.279-3.217,5.309-3.7,10.354-8.9,12.823-14.96,3.073-.075,6.192-.162,9.265-.073-2.98-1.073-6.588-.064-9.708-.519-2.451-6.41-5.429-12.637-7.856-19.059a12,12,0,0,1-.219-1.761,2.479,2.479,0,0,1-.914-1.067c-.492-1.382-2.854-8.034-2.68-8.875a13.83,13.83,0,0,0,7.616-17.422c-1.624-4.719-6.08-7.243-11.017-5.638-1.187.386-3.676,2.78-3.676,3.882v6.668c0,.764-2.541.842-3.263.593-1.731-.6-2-8.613-3.061-10.718-.845-1.677-3.9-3.195-5.234-4.992a17.964,17.964,0,0,1-3.117-11.78c-5.751,5.019-12.862,10.473-21.074,9.3-1.225-.175-3.134-1.446-3.944-1.234-.781.2-6.44,5.069-8.185,6.076a39.635,39.635,0,0,1-6.8,3.2" transform="translate(-222.298 -74.967)" fill="#f6ab92"/>
          <path id="Trazado_1261968" data-name="Trazado 1261968" d="M710.605,619.872l-.662.667,17.027,34.467c.483,1.4-.83,2.269-1.931,2.875l-.208,1.114c-3.6,1.81-5.556.523-9.1.426-14.643-.4-29.19-1.053-43.809-1.76l-1.727.718a19.829,19.829,0,0,1-13.444,6.663l-.834.621a17.64,17.64,0,0,1-5.732-1.338l-.936.449a32.5,32.5,0,0,0,3.112,12.893c4.2.564,9.728,2.113,13.969,3.147,2.02.492,5.23,1.954,6.926,2.188.039,1.143.467,1.065.889,0l.8.663c16.028-12.714,37.725-9.009,56.247-3.77l1.638-.45c.388-.126.383-.275,0-.445l.076-1.434a264.35,264.35,0,0,0,6.148-26.13q1.191-1.617-3.556-1.779l-.572-.924c-4.1-.394-8.6-2.674-9.569-7l-.974-.519a1.763,1.763,0,0,0-1.778-.889q-.438-3.7-.552-7.4l-.782-.6c.438-1.036.178-1.288-.889-.889l-.68-1.926c-3.908-4.206-3.039-7.907,3.193-5.685l1.488-.392c1.868,1.07,6.389-.769,3.2-3.034-3.746-2.662-11.993-2.393-16.455-1.471Z" transform="translate(-579.456 -411.478)" fill="#617e94"/>
          <path id="Trazado_1261969" data-name="Trazado 1261969" d="M121.315,964.308c-.219.271-.474.755-.3.891,19.139,15.4,39.062,30.952,58.651,46.054a21.126,21.126,0,0,0,7.9,5.07c.968.808,3.22.734,4.446.444,10.73-11.264,14.922-27.077,16.449-42.235-.343.247-1.167.439-1.778.889-26.064,13.628-59.425.392-84.379-11.284Z" transform="translate(128.092 -641.659)" fill="#557d9b"/>
          <path id="Trazado_1261970" data-name="Trazado 1261970" d="M591.52,455.807a3.348,3.348,0,0,0,1.778,3.557l1.888.348a44.108,44.108,0,0,1,28.653,1.578l1.913-.147.49-1.073c.095-10.806.2-21.6,1.732-32.27,2-10.566,4.19-20.49,9.26-30.086,2.088-3.952,4.842-7.483,7.19-11.26a118.919,118.919,0,0,0-17.789,12.664c-17.086,15.258-27.312,35.445-35.115,56.69" transform="translate(-465.26 -257.194)" fill="#617e94"/>
          <path id="Trazado_1261971" data-name="Trazado 1261971" d="M848.089,606.147a61.34,61.34,0,0,0-9.781,6.669c-2.978,2.861-4.794,7.149-2.16,10.83.5.7,1.722,1.267,1.75,1.461.171,1.181-.84,3.8-.377,6.057.51,2.489,3.1,3.357,3.379,4.179.254.736.024,1.892.271,2.841.955,3.653,4.782,7.791,7.362,10.643q-.223,1.047.99,1.657,1.974,4.192,5.234,4.122a3.115,3.115,0,0,0,1.418.335,21.543,21.543,0,0,0,14.586-8.337c-2.884-.139-7.789.424-10.362-.529-1.1-.407-1.021-1.672-1.2-2.583a23.88,23.88,0,0,1,5.944-4.624c3.017-2.055,10.751-8.7,4.036-10.655,4.108-2.341,11.911-10.088,2.173-10q-7.261,1.329-3.318-.246l-.057-.586c8.412-3.638,7.824-12.412-2.486-8.441l-7.555,3.2a4.248,4.248,0,0,0-3.268,1.223c14.889-11.2,5.583-15.885-6.583-7.221" transform="translate(-778.291 -400.421)" fill="#f8a98f"/>
          <path id="Trazado_1261972" data-name="Trazado 1261972" d="M684.925,494.116c-1.167.23-1.972.443-1.778,1.778l40.012,80.468c1.739-.875,3.845-2.173,2.907-4.457L708.933,537.24a7.691,7.691,0,0,0-3.112-6.224c-.59-1.184-1.188-2.372-1.778-3.556-5.2-10.422-10.479-20.821-15.634-31.269a3.976,3.976,0,0,0-3.483-2.074" transform="translate(-577.782 -328.847)" fill="#85858a"/>
          <path id="Trazado_1261973" data-name="Trazado 1261973" d="M0,1122.11l1.09.911H375.911l1.09-.911q-188.468-.71-377,0" transform="translate(0 -746.557)" fill="#150c09"/>
          <path id="Trazado_1261974" data-name="Trazado 1261974" d="M186.722,1119.063a98.316,98.316,0,0,0-22.673,0c-.141-1.181-.551-1.13-.889,0q-40.9-1.311-81.8,0H24.9c-7.477,0-14.976-.087-22.458-.008-.752.008-1.978-.284-2.439.452H377c-.462-.737-1.686-.443-2.439-.452-18.142-.225-36.327.008-54.467.008-1.572,0-3.358-.444-4.446-.444l-8.567-.587c-34.379-.362-68.786-.13-103.174.12-2.865.021-5.73.161-8.6.313s-5.729.366-8.59.6" transform="translate(0 -743.954)" fill="#2f2043"/>
          <path id="Trazado_1261975" data-name="Trazado 1261975" d="M806.811,496.51c14.59-.388,29.213-.156,43.809-.426,1.051-.02,2.024-.457,3.075-.481,3.612-.083,15.185.691,17.579-.426a4.194,4.194,0,0,0,1.778-1.778c-12.985-1.358-27.911,1.638-41.141.426-6.906,1.422-14.931-.36-21.776.453a4.048,4.048,0,0,0-3.324,2.233" transform="translate(-765.91 -328.129)" fill="#cdcfd9"/>
          <path id="Trazado_1261976" data-name="Trazado 1261976" d="M464.346,303.955l6.008-5.773c4.485-5.467,8.779-11.421,10.883-18.232-.681-.752-3.341,3.528-3.771,4-4.272,4.723-9.662,8.951-15.911,10.679-.391.2-.3.527-.321.874-.117,2.464,2.683,5.095,1.778,7.558a1.226,1.226,0,0,1,1.334.889" transform="translate(-258.508 -186.255)" fill="#d55846"/>
          <path id="Trazado_1261977" data-name="Trazado 1261977" d="M601.834,187.155a27.973,27.973,0,0,0,.889,4c1.343.2,2.334-1.009,3.431-1.238,1.463-.305,3.943.5,4.484-1.3,1.484-4.948-6.511-3.707-8.8-1.465" transform="translate(-435.118 -123.249)" fill="#431a18"/>
          <path id="Trazado_1261978" data-name="Trazado 1261978" d="M898.938,747.563c1.939,1.354,3.34,1.314,5.589,1.346a2.137,2.137,0,0,0,1.08-.457c-2.469-.684-3.28-3.356-4.708-4.862-.5-.524-1.336-.719-1.516-.917-.115,1.105-.811,2.338-.858,3.4a4.379,4.379,0,0,0,.414,1.49" transform="translate(-829.14 -494.268)" fill="#62101a"/>
          <path id="Trazado_1261979" data-name="Trazado 1261979" d="M551.5,600.019c1.031,2.069,2.091,4.158,3.112,6.224l8.667-.887a22.76,22.76,0,0,1,9.114,2.889c-1.187.779-2.779.854-4,1.554-3.286-.379-6.066,5.476-4,8q.692-.055.889.889a12.97,12.97,0,0,0,1.334,8q.755-.51,1.778.889c.534,5.265,6.307,8.29,11.114,8.447,6.869,2.415,5.544-4.952,1.142-7.053l-4.165-1.779q5.878-1.89,8.835,6.4a21.894,21.894,0,0,0,4.857,8.208c-.677,2.216,2.414,5.229,4.167,6.647s5.356,3.818,7.393,2.689c-.021,1.424,3.271,1.954,4,.889,5.843-6.61,10.727-14.933,10.225-24.452-.611-1.459-2.391-3.773-4-3.112-7.912-6.4-18.484-17.919-27.119-22.229-.137-.836-.259-1.068-.889-.445a44.9,44.9,0,0,0-32.454-1.778" transform="translate(-423.464 -397.85)" fill="#f5ab93"/>
          <path id="Trazado_1261980" data-name="Trazado 1261980" d="M287.1,655.525a99.3,99.3,0,0,0,13.255,6.318,52.429,52.429,0,0,0,11.641,4.8c-.7-4.691-3.233-11.43-4.89-16l-8.529-26.4c-.11-.624-.646-.554-1.251-.272,1.074,7.124,3.908,21.2.459,27.356-2.066,3.691-6.8,4.488-10.684,4.209" transform="translate(-31.026 -415.123)" fill="#557d9b"/>
          <path id="Trazado_1261981" data-name="Trazado 1261981" d="M127.105,956.666a2.125,2.125,0,0,0,3.112,1.778c21.538,10.937,55.975,23.091,79.688,14.558a26.373,26.373,0,0,0,4.965-2.165,2.07,2.07,0,0,0,.705-1.278c-3.343,1-6.234,2.549-9.685,3.43-24.613,6.285-57.16-5.934-78.786-17.656q-1.666-.076,0,1.334" transform="translate(119.19 -635.795)" fill="#581016"/>
          <path id="Trazado_1261982" data-name="Trazado 1261982" d="M344.224,689.234c-11.885-4.814-25.33-9.933-37.87-12.589-5.362-1.135-13.952-2.761-19.266-2.083-.649.083-1.376.336-.657.888,25.1.768,49.679,11.182,72.319,21.264,1.472.655,9.585,4.963,10.15,4.958,1.056-.009.252-1.1.219-1.323-8.222-3.859-16.471-7.7-24.9-11.114" transform="translate(-88.148 -448.832)" fill="#561119"/>
          <path id="Trazado_1261983" data-name="Trazado 1261983" d="M229.31,461.993c-3.451-20.194,1.936-44.107,19.168-56.633,6.085-4.423,9.367-4.36,16.209-6.039.752-.184,1.3.44,1.078-.9-13.432-.036-24.408,9.451-30.75,20.594a64.075,64.075,0,0,0-7.479,37.863c.159,1.415.11,5.207,1.773,5.113" transform="translate(35.21 -265.161)" fill="#f1f7f7"/>
          <path id="Trazado_1261984" data-name="Trazado 1261984" d="M514.248,757.294c-2.09.049-3.077,5.3-2.189,6.883l5.288,4.4c5.341,9.025,11.733,17.963,20.463,24.288-.475,1.227,1.971,2.84,3.112,2.223q.75.5.889,0a141.754,141.754,0,0,1-17.7-19.421c-3.381-4.739-5.219-9.846-10.75-12.812,1.868-.55,3.139-2.182,4.457-3.56.34-.356.33-.992.432-1.106-1.237-.464-2.806-.529-4-.889" transform="translate(-335.974 -503.999)" fill="#5b1416"/>
          <path id="Trazado_1261985" data-name="Trazado 1261985" d="M390.778,870.274a7.484,7.484,0,0,0,.5,1.212,3.433,3.433,0,0,0,.687.979c10.273,8.942,25.38,21.751,37.645,27.249a5.773,5.773,0,0,0,2.512.348v-1.334c-13.417-7.273-29.194-18.161-40.456-28.453Z" transform="translate(-185.828 -579.19)" fill="#1c2365"/>
          <path id="Trazado_1261986" data-name="Trazado 1261986" d="M172.881,755.972c-.224,1.182.25.774.889,1.086a128.65,128.65,0,0,1,11.519,5.84c9.94,6.138,19.732,15.906,23.159,27.3a1.3,1.3,0,0,0,1.32-.664c.021-.4-2.962-6.294-3.47-7.192-4.873-8.63-12.844-15.859-21.279-20.956-3.645-2.2-7.987-4.615-12.138-5.418" transform="translate(109.427 -503.119)" fill="#551518"/>
          <path id="Trazado_1261987" data-name="Trazado 1261987" d="M303.505,606.029a3.046,3.046,0,0,1,1.014,1.874c2.657,8.587,5.791,16.592,8.766,24.8l-10.439-35.575c-.35-.71-1.079-.061-1.119.237-.108.794,1.53,7.02,1.777,8.663" transform="translate(-37.205 -397.192)" fill="#5a1215"/>
          <path id="Trazado_1261988" data-name="Trazado 1261988" d="M539.392,684.187v7.335c0,1.479-1.605,7.251-2.2,8.91-2.557,7.085-7.455,12.977-12.466,18.427,2.585-.541,5.034-3.933,6.65-6.016a43.878,43.878,0,0,0,9.349-24.436c.057-1.382.578-4.281-1.328-4.221" transform="translate(-339.333 -455.343)" fill="#541316"/>
          <path id="Trazado_1261989" data-name="Trazado 1261989" d="M640.759,543.41c.284.128.6.3.889.445l1.334-33.788a110.058,110.058,0,0,0-2.219,14.9c-.31,6.118.22,12.324,0,18.445" transform="translate(-480.267 -339.463)" fill="#611413"/>
          <path id="Trazado_1261990" data-name="Trazado 1261990" d="M551.608,675.55a23.883,23.883,0,0,0,4,3.112c-.147-2.786-.707-5.694-4-3.112" transform="translate(-363.108 -448.929)" fill="#6c1516"/>
          <path id="Trazado_1261991" data-name="Trazado 1261991" d="M201.059,794.217c-18.591,21.1-18.886,51.382-16.711,78.242.671,8.287,1.437,16.93,3.374,24.9v.444h81.8c1.324-8.157.676-17.846-2.654-25.571,2.238,1.141,1.787-1.831.979-3.6a5.711,5.711,0,0,1,1.675,2.5c.262,7.755,3.6,12.468,9.336,17.539,3.99,3.53,9.243,7.493,14.227,9.135,42.942,0,86.123-.446,128.927-.444l-66.242-52.016c-1.069-.543-2.053-1.214-3.112-1.778-16.56-8.819-27.379-17.8-41.345-29.787a31.8,31.8,0,0,0-3.112-2.223c-9.349-7.42-21.449-12.14-32.626-16.4-4.655-1.776-9.35-3.439-14.1-4.9a3.085,3.085,0,0,0-1.732.408c-15.868-4.675-37.121-8.82-52.314-.521-1.525.833-5.271,3.912-6.37,4.078" transform="translate(-106.365 -522.694)" fill="#3a4852"/>
          <path id="Trazado_1261992" data-name="Trazado 1261992" d="M861.249,811.79c-6.876,7.4-11.245,16.749-13.75,26.485-5.583,21.7-3.794,49.823-.413,71.925.168,1.1.262,4.79,1.715,4.732-3.68-34.674-10.109-71.552,12.46-101.13.5-.659,1.07-.973.877-2.012a3.741,3.741,0,0,1-.889,0" transform="translate(-767.444 -540.267)" fill="#010101"/>
          <path id="Trazado_1261993" data-name="Trazado 1261993" d="M835.382,604.736c1.923-1.024,7.67-3.7,9.6-3.96,2.092-.28,4.439-.32,4.185,2.358-.384,4.047-11.83,10.6-15.079,13.418-.326.283-1.373,1.071-.922,1.519.552.547,11.677-7.435,13.62-7.493,2.865-.99,10.5-5.121,13.036-2.937,4.2,3.611-6.579,9.138-9.021,10.508-1.818,1.02-12.81,6.051-13.188,6.821-.37.754.276.737.922.476,6.356-2.582,12.477-6.924,19.5-8.06,6.079-.984,5.847,2.73,1.948,5.945-5.409,4.46-13.414,6.584-19.258,10.531-.181,1.1.773.7,1.351.46,2.441-1,14.291-8.833,16.233-6.053,1.011,2.734-1.768,5.021-3.6,6.687-1.864,1.7-7.464,4.909-8.471,6.256-.428.573.241.782.258.869a46.665,46.665,0,0,0,7.563-5.107c2.835-2.439,8.951-7.726,3.56-10.675,5.145-2.254,10.67-10.351,1.107-10-.844.031-3.009,1.083-3.335,0,6.5-1.66,9.97-11.436.255-10.191-3.511.45-7.495,3.433-10.928,4.4,1.693-2.53,6.313-5.065,5.708-8.557-1-5.763-12.84.291-15.045,2.783" transform="translate(-765.584 -399.01)" fill="#d05544"/>
          <path id="Trazado_1261994" data-name="Trazado 1261994" d="M888.072,531.384c-4.274-.923-2.68,4.892.531,4.387,2.141-.336,1.981-3.845-.531-4.387" transform="translate(-809.261 -353.584)" fill="#2b2727"/>
          <path id="Trazado_1261995" data-name="Trazado 1261995" d="M539.7,168.637c-3.037-.441-13.4.664-12.03,5.343,1.046,3.573,5.98-.535,8.7-.9,2.282-.3,6.686.883,6.817-1.671.112-2.183-1.6-2.5-3.491-2.774" transform="translate(-342.646 -112.173)" fill="#431818"/>
          <path id="Trazado_1261996" data-name="Trazado 1261996" d="M576.594,223.873a3.239,3.239,0,0,0,.062-1.271c-.524-.589-5.93,4.686-7.064-2.939-.3-1.99-.22-15.232-1.6-15.282-.914-.033-.372,1.342-.356,1.673.2,4.2.186,9.113.583,13.207.272,2.811,1.1,5.609,4.326,5.914a12.954,12.954,0,0,0,4.052-1.3" transform="translate(-389.492 -136.021)" fill="#ca4e3d"/>
          <path id="Trazado_1261997" data-name="Trazado 1261997" d="M543.978,203.17c-3.111-.461-1.494,6.962,1.347,6.561,2.282-.567,1.027-6.21-1.347-6.561" transform="translate(-350.909 -135.201)" fill="#2c1514"/>
          <path id="Trazado_1261998" data-name="Trazado 1261998" d="M447.766,183.99c-.036-1.476,4.2-5.4,3.553-6.217-2.533.654-6.507,7.886-6.219,10,.321,2.354,2.206-2.343,2.476-2.428,1.317-.414,3.386,3.447,3.746,1.538.161-.856-2.545-3.015-3.555-2.89" transform="translate(-223.256 -118.312)" fill="#cd5543"/>
          <path id="Trazado_1261999" data-name="Trazado 1261999" d="M603.566,217.778c-3.175-2.992-4.215,3.444-1.473,5.245,3.3,2.171,2.986-3.82,1.473-5.245" transform="translate(-428.517 -144.416)" fill="#2b1413"/>
          <path id="Trazado_1262000" data-name="Trazado 1262000" d="M534.639,276.533c-1.383,1.052,2.393.934,2.888.883,3.61-.37,9.148-2.837,10-6.662-.344-.388-3.568,2.7-4.21,3.121a16.261,16.261,0,0,1-8.682,2.659" transform="translate(-349.253 -180.171)" fill="#ce5441"/>
          <path id="Trazado_1262001" data-name="Trazado 1262001" d="M529.92,718.4l-.5.387a224.375,224.375,0,0,1-5.721,26.732v.445c14.229,4.191,35.931,13.092,48.459,20.895-5.316-5.487-10.571-10.968-15.033-17.2-1.733-2.419-3.324-6.155-5.178-8.159-.974-1.053-4.493-3.069-4.919-4-.58-1.265.781-4.929,1.567-6.212-5.652-1.7-8.717-4.2-11.559-9.336-1.47-1.707-5.007-4.456-7.113-3.556" transform="translate(-370.318 -477.993)" fill="#a8bac8"/>
          <path id="Trazado_1262002" data-name="Trazado 1262002" d="M643.413,697.452c-1.987-3.59-5.7-14.139-9.449-15.668-1.337-.545-4.923-.766-5.235,1.211-.148.937.326.627.9.878,2.658,1.163,5.635,1.48,6.774,4.807,1.024,2.992-1.194,3.072-3.66,2.992.81.654,3.153.792,3.557,1.778-.379.1-.367.253,0,.445Z" transform="translate(-476.697 -453.492)" fill="#d75c48"/>
          <path id="Trazado_1262003" data-name="Trazado 1262003" d="M697.795,639.41a8.266,8.266,0,0,1,4-8c-9.049-3.688-10.4,2.243-4,8" transform="translate(-556.864 -419.458)" fill="#d55646"/>
          <path id="Trazado_1262004" data-name="Trazado 1262004" d="M656.514,717.326c-1.089-.25-.963.559-1.118,1.305-.7,3.383-1.034,6.86-1.767,10.258-.891,4.127-3.417,10.873-3.783,14.52a1.471,1.471,0,0,0,.443,1.48c1.816-3.926,2.833-8.644,3.785-12.887.7-3.1,2.838-11.6,2.439-14.232-.024-.157.044-.338,0-.445" transform="translate(-496.911 -477.368)" fill="#5c1114"/>
          <path id="Trazado_1262005" data-name="Trazado 1262005" d="M833.128,753.243v1.33a28.94,28.94,0,0,0,18.68-6.439c.831-.684,6.178-5.979,5.327-6.894-.581-.624-3.964,4.227-4.425,4.684a26.074,26.074,0,0,1-19.582,7.32" transform="translate(-758.886 -493.277)" fill="#611016"/>
          <path id="Trazado_1262006" data-name="Trazado 1262006" d="M667.088,663.864c.473.753.877,1.661,1.778.889a7.92,7.92,0,0,1,3.843-7.938c.925-.567,4.887-1.632,5.047-1.848.239-.321-.37-1.3-.663-1.318a51.3,51.3,0,0,0-5.709,2.73c-2.848,1.953-3.359,4.375-4.3,7.484" transform="translate(-523.934 -435.021)" fill="#cf5845"/>
          <path id="Trazado_1262007" data-name="Trazado 1262007" d="M669.447,645.014c.249.224.39.78.889.889.464-1.783,5.006-3.918,6.677-4.66.326-.145,5.55-1.462,4.436-2.451-1.017-.9-11.078,4.2-12,6.222" transform="translate(-528.516 -425.062)" fill="#cc5645"/>
          <path id="Trazado_1262008" data-name="Trazado 1262008" d="M570.861,1068.412h22.673c-7.286-5.07-18.225-11.333-21.557-20.011-.838-2.182-.969-4.568-2.006-6.664q-1.465,1.224-.951,3.879a107.65,107.65,0,0,1,1.44,21.869Z" transform="translate(-406.813 -693.303)" fill="#26323b"/>
          <path id="Trazado_1262009" data-name="Trazado 1262009" d="M648.022,996.025c.453-7.5.89-15.164,0-22.675-.551-.737-.81.049-.888.661-.483,3.793.58,8.773.467,12.922-.061,2.233-.82,4.525-.47,6.867l-2.21-7.786c-1.5-3.96-2.895-8.09-5.229-11.653-.406-.62-1.015-.958-1.446-.562,1.857,3.865,3.985,7.669,5.349,11.763a60.206,60.206,0,0,1,2.647,11.795l-3.031-6.076c-.677-1.226-5.788-8.578-6.523-8.584-2.1-.017,1.251,2.961,1.543,3.339,8.529,11.046,10.587,22.843,9.794,36.664h.889a102.383,102.383,0,0,0-.006-13.554c-.459-5.212-1.218-7.572-.883-13.121" transform="translate(-484.862 -647.591)" fill="#292931"/>
        </g>
      </g>
    </g>
  </g>
</svg>
