<svg xmlns="http://www.w3.org/2000/svg" xmlns:xlink="http://www.w3.org/1999/xlink" width="295" height="221.965" viewBox="0 0 295 221.965">
  <defs>
    <clipPath id="clip-path">
      <rect id="Rectángulo_462018" data-name="Rectángulo 462018" width="177.696" height="176.456" fill="none"/>
    </clipPath>
    <clipPath id="clip-path-2">
      <path id="Trazado_1262690" data-name="Trazado 1262690" d="M335.8,256.745a3.175,3.175,0,0,0,4.162.92,3.677,3.677,0,0,0-1.9-1.262,2.755,2.755,0,0,0-.6-.063,3.912,3.912,0,0,0-1.663.406" transform="translate(-335.802 -256.339)" fill="none"/>
    </clipPath>
  </defs>
  <g id="Grupo_1205223" data-name="Grupo 1205223" transform="translate(-285.905 -1923.964)">
    <g id="Grupo_1205220" data-name="Grupo 1205220">
      <g id="Grupo_1205219" data-name="Grupo 1205219">
        <g id="Grupo_1102750" data-name="Grupo 1102750" transform="translate(55.49 -2696.036)">
          <g id="Grupo_1099952" data-name="Grupo 1099952" transform="translate(230.415 4620)">
            <path id="Trazado_145968" data-name="Trazado 145968" d="M49.2,0A49.2,49.2,0,1,0,98.4,49.2,49.2,49.2,0,0,0,49.2,0Z" transform="translate(7.561 119.354)" fill="#a6cdec"/>
            <path id="Trazado_145969" data-name="Trazado 145969" d="M33.618,0A33.618,33.618,0,1,0,67.237,33.618,33.618,33.618,0,0,0,33.618,0Z" transform="translate(200.275 12.836)" fill="#a6cdec"/>
            <rect id="Rectángulo_34812" data-name="Rectángulo 34812" width="295" height="221.25" transform="translate(0 0.357)" fill="none"/>
            <path id="Trazado_145967" data-name="Trazado 145967" d="M110.983,0A110.983,110.983,0,1,0,221.966,110.983,110.983,110.983,0,0,0,110.983,0Z" transform="translate(36.517 0)" fill="#88a160"/>
            <path id="Trazado_145971" data-name="Trazado 145971" d="M9.243,0a9.243,9.243,0,1,0,9.243,9.243A9.243,9.243,0,0,0,9.243,0Z" transform="translate(239.996 184.805)" fill="#0a4666"/>
            <path id="Elipse_4044" data-name="Elipse 4044" d="M12.535,3.388a9.147,9.147,0,1,1-9.147,9.147,9.158,9.158,0,0,1,9.147-9.147m0-3.388A12.535,12.535,0,1,0,25.071,12.535,12.535,12.535,0,0,0,12.535,0Z" transform="translate(214.926 79.167)" fill="#fff"/>
          </g>
        </g>
      </g>
    </g>
    <g id="Grupo_1204645" data-name="Grupo 1204645" transform="translate(344.557 1946.717)">
      <g id="Grupo_1204640" data-name="Grupo 1204640" transform="translate(0 0.002)">
        <g id="Grupo_1204639" data-name="Grupo 1204639" transform="translate(0 0)" clip-path="url(#clip-path)">
          <path id="Trazado_1262653" data-name="Trazado 1262653" d="M734.766,354.284H645.973a.215.215,0,0,1-.215-.215V223.326a.215.215,0,0,1,.215-.215h24.674a.215.215,0,1,1,0,.43H646.188V353.853h88.578a.215.215,0,1,1,0,.43" transform="translate(-582.776 -201.351)" fill="#363e44"/>
          <path id="Trazado_1262654" data-name="Trazado 1262654" d="M1525.569,273.753a.215.215,0,0,1-.215-.215v-50h-26.076a.215.215,0,1,1,0-.43h26.292a.215.215,0,0,1,.215.215v50.212a.215.215,0,0,1-.215.215" transform="translate(-1352.856 -201.351)" fill="#363e44"/>
          <rect id="Rectángulo_462008" data-name="Rectángulo 462008" width="87.214" height="117.36" transform="translate(74.348 25.975)" fill="#fff"/>
          <path id="Trazado_1262655" data-name="Trazado 1262655" d="M952.42,35.794h0a12.839,12.839,0,1,0-25.678,0H912.663v16.92H966.5V35.794Zm-22.3,0a9.46,9.46,0,0,1,18.921,0Z" transform="translate(-823.649 -20.716)" fill="#e4f0f9"/>
          <path id="Trazado_1262656" data-name="Trazado 1262656" d="M985.257,30.191H931.422a.215.215,0,0,1-.215-.215V13.056a.215.215,0,0,1,.215-.215h13.865a13.054,13.054,0,0,1,26.105,0h13.865a.215.215,0,0,1,.215.215v16.92a.215.215,0,0,1-.215.215m-53.62-.43h53.405V13.271H971.179a.215.215,0,0,1-.215-.215,12.624,12.624,0,0,0-25.248,0,.215.215,0,0,1-.215.215H931.637Zm39.757-16.7h0Zm-3.594.215H948.879a.215.215,0,0,1-.215-.215,9.675,9.675,0,0,1,19.351,0,.215.215,0,0,1-.215.215m-18.7-.43h18.486a9.245,9.245,0,0,0-18.486,0" transform="translate(-840.385 -0.002)" fill="#d3bba3"/>
          <rect id="Rectángulo_462009" data-name="Rectángulo 462009" width="31.657" height="1.944" transform="translate(104.247 86.771)" fill="#f2e6dc"/>
          <rect id="Rectángulo_462010" data-name="Rectángulo 462010" width="38.919" height="1.944" transform="translate(109.159 91.628)" fill="#f2e6dc"/>
          <rect id="Rectángulo_462011" data-name="Rectángulo 462011" width="37.446" height="1.944" transform="translate(104.247 96.484)" fill="#f2e6dc"/>
          <rect id="Rectángulo_462012" data-name="Rectángulo 462012" width="39.162" height="1.944" transform="translate(112.624 65.387)" fill="#f2e6dc"/>
          <rect id="Rectángulo_462013" data-name="Rectángulo 462013" width="37.446" height="1.944" transform="translate(103.187 70.243)" fill="#f2e6dc"/>
          <rect id="Rectángulo_462014" data-name="Rectángulo 462014" width="43.97" height="1.944" transform="translate(103.187 75.099)" fill="#f2e6dc"/>
          <rect id="Rectángulo_462015" data-name="Rectángulo 462015" width="34.394" height="1.944" transform="translate(112.763 45.297)" fill="#f2e6dc"/>
          <rect id="Rectángulo_462016" data-name="Rectángulo 462016" width="37.307" height="1.944" transform="translate(103.326 50.153)" fill="#f2e6dc"/>
          <rect id="Rectángulo_462017" data-name="Rectángulo 462017" width="48.46" height="1.944" transform="translate(103.326 55.009)" fill="#f2e6dc"/>
          <path id="Trazado_1262657" data-name="Trazado 1262657" d="M859.968,882.836H844.252a.215.215,0,0,1-.215-.215V866.912a.215.215,0,0,1,.215-.215h15.716a.215.215,0,0,1,.215.215v15.709a.215.215,0,0,1-.215.215m-15.5-.43h15.286V867.127H844.467Z" transform="translate(-761.716 -782.167)" fill="#f2e6dc"/>
          <path id="Trazado_1262658" data-name="Trazado 1262658" d="M872.638,904.209l-4.92-4.473,1.52-1.874,3.12,2.493,4.9-7.105,1.992,1.371Z" transform="translate(-783.088 -806.13)" fill="#3a4852"/>
          <path id="Trazado_1262659" data-name="Trazado 1262659" d="M859.968,663.574H844.252a.215.215,0,0,1-.215-.215V647.65a.215.215,0,0,1,.215-.215h15.716a.215.215,0,0,1,.215.215v15.709a.215.215,0,0,1-.215.215m-15.5-.43h15.286V647.865H844.467Z" transform="translate(-761.716 -584.29)" fill="#f2e6dc"/>
          <path id="Trazado_1262660" data-name="Trazado 1262660" d="M872.638,684.948l-4.92-4.474,1.52-1.874,3.12,2.493,4.9-7.105,1.992,1.371Z" transform="translate(-783.088 -608.253)" fill="#3a4852"/>
          <path id="Trazado_1262661" data-name="Trazado 1262661" d="M859.968,457.592H844.252a.215.215,0,0,1-.215-.215V441.668a.215.215,0,0,1,.215-.215h15.716a.215.215,0,0,1,.215.215v15.709a.215.215,0,0,1-.215.215m-15.5-.43h15.286V441.883H844.467Z" transform="translate(-761.716 -398.397)" fill="#f2e6dc"/>
          <path id="Trazado_1262662" data-name="Trazado 1262662" d="M872.638,478.965l-4.92-4.473,1.52-1.874,3.12,2.493,4.9-7.105,1.992,1.371Z" transform="translate(-783.088 -422.36)" fill="#3a4852"/>
          <path id="Trazado_1262663" data-name="Trazado 1262663" d="M154.449,1499.4l3.036,13.742,9.414-.564.184-14.055Z" transform="translate(-139.385 -1352.373)" fill="#bc8271"/>
          <path id="Trazado_1262664" data-name="Trazado 1262664" d="M501.141,1489.832l3.419,13.973,11,.483-2.663-14.46Z" transform="translate(-452.264 -1344.523)" fill="#bc8271"/>
          <path id="Trazado_1262665" data-name="Trazado 1262665" d="M536.2,1633.108l1.217,16.345,30.424-.011c-4.119-6.327-10.817-13.632-20.672-16.338Z" transform="translate(-483.899 -1473.825)" fill="#d3d3d3"/>
          <path id="Trazado_1262666" data-name="Trazado 1262666" d="M148.618,1642.638c0,.6-3.857,15.7-3.857,15.7h22.081l-8.686-15.7Z" transform="translate(-130.642 -1482.428)" fill="#d3d3d3"/>
          <path id="Trazado_1262667" data-name="Trazado 1262667" d="M259.724,719.258s-3,19.485,20.874,77.877h15.574s-12.319-71.3-13.635-80.29Z" transform="translate(-234.283 -646.93)" fill="#363e44"/>
          <path id="Trazado_1262668" data-name="Trazado 1262668" d="M105.225,770.821s-6.038,30.717,2.078,75.026h14.477s2.6-64.278,6.325-73.929Z" transform="translate(-93.014 -695.641)" fill="#363e44"/>
          <path id="Trazado_1262669" data-name="Trazado 1262669" d="M324.987,919.628h-.011a.215.215,0,0,1-.2-.226l.68-13.383a.215.215,0,0,1,.145-.192l4.765-1.642a.215.215,0,1,1,.14.406l-4.628,1.594-.672,13.238a.215.215,0,0,1-.215.2" transform="translate(-293.096 -815.988)" fill="#d3bba3"/>
          <path id="Trazado_1262670" data-name="Trazado 1262670" d="M5.939,447.6l.588.223,10.606-14.646L6.19,423.408.829,435.183A9.2,9.2,0,0,0,5.939,447.6" transform="translate(0.001 -382.112)" fill="#bc8271"/>
          <path id="Trazado_1262671" data-name="Trazado 1262671" d="M512.26,255.639s5.669,5.215,8.789,1.839c3.24-3.505,7.023-7.543,8.984-9.442,4.044-3.915,10.586-9.106,11.3-8.182.407.527-.339,1.419-2.491,3.672a1.486,1.486,0,0,1,1.2.7,1.221,1.221,0,0,1-.147,1.421,1.7,1.7,0,0,1,1.326.444,1.413,1.413,0,0,1,.078,1.639,1.745,1.745,0,0,1,1.34.554,1.472,1.472,0,0,1-.38,1.879c-.867.815-3.291,2.982-4.427,4.292-1.413,1.629-6.953,8.4-10.836,13.162a10.169,10.169,0,0,1-10.087,3.5l-4.479-1Z" transform="translate(-462.298 -216.364)" fill="#bc8271"/>
          <path id="Trazado_1262672" data-name="Trazado 1262672" d="M721.986,306.28a.212.212,0,0,1-.1-.023.215.215,0,0,1-.1-.288,5.775,5.775,0,0,0,.524-2.814c0-.822-.008-1.531.713-1.811a2.8,2.8,0,0,0,1.207-1.163.287.287,0,0,0-.015-.335.3.3,0,0,0-.326-.107l-3.5,1.059a.215.215,0,0,1-.124-.412l3.5-1.059a.729.729,0,0,1,.829,1.084,3.162,3.162,0,0,1-1.414,1.334c-.426.165-.443.573-.439,1.408a6.224,6.224,0,0,1-.57,3.009.215.215,0,0,1-.192.119" transform="translate(-649.882 -270.104)" fill="#363e44"/>
          <path id="Trazado_1262673" data-name="Trazado 1262673" d="M769.385,288.037a.214.214,0,0,1-.156-.067,2.052,2.052,0,0,1-.4-2.183l-.011.008a1.385,1.385,0,0,1-1.764-2.125l.2-.2a1.148,1.148,0,0,1-.807-1.952l.937-.958a.215.215,0,0,1,.307.3l-.937.958a.72.72,0,0,0,.958,1.07l.727-.57a.215.215,0,0,1,.282.324l-1.371,1.332a.955.955,0,0,0,1.216,1.465l1.173-.829a.215.215,0,0,1,.282.321l-.495.538a1.619,1.619,0,0,0,.015,2.2.215.215,0,0,1-.156.363" transform="translate(-691.396 -253.142)" fill="#363e44"/>
          <path id="Trazado_1262674" data-name="Trazado 1262674" d="M19.013,354.638,8.239,350.093A68.021,68.021,0,0,1,13.218,339.4c2.683-4.2,6.4-5.968,11.351-6.5,7.035-.761,19.729.295,28.788,3.225,11.448,3.7,11.953,4.04,11.953,4.04l-5.892,15.656-3.872-1.01,4.727,30.351-46.215,1.7s3.61-26.837,4.957-32.224" transform="translate(-7.435 -300.211)" fill="#e5efd6"/>
          <path id="Trazado_1262675" data-name="Trazado 1262675" d="M341.47,485.027H325.841l7.129-20.016H348.6Z" transform="translate(-294.061 -419.657)" fill="#fff"/>
          <path id="Trazado_1262676" data-name="Trazado 1262676" d="M430.557,457.959H421.7l.813-2.468h9.022Z" transform="translate(-380.574 -411.066)" fill="#363e44"/>
          <path id="Trazado_1262677" data-name="Trazado 1262677" d="M420.512,456.786a.221.221,0,0,1-.059-.008.215.215,0,0,1-.148-.266l.673-2.357a.215.215,0,0,1,.207-.156h9.091a.215.215,0,0,1,0,.43h-8.929l-.628,2.2a.215.215,0,0,1-.207.156" transform="translate(-379.305 -409.72)" fill="#363e44"/>
          <path id="Trazado_1262678" data-name="Trazado 1262678" d="M451.582,429.17a.222.222,0,0,1-.059-.008.215.215,0,0,1-.148-.266l.673-2.357a.215.215,0,0,1,.207-.156h4.714a.215.215,0,0,1,.207.274l-.673,2.357a.215.215,0,0,1-.414-.118l.6-2.083h-4.267l-.628,2.2a.215.215,0,0,1-.207.156" transform="translate(-407.344 -384.797)" fill="#363e44"/>
          <path id="Trazado_1262679" data-name="Trazado 1262679" d="M472.885,436.62a.8.8,0,1,1,.8-.8.805.805,0,0,1-.8.8m0-1.178a.374.374,0,1,0,.374.374.374.374,0,0,0-.374-.374" transform="translate(-426.038 -392.585)" fill="#363e44"/>
          <path id="Trazado_1262680" data-name="Trazado 1262680" d="M62.155,558.06c5.347.358,17.981.576,19.214.647,2.3.132,14.649,1.16,14.694,2.957.021.859-2.366.768-3.172.714.629.365,3.2,1.5,2.972,2.439-.266,1.1-3.536.212-3.6.23.677.305,3.422,1.413,3.28,2.122-.186.922-3.049.657-3.9.538.073.129,2.832.8,2.658,1.909-.128.814-2.755.567-3.894.463-2.047-.115-25.927-.17-30.363-.747-1.737-.226-.24-9.6,2.109-11.273" transform="translate(-53.509 -503.632)" fill="#bc8271"/>
          <path id="Trazado_1262681" data-name="Trazado 1262681" d="M98.02,555.61h-.007c-2.729-.089-9.821-.405-11.539-.5a.215.215,0,0,1-.2-.227.212.212,0,0,1,.227-.2c1.717.1,8.8.411,11.529.5a.215.215,0,0,1-.007.43" transform="translate(-77.856 -500.58)" fill="#363e44"/>
          <path id="Trazado_1262682" data-name="Trazado 1262682" d="M365.657,591.783a.216.216,0,0,1-.085-.017,10.318,10.318,0,0,0-3.863-.838.215.215,0,0,1,0-.43h0a10.763,10.763,0,0,1,4.023.873.215.215,0,0,1-.085.413" transform="translate(-326.242 -532.905)" fill="#363e44"/>
          <path id="Trazado_1262683" data-name="Trazado 1262683" d="M369.355,623.077a.213.213,0,0,1-.063-.009q-.143-.044-.291-.085a10.391,10.391,0,0,0-2.521-.368.215.215,0,0,1,0-.43h0a10.814,10.814,0,0,1,2.626.383c.1.029.2.058.3.088a.215.215,0,0,1-.063.421" transform="translate(-330.546 -561.502)" fill="#363e44"/>
          <path id="Trazado_1262684" data-name="Trazado 1262684" d="M372.774,653.307a.211.211,0,0,1-.039,0,10.46,10.46,0,0,0-1.663-.17.215.215,0,1,1,.01-.43,10.867,10.867,0,0,1,1.731.177.215.215,0,0,1-.039.427" transform="translate(-334.691 -589.044)" fill="#363e44"/>
          <path id="Trazado_1262685" data-name="Trazado 1262685" d="M298.267,215.284c-1.442,1.024-5.514-1.756-5.514-1.756l-2.33-4.874a4.5,4.5,0,1,1,9.008,0s.3,5.587-1.164,6.63" transform="translate(-262.098 -184.239)" fill="#bc8271"/>
          <path id="Trazado_1262686" data-name="Trazado 1262686" d="M293.367,245.823h.354a2.943,2.943,0,0,0,2.943-2.943V231.786h-6.239v11.095a2.943,2.943,0,0,0,2.943,2.943" transform="translate(-262.098 -209.18)" fill="#bc8271"/>
          <path id="Trazado_1262687" data-name="Trazado 1262687" d="M374.781,262.473s1.263,1.324,1.2,1.673c-.08.417-1.487.672-1.487.672s.325-2.341.291-2.345" transform="translate(-337.965 -236.874)" fill="#bc8271"/>
          <path id="Trazado_1262688" data-name="Trazado 1262688" d="M335.8,256.745a3.911,3.911,0,0,1,1.663-.406c.193,0-.171,1.548-.355,1.46a3.918,3.918,0,0,1-1.308-1.054" transform="translate(-303.051 -231.338)" fill="#fff"/>
        </g>
      </g>
      <g id="Grupo_1204642" data-name="Grupo 1204642" transform="translate(32.751 25.003)">
        <g id="Grupo_1204641" data-name="Grupo 1204641" clip-path="url(#clip-path-2)">
          <path id="Trazado_1262689" data-name="Trazado 1262689" d="M349.075,251.759a1.539,1.539,0,1,1,0,2.177,1.539,1.539,0,0,1,0-2.177" transform="translate(-347.373 -251.799)" fill="#363e44"/>
        </g>
      </g>
      <g id="Grupo_1204644" data-name="Grupo 1204644" transform="translate(0 0.002)">
        <g id="Grupo_1204643" data-name="Grupo 1204643" transform="translate(0 0)" clip-path="url(#clip-path)">
          <path id="Trazado_1262691" data-name="Trazado 1262691" d="M268.884,168.658a3.966,3.966,0,0,0,3.307,2.417c2.417.127,2.859.084,2.859.084l.312,2.3a1.647,1.647,0,0,1-1.695,1.868l-1.731-.065a3.515,3.515,0,0,1-3.364-3.154l-.2-1.922-2.269-.817s-3.717-1.786-2.31-4.4a1.906,1.906,0,0,1,2.417-1.018l5.79-4.461a2.829,2.829,0,0,1,3.727.241,2.245,2.245,0,0,1-.215,3.364l-.78.6.775-.155a1.156,1.156,0,0,1,1.36.907,1.94,1.94,0,0,1-1.955,2.325,7.822,7.822,0,0,1-1.833-.278c-2.289-.636-4.579.127-4.2,2.162" transform="translate(-237.78 -143.405)" fill="#363e44"/>
          <path id="Trazado_1262692" data-name="Trazado 1262692" d="M295.36,258a1.307,1.307,0,1,1-1.718-.993,1.412,1.412,0,0,1,1.718.993" transform="translate(-264.265 -231.88)" fill="#bc8271"/>
          <path id="Trazado_1262693" data-name="Trazado 1262693" d="M355.241,286.187a.844.844,0,0,1-.459-.135.854.854,0,0,1-.379-.812.215.215,0,0,1,.427.05.416.416,0,0,0,.64.4.215.215,0,0,1,.232.362.854.854,0,0,1-.461.135" transform="translate(-319.831 -257.249)" fill="#bc8271"/>
          <path id="Trazado_1262694" data-name="Trazado 1262694" d="M303.2,273.31a.215.215,0,0,1-.134-.047l-.636-.509a.215.215,0,1,1,.269-.336l.636.509a.215.215,0,0,1-.135.383" transform="translate(-272.864 -245.807)" fill="#363e44"/>
          <path id="Trazado_1262695" data-name="Trazado 1262695" d="M1294.044,1123.125a9.737,9.737,0,0,1-9.726-9.714l-.012-9.511a.215.215,0,0,1,.215-.215l19.022-.025h0a.215.215,0,0,1,.215.215l.012,9.511a9.726,9.726,0,0,1-9.714,9.739Zm-9.308-19.01.012,9.3a9.3,9.3,0,0,0,9.3,9.284h.012a9.3,9.3,0,0,0,9.284-9.308l-.012-9.3Z" transform="translate(-1159.044 -996.018)" fill="#363e44"/>
          <path id="Trazado_1262696" data-name="Trazado 1262696" d="M1297.717,1222.946a48.075,48.075,0,0,1-6.395-.375c-2.532-.359-2.857-.793-2.857-1.131a.215.215,0,0,1,.215-.215h0a.215.215,0,0,1,.215.215c.12.387,3.2,1.087,8.907,1.076s8.785-.712,8.9-1.1a.213.213,0,0,1,.214-.213h0a.217.217,0,0,1,.215.217c0,1.2-6.1,1.526-9.334,1.53Z" transform="translate(-1162.798 -1102.093)" fill="#363e44"/>
          <path id="Trazado_1262697" data-name="Trazado 1262697" d="M1297.682,1180.2c-3.245,0-9.271-.313-9.273-1.506a.215.215,0,0,1,.215-.215h0a.215.215,0,0,1,.215.215c.119.385,3.168,1.076,8.817,1.076h.09c5.707-.007,8.785-.712,8.9-1.1a.213.213,0,0,1,.214-.213h0a.217.217,0,0,1,.215.217c0,1.2-6.1,1.526-9.334,1.53Z" transform="translate(-1162.748 -1063.514)" fill="#363e44"/>
          <path id="Trazado_1262698" data-name="Trazado 1262698" d="M1180.527,671.039a24.625,24.625,0,1,1-24.657-24.593,24.625,24.625,0,0,1,24.657,24.593" transform="translate(-1020.941 -583.397)" fill="#fff"/>
          <path id="Trazado_1262699" data-name="Trazado 1262699" d="M1153.911,693.921a24.84,24.84,0,0,1-.031-49.681h.032a24.84,24.84,0,0,1,.032,49.681Zm0-49.25h-.032a24.41,24.41,0,0,0,.031,48.82h.032a24.41,24.41,0,0,0-.031-48.82" transform="translate(-1018.951 -581.406)" fill="#d87355"/>
          <path id="Trazado_1262700" data-name="Trazado 1262700" d="M1202.448,735.985q-.767,0-1.54-.06a19.434,19.434,0,1,1,1.54.06m-.062-38.557a19.072,19.072,0,1,0,1.506.059q-.756-.059-1.506-.059" transform="translate(-1067.557 -629.018)" fill="#d87355"/>
          <path id="Trazado_1262701" data-name="Trazado 1262701" d="M1251.007,749.678a14.359,14.359,0,1,0,13.2,15.428,14.355,14.355,0,0,0-13.2-15.428m-1.779,22.906a8.616,8.616,0,1,1,9.253-7.922,8.615,8.615,0,0,1-9.253,7.922" transform="translate(-1115.036 -676.521)" fill="#efbc73"/>
          <path id="Trazado_1262702" data-name="Trazado 1262702" d="M1350.864,861.451a3.858,3.858,0,1,1-3.548-4.147,3.859,3.859,0,0,1,3.548,4.147" transform="translate(-1212.158 -773.679)" fill="#d87355"/>
          <rect id="Rectángulo_462019" data-name="Rectángulo 462019" width="16.048" height="1.898" transform="matrix(0.771, -0.636, 0.636, 0.771, 142.861, 79.717)" fill="#8b865c"/>
          <path id="Trazado_1262703" data-name="Trazado 1262703" d="M1387.449,831.817l-8.036,5.869,7.288-6.776Z" transform="translate(-1244.877 -749.87)" fill="#363e44"/>
          <path id="Trazado_1262704" data-name="Trazado 1262704" d="M1603.624,646.15,1598.962,650l-.506-3.265,4.662-3.847Z" transform="translate(-1442.556 -580.183)" fill="#d87355"/>
          <path id="Trazado_1262705" data-name="Trazado 1262705" d="M1611.914,680.739l-4.662,3.847,3.108,1.118,4.662-3.847Z" transform="translate(-1450.493 -614.346)" fill="#d87355"/>
          <rect id="Rectángulo_462020" data-name="Rectángulo 462020" width="0.821" height="2.703" transform="translate(141.339 80.451) rotate(-39.526)" fill="#d87355"/>
          <rect id="Rectángulo_462021" data-name="Rectángulo 462021" width="0.821" height="2.703" transform="translate(141.971 79.928) rotate(-39.526)" fill="#fff"/>
          <path id="Trazado_1262706" data-name="Trazado 1262706" d="M1276.473,920.051a.215.215,0,0,1-.2-.131l-7.762-18.176a.215.215,0,0,1,.4-.169l7.762,18.176a.215.215,0,0,1-.2.3" transform="translate(-1144.777 -813.526)" fill="#363e44"/>
          <path id="Trazado_1262707" data-name="Trazado 1262707" d="M1415.738,919.78a.215.215,0,0,1-.2-.3l7.715-18.2a.215.215,0,0,1,.4.168l-7.715,18.2a.215.215,0,0,1-.2.131" transform="translate(-1277.465 -813.263)" fill="#363e44"/>
          <rect id="Rectángulo_462022" data-name="Rectángulo 462022" width="25.652" height="20.533" transform="translate(80.907 155.923)" fill="#efbc73"/>
          <rect id="Rectángulo_462023" data-name="Rectángulo 462023" width="25.652" height="31.403" transform="translate(116.476 145.053)" fill="#efbc73"/>
          <path id="Trazado_1262708" data-name="Trazado 1262708" d="M1048.348,1627.714a.215.215,0,0,1-.215-.215V1609.39a.215.215,0,1,1,.43,0V1627.5a.215.215,0,0,1-.215.215" transform="translate(-945.907 -1452.229)" fill="#776e42"/>
          <rect id="Rectángulo_462024" data-name="Rectángulo 462024" width="25.652" height="44.431" transform="translate(152.045 132.026)" fill="#efbc73"/>
          <path id="Trazado_1262709" data-name="Trazado 1262709" d="M1777.726,1406.589a.215.215,0,0,1-.215-.215v-42.006a.215.215,0,1,1,.43,0v42.006a.215.215,0,0,1-.215.215" transform="translate(-1604.147 -1231.104)" fill="#776e42"/>
          <path id="Trazado_1262710" data-name="Trazado 1262710" d="M1411.67,1526.566a.215.215,0,0,1-.215-.215v-29.04a.215.215,0,0,1,.43,0v29.04a.215.215,0,0,1-.215.215" transform="translate(-1273.793 -1351.082)" fill="#776e42"/>
          <path id="Trazado_1262711" data-name="Trazado 1262711" d="M459.732,987.277a85.746,85.746,0,0,1-48.208-14.842.215.215,0,1,1,.241-.356,85.734,85.734,0,0,0,133.815-69.608.223.223,0,0,1,.218-.212.215.215,0,0,1,.212.218A86.178,86.178,0,0,1,468.828,986.8a87.264,87.264,0,0,1-9.1.477" transform="translate(-371.302 -814.261)" fill="#363e44"/>
          <path id="Trazado_1262712" data-name="Trazado 1262712" d="M1762.052,887.69a.215.215,0,0,1-.2-.131l-2.238-5.245-2.769,4.931a.215.215,0,1,1-.375-.21l2.983-5.312a.208.208,0,0,1,.2-.109.215.215,0,0,1,.186.13l2.409,5.646a.215.215,0,0,1-.2.3" transform="translate(-1585.136 -795.628)" fill="#363e44"/>
          <path id="Trazado_1262713" data-name="Trazado 1262713" d="M914.326,1294.677H914.3l-5.909-.046a3.03,3.03,0,0,1-3.007-3.055l.021-2.612a3.036,3.036,0,0,1,3.032-3.008h.024l5.909.046a3.03,3.03,0,0,1,3.007,3.055l-.021,2.612a3.036,3.036,0,0,1-3.032,3.008m-5.887-8.291a2.605,2.605,0,0,0-2.6,2.581l-.021,2.612a2.6,2.6,0,0,0,2.58,2.622l5.909.046h.021a2.605,2.605,0,0,0,2.6-2.582l.021-2.612a2.6,2.6,0,0,0-2.58-2.622l-5.909-.046Z" transform="translate(-817.082 -1160.535)" fill="#d3bba3"/>
          <rect id="Rectángulo_462025" data-name="Rectángulo 462025" width="24.719" height="34.6" transform="translate(77.011 155.803) rotate(-89.554)" fill="#3a4852"/>
          <path id="Trazado_1262714" data-name="Trazado 1262714" d="M825.347,1377.252a.214.214,0,0,1-.132-.046L810.1,1365.4a.215.215,0,1,1,.265-.339l14.982,11.7,15.01-11.477a.215.215,0,1,1,.261.341l-15.142,11.578a.214.214,0,0,1-.131.044" transform="translate(-731.016 -1231.886)" fill="#f7f1eb"/>
          <rect id="Rectángulo_462026" data-name="Rectángulo 462026" width="2.573" height="4.876" transform="translate(91.948 146.143) rotate(-89.554)" fill="#f7f1eb"/>
        </g>
      </g>
    </g>
  </g>
</svg>
