<svg xmlns="http://www.w3.org/2000/svg" xmlns:xlink="http://www.w3.org/1999/xlink" width="400" height="374.462" viewBox="0 0 400 374.462">
  <defs>
    <clipPath id="clip-path">
      <rect id="Rectángulo_462028" data-name="Rectángulo 462028" width="318.8" height="374.462" transform="translate(0 0)" fill="none"/>
    </clipPath>
  </defs>
  <g id="Grupo_1205210" data-name="Grupo 1205210" transform="translate(-1020.217 -3638.479)">
    <g id="Grupo_1204481" data-name="Grupo 1204481" transform="translate(840.217 3282.101)">
      <path id="Trazado_145968" data-name="Trazado 145968" d="M66.711,0a66.711,66.711,0,1,0,66.711,66.711A66.711,66.711,0,0,0,66.711,0Z" transform="translate(190.252 591.707)" fill="#a6cdec"/>
      <path id="Trazado_145969" data-name="Trazado 145969" d="M45.584,0A45.584,45.584,0,1,0,91.168,45.584,45.584,45.584,0,0,0,45.584,0Z" transform="translate(451.561 447.276)" fill="#a6cdec"/>
      <rect id="Rectángulo_34812" data-name="Rectángulo 34812" width="400" height="300" transform="translate(180 430.356)" fill="none"/>
      <path id="Trazado_145967" data-name="Trazado 145967" d="M150.485,0A150.485,150.485,0,1,0,300.971,150.485,150.485,150.485,0,0,0,150.485,0Z" transform="translate(229.515 429.871)" fill="#aaca79"/>
      <path id="Trazado_145971" data-name="Trazado 145971" d="M12.533,0A12.533,12.533,0,1,0,25.066,12.533,12.533,12.533,0,0,0,12.533,0Z" transform="translate(505.419 680.454)" fill="#0a4666"/>
      <path id="Elipse_4044" data-name="Elipse 4044" d="M17,4.594A12.4,12.4,0,1,1,4.594,17,12.417,12.417,0,0,1,17,4.594M17,0a17,17,0,1,0,17,17A17,17,0,0,0,17,0Z" transform="translate(471.425 537.216)" fill="#fff"/>
      <g id="Grupo_1204647" data-name="Grupo 1204647" transform="translate(211.686 356.375)">
        <g id="Grupo_1204646" data-name="Grupo 1204646" transform="translate(0 0.004)" clip-path="url(#clip-path)">
          <path id="Trazado_1262715" data-name="Trazado 1262715" d="M1146.156,106.172c-.407-1.534-5.875-18.29-6.757-19.908a5.09,5.09,0,0,0-1.4-2.073c-1.144-.783-2.841-.526-4.164-.341-4.723.659-22.976,4.215-27.156,4.759.419,6.2,1.638,11.437,2.4,17.632a46.078,46.078,0,0,0,.647,4.784,2.671,2.671,0,0,0,.578,1.321,2.787,2.787,0,0,0,2.423.505c1.112-.158,2.834.228,3.945.07l13.121-1.863c4.447-.632,8.905-1.242,13.343-1.9a5.757,5.757,0,0,0,2.64-.794,1.953,1.953,0,0,0,.381-2.2m-4.976-.777c-1.243,2.893-6.945,4.49-9.256,1.857-1.244-1.417-5.063-17.02-4.86-16.867a2.983,2.983,0,0,1,.123-1.627c.756-1.872,3.63-2.459,5.328-2.627,1.862-.184,3.69.082,4.965,1.594a13.435,13.435,0,0,1,2.3,4.918c.972,3.331,2.84,9.409,1.4,12.752" transform="translate(-863.566 -64.63)" fill="#a6cdec"/>
          <path id="Trazado_1262716" data-name="Trazado 1262716" d="M344.267,207.664,109.546,242.858a7.026,7.026,0,0,1-7.755-6.116L72.011,74.3a7.184,7.184,0,0,1,6.05-8.226L295.493,37.567a6.748,6.748,0,0,1,7.268,4.852l47.127,156.225a6.985,6.985,0,0,1-5.62,9.019" transform="translate(-56.133 -28.983)" fill="#84a4bc"/>
          <path id="Trazado_1262717" data-name="Trazado 1262717" d="M137.591,473.981a2.3,2.3,0,0,1-2.077,1.136l-3.379.372-13.291,1.462c-4.505.5-9.011,1.016-13.516,1.487a5.97,5.97,0,0,1-2.86-.133,2.554,2.554,0,0,1-1.338-2.143c-.3-1.669-.491-3.362-.733-5.041l-1.55-10.743a26.873,26.873,0,0,1-.485-5.539,4.539,4.539,0,0,1,.679-2.34c.739-1.092,2.2-1.4,3.534-1.548,4.779-.539,21.266-1.159,25.275-2.542,2.692,6.339,6.16,12.519,8.192,19.032.52,1.667,1.155,3.336,1.512,5.045a2.76,2.76,0,0,1,.038,1.5" transform="translate(-76.734 -346.421)" fill="#a6cdec"/>
          <path id="Trazado_1262718" data-name="Trazado 1262718" d="M150.532,534.087q-7.477.121-14.939.661-3.842.285-7.675.687a16.133,16.133,0,0,1-3.6.405l-.666.069c-1.773-.08-1.86-1.1-1.468-2.31.1-.6,2.01-1,2.49-1.074,4.634-.729,9.49.813,14.193.347a16.6,16.6,0,0,0,9.688-4c.451-.4-.206-1.08-.654-.678-5.015,4.5-11.816,3.992-18,3.494-2.191-.176-9.329-1.127-9.268,3.082a2.317,2.317,0,0,0,2.288,2.094c2.711.32,5.88-.578,8.606-.825,6.321-.573,12.66-.893,19-1,.6-.01.6-.968,0-.958" transform="translate(-94.132 -407.965)" fill="#412524"/>
          <path id="Trazado_1262719" data-name="Trazado 1262719" d="M107.221,237.9l-2.5-10.462,24.325-1.873q1.758,5.018,3.084,10.1-12.529.823-24.913,2.235" transform="translate(-81.719 -174.259)" fill="#412524"/>
          <path id="Trazado_1262720" data-name="Trazado 1262720" d="M140.826,315.578l-2.247-9.947L163,303.962q1.64,4.773,2.845,9.606-12.576.725-25.021,2.01" transform="translate(-108.136 -234.828)" fill="#412524"/>
          <path id="Trazado_1262721" data-name="Trazado 1262721" d="M818.316,35.02l-6.658,1.213a1.792,1.792,0,0,1-1.961-1.381l-7.286-31.7a1.545,1.545,0,0,1,1.266-1.919L810.334.021A1.792,1.792,0,0,1,812.3,1.4l7.286,31.7a1.544,1.544,0,0,1-1.266,1.919" transform="translate(-626.104 -0.004)" fill="#523e14"/>
          <path id="Trazado_1262722" data-name="Trazado 1262722" d="M420.134,129.825l-6.658,1.213a1.792,1.792,0,0,1-1.962-1.381l-7.286-31.7a1.545,1.545,0,0,1,1.266-1.919l6.658-1.213a1.791,1.791,0,0,1,1.962,1.381l7.286,31.7a1.544,1.544,0,0,1-1.266,1.919" transform="translate(-315.394 -73.246)" fill="#e07146"/>
          <path id="Trazado_1262723" data-name="Trazado 1262723" d="M159.06,392.3,156.9,381.671l24.457-1.941q1.6,5.1,2.766,10.265-12.592.856-25.058,2.31" transform="translate(-122.429 -293.363)" fill="#412524"/>
          <path id="Trazado_1262724" data-name="Trazado 1262724" d="M289.337,255.183q-10.816-40.869-21.637-81.738-4.262-16.093-8.52-32.2l-.467.043q-7.039.633-14.065,1.394-8.768.949-17.518,2.084c-.31.034-.616.077-.921.12q-11.843,1.538-23.65,3.426-3.415.546-6.822,1.14c-.305.053-.611.105-.916.153-4.309.748-8.613,1.514-12.931,2.2a108.089,108.089,0,0,1-18.864,1.591c2.541,10.9,15.823,74.076,18.4,95,1.268,10.283,2.661,20.576,5.271,30.572,2.458,9.4,5.762,18.688,5.919,28.578,7.849-1.385,15.7-2.765,23.589-3.853,5.008-.69,10.029-1.255,15.06-1.634.31-.024.625-.048.935-.067,1.907-.134,3.809-.24,5.72-.316,3.175-.125,13.565-1.586,24.955-3.393l.917-.144c14.37-2.29,30.064-5.079,34.743-6.392.153-.038.3-.082.444-.12q-4.825-18.221-9.645-36.446" transform="translate(-127.213 -109.124)" fill="#fff"/>
          <path id="Trazado_1262725" data-name="Trazado 1262725" d="M741.622,208.03Q737.54,194.014,733.454,180c-5.434-18.611-28.468-97.019-29.13-99.285a.219.219,0,0,0-.065-.177.236.236,0,0,0-.338-.024c-3.5,2.846-14.653,4.279-27.922,5.314l-.944.072c-10.126.776-21.391,1.332-31.4,2.113-.315.024-.629.053-.944.077-13.213,1.059-24.066,2.544-26.908,5.491-.125.129-.25.254-.37.383q9.261,33.372,18.513,66.74,11.336,40.869,22.682,81.738c.111.4.222.8.333,1.2a.185.185,0,0,0,.037-.014c.125-.072.255-.144.375-.216,3.864-2.209,15.4-4.432,28.977-6.426.306-.043.611-.091.921-.134,10-1.452,21.021-2.779,30.874-3.9.315-.034.625-.067.935-.105,15.694-1.768,28.185-2.981,28.375-3.263.916-1.361-4.471-16.881-5.836-21.553" transform="translate(-480.238 -62.158)" fill="#fff"/>
          <path id="Trazado_1262726" data-name="Trazado 1262726" d="M604.717,166.274c.523.739,1.728.022,1.2-.726-4.905-6.934-14.667-3.3-15.829,4.7-.131.905,1.206,1.3,1.339.382.955-6.577,9-10.415,13.291-4.356" transform="translate(-460.451 -125.06)" fill="#412524"/>
          <path id="Trazado_1262727" data-name="Trazado 1262727" d="M621.044,224.562c.523.739,1.728.023,1.2-.726-4.905-6.934-14.667-3.3-15.829,4.7-.131.9,1.206,1.3,1.339.382.955-6.577,9-10.415,13.291-4.356" transform="translate(-473.191 -170.091)" fill="#412524"/>
          <path id="Trazado_1262728" data-name="Trazado 1262728" d="M644.539,297.574c-4.905-6.934-14.666-3.3-15.829,4.7-.132.9,1.206,1.3,1.339.382.956-6.577,9-10.415,13.291-4.356.522.739,1.728.022,1.2-.725" transform="translate(-490.59 -227.057)" fill="#412524"/>
          <path id="Trazado_1262729" data-name="Trazado 1262729" d="M699.522,539.175c.523.739,1.728.022,1.2-.726-4.905-6.934-14.667-3.3-15.829,4.7-.131.9,1.206,1.3,1.339.382.955-6.577,9-10.415,13.291-4.356" transform="translate(-534.429 -413.147)" fill="#412524"/>
          <path id="Trazado_1262730" data-name="Trazado 1262730" d="M715.849,597.462c.523.739,1.728.023,1.2-.726-4.905-6.934-14.667-3.3-15.829,4.7-.131.905,1.206,1.3,1.339.382.955-6.577,9-10.415,13.291-4.356" transform="translate(-547.169 -458.177)" fill="#412524"/>
          <path id="Trazado_1262731" data-name="Trazado 1262731" d="M739.345,670.474c-4.905-6.934-14.667-3.3-15.829,4.7-.132.905,1.206,1.3,1.339.382.956-6.577,9-10.415,13.291-4.356.523.739,1.728.022,1.2-.726" transform="translate(-564.569 -515.143)" fill="#412524"/>
          <path id="Trazado_1262732" data-name="Trazado 1262732" d="M292.113,201.508q-40.883,4.159-81.344,11.721c-.585.109-.337,1.033.246.924q40.3-7.534,81.1-11.686c.587-.06.593-1.019,0-.958" transform="translate(-164.207 -155.675)" fill="#f0ad84"/>
          <path id="Trazado_1262733" data-name="Trazado 1262733" d="M332.142,361.624q-40.883,4.159-81.344,11.721c-.585.109-.337,1.033.246.924q40.3-7.534,81.1-11.686c.587-.06.593-1.019,0-.958" transform="translate(-195.442 -279.373)" fill="#f0ad84"/>
          <path id="Trazado_1262734" data-name="Trazado 1262734" d="M362.69,534.38q-40.883,4.159-81.344,11.721c-.585.109-.337,1.033.246.924q40.3-7.534,81.1-11.686c.587-.06.593-1.019,0-.958" transform="translate(-219.28 -412.837)" fill="#f0ad84"/>
          <path id="Trazado_1262735" data-name="Trazado 1262735" d="M405.879,713.456Q365,717.615,324.535,725.177c-.585.109-.337,1.033.246.924q40.3-7.534,81.1-11.686c.587-.06.593-1.019,0-.958" transform="translate(-252.981 -551.183)" fill="#f0ad84"/>
          <path id="Trazado_1262736" data-name="Trazado 1262736" d="M741.455,150.7c-27.034,1.514-48.892,3.686-75.623,7.48-.581.082-.335,1.018.244.936,26.651-3.783,48.427-5.948,75.379-7.457.583-.033.589-.991,0-.958" transform="translate(-519.304 -116.427)" fill="#f0ad84"/>
          <path id="Trazado_1262737" data-name="Trazado 1262737" d="M781.943,311.532c-27.034,1.514-49.675,3.93-76.407,7.724-.581.082-.335,1.018.244.935,26.651-3.783,49.21-6.191,76.163-7.7.583-.033.589-.991,0-.958" transform="translate(-550.287 -240.676)" fill="#f0ad84"/>
          <path id="Trazado_1262738" data-name="Trazado 1262738" d="M833.033,482.307q-8.448.489-16.87,1.136c-.352.029-.7.053-1.05.081q-30.247,2.336-60.231,6.594c-.579.081-.824-.853-.245-.939q29.942-4.248,60.175-6.589c.352-.029.7-.053,1.051-.081q5.838-.453,11.686-.824c1.726-.11,3.448-.22,5.179-.316l.287.877Z" transform="translate(-588.603 -371.884)" fill="#f0ad84"/>
          <path id="Trazado_1262739" data-name="Trazado 1262739" d="M888.436,661.383q-8.969.525-17.92,1.227-29.983,2.336-59.726,6.555c-.578.081-.828-.853-.245-.934q29.7-4.219,59.67-6.555c.255-.024.509-.043.759-.062l.268-.019q6.054-.467,12.117-.853c1.592-.11,3.179-.206,4.772-.3l0,.019.018.062Z" transform="translate(-632.227 -510.23)" fill="#f0ad84"/>
          <path id="Trazado_1262740" data-name="Trazado 1262740" d="M784.169,262.529c-.31.043-.616.091-.921.134q-5.241-17.854-10.469-35.713-16.585-56.6-33.17-113.181c.315-.024.629-.053.944-.077q1.042,3.558,2.087,7.121,20.764,70.856,41.528,141.716" transform="translate(-577.133 -87.834)" fill="#f0ad84"/>
          <path id="Trazado_1262741" data-name="Trazado 1262741" d="M930.859,251.1c-.31.038-.62.072-.935.105q-4.936-16.841-9.867-33.676-16.613-56.682-33.225-113.373l.944-.072q1.069,3.651,2.143,7.308,20.466,69.857,40.94,139.709" transform="translate(-692.015 -80.412)" fill="#f0ad84"/>
          <path id="Trazado_1262742" data-name="Trazado 1262742" d="M345.142,329.874c-.31.019-.625.043-.935.067q-4.388-18.357-8.775-36.705Q321.6,235.362,307.761,177.491c.306-.048.611-.1.917-.153q.993,4.14,1.981,8.285,17.244,72.121,34.484,144.252" transform="translate(-240.153 -137.004)" fill="#f0ad84"/>
          <path id="Trazado_1262743" data-name="Trazado 1262743" d="M488.228,310.1l-.917.144q-3.964-16.589-7.933-33.183-14.37-60.11-28.736-120.211c.306-.043.611-.086.921-.12q1.52,6.361,3.041,12.717,16.814,70.331,33.623,140.653" transform="translate(-351.647 -121.086)" fill="#f0ad84"/>
          <path id="Trazado_1262744" data-name="Trazado 1262744" d="M951.71,158.586,933.8,159.843l-2.075-6.4,17.907-1.258Z" transform="translate(-727.047 -117.571)" fill="#f0ad84"/>
          <path id="Trazado_1262745" data-name="Trazado 1262745" d="M228.785,245.5l-17.6,3.179-1.426-6.111,17.6-3.179Z" transform="translate(-163.676 -184.942)" fill="#f0ad84"/>
          <path id="Trazado_1262746" data-name="Trazado 1262746" d="M264.6,406.142,247,409.321l-1.426-6.111,17.6-3.179Z" transform="translate(-191.623 -309.047)" fill="#f0ad84"/>
          <path id="Trazado_1262747" data-name="Trazado 1262747" d="M296.728,578.9l-17.6,3.179-1.426-6.111,17.6-3.179Z" transform="translate(-216.694 -442.511)" fill="#f0ad84"/>
          <path id="Trazado_1262748" data-name="Trazado 1262748" d="M332.017,759.555l-17.6,3.179-1.426-6.111,17.6-3.179Z" transform="translate(-244.23 -582.078)" fill="#f0ad84"/>
          <path id="Trazado_1262749" data-name="Trazado 1262749" d="M998.805,317.779,980.9,319.037l-2.075-6.4,17.907-1.258Z" transform="translate(-763.797 -240.557)" fill="#f0ad84"/>
          <path id="Trazado_1262750" data-name="Trazado 1262750" d="M1049.592,487.243l-17.906,1.26-1.75-5.386-.028-.082-.273-.853-.028-.081,11.686-.824,6.22-.436.018.057.018.062.287.877.018.063Z" transform="translate(-803.426 -371.477)" fill="#f0ad84"/>
          <path id="Trazado_1262751" data-name="Trazado 1262751" d="M1103.315,666.677l-17.906,1.26-1.75-5.386-.023-.072,0-.01-.273-.853-.023-.072,0-.01.764-.053.268-.019,10.654-.752,1.463-.1,4.758-.336.014.038,0,.019.018.062.282.858,0,.019.018.062Z" transform="translate(-845.347 -510.1)" fill="#f0ad84"/>
          <path id="Trazado_1262752" data-name="Trazado 1262752" d="M572.288,59.731a41.081,41.081,0,0,0,6.958,13.917c6.695,8.742,15.918,14.862,23.307,22.9a74.205,74.205,0,0,1,11.81,17.288q.961-.169,1.925-.328A77.03,77.03,0,0,0,605.92,97.533c-7.736-9.172-18.065-15.653-25.364-25.24-4.247-5.579-6.376-11.918-7.865-18.779-1.365-6.287-2.624-12.543-5.6-18.272-4.827-9.3-14.437-21.045-25.883-18.56-5.854,1.271-10.843,5.808-13.376,11.334-2.635,5.748-2.977,12.16-2.176,18.378a13.2,13.2,0,0,1,1.856-.078c-1.4-11.413,2.1-25.831,14.842-27.913,6.187-1.011,11.508,2.864,15.6,7.238a45.271,45.271,0,0,1,9.786,15.753c2.093,5.949,2.822,12.278,4.541,18.337" transform="translate(-409.886 -12.628)" fill="#e07146"/>
          <path id="Trazado_1262753" data-name="Trazado 1262753" d="M371.847,558.114c-2.117-5.056-5.713-9.149-7.8-14.217-.929-2.258-1.766-4.557-2.531-6.883l-2.7-11.344a1.821,1.821,0,0,0-1.982-1.381l-32.772,4.952a1.54,1.54,0,0,0-1.253,1.928l2.673,11.251a31.361,31.361,0,0,0,1.265,4.067c1.176,3.038,2.48,6.015,3.852,8.889a33.483,33.483,0,0,0,5.682,8.429s31.778-4.514,35.16-4.97a.489.489,0,0,0,.4-.721" transform="translate(-251.863 -405.029)" fill="#aaca79"/>
          <path id="Trazado_1262754" data-name="Trazado 1262754" d="M494.678,426.817c-10.771-5.989-14.057-19.74-17.993-30.741a.487.487,0,0,0-.127-.192,1.776,1.776,0,0,0-1.728-.815l-32.778,4.953a1.544,1.544,0,0,0-1.251,1.934l1.69,7.114c.5,1.061.951,2.137,1.352,3.258a102.459,102.459,0,0,0,4.15,11.078,22.31,22.31,0,0,0,8.332,9.327c.75.436,1.553.809,2.355,1.186,0,0,27.979-4.365,29.411-4.582,1.93-.292,5.5-.039,6.754-1.865a.492.492,0,0,0-.166-.655" transform="translate(-343.929 -305.199)" fill="#fcb865"/>
          <path id="Trazado_1262755" data-name="Trazado 1262755" d="M361.867,595.944l-2.943.415-.64-2.752,2.942-.415Z" transform="translate(-279.577 -458.274)" fill="#412524"/>
          <path id="Trazado_1262756" data-name="Trazado 1262756" d="M492.137,465.938l-2.942.415-.641-2.752,2.942-.416Z" transform="translate(-381.229 -357.837)" fill="#412524"/>
          <path id="Trazado_1262757" data-name="Trazado 1262757" d="M501.265,494.994l-2.943.415-.641-2.752,2.943-.415Z" transform="translate(-388.352 -380.285)" fill="#412524"/>
          <path id="Trazado_1262758" data-name="Trazado 1262758" d="M370.733,624.824l-2.942.415-.641-2.752,2.942-.415Z" transform="translate(-286.496 -480.586)" fill="#412524"/>
          <path id="Trazado_1262759" data-name="Trazado 1262759" d="M534.53,453.246q-4.716,1.067-9.474,1.9c-.586.1-.338,1.027.246.924q4.759-.838,9.474-1.9c.582-.132.336-1.056-.246-.924" transform="translate(-409.452 -350.148)" fill="#5657b3"/>
          <path id="Trazado_1262760" data-name="Trazado 1262760" d="M545.055,484.959q-4.726.979-9.484,1.776c-.587.1-.338,1.022.246.924q4.758-.8,9.484-1.776c.584-.121.337-1.045-.246-.924" transform="translate(-417.657 -374.65)" fill="#5657b3"/>
          <path id="Trazado_1262761" data-name="Trazado 1262761" d="M406.34,581.416l-15.416,2.547c-.587.1-.338,1.021.246.924l15.416-2.547c.587-.1.338-1.021-.246-.924" transform="translate(-304.785 -449.171)" fill="#5657b3"/>
          <path id="Trazado_1262762" data-name="Trazado 1262762" d="M412.7,612.3q-5.3.991-10.579,2.1c-.583.122-.337,1.046.246.924q5.279-1.106,10.579-2.1c.585-.11.337-1.033-.246-.924" transform="translate(-313.525 -473.03)" fill="#5657b3"/>
          <path id="Trazado_1262763" data-name="Trazado 1262763" d="M319.847,352.084l-32.778,4.808a1.791,1.791,0,0,1-1.961-1.381l-7.287-31.7a1.544,1.544,0,0,1,1.266-1.919l32.778-4.808a1.791,1.791,0,0,1,1.962,1.381l7.286,31.7a1.545,1.545,0,0,1-1.266,1.919" transform="translate(-216.755 -244.953)" fill="#e5efd6"/>
          <path id="Trazado_1262764" data-name="Trazado 1262764" d="M315.869,376.312l-2.943.415-.64-2.752,2.942-.415Z" transform="translate(-243.684 -288.597)" fill="#412524"/>
          <path id="Trazado_1262765" data-name="Trazado 1262765" d="M323.242,405.807l-2.943.415-.641-2.752,2.943-.415Z" transform="translate(-249.437 -311.383)" fill="#412524"/>
          <path id="Trazado_1262766" data-name="Trazado 1262766" d="M329.827,435.038l-2.943.415-.64-2.752,2.942-.415Z" transform="translate(-254.575 -333.966)" fill="#412524"/>
          <path id="Trazado_1262767" data-name="Trazado 1262767" d="M361.785,366.024q-6.5.732-12.907,2.039c-.584.119-.337,1.043.246.924q6.29-1.286,12.661-2.005c.586-.066.592-1.025,0-.958" transform="translate(-271.977 -282.772)" fill="#5657b3"/>
          <path id="Trazado_1262768" data-name="Trazado 1262768" d="M366.546,396.965l-11.8,1.913c-.587.1-.337,1.018.246.924l11.8-1.913c.587-.1.338-1.019-.246-.924" transform="translate(-276.553 -306.673)" fill="#5657b3"/>
          <path id="Trazado_1262769" data-name="Trazado 1262769" d="M376.437,424.554l-12.737,1.6c-.584.073-.591,1.033,0,.958l12.737-1.6c.584-.073.591-1.033,0-.958" transform="translate(-283.459 -327.989)" fill="#5657b3"/>
          <path id="Trazado_1262770" data-name="Trazado 1262770" d="M375.01,243.882a19.644,19.644,0,0,0-4.939.7c-2.411.688-4.267,2.082-6.882,1.61-3.153-.569-5.671.439-8.481,1.885-.533.275-.065,1.1.467.827a14.49,14.49,0,0,1,5.538-2c1.652-.1,3.21.695,4.859.383a31.286,31.286,0,0,0,3.966-1.537,18.378,18.378,0,0,1,5.47-.911c.595-.015.6-.973,0-.958" transform="translate(-276.603 -188.413)" fill="#412524"/>
          <path id="Trazado_1262771" data-name="Trazado 1262771" d="M372.993,277.372a10.261,10.261,0,0,1-4.314,1.48c-.891.034-1.772-.195-2.665-.18a14.654,14.654,0,0,0-5.035,1.293c-.552.215-.313,1.142.246.924a16.631,16.631,0,0,1,7.073-1.1,10.623,10.623,0,0,0,5.161-1.592c.533-.276.064-1.1-.467-.827" transform="translate(-281.436 -214.243)" fill="#412524"/>
          <path id="Trazado_1262772" data-name="Trazado 1262772" d="M921.071,528.12a51.056,51.056,0,0,1-11.085,1.287,9.265,9.265,0,0,0-6.756,2.213c-.455.4.2,1.074.654.678,2.815-2.472,6.051-1.739,9.431-1.959a57.066,57.066,0,0,0,8-1.295c.584-.123.336-1.047-.246-.924" transform="translate(-704.691 -407.994)" fill="#412524"/>
          <path id="Trazado_1262773" data-name="Trazado 1262773" d="M933.637,562.04c-3.258-.513-6.168,1.523-9.445,1.234-3.065-.27-5.535-.235-8.235,1.516-.5.325-.088,1.183.418.855a9.394,9.394,0,0,1,4.866-1.634c1.465-.053,2.894.346,4.357.294,2.761-.1,5.172-1.75,7.984-1.308.589.093.64-.865.055-.957" transform="translate(-714.564 -434.143)" fill="#412524"/>
          <path id="Trazado_1262774" data-name="Trazado 1262774" d="M992.082,608.033a4.624,4.624,0,0,0-7.6-1.862,4.3,4.3,0,0,0-1.129,3.39,4.19,4.19,0,0,0,3.23,4.01c3.091.707,6.628-2.1,5.5-5.538" transform="translate(-767.316 -467.283)" fill="#e07146"/>
          <path id="Trazado_1262775" data-name="Trazado 1262775" d="M531.751,237.24a4.624,4.624,0,0,0-7.6-1.862,4.3,4.3,0,0,0-1.129,3.39,4.19,4.19,0,0,0,3.23,4.01c3.092.707,6.628-2.1,5.5-5.538" transform="translate(-408.11 -180.825)" fill="#e07146"/>
          <path id="Trazado_1262776" data-name="Trazado 1262776" d="M548.6,299.389a4.624,4.624,0,0,0-7.6-1.862,4.3,4.3,0,0,0-1.129,3.39,4.19,4.19,0,0,0,3.23,4.01c3.091.707,6.628-2.1,5.5-5.538" transform="translate(-421.261 -228.839)" fill="#e07146"/>
          <path id="Trazado_1262777" data-name="Trazado 1262777" d="M585.913,921.588c-4.683-8.376-11.542-15.08-17.031-22.844q-.023-.033-.044-.067l-2.25-3.707a.96.96,0,0,0-1.282-.359l-32.1,17.36a1.032,1.032,0,0,0-.376,1.438l6.843,11.274a1.059,1.059,0,0,0,.086.122c3.956,4.84,8.467,9.305,12.12,14.378a.956.956,0,0,0,1.233.3c4.852-2.6,31.961-17.117,32.745-17.561a.25.25,0,0,0,.058-.334" transform="translate(-415.66 -691.047)" fill="#3a4852"/>
          <path id="Trazado_1262778" data-name="Trazado 1262778" d="M752.736,959.615a4.4,4.4,0,0,0-3.693,2.7l-.047-.053a1.962,1.962,0,0,0-1.346-1.517,1.327,1.327,0,0,0-1.132.252,2.656,2.656,0,0,0-.573.064,2.752,2.752,0,0,0-2.756,1.313,2.533,2.533,0,0,0-1.123,1.162q-.1.2-.195.419a6.22,6.22,0,0,0-.99-2.331,3.856,3.856,0,0,0-4.086-1.469,2.9,2.9,0,0,0-.587-.08c-.034,0-.065.005-.1.005a1.781,1.781,0,0,0-2.029.6,1.725,1.725,0,0,0-1.316.151,1.324,1.324,0,0,0-2.445.074c-1.715,4.355-1.761,16.275,5.426,15.077a6.464,6.464,0,0,0,4.031-2.826c.753,2.61,2.308,4.676,5.192,3.7a6.7,6.7,0,0,0,3.806-3.623,5.784,5.784,0,0,0,.6.462c3.888,2.571,7.078-1.78,7.658-5.382.531-3.3.319-9.075-4.3-8.7" transform="translate(-569.141 -741.343)" fill="#ff9a6b"/>
          <path id="Trazado_1262779" data-name="Trazado 1262779" d="M816.651,900.007c-2.452,3.4-1.192,3-11.786,15.6-6.025,7.229-11.817,15.808-20,19.292-11.5-20.461-30.86-72.574-34.983-75.252-3.578.3-19.054-5.99-23.835-16.052-2.592-5.448-15.564-24.9-18.152-30.341-2.786-.68-5.628-1.193-8.4-1.9a94.512,94.512,0,0,1-13.037-4.361c-.565.781-1.152,1.543-1.773,2.276-2.772,3.249-6.354,6.11-10.594,6.766-1.624.254-3.67.417-4.739-1.131-1.046-1.514-.773-3.589-.134-5.2.921-2.329,2.67-4.246,4.091-6.253q2.242-3.177,4.184-6.574,1.493-2.624,2.786-5.357l.255-.757c.833-2.473,1.574-5.012,2.587-7.413,1.856-4.389,5.364-6.675,9.608-8.189a95.215,95.215,0,0,1,28.324-5.266c4.193-.158,8.928-.479,12.459,2.31,3.217,2.54,5.086,6.637,7.062,10.178q13.836,24.862,25.376,50.989c.5.455,56.1,58.762,56.1,58.762" transform="translate(-521.768 -594.708)" fill="#ff9a6b"/>
          <path id="Trazado_1262780" data-name="Trazado 1262780" d="M745.98,738.76a.594.594,0,0,1,.026.056,3.02,3.02,0,0,1-1.266,4.068c-.5.254-3,1.577-6.321,3.329l-1.181.624c-4.509,2.388-10.155,5.384-14.385,7.632-1.8.958-3.345,1.776-4.431,2.362-24.728,13.241-59.262,31.888-76.7,41.356-1.509.822-9.3,3.412-9.94,1.778-.013-.024-.1-.32-.1-.341-.568-1.434,6-6.1,7.321-6.821,18.275-9.94,53.045-28.616,77.261-41.558,1.053-.561,2.513-1.338,4.205-2.243,4.438-2.363,10.477-5.574,15.06-8l.5-.266c3.348-1.78,5.818-3.089,6.132-3.245a2.835,2.835,0,0,1,3.817,1.274" transform="translate(-492.887 -569.512)" fill="#412524"/>
          <path id="Trazado_1262781" data-name="Trazado 1262781" d="M776.515,937.949c-.8-.306-1.592-.626-2.38-.955l.015-.1c.047-.323-.431-.462-.478-.136l-.005.038c-10.417-4.414-19.964-10.7-29.98-15.978-2.658-1.4-5.353-2.732-8.1-3.927a23.586,23.586,0,0,0-8.252-2.273c-3.232-.144-6.428.818-9.544,1.574l-9.533,2.313c-3.686.894-11.179,1.713-10.311,7.408.832,5.459,7.451,6.535,11.744,7.066,6.357.787,12.865.367,19.086,2.157a46.741,46.741,0,0,1,13.528,6.841c9.248,6.416,17.466,14.754,28.121,18.7a.248.248,0,0,0,.3-.179l3.332-22.982q1.154.48,2.324.93c.3.115.429-.381.132-.495" transform="translate(-544.567 -706.58)" fill="#ff9a6b"/>
          <path id="Trazado_1262782" data-name="Trazado 1262782" d="M723.272,943.831c-.306-3.612-4.543-4.1-7.011-2.383a3.442,3.442,0,0,0-1.247,4.208,3.042,3.042,0,0,0,1.626,2.019c2.768,1.391,6.932-.313,6.633-3.844" transform="translate(-557.724 -726.583)" fill="#b55224"/>
          <path id="Trazado_1262783" data-name="Trazado 1262783" d="M734.36,829.956a54.7,54.7,0,0,1-9.939,4.414,52.712,52.712,0,0,1-5.1,1.384,16.512,16.512,0,0,0-4.122,1.031c-2.116,1.095-2.636,3.83-3.586,5.877-1.433,3.089-3.093,7.323-6.17,8.959a.413.413,0,0,0-.19.209c-3.4.909-6.462,2.63-8.094,6.209-.253.555.545,1.041.8.484,2.5-5.481,8.563-6.277,13.764-6.737.589-.052.594-1.011,0-.958-1.4.123-2.854.275-4.289.527a17.951,17.951,0,0,0,3.291-4.836q1.288-2.4,2.375-4.9c.861-1.99,1.224-3.642,3.578-4.346,3.026-.906,6.138-1.308,9.147-2.364a56.284,56.284,0,0,0,9-4.121.476.476,0,0,0-.467-.827" transform="translate(-543.971 -641.139)" fill="#b55224"/>
          <path id="Trazado_1262784" data-name="Trazado 1262784" d="M761.479,992.936a23.626,23.626,0,0,0-11.5-2.555,93.7,93.7,0,0,1-14.319-.186c-.591-.071-.586.888,0,.958a80.709,80.709,0,0,0,12.526.251,31.516,31.516,0,0,1,6.634.077,25.469,25.469,0,0,1,6.192,2.282c.539.252,1.01-.574.467-.827" transform="translate(-573.707 -764.979)" fill="#b55224"/>
          <path id="Trazado_1262785" data-name="Trazado 1262785" d="M885.728,924.282c-5.669-1.948-11.123-4.516-16.82-6.379a64.761,64.761,0,0,0-17.424-2.81c-.6-.027-.594.931,0,.958a64.071,64.071,0,0,1,17.968,3.04c5.413,1.84,10.622,4.258,16.029,6.115.567.195.81-.73.246-.924" transform="translate(-664.084 -706.96)" fill="#b55224"/>
          <path id="Trazado_1262786" data-name="Trazado 1262786" d="M606.154,949.593a9.426,9.426,0,0,1-1.109,1.885,2.077,2.077,0,0,1-2.131,1.138l-.463-.235a3.062,3.062,0,0,0-1.086.036c-1.842.646-2.222,3.271-3.449,4.488-1.315,1.305-2.62-.492-4.117.3-1.408.741-2.049,2.753-2.307,4.221-.107.6.785.862.893.255.328-1.862,1.275-3.361,3.426-3.127.493.054.592.6,1.24.557,1.2-.083,1.707-1.864,2.2-2.714.72-1.238,1.612-2.906,3.2-2.95.6-.017.682.469,1.43.3,1.471-.337,2.469-2.433,3.076-3.664.27-.548-.528-1.034-.8-.484" transform="translate(-461.547 -733.427)" fill="#412524"/>
          <path id="Trazado_1262787" data-name="Trazado 1262787" d="M355.71,1016.6c-.741,5.688-10.094,39.23-9.7,44.731.315,4.351,2.837,15.549,6.28,27.773a110.738,110.738,0,0,1-32.457.858h0c-2.578-8.2-4.2-13.685-5.211-15.535-3.1-5.64-13.311-14.831-17.355-22.042-5.559-9.9-13.556-38.363-17.8-55.728a108.821,108.821,0,0,1-2.166-12.665c-.625-7.528-.546-9.08.935-16.464.375-1.869,2.12-8.846,3.055-10.12a2.609,2.609,0,0,1,2.98-1.131c1.213.513,1.634,2.223,1.962,3.436,1.009,3.752.537,7.7.514,11.562a55.208,55.208,0,0,0,.1,6.373,71.9,71.9,0,0,0,5.123,21.97,3.126,3.126,0,0,0,1.157-1.337,9.067,9.067,0,0,0,.467-4.035,80.986,80.986,0,0,0-.764-8.4c-.685-5.209-1.537-10.417-1.435-15.7.176-8.826.731-10.9,4.026-18.889,1.712-4.159,3.642-8.213,5.614-12.233,1.643-3.345,3.263-6.871,5.794-9.545,1.49-1.577,5.586-3.944,6.938-.633a6.345,6.345,0,0,1,.241,4.169,34.668,34.668,0,0,1,3.568-4.212c1.051-1.021,2.448-1.706,3.781-.867a5.562,5.562,0,0,1,2.064,3.6,15.066,15.066,0,0,1-.935,7.614c-.949,2.655-1.366,5.027-2.175,7.7-1.375,4.538-3.027,8.884-3.828,13.608-1.726,10.135.083,20.4,1.768,30.414.148.877,1.361,6.867,3.161,6.5,2.226-1.063,3.517-9.6,3.79-10.973.727-3.685,1.236-7.394,1.68-11.122a85.357,85.357,0,0,1,4.2-18.3q2.944-8.438,5.919-16.862c.861-2.458,2.018-7.935,5.739-6.3s3.041,8.045,2.809,11.332a77.255,77.255,0,0,1-3.064,15.511c-1.472,5.237-2.3,12.765-3.4,18.108a75.669,75.669,0,0,0-1.041,19.047c.319,4.341.778,8.088,1.069,11.692.3,1.332.565,2.554.787,3.623,2.37.7,1.787-23.121,2.342-33.159.5-9.066,2.245-11.352,3.874-12.8a3.7,3.7,0,0,1,5.031.484c1.254,1.826,1.87,9.325,2.1,11.481.611,5.765,3.216,31.659,2.458,37.477" transform="translate(-216.095 -716.291)" fill="#ff9a6b"/>
          <path id="Trazado_1262788" data-name="Trazado 1262788" d="M559.258,963.835c-1.731.123-2.464,2.19-2.76,4.136-.445,1.826-.521,3.938,1,4.834,2.14,1.259,3.554-2.081,3.88-3.749.331-1.7.475-5.4-2.12-5.221" transform="translate(-434.029 -744.611)" fill="#b55224"/>
          <path id="Trazado_1262789" data-name="Trazado 1262789" d="M456.791,935.848c-1.437-.531-2.481.354-3.23,1.569a.4.4,0,0,0-.067.055c-1.076,1.344-2.932,4.776-1.235,6.331,1.79,1.639,4.312-1.044,5.115-2.569.795-1.509,1.513-4.612-.583-5.386" transform="translate(-352.373 -722.873)" fill="#b55224"/>
          <path id="Trazado_1262790" data-name="Trazado 1262790" d="M415.16,936.472a2.446,2.446,0,0,0-2.9-2.274,3.5,3.5,0,0,0-2.546,2.511c-.7,1.269-1.284,3.062-.526,4.28.841,1.352,2.583,1.075,3.648.208a6.238,6.238,0,0,0,2.322-4.724" transform="translate(-319.021 -721.689)" fill="#b55224"/>
          <path id="Trazado_1262791" data-name="Trazado 1262791" d="M293.358,1064.692c-1.074.836-1.8,3.384-1.469,5.015.039,1.088.442,2.012,1.629,2.009,2.08,0,2.7-3.154,2.66-4.771-.038-1.447-1.234-3.488-2.82-2.253" transform="translate(-227.704 -822.24)" fill="#b55224"/>
          <path id="Trazado_1262792" data-name="Trazado 1262792" d="M593.191,1108.23c-1.639-.044-2.2,1.185-2.377,2.576-.595,1.821-.523,4.37,1.221,5.307,2.2,1.183,3.77-1.017,4.016-3.048.243-2-.5-4.772-2.86-4.835" transform="translate(-460.763 -856.169)" fill="#b55224"/>
          <path id="Trazado_1262793" data-name="Trazado 1262793" d="M405.28,956.72c.248-.556-.55-1.044-.8-.484-4.72,10.585-8.726,21.061-9.6,32.8-.891,11.951.638,23.918,2.164,35.743.078.6,1,.61.926,0-1.452-11.245-2.9-22.6-2.279-33.969.67-12.257,4.669-23.06,9.589-34.092" transform="translate(-307.928 -738.554)" fill="#b55224"/>
          <path id="Trazado_1262794" data-name="Trazado 1262794" d="M628.2,1009.165l-1.607.763c-.541.257-.071,1.083.467.828l1.607-.764c.541-.257.071-1.083-.467-.827" transform="translate(-488.759 -779.599)" fill="#412524"/>
          <path id="Trazado_1262795" data-name="Trazado 1262795" d="M1286.265,907.449a.883.883,0,0,1-.007.305v0a.429.429,0,0,0-.011.085c-.037.251-.1.592-.174.97-.213,1.05-.521,2.343-.561,2.509a1.34,1.34,0,0,1-1.109,1l-31.972,5.538a1.931,1.931,0,0,1-2.081-1.266l-10.408-30.174c-.165-.467.061-.853.124-1.279.156-1.032.542-2.994.542-2.994l.115-.009.917-.09,31.335-3.043a1.94,1.94,0,0,1,2.082,1.27Z" transform="translate(-967.509 -679.065)" fill="#445130"/>
          <path id="Trazado_1262796" data-name="Trazado 1262796" d="M1288.812,895.558v0a.338.338,0,0,1-.028.09,1.347,1.347,0,0,1-1.075.884l-31.972,5.538a1.806,1.806,0,0,1-.214.027,1.959,1.959,0,0,1-1.868-1.293l-10.408-30.173a1.647,1.647,0,0,1-.085-.682,1.068,1.068,0,0,1,.043-.215,1.307,1.307,0,0,1,.718-.853,1.486,1.486,0,0,1,.384-.126l31.972-5.538a1.94,1.94,0,0,1,2.082,1.27l10.408,30.174a1.481,1.481,0,0,1,.042.893" transform="translate(-970.062 -666.868)" fill="#445130"/>
          <path id="Trazado_1262797" data-name="Trazado 1262797" d="M1288.959,914.971,1256.44,920.6a1.46,1.46,0,0,1-1.558-.947l-10.513-30.483-.206-.592a.981.981,0,0,1-.064-.377,1.307,1.307,0,0,0-.719.853l.072.207L1254,919.827a2.59,2.59,0,0,0,1.7,1.593,2.422,2.422,0,0,0,.667.1,1.955,1.955,0,0,0,.361-.031l32.077-5.552c.075-.377.136-.718.174-.97Z" transform="translate(-970.237 -686.187)" fill="#5657b3"/>
          <path id="Trazado_1262798" data-name="Trazado 1262798" d="M1303.236,896.758q-12.116,2.026-24.123,4.38c-.568.111-.195.977.372.865q12.006-2.354,24.123-4.38c.572-.1.2-.961-.372-.865" transform="translate(-997.9 -692.79)" fill="#5657b3"/>
          <path id="Trazado_1262799" data-name="Trazado 1262799" d="M45.021,758.1l-9.737,27.75-.366,1.039-1.075,3.066A1.935,1.935,0,0,1,31.7,791.27L1.026,783.943a1.43,1.43,0,0,1-.917-1.976l1.12-3.2.375-1.064,9.682-27.595a1.928,1.928,0,0,1,2.136-1.319L44.1,756.119a1.44,1.44,0,0,1,.917,1.981" transform="translate(0 -578.454)" fill="#445130"/>
          <path id="Trazado_1262800" data-name="Trazado 1262800" d="M38.386,771.224,7.707,763.9a1.437,1.437,0,0,1-.919-1.978l11.179-31.856a1.929,1.929,0,0,1,2.137-1.316l30.679,7.326a1.437,1.437,0,0,1,.919,1.978L40.523,769.908a1.929,1.929,0,0,1-2.137,1.316" transform="translate(-5.214 -562.968)" fill="#445130"/>
          <path id="Trazado_1262801" data-name="Trazado 1262801" d="M39.067,884.207,6.552,876.441a.947.947,0,0,1-.583-.39l-.375,1.064a1.763,1.763,0,0,0,.65.3l32.52,7.765a1.865,1.865,0,0,0,.519.048l.366-1.039a1.253,1.253,0,0,1-.583.013" transform="translate(-4.365 -676.799)" fill="#412524"/>
          <path id="Trazado_1262802" data-name="Trazado 1262802" d="M92.841,771.1,67.4,764.451c-.546-.143-.779.814-.237.955L92.6,772.052c.546.143.779-.814.237-.955" transform="translate(-52.168 -590.57)" fill="#412524"/>
        </g>
      </g>
    </g>
  </g>
</svg>
