<svg xmlns="http://www.w3.org/2000/svg" xmlns:xlink="http://www.w3.org/1999/xlink" width="1228" height="227" viewBox="0 0 1228 227">
  <defs>
    <clipPath id="clip-path">
      <rect id="Rectángulo_455937" data-name="Rectángulo 455937" width="1228" height="227" transform="translate(185.746 2774)" fill="#0a4666"/>
    </clipPath>
    <clipPath id="clip-path-2">
      <rect id="Rectángulo_461827" data-name="Rectángulo 461827" width="195.129" height="480.734" fill="none"/>
    </clipPath>
    <clipPath id="clip-path-4">
      <rect id="Rectángulo_461825" data-name="Rectángulo 461825" width="174.731" height="31.67" fill="none"/>
    </clipPath>
    <clipPath id="clip-path-5">
      <rect id="Rectángulo_461834" data-name="Rectángulo 461834" width="246.971" height="451.629" fill="none"/>
    </clipPath>
    <clipPath id="clip-path-7">
      <rect id="Rectángulo_461828" data-name="Rectángulo 461828" width="169.456" height="29.729" transform="translate(0 421.9)" fill="none"/>
    </clipPath>
    <clipPath id="clip-path-8">
      <rect id="Rectángulo_461829" data-name="Rectángulo 461829" width="15.929" height="36.229" transform="translate(106.113 391.404)" fill="none"/>
    </clipPath>
    <clipPath id="clip-path-9">
      <rect id="Rectángulo_461830" data-name="Rectángulo 461830" width="16.902" height="36.723" transform="translate(44.553 389.6)" fill="none"/>
    </clipPath>
    <clipPath id="clip-path-10">
      <rect id="Rectángulo_461849" data-name="Rectángulo 461849" width="335" height="239.069" fill="none"/>
    </clipPath>
    <clipPath id="clip-path-12">
      <rect id="Rectángulo_461835" data-name="Rectángulo 461835" width="335" height="21.383" fill="none"/>
    </clipPath>
    <clipPath id="clip-path-13">
      <rect id="Rectángulo_461839" data-name="Rectángulo 461839" width="76.338" height="8.127" fill="none"/>
    </clipPath>
  </defs>
  <g id="Grupo_1205212" data-name="Grupo 1205212" transform="translate(-186 -4380.178)">
    <g id="Grupo_1204401" data-name="Grupo 1204401" transform="translate(-174.498 -7636.322)">
      <g id="Enmascarar_grupo_1119164" data-name="Enmascarar grupo 1119164" transform="translate(174.752 9242.5)" clip-path="url(#clip-path)">
        <rect id="Rectángulo_461824" data-name="Rectángulo 461824" width="1257" height="250" transform="translate(167.439 2762.5)" fill="#0a4666"/>
        <g id="Grupo_1204436" data-name="Grupo 1204436" transform="translate(1105.872 2782.1)">
          <g id="Grupo_1204435" data-name="Grupo 1204435" clip-path="url(#clip-path-2)">
            <g id="Grupo_1204434" data-name="Grupo 1204434">
              <g id="Grupo_1204433" data-name="Grupo 1204433" clip-path="url(#clip-path-2)">
                <g id="Grupo_1204432" data-name="Grupo 1204432" transform="translate(20.398 449.064)" opacity="0.1">
                  <g id="Grupo_1204431" data-name="Grupo 1204431">
                    <g id="Grupo_1204430" data-name="Grupo 1204430" clip-path="url(#clip-path-4)">
                      <path id="Trazado_1262087" data-name="Trazado 1262087" d="M192.529,407.655c0,8.746-39.115,15.834-87.366,15.834S17.8,416.4,17.8,407.655s39.115-15.834,87.366-15.834,87.366,7.089,87.366,15.834" transform="translate(-17.798 -391.82)" fill="#001433"/>
                    </g>
                  </g>
                </g>
                <path id="Trazado_1262088" data-name="Trazado 1262088" d="M103.484,3.269S84.966-5.838,71.913,15.715s-14.875,53.731-2.125,59.5l-.911-4.857s2.429,8.5,19.731,10.018S103.484,3.269,103.484,3.269" transform="translate(8.929 0.198)" fill="#000a19"/>
                <path id="Trazado_1262089" data-name="Trazado 1262089" d="M112.283,55.734s-10.322,30.66-4.25,32.482-26.107-4.25-26.107-4.25l3.946-26.107Z" transform="translate(11.969 8.143)" fill="#ff927d"/>
                <path id="Trazado_1262090" data-name="Trazado 1262090" d="M98.62,12.052s-23.375-3.946-26.714,25.8C67.887,73.663,98.86,90.3,118.351,60.623c13.358-20.339,6.072-44.928-19.731-48.57" transform="translate(10.453 1.735)" fill="#ffb199"/>
                <path id="Trazado_1262091" data-name="Trazado 1262091" d="M74.7,31.063a3.674,3.674,0,0,1,.28-.693,6.287,6.287,0,0,1,1.152-1.617,6.372,6.372,0,0,1,1.033-.9,6.49,6.49,0,0,1,1.388-.735c.261-.1.533-.182.809-.267.283-.053.576-.094.872-.128a7.176,7.176,0,0,1,1.8.066,7.635,7.635,0,0,1,1.673.558,6.663,6.663,0,0,1,1.419.854,9.538,9.538,0,0,1,1.129.994c.311.356.585.706.831,1.028a4.755,4.755,0,0,1,.586.934c.159.284.279.548.379.759.195.426.284.68.284.68s-.248-.131-.644-.372-.907-.63-1.55-1.014c-.323-.189-.667-.392-1.01-.621s-.748-.378-1.121-.6a8.907,8.907,0,0,0-1.186-.513,9.045,9.045,0,0,0-1.224-.351c-.2-.045-.411-.044-.617-.071a2.416,2.416,0,0,0-.614-.034c-.2.014-.409.011-.613.014-.2.038-.4.073-.6.1a8.17,8.17,0,0,0-1.161.3,10.56,10.56,0,0,0-1.059.414,17.142,17.142,0,0,0-1.606.838c-.4.225-.627.376-.627.376" transform="translate(10.914 3.899)" fill="#000a19"/>
                <path id="Trazado_1262092" data-name="Trazado 1262092" d="M94.018,32.935a3.987,3.987,0,0,1,.359-.721,6.862,6.862,0,0,1,1.366-1.641,7.435,7.435,0,0,1,2.684-1.582l.863-.254c.3-.048.607-.093.919-.124a8.955,8.955,0,0,1,1.892.058,10.189,10.189,0,0,1,1.791.529q.418.184.814.391a3.781,3.781,0,0,1,.744.445,11.977,11.977,0,0,1,1.278.987c.362.355.682.713.971,1.041a5.024,5.024,0,0,1,.7.956c.194.3.344.567.469.786.248.44.363.7.363.7s-.273-.13-.7-.378c-.448-.229-1-.652-1.718-1.029-.359-.191-.739-.4-1.117-.637-.4-.214-.841-.366-1.255-.6a11.583,11.583,0,0,0-1.34-.5c-.448-.179-.925-.214-1.383-.35a11.079,11.079,0,0,0-1.4-.1c-.232.013-.462.011-.693,0l-.677.1a12.215,12.215,0,0,0-1.3.287c-.4.146-.811.256-1.171.416a16.961,16.961,0,0,0-1.774.837c-.437.226-.687.383-.687.383" transform="translate(13.736 4.175)" fill="#000a19"/>
                <path id="Trazado_1262093" data-name="Trazado 1262093" d="M80.1,36.538c-.267,2.117-1.1,3.755-1.859,3.659s-1.159-1.89-.893-4.007,1.1-3.755,1.859-3.658,1.16,1.889.893,4.006" transform="translate(11.289 4.752)" fill="#000a19"/>
                <path id="Trazado_1262094" data-name="Trazado 1262094" d="M97.5,39.055c-.267,2.117-1.1,3.755-1.859,3.659s-1.159-1.89-.893-4.007,1.1-3.755,1.859-3.658,1.16,1.889.893,4.006" transform="translate(13.831 5.12)" fill="#000a19"/>
                <path id="Trazado_1262095" data-name="Trazado 1262095" d="M85.626,39.863a3.706,3.706,0,0,1,.185,2.192,4.563,4.563,0,0,1-1,2.105,5.4,5.4,0,0,1-1.886,1.434,6.575,6.575,0,0,1-1.088.4c-.367.1-.74.141-1.109.207l.7-1.829a17.465,17.465,0,0,1,1.266,2.136,11.949,11.949,0,0,1,.919,2.415A11.924,11.924,0,0,1,81.458,47.5a17.478,17.478,0,0,1-1.806-1.707l-1.2-1.293,1.9-.536.827-.234c.252-.111.535-.167.774-.287a5.7,5.7,0,0,0,.719-.347,1.691,1.691,0,0,0,.344-.2c.1-.078.233-.132.334-.218a6.415,6.415,0,0,0,.628-.521,7.943,7.943,0,0,0,.593-.635,9.71,9.71,0,0,0,1.054-1.661" transform="translate(11.461 5.824)" fill="#db6363"/>
                <path id="Trazado_1262096" data-name="Trazado 1262096" d="M81.54,52.583s.3.064.808.209c.251.076.56.162.9.284a7.3,7.3,0,0,0,1.148.336c.415.089.856.183,1.3.312a12.459,12.459,0,0,0,1.456.252,9.218,9.218,0,0,0,1.554.188c.532.014,1.067.055,1.6.092.535-.041,1.069-.083,1.6-.1a9.214,9.214,0,0,0,1.546-.2,10.727,10.727,0,0,0,1.457-.275c.452-.14.9-.248,1.312-.345a7.316,7.316,0,0,0,1.113-.356c.327-.127.628-.219.876-.3.5-.158.807-.236.807-.236s-.189.232-.556.617c-.185.189-.409.426-.687.677a4.5,4.5,0,0,1-.981.783c-.389.246-.818.511-1.291.764a6.493,6.493,0,0,1-1.561.628,7.766,7.766,0,0,1-1.757.449c-.615.078-1.246.131-1.875.183-.629-.049-1.258-.1-1.873-.179a7.939,7.939,0,0,1-1.756-.434,7.086,7.086,0,0,1-1.575-.609c-.486-.249-.925-.511-1.321-.751a4.462,4.462,0,0,1-.98-.743c-.274-.236-.5-.463-.69-.645-.376-.37-.58-.6-.58-.6" transform="translate(11.913 7.662)" fill="#db6363"/>
                <path id="Trazado_1262097" data-name="Trazado 1262097" d="M96.023,327.941s25.942,72.039,30.415,80.323c3.358,6.22,35.549,21.7,8.386-2.452,0,0-6.053-71.426-14.518-94.5s-24.284,16.631-24.284,16.631" transform="translate(14.029 44.428)" fill="#ffb199"/>
                <path id="Trazado_1262098" data-name="Trazado 1262098" d="M133.646,393.279c-2.155-21.545-7.089-64.931-13.338-81.969-8.465-23.077-24.283,16.631-24.283,16.631s17.564,48.774,26.279,70.669c3.794-1.748,7.569-3.539,11.343-5.332" transform="translate(14.029 44.428)" fill="#ff927d"/>
                <path id="Trazado_1262099" data-name="Trazado 1262099" d="M120.994,392.78l1.062,5.616s46.546,26.714,11.333-3.642c0,0,7.034,8.145-12.4-1.974" transform="translate(17.677 57.384)" fill="#001433"/>
                <path id="Trazado_1262100" data-name="Trazado 1262100" d="M79.7,306.88S79.3,407.664,76.462,410.5s-34.2,18.011-10.523-4.149c0,0-19.833-86.921-17.809-101.493S79.7,306.88,79.7,306.88" transform="translate(7.01 43.663)" fill="#ff927d"/>
                <path id="Trazado_1262101" data-name="Trazado 1262101" d="M77.108,391.588l-.3,5.465s-47.492,26.916-12.278-3.441c0,0-6.847,8.095,12.582-2.024" transform="translate(7.528 57.21)" fill="#001433"/>
                <path id="Trazado_1262102" data-name="Trazado 1262102" d="M74.883,136.167s-36.428,30.761-42.9,72.046S56.265,413.829,56.265,413.829s8.095,6.477,29.142,2.429l4.048-179.711s1.732,73.305,6.475,92.285c10.647,42.586,9.663,34.514,25.905,88.236,0,0,13.761,4.857,29.951-4.047,0,0-9.714-63.951-20.238-97.141,0,0,38.047-103.617-11.333-165.95s-45.333-13.761-45.333-13.761" transform="translate(4.541 17.261)" fill="#001433"/>
                <path id="Trazado_1262103" data-name="Trazado 1262103" d="M74.722,221.894c-12.212-4.332-23.469-10.407-32.585-19.743a133.494,133.494,0,0,1-9.05-10.41c-.427,1.884-.8,3.789-1.108,5.721C25.5,238.747,56.265,403.077,56.265,403.077s8.095,6.477,29.142,2.429l4.039-179.283c-4.986-1.235-9.918-2.623-14.724-4.329" transform="translate(4.541 28.013)" fill="#000a19"/>
                <path id="Trazado_1262104" data-name="Trazado 1262104" d="M55.139,153.2a50.413,50.413,0,0,0,16.734,6.9,130.043,130.043,0,0,0,31.71,2.227,141.154,141.154,0,0,0,20.279-2.105,103.156,103.156,0,0,0-7.161-10.292C67.322,87.6,71.369,136.167,71.369,136.167A142.3,142.3,0,0,0,55.139,153.2" transform="translate(8.056 17.261)" fill="#000a19"/>
                <path id="Trazado_1262105" data-name="Trazado 1262105" d="M3.331,73.621s-7.426-26.342-.1-20.888c0,0,0-6.857,2.935-2.588,0,0,2.833-7.286,4.453-1.619,0,0-3.643-40.07,4.857.809l8.5,40.88Z" transform="translate(0 4.522)" fill="#ffb199"/>
                <path id="Trazado_1262106" data-name="Trazado 1262106" d="M1.465,63.021c.829,3.7,1.653,6.624,1.653,6.624L23.76,86.24s0-.018-5.837-28.072C12.411,59.7,6.9,61.253,1.465,63.021" transform="translate(0.214 8.498)" fill="#ff927d"/>
                <path id="Trazado_1262107" data-name="Trazado 1262107" d="M92.262,77.921s-19.023-7.69-26.309-3.238-34,34-34,34L19.811,59.707.787,66.587s8.905,72.452,19.833,76.094S70,110.3,70,110.3Z" transform="translate(0.115 8.723)" fill="#ffa94d"/>
                <path id="Trazado_1262108" data-name="Trazado 1262108" d="M64.264,104.056c-3.031-6.365-6.465-12.921-9.271-19.667-10.286,10.188-23.04,24.293-23.04,24.293L19.811,59.707.787,66.587s8.9,72.452,19.833,76.094c9.514,3.171,39.876-23.71,47.58-30.725q-2.035-3.92-3.937-7.9" transform="translate(0.115 8.723)" fill="#ed863a"/>
                <path id="Trazado_1262109" data-name="Trazado 1262109" d="M83.082,75.924l.808-8.095L118.3,71.067l-2.43,9.31s17.809-.4,26.309,7.69-17.4,72.046-17.4,72.046-34.808,2.429-70.022-14.167c0,0-8.095-29.142-3.643-40.07S68.916,73.091,68.916,73.091Z" transform="translate(7.271 9.91)" fill="#ffa94d"/>
                <path id="Trazado_1262110" data-name="Trazado 1262110" d="M104.388,123.4a95.92,95.92,0,0,1-53.825-.967,175.013,175.013,0,0,0,4.07,19.683c35.214,16.6,70.023,14.166,70.023,14.166s17.018-42.03,18.929-62.25c-6.665,14.941-24.218,25.425-39.2,29.369" transform="translate(7.387 13.738)" fill="#ed863a"/>
                <path id="Trazado_1262111" data-name="Trazado 1262111" d="M136.745,145.171l-16.6,8.9s-8.095-7.69-11.333-7.285-23.071,4.451-.4,3.642c0,0-31.166,15.381,2.429,3.642,0,0-24.286,16.6,2.429,3.643,0,0,3.642,9.714,9.309,7.286s22.666-11.334,22.666-11.334Z" transform="translate(13.916 21.209)" fill="#ffb199"/>
                <path id="Trazado_1262112" data-name="Trazado 1262112" d="M107.76,78.879s20.642-4.857,33.594,9.31,40.071,44.927,35.618,56.261S128,176.829,128,176.829l-9.714-14.57,28.737-25.095S93.188,101.95,107.76,78.879" transform="translate(15.378 11.407)" fill="#ffa94d"/>
                <path id="Trazado_1262113" data-name="Trazado 1262113" d="M87.251,10.753S75.108,34.127,106.679,43.842c0,0-9.411-7.286-11.839-15.179,0,0,8.5,13.054,18.517,16.089,0,0-2.125,26.411-9.411,39.16,0,0,17,3.036,21.856-18.82,0,0,.3,8.2-3.339,13.357,0,0,16.089,0,15.785-39.16s-36.428-49.785-51-28.536" transform="translate(12.412 0)" fill="#001433"/>
              </g>
            </g>
          </g>
        </g>
        <g id="Grupo_1204449" data-name="Grupo 1204449" transform="translate(270.746 2782.1)">
          <g id="Grupo_1204448" data-name="Grupo 1204448" clip-path="url(#clip-path-5)">
            <g id="Grupo_1204447" data-name="Grupo 1204447">
              <g id="Grupo_1204446" data-name="Grupo 1204446" clip-path="url(#clip-path-5)">
                <g id="Grupo_1204439" data-name="Grupo 1204439" opacity="0.1">
                  <g id="Grupo_1204438" data-name="Grupo 1204438">
                    <g id="Grupo_1204437" data-name="Grupo 1204437" clip-path="url(#clip-path-7)">
                      <path id="Trazado_1262114" data-name="Trazado 1262114" d="M169.456,436.764c0,8.209-37.934,14.865-84.728,14.865S0,444.973,0,436.764,37.934,421.9,84.728,421.9s84.728,6.655,84.728,14.865" fill="#352c38"/>
                    </g>
                  </g>
                </g>
                <path id="Trazado_1262115" data-name="Trazado 1262115" d="M62.629,57.734s2.215,24.65,1.238,26.6-30.051,9.528-30.051,9.528,51.551,21.5,67.921,13.193,10.75-19.789,8.307-19.545-22.966-1.466-22.966-1.466l.488-13.682Z" fill="#dd938a"/>
                <path id="Trazado_1262116" data-name="Trazado 1262116" d="M63.859,65.456S49.367,38.762,67.623,21.149s35.285-2.977,36.776,10.01,7.53,51.814-15.493,50.372S63.859,65.456,63.859,65.456" fill="#ffac9d"/>
                <path id="Trazado_1262117" data-name="Trazado 1262117" d="M114.723,5l-2.778,4.677s-1-6.9-5.68-9.673c0,0,.9,7.648-7.031,6.415S76.356-5.178,64.715,9.762c-1.45,1.86-2.692,3.6-3.757,5.234-2.583-.78-6.517-.737-10.024,4.388C47.4,24.546,43.226,45.836,64.18,68.6L62.629,57.734s-2.852,1.3-5.131-3.162c-3.95-7.728-.2-11.192,2.9-9.55s2.985,9.054,2.985,9.054l4.182-.564-.5-13.494c5.842-3.453,4.03-12.394,4.03-12.394a168.741,168.741,0,0,0,30.488,1.01C123.4,27,114.723,5,114.723,5" fill="#001433"/>
                <path id="Trazado_1262118" data-name="Trazado 1262118" d="M63.509,63.159s-7.456-.64-8.114-10.947,5.887-10.437,7.276-4,.838,14.945.838,14.945" fill="#ffac9d"/>
                <path id="Trazado_1262119" data-name="Trazado 1262119" d="M93.068,43.619a43.265,43.265,0,0,1,1.522,4.194c.442,1.412.831,2.834,1.188,4.264a85.814,85.814,0,0,1,1.7,8.67l.143.99-.9-.021c-1.089-.025-2.179-.068-3.271-.145s-2.184-.176-3.281-.361c1.076-.285,2.155-.472,3.235-.659s2.161-.319,3.244-.444l-.752.97a86.087,86.087,0,0,1-1.921-8.623c-.247-1.453-.46-2.912-.622-4.383a43.179,43.179,0,0,1-.288-4.452" fill="#db6363"/>
                <path id="Trazado_1262120" data-name="Trazado 1262120" d="M78.119,62.188s.249.224.7.579,1.087.855,1.868,1.4c.393.273.822.555,1.283.838.445.306.969.536,1.464.84.523.251,1.061.518,1.62.741a11.415,11.415,0,0,0,1.724.59,10.117,10.117,0,0,0,1.767.416A14.884,14.884,0,0,0,90.3,67.8a4.648,4.648,0,0,0,.848.026l.821-.006a11.346,11.346,0,0,0,1.514-.115c.466-.073.923-.053,1.3-.158.381-.085.723-.142,1-.193.566-.1.9-.141.9-.141s-.273.182-.776.478c-.252.146-.559.328-.923.518a7.279,7.279,0,0,1-1.277.513,7.382,7.382,0,0,1-1.584.443,9.74,9.74,0,0,1-1.839.234,10.4,10.4,0,0,1-1.994-.072,11.612,11.612,0,0,1-2.025-.409,13.081,13.081,0,0,1-1.925-.731,14.491,14.491,0,0,1-1.727-.972,13.572,13.572,0,0,1-1.454-1.126A11.047,11.047,0,0,1,80,64.947,11.878,11.878,0,0,1,78.545,63a6.211,6.211,0,0,1-.426-.813" fill="#db6363"/>
                <path id="Trazado_1262121" data-name="Trazado 1262121" d="M61.831,59.907a5.57,5.57,0,0,1-1.363-.549,4.579,4.579,0,0,1-.637-.438,1.741,1.741,0,0,1-.3-.293,1.516,1.516,0,0,1-.266-.375,1.324,1.324,0,0,1-.185-.509,1.291,1.291,0,0,1,.031-.628,1.945,1.945,0,0,1,.286-.545,2.8,2.8,0,0,1,.375-.365,1.916,1.916,0,0,1,.386-.259c.127-.07.257-.153.388-.209l.758-.268-.673.746.04-1.345.024-1.353c.014-.9,0-1.791-.049-2.663-.029-.437-.088-.861-.146-1.279a5.806,5.806,0,0,0-.13-.606c-.059-.194-.11-.385-.184-.568a2.6,2.6,0,0,0-.278-.489,1.514,1.514,0,0,0-.4-.388,2.387,2.387,0,0,0-1.263-.322,2.609,2.609,0,0,1,.686-.295,1.927,1.927,0,0,1,.807-.033,2.355,2.355,0,0,1,.8.313,3.351,3.351,0,0,1,.632.572,4.219,4.219,0,0,1,.463.673,6.978,6.978,0,0,1,.331.716,7.541,7.541,0,0,1,.424,1.462,13.737,13.737,0,0,1,.261,2.928,17.2,17.2,0,0,1-.278,2.894l-.119.631-.554.115-.587.122c-.151.06-.367.094-.475.155-.046.029-.132.055-.163.078-.007.021-.069.032-.076.047.01.015-.058.009-.047.058a.207.207,0,0,0-.006.162.549.549,0,0,0,.071.234,1.393,1.393,0,0,0,.132.261,3.753,3.753,0,0,0,.362.541c.277.358.588.715.918,1.071" fill="#db6363"/>
                <path id="Trazado_1262122" data-name="Trazado 1262122" d="M93.756,41.665a2.955,2.955,0,0,1,.07-.663,6.186,6.186,0,0,1,.567-1.639,6.466,6.466,0,0,1,.652-.986,5.653,5.653,0,0,1,.969-.969,3.534,3.534,0,0,1,.627-.42,3.143,3.143,0,0,1,.71-.355c.258-.09.519-.188.788-.262.276-.051.563-.075.846-.106a2.852,2.852,0,0,1,.846.027c.281.031.556.087.828.137a7.844,7.844,0,0,1,1.413.638,11.678,11.678,0,0,1,1.076.851c.276.32.521.631.734.921a3.517,3.517,0,0,1,.478.851,7.068,7.068,0,0,1,.283.7,4.615,4.615,0,0,1,.188.627s-.247-.076-.62-.236c-.186-.081-.413-.172-.646-.3a6.083,6.083,0,0,0-.8-.357c-.288-.118-.585-.248-.882-.4-.312-.1-.63-.192-.935-.316-.311-.1-.623-.109-.919-.21a3.253,3.253,0,0,1-.443-.015,1.033,1.033,0,0,0-.436,0l-.435.026a3.774,3.774,0,0,1-.439.1,7.005,7.005,0,0,0-.9.295,8.846,8.846,0,0,0-.892.422c-.3.135-.565.324-.843.465-.252.169-.524.3-.742.45l-.6.374-.552.343" fill="#000a19"/>
                <path id="Trazado_1262123" data-name="Trazado 1262123" d="M88.869,41.665l-.76-.466-.844-.512c-.318-.2-.7-.388-1.08-.619-.406-.2-.807-.458-1.265-.655l-.679-.331c-.241-.088-.476-.193-.716-.293-.477-.209-.988-.336-1.482-.5a9.523,9.523,0,0,0-1.526-.271,6.6,6.6,0,0,0-.764-.074c-.253.021-.507.02-.76.024a11.73,11.73,0,0,0-1.5.191c-.492.091-.954.288-1.426.4a12.582,12.582,0,0,0-1.3.514,7.886,7.886,0,0,0-1.133.493c-.323.18-.631.318-.882.44-.506.239-.829.36-.829.36a8.74,8.74,0,0,1,.43-.786c.149-.244.329-.548.563-.876a5.281,5.281,0,0,1,.885-1.029,8.186,8.186,0,0,1,1.24-1.073,11.711,11.711,0,0,1,1.646-.915c.312-.116.637-.217.967-.322l.5-.156c.172-.034.35-.045.527-.067.354-.038.713-.082,1.075-.1a8.361,8.361,0,0,1,1.082.068,8.847,8.847,0,0,1,2.081.483,8.274,8.274,0,0,1,.937.422,5.023,5.023,0,0,1,.864.484c.267.181.532.353.779.536s.463.389.677.585a10.744,10.744,0,0,1,1.108,1.175,10.267,10.267,0,0,1,1.256,2.03,4.809,4.809,0,0,1,.323.847" fill="#000a19"/>
                <path id="Trazado_1262124" data-name="Trazado 1262124" d="M79,47.559c-.047,1.861-.627,3.355-1.295,3.339s-1.171-1.54-1.124-3.4.627-3.356,1.295-3.339S79.05,45.7,79,47.559" fill="#000a19"/>
                <path id="Trazado_1262125" data-name="Trazado 1262125" d="M99.525,47.559c-.047,1.861-.627,3.355-1.295,3.339s-1.171-1.54-1.124-3.4.627-3.356,1.295-3.339,1.171,1.539,1.124,3.4" fill="#000a19"/>
                <path id="Trazado_1262126" data-name="Trazado 1262126" d="M106.113,408.047l1.213,26.75s70.668,20.025,14.735-7.414l-.524-35.979Z" fill="#22689e"/>
                <g id="Grupo_1204442" data-name="Grupo 1204442" opacity="0.3">
                  <g id="Grupo_1204441" data-name="Grupo 1204441">
                    <g id="Grupo_1204440" data-name="Grupo 1204440" clip-path="url(#clip-path-8)">
                      <path id="Trazado_1262127" data-name="Trazado 1262127" d="M112.473,427.632a31.545,31.545,0,0,1-5.489-.4l-.87-19.185L121.538,391.4l.5,34.668a26.542,26.542,0,0,1-9.569,1.561" fill="#161826"/>
                    </g>
                  </g>
                </g>
                <path id="Trazado_1262128" data-name="Trazado 1262128" d="M143.075,439.686c6.488,7.255-35.807-4.6-35.807-4.6l-.066-1.543c3.371.939,33.871,9.324,35.873,6.145" fill="#fff"/>
                <path id="Trazado_1262129" data-name="Trazado 1262129" d="M123.154,427.269s-3.54-.08-5.116,2.156" fill="none" stroke="#fff" stroke-linecap="round" stroke-miterlimit="10" stroke-width="1.004"/>
                <path id="Trazado_1262130" data-name="Trazado 1262130" d="M126,428.965s-3.54-.08-5.116,2.156" fill="none" stroke="#fff" stroke-linecap="round" stroke-miterlimit="10" stroke-width="1.004"/>
                <path id="Trazado_1262131" data-name="Trazado 1262131" d="M129.208,430.739s-3.54-.08-5.116,2.156" fill="none" stroke="#fff" stroke-linecap="round" stroke-miterlimit="10" stroke-width="1.004"/>
                <path id="Trazado_1262132" data-name="Trazado 1262132" d="M61.454,407.033l-2.69,26.647s-71.672,16.266-14.3-8.181l2.511-35.9Z" fill="#22689e"/>
                <g id="Grupo_1204445" data-name="Grupo 1204445" opacity="0.3">
                  <g id="Grupo_1204444" data-name="Grupo 1204444">
                    <g id="Grupo_1204443" data-name="Grupo 1204443" clip-path="url(#clip-path-9)">
                      <path id="Trazado_1262133" data-name="Trazado 1262133" d="M54.022,426.254a31.651,31.651,0,0,0,5.5-.108l1.93-19.113L46.973,389.6l-2.42,34.59a26.487,26.487,0,0,0,9.469,2.064" fill="#161826"/>
                    </g>
                  </g>
                </g>
                <path id="Trazado_1262134" data-name="Trazado 1262134" d="M22.8,436.675c-6.88,6.9,36.009-2.7,36.009-2.7l.151-1.537c-3.418.759-34.337,7.522-36.16,4.242" fill="#fff"/>
                <path id="Trazado_1262135" data-name="Trazado 1262135" d="M43.376,425.328s3.54.107,4.99,2.423" fill="none" stroke="#fff" stroke-linecap="round" stroke-miterlimit="10" stroke-width="1.004"/>
                <path id="Trazado_1262136" data-name="Trazado 1262136" d="M40.436,426.87s3.54.107,4.99,2.423" fill="none" stroke="#fff" stroke-linecap="round" stroke-miterlimit="10" stroke-width="1.004"/>
                <path id="Trazado_1262137" data-name="Trazado 1262137" d="M37.139,428.473s3.54.107,4.99,2.423" fill="none" stroke="#fff" stroke-linecap="round" stroke-miterlimit="10" stroke-width="1.004"/>
                <path id="Trazado_1262138" data-name="Trazado 1262138" d="M119.408,192.673s11.056,127.736,5.349,230.7c0,0-14.6,4.762-19.089.783-3.266-24.538-2.694-71.9-7.629-107.418-4.646-33.444-9.819-72.994-9.819-72.994l-2.881.4S65.123,410.766,62.157,422.913c-15.218,3.459-20.3-3.11-20.3-3.11S47.827,223.894,52.94,191.509c6.7-42.431,66.468,1.164,66.468,1.164" fill="#ffa94d"/>
                <path id="Trazado_1262139" data-name="Trazado 1262139" d="M88.743,241.928c11.4,1.9,22.855,3.352,34.325,4.706-1.8-32.459-3.66-53.961-3.66-53.961s-59.769-43.6-66.468-1.164c-1.129,7.149-2.3,22.271-3.438,41.492a293.921,293.921,0,0,0,39.241,8.927" fill="#ed863a"/>
                <path id="Trazado_1262140" data-name="Trazado 1262140" d="M122.385,234.836c2.792,46.172,6.034,122.453,2.372,188.532,0,0-14.6,4.762-19.089.782-3.266-24.537-2.694-71.9-7.629-107.418-4.344-31.264-9.147-67.861-9.754-72.5,11.916-1.426,23.482-4.225,34.1-9.4" fill="#ed863a"/>
                <path id="Trazado_1262141" data-name="Trazado 1262141" d="M60.2,85.072s5.159,15.067,21.256,14.659c13.651-.346,13.926-13.682,13.926-13.682s22.373.616,25.735,8.144-4.994,22.121-4.994,22.121,9.631,86.048,9.229,104.6c0,0-49.169,7.491-75.9,1.3,0,0-5.528-95.656-13.193-127.128Z" fill="#22689e"/>
                <path id="Trazado_1262142" data-name="Trazado 1262142" d="M99.293,85.561s30.621.814,34.53,11.239,43,93.167,43,93.167l-24.758-.651L123.4,142.406Z" fill="#001433"/>
                <path id="Trazado_1262143" data-name="Trazado 1262143" d="M137.319,104.979c-6.357,7.918-13.24,15.407-20.055,22.959l6.135,14.468,28.667,46.909,24.758.652s-28.933-61.242-39.505-84.988" fill="#000a19"/>
                <path id="Trazado_1262144" data-name="Trazado 1262144" d="M99.293,85.561s9.284,83.557,6.841,141.217l25.409-2.932s-.488-117.273-5.864-128.512-26.386-9.773-26.386-9.773" fill="#001433"/>
                <path id="Trazado_1262145" data-name="Trazado 1262145" d="M118.433,178.921c-4.189-1.176-8.365-2.351-12.518-3.578.673,17.583.894,35.5.219,51.434l25.409-2.931s-.077-18.441-.5-41.394q-6.306-1.75-12.606-3.531" fill="#000a19"/>
                <path id="Trazado_1262146" data-name="Trazado 1262146" d="M55.641,84.421s14.985,23.455,23.455,86,4.56,58.636,4.56,58.636l-41.7,1.3L24.368,97.451Z" fill="#001433"/>
                <path id="Trazado_1262147" data-name="Trazado 1262147" d="M78.46,165.893C62.055,156.1,45.887,145.9,29.485,136.1l12.474,94.256,44.957,6.066s.65-3.46-7.82-66.006c-.208-1.535-.421-3.04-.636-4.528" fill="#000a19"/>
                <path id="Rectángulo_461831" data-name="Rectángulo 461831" d="M5.071,0H168.614a5.071,5.071,0,0,1,5.071,5.071V140.98a5.072,5.072,0,0,1-5.072,5.072H5.071A5.071,5.071,0,0,1,0,140.981V5.071A5.071,5.071,0,0,1,5.071,0Z" transform="translate(72.28 185.218)" fill="#fff"/>
                <path id="Rectángulo_461832" data-name="Rectángulo 461832" d="M5.071,0H168.614a5.071,5.071,0,0,1,5.071,5.071V140.98a5.072,5.072,0,0,1-5.072,5.072H5.071A5.071,5.071,0,0,1,0,140.981V5.071A5.071,5.071,0,0,1,5.071,0Z" transform="translate(72.28 185.218)" fill="none" stroke="#ff8255" stroke-miterlimit="10" stroke-width="2.011"/>
                <path id="Trazado_1262148" data-name="Trazado 1262148" d="M245.965,201.531V190.973a5.071,5.071,0,0,0-5.071-5.071H77.351a5.071,5.071,0,0,0-5.071,5.071v10.558Z" fill="#ff8255"/>
                <path id="Trazado_1262149" data-name="Trazado 1262149" d="M236.729,191.558a2.981,2.981,0,1,0,2.982-2.982,2.982,2.982,0,0,0-2.982,2.982" fill="#fff"/>
                <path id="Trazado_1262150" data-name="Trazado 1262150" d="M227.225,191.558a2.981,2.981,0,1,0,2.982-2.982,2.982,2.982,0,0,0-2.982,2.982" fill="#fff"/>
                <path id="Trazado_1262151" data-name="Trazado 1262151" d="M217.722,191.558a2.981,2.981,0,1,0,2.982-2.982,2.982,2.982,0,0,0-2.982,2.982" fill="#fff"/>
                <path id="Trazado_1262152" data-name="Trazado 1262152" d="M107.171,263.365a51.952,51.952,0,1,0,51.952-51.952,51.952,51.952,0,0,0-51.952,51.952" fill="#ffa94d"/>
                <circle id="Elipse_11833" data-name="Elipse 11833" cx="51.952" cy="51.952" r="51.952" transform="translate(107.171 211.413)" fill="none" stroke="#fff" stroke-miterlimit="10" stroke-width="2.011"/>
                <path id="Trazado_1262153" data-name="Trazado 1262153" d="M157.834,262.216l-2.356.144H107.2c-.007.335-.026.668-.026,1.005a51.944,51.944,0,0,0,94.121,30.327Z" fill="#ff8255"/>
                <path id="Trazado_1262154" data-name="Trazado 1262154" d="M157.834,262.216l-2.356.144H107.2c-.007.335-.026.668-.026,1.005a51.944,51.944,0,0,0,94.121,30.327Z" fill="none" stroke="#fff" stroke-miterlimit="10" stroke-width="2.011"/>
                <path id="Trazado_1262155" data-name="Trazado 1262155" d="M157.691,211.45a51.935,51.935,0,0,0,0,103.831Z" fill="#22689e"/>
                <path id="Trazado_1262156" data-name="Trazado 1262156" d="M157.691,211.45a51.935,51.935,0,0,0,0,103.831Z" fill="none" stroke="#fff" stroke-miterlimit="10" stroke-width="2.011"/>
                <path id="Trazado_1262157" data-name="Trazado 1262157" d="M137,263.365a22.121,22.121,0,1,0,22.121-22.121A22.121,22.121,0,0,0,137,263.365" fill="#fff"/>
                <path id="Trazado_1262158" data-name="Trazado 1262158" d="M76.653,204.5s29.95-2.416-1.969-2.954c0,0,21.384-8.38-3.382-.966l-5.236,6.65-7.621-10.259a88.943,88.943,0,0,1-10.245,14.7c7.938,6.32,14.775,10.89,16.888,10.214,5.574-1.784,11.621-9.214,11.621-9.214s27.795,10.05.037-3.084c0,0,34.762,7.821-.093-5.091" fill="#ffb199"/>
                <path id="Trazado_1262159" data-name="Trazado 1262159" d="M55.641,84.421S23.717,90.285,19.807,96.8.913,165.861,6.778,176.285,53.035,221.24,53.035,221.24L64.762,203,36.1,167.164l9.122-49.515Z" fill="#001433"/>
                <path id="Trazado_1262160" data-name="Trazado 1262160" d="M46.032,87.027l.353,9.263.3,9.265c.179,6.176.384,12.353.508,18.531l-.446-.425,14.415-.472,1.473-.048-1.156.914-9.577,7.57.053-.621c3.87,4.351,7.671,8.763,11.5,13.147l5.717,6.6,5.682,6.635-5.93-6.415-5.9-6.446c-3.909-4.317-7.849-8.606-11.72-12.955l-.3-.337.353-.285,9.507-7.658.317.866-14.417.366-.438.011-.008-.435c-.12-6.178-.159-12.358-.224-18.537L46.045,96.3Z" fill="#22689e"/>
                <path id="Trazado_1262161" data-name="Trazado 1262161" d="M109.429,86.727l4.593,16.779,4.5,16.8.074.277-.281.069-10.438,2.576.082-.561c3.186,1.832,6.338,3.722,9.506,5.586l.2.116-.068.217-5.308,16.916c-1.767,5.64-3.6,11.257-5.411,16.885,1.675-5.668,3.319-11.346,5.033-17l5.137-16.97.129.333c-3.176-1.85-6.368-3.673-9.525-5.554l-.647-.385.729-.177,10.45-2.53-.207.346-4.32-16.85Z" fill="#22689e"/>
              </g>
            </g>
          </g>
        </g>
        <g id="Grupo_1204459" data-name="Grupo 1204459" transform="translate(605.746 2786.431)">
          <g id="Grupo_1204458" data-name="Grupo 1204458" clip-path="url(#clip-path-10)">
            <g id="Grupo_1204457" data-name="Grupo 1204457">
              <g id="Grupo_1204456" data-name="Grupo 1204456" clip-path="url(#clip-path-10)">
                <g id="Grupo_1204452" data-name="Grupo 1204452" transform="translate(0 217.686)" opacity="0.1">
                  <g id="Grupo_1204451" data-name="Grupo 1204451">
                    <g id="Grupo_1204450" data-name="Grupo 1204450" clip-path="url(#clip-path-12)">
                      <path id="Trazado_1262162" data-name="Trazado 1262162" d="M335,359.908c0,5.905-74.992,10.692-167.5,10.692S0,365.813,0,359.908s74.992-10.692,167.5-10.692S335,354,335,359.908" transform="translate(0 -349.216)" fill="#001433"/>
                    </g>
                  </g>
                </g>
                <path id="Rectángulo_461836" data-name="Rectángulo 461836" d="M7.129,0H218.634a7.13,7.13,0,0,1,7.13,7.13V158.194a7.129,7.129,0,0,1-7.129,7.129H7.129A7.129,7.129,0,0,1,0,158.194V7.129A7.129,7.129,0,0,1,7.129,0Z" transform="translate(57.511 56.359)" fill="#001433"/>
                <path id="Rectángulo_461837" data-name="Rectángulo 461837" d="M7.129,0H218.634a7.13,7.13,0,0,1,7.13,7.13V158.194a7.129,7.129,0,0,1-7.129,7.129H7.129A7.129,7.129,0,0,1,0,158.194V7.129A7.129,7.129,0,0,1,7.129,0Z" transform="translate(57.511 56.359)" fill="none" stroke="#22689e" stroke-miterlimit="10" stroke-width="2.139"/>
                <rect id="Rectángulo_461838" data-name="Rectángulo 461838" width="209.31" height="139.985" transform="translate(65.743 65.072)" fill="#faeee8"/>
                <path id="Trazado_1262163" data-name="Trazado 1262163" d="M331.412,343.526H31.21a2.222,2.222,0,0,0-2.222,2.222v4.888a2.2,2.2,0,0,0,.087.583,6.661,6.661,0,0,0,6.579,5.638H326.968a6.662,6.662,0,0,0,6.579-5.638,2.2,2.2,0,0,0,.087-.583v-4.888a2.222,2.222,0,0,0-2.222-2.222" transform="translate(-10.918 -129.387)" fill="#22689e"/>
                <g id="Grupo_1204455" data-name="Grupo 1204455" transform="translate(132.224 214.139)" opacity="0.6">
                  <g id="Grupo_1204454" data-name="Grupo 1204454">
                    <g id="Grupo_1204453" data-name="Grupo 1204453" clip-path="url(#clip-path-13)">
                      <path id="Trazado_1262164" data-name="Trazado 1262164" d="M212.116,343.526a9.1,9.1,0,0,0,9.047,8.127h58.243a9.1,9.1,0,0,0,9.047-8.127Z" transform="translate(-212.116 -343.526)" fill="#003154"/>
                    </g>
                  </g>
                </g>
                <rect id="Rectángulo_461840" data-name="Rectángulo 461840" width="162.561" height="102.866" rx="5.73" transform="translate(101.872 77.112)" fill="#fff"/>
                <rect id="Rectángulo_461841" data-name="Rectángulo 461841" width="162.561" height="102.866" rx="5.73" transform="translate(101.872 77.112)" fill="none" stroke="#22689e" stroke-miterlimit="10" stroke-width="1.754"/>
                <path id="Trazado_1262165" data-name="Trazado 1262165" d="M325.985,135.485v-7.436a3.571,3.571,0,0,0-3.572-3.571H167a3.571,3.571,0,0,0-3.572,3.571v7.436Z" transform="translate(-61.553 -46.884)" fill="#22689e"/>
                <path id="Trazado_1262166" data-name="Trazado 1262166" d="M413.772,129.6a2.1,2.1,0,1,0,2.1-2.1,2.1,2.1,0,0,0-2.1,2.1" transform="translate(-155.844 -48.022)" fill="#fff"/>
                <path id="Trazado_1262167" data-name="Trazado 1262167" d="M403.034,129.6a2.1,2.1,0,1,0,2.1-2.1,2.1,2.1,0,0,0-2.1,2.1" transform="translate(-151.8 -48.022)" fill="#fff"/>
                <path id="Trazado_1262168" data-name="Trazado 1262168" d="M392.3,129.6a2.1,2.1,0,1,0,2.1-2.1,2.1,2.1,0,0,0-2.1,2.1" transform="translate(-147.756 -48.022)" fill="#fff"/>
                <rect id="Rectángulo_461842" data-name="Rectángulo 461842" width="13.484" height="68.065" transform="translate(164.847 96.793)" fill="#ff8255"/>
                <rect id="Rectángulo_461843" data-name="Rectángulo 461843" width="14.994" height="94.304" transform="translate(213.953 70.554)" fill="#ffa94d"/>
                <rect id="Rectángulo_461844" data-name="Rectángulo 461844" width="14.994" height="45.105" transform="translate(139.161 119.752)" fill="#ffa94d"/>
                <rect id="Rectángulo_461845" data-name="Rectángulo 461845" width="14.994" height="51.666" transform="translate(189.022 113.192)" fill="#22689e"/>
                <rect id="Rectángulo_461846" data-name="Rectángulo 461846" width="14.994" height="27.886" transform="translate(114.231 136.971)" fill="#22689e"/>
                <rect id="Rectángulo_461847" data-name="Rectángulo 461847" width="13.484" height="144.323" transform="translate(239.638 20.535)" fill="#ff8255"/>
                <path id="Trazado_1262169" data-name="Trazado 1262169" d="M375.839,25.251l12.1-20.956,12.1,20.956Z" transform="translate(-141.557 -1.618)" fill="#ff8255"/>
                <line id="Línea_1719" data-name="Línea 1719" x2="143.593" transform="translate(115.922 167.409)" fill="none" stroke="#001433" stroke-linecap="round" stroke-miterlimit="10" stroke-width="1.754"/>
              </g>
            </g>
          </g>
        </g>
        <g id="Grupo_1204460" data-name="Grupo 1204460" transform="translate(5.746 -8439.5)">
          <path id="Trazado_1262175" data-name="Trazado 1262175" d="M193.114,69.04A33.742,33.742,0,1,0,226.856,35.3,33.742,33.742,0,0,0,193.114,69.04" transform="translate(806.887 11225.637)" fill="#ff8255"/>
          <path id="Trazado_1262176" data-name="Trazado 1262176" d="M226.979,87.043a29.968,29.968,0,0,1-10.638-2.471V76.2a36.269,36.269,0,0,0,6.353,2.483,22,22,0,0,0,6.024,1,7.159,7.159,0,0,0,3.139-.516,1.794,1.794,0,0,0,1-1.727,1.755,1.755,0,0,0-.719-1.412,11.139,11.139,0,0,0-2.395-1.31q-1.677-.732-4.525-1.765a20.524,20.524,0,0,1-5.168-2.659,9.288,9.288,0,0,1-2.862-3.3,10.309,10.309,0,0,1-.895-4.55,8.2,8.2,0,0,1,2.672-6.5q2.672-2.344,8.017-2.9V49.583H232.2v3.4a29.587,29.587,0,0,1,10.109,2.471l-3,7.185a23.508,23.508,0,0,0-9.5-2.37,5.884,5.884,0,0,0-2.836.492,1.587,1.587,0,0,0-.819,1.449,1.778,1.778,0,0,0,.593,1.373,8.322,8.322,0,0,0,2.055,1.21q1.462.668,4.058,1.55,5.269,1.866,7.563,4.248a8.484,8.484,0,0,1,2.294,6.138,9.239,9.239,0,0,1-2.684,6.882q-2.686,2.647-7.828,3.277v4.865h-5.218Z" transform="translate(804.24 11224.006)" fill="#fff"/>
        </g>
        <g id="Grupo_1204461" data-name="Grupo 1204461" transform="translate(557.746 2851.538)">
          <path id="Trazado_1262173" data-name="Trazado 1262173" d="M130.934,39.327a13.512,13.512,0,1,0,13.511-13.511A13.511,13.511,0,0,0,130.934,39.327Z" transform="translate(-72.959 -22.178)" fill="none" stroke="#ffa94d" stroke-miterlimit="10" stroke-width="15.895" stroke-dasharray="8.51 8.51"/>
          <path id="Trazado_1262174" data-name="Trazado 1262174" d="M135.269,40.96a10.809,10.809,0,1,0,10.809-10.809A10.809,10.809,0,0,0,135.269,40.96Z" transform="translate(-74.59 -23.811)" fill="none" stroke="#ffa94d" stroke-miterlimit="10" stroke-width="11.56"/>
        </g>
        <path id="Trazado_1262177" data-name="Trazado 1262177" d="M317.972,12.1c-.345-6.672-5.416-12.1-12.1-12.1a12.1,12.1,0,0,0-12.1,12.1c0,9.994,12.1,22.2,12.1,22.2s12.544-13.552,12.1-22.2m-12.1,5.053a5.053,5.053,0,1,1,5.053-5.053,5.053,5.053,0,0,1-5.053,5.053" transform="translate(626.967 2885.431)" fill="#22689e"/>
      </g>
    </g>
  </g>
</svg>
