<svg xmlns="http://www.w3.org/2000/svg" width="63" height="63" viewBox="0 0 63 63">
  <g id="Grupo_1205210" data-name="Grupo 1205210" transform="translate(-1192.333 -192)">
    <g id="Grupo_1205209" data-name="Grupo 1205209">
      <g id="Grupo_1102829" data-name="Grupo 1102829">
        <circle id="Elipse_11571" data-name="Elipse 11571" cx="31.5" cy="31.5" r="31.5" transform="translate(1192.333 192)" fill="#f6f6f6"/>
        <path id="gestion-de-activos-de-marca" d="M96.246,21.156H93.083a14.936,14.936,0,0,0-1.949-4.721L93.372,14.2a.577.577,0,0,0,0-.817L89.445,9.465a.577.577,0,0,0-.816,0L86.393,11.7a14.755,14.755,0,0,0-3.719-1.685,1.889,1.889,0,0,0-.236-.642,1.944,1.944,0,0,0-.756-.724V6.58A.577.577,0,0,0,81.1,6H75.559a.577.577,0,0,0-.577.577V8.645a1.94,1.94,0,0,0-.768.73,1.907,1.907,0,0,0-.239.642A14.774,14.774,0,0,0,70.259,11.7L68.023,9.465a.577.577,0,0,0-.816,0L63.281,13.38a.577.577,0,0,0,0,.817l2.238,2.238a14.943,14.943,0,0,0-1.949,4.721H60.406a.577.577,0,0,0-.577.577v5.545a.577.577,0,0,0,.577.577h3.163a14.948,14.948,0,0,0,1.949,4.721L63.291,34.8a.577.577,0,0,0,0,.816l3.916,3.927a.576.576,0,0,0,.408.17h0a.58.58,0,0,0,.408-.169l2.238-2.238a15.116,15.116,0,0,0,4.721,1.958v2.52H71.055a2.644,2.644,0,0,0-1.358.335l-.709.4a2.009,2.009,0,0,0-1.961-1.605H63.314a.577.577,0,0,0-.577.577V52.424a.577.577,0,0,0,.577.577h3.712a2,2,0,0,0,1.982-1.8,10.932,10.932,0,0,1,2.122,1.277,2.9,2.9,0,0,0,1.882.674H83.865a2.857,2.857,0,0,0,2.166-.943l7.22-7.786a2.456,2.456,0,0,0,.658-1.785,2.424,2.424,0,0,0-.791-1.7,2.489,2.489,0,0,0-1.773-.66,2.433,2.433,0,0,0-1.713.782l-3.518,3.8a2.622,2.622,0,0,0-2.17-1.154H79.8a1.7,1.7,0,0,1-1.073-.352l-.461-.338H81.1a.577.577,0,0,0,.577-.577V39.266a15.14,15.14,0,0,0,4.71-1.958l2.238,2.238a.577.577,0,0,0,.816,0l3.927-3.927a.577.577,0,0,0,0-.817l-2.237-2.227a14.946,14.946,0,0,0,1.948-4.72h3.163a.577.577,0,0,0,.577-.577V21.733a.577.577,0,0,0-.577-.577ZM73.224,23.995l-1.059-1.306a.077.077,0,0,1-.021-.075c0-.025.005-.029.038-.049l1.449-.883a1.2,1.2,0,0,0,.593-1.035l.033-1.675a.1.1,0,0,1,.034-.08.081.081,0,0,1,.06-.018l1.689.261a1.181,1.181,0,0,0,1.108-.406l1.13-1.29s.087-.012.107.011l1.106,1.263a1.177,1.177,0,0,0,.932.437,1.442,1.442,0,0,0,.2-.015l1.68-.259a.071.071,0,0,1,.053.016.084.084,0,0,1,.034.058l.034,1.686a1.206,1.206,0,0,0,.594,1.047l1.452.885c.029.017.03.021.034.046a.071.071,0,0,1-.016.068l-1.064,1.313a1.209,1.209,0,0,0-.2,1.182l.539,1.595c.013.04.007.049,0,.062s-.054.039-.058.048l-1.665.328a1.245,1.245,0,0,0-.912.766l-.613,1.59a.067.067,0,0,1-.036.043.128.128,0,0,1-.075-.008l-1.478-.805a1.19,1.19,0,0,0-.6-.165,1.176,1.176,0,0,0-.588.155l-1.489.812a.115.115,0,0,1-.069.014.075.075,0,0,1-.049-.052l-.618-1.6a1.236,1.236,0,0,0-.907-.75l-1.675-.331c-.008,0-.022,0-.047-.046a.049.049,0,0,1,0-.05l.541-1.6A1.211,1.211,0,0,0,73.224,23.995Zm3.128,6.76a1.292,1.292,0,0,0,.446-.14l1.494-.815H78.3c.018,0,.056,0,.06,0l1.5.818a1.272,1.272,0,0,0,.441.133v3.4l-1.6-1.354a.577.577,0,0,0-.746,0l-1.608,1.359Zm5.1-.514a1.2,1.2,0,0,0,.142-.265l.6-1.568c.024-.056.048-.061.066-.065l1.652-.326a1.175,1.175,0,0,0,.836-.588,1.208,1.208,0,0,0,.109-1.014L84.32,24.8c-.018-.051-.007-.066.005-.08L85.394,23.4a1.235,1.235,0,0,0,.25-.989,1.189,1.189,0,0,0-.573-.834L83.623,20.7c-.041-.025-.041-.036-.041-.073l-.035-1.72a1.255,1.255,0,0,0-.441-.894,1.222,1.222,0,0,0-.8-.289,1.408,1.408,0,0,0-.183.013l-1.7.262-1.164-1.3A1.248,1.248,0,0,0,77.4,16.69l-1.12,1.279c0,.005-.062.02-.066.025l-1.707-.263a1.231,1.231,0,0,0-.962.28,1.268,1.268,0,0,0-.441.915l-.034,1.709c0,.026,0,.037-.04.062l-1.445.88a1.193,1.193,0,0,0-.577.836,1.239,1.239,0,0,0,.256,1l1.064,1.313c.012.014.023.028,0,.085l-.547,1.62a1.236,1.236,0,0,0,.937,1.587l1.662.328a.072.072,0,0,1,.061.049l.609,1.579a1.237,1.237,0,0,0,.144.269v1.293H70.681a3.226,3.226,0,0,1-3.2-3.746,21.092,21.092,0,0,1,8.7-13.919h4.276a21.09,21.09,0,0,1,8.7,13.919,3.226,3.226,0,0,1-3.2,3.746H81.455V30.241ZM76.336,12.714,75.2,10.726a.768.768,0,0,1,.66-1.147h4.923a.746.746,0,0,1,.658.386.735.735,0,0,1,.006.755l-1.135,1.994Zm4.191-5.557V8.425H76.136V7.157Zm-13.5,44.69H63.892V42.069h3.135a.855.855,0,0,1,.849.86v8.057A.856.856,0,0,1,67.026,51.847ZM79.8,44.853h4.142a1.483,1.483,0,0,1,0,2.965h-5.3a.577.577,0,1,0,0,1.154h5.3a2.634,2.634,0,0,0,2.626-2.637c0-.088,0-.175-.013-.262l3.922-4.235a1.288,1.288,0,0,1,.906-.412,1.342,1.342,0,0,1,.952.356,1.283,1.283,0,0,1,.419.9,1.311,1.311,0,0,1-.351.952l-7.219,7.784a1.721,1.721,0,0,1-1.321.575H73.013a1.719,1.719,0,0,1-1.145-.408,12.994,12.994,0,0,0-2.839-1.649V43.821l1.235-.7a1.526,1.526,0,0,1,.79-.185H75.65a1.709,1.709,0,0,1,1.073.363l1.323.973a2.867,2.867,0,0,0,1.757.576ZM95.669,26.7H92.613a.577.577,0,0,0-.567.469,13.827,13.827,0,0,1-2.13,5.161.577.577,0,0,0,.071.731l2.159,2.149-3.11,3.11-2.161-2.161a.577.577,0,0,0-.731-.07,14.008,14.008,0,0,1-5.153,2.142.577.577,0,0,0-.466.566v3.055H76.251c-.038-.008-.075-.021-.114-.028V38.8a.577.577,0,0,0-.466-.566,13.991,13.991,0,0,1-5.163-2.142.579.579,0,0,0-.731.07l-2.16,2.16-3.1-3.11,2.15-2.15a.577.577,0,0,0,.07-.731,13.825,13.825,0,0,1-2.13-5.161.577.577,0,0,0-.567-.469H60.983V22.31h3.055a.577.577,0,0,0,.567-.469,13.819,13.819,0,0,1,2.13-5.161.577.577,0,0,0-.07-.731l-2.16-2.16,3.11-3.1,2.161,2.161a.578.578,0,0,0,.733.069,13.624,13.624,0,0,1,3.629-1.755c.02.042.037.085.06.126l.81,1.424h-.648a.576.576,0,0,0-.079,1.146,22.263,22.263,0,0,0-7.937,13.746,4.38,4.38,0,0,0,4.338,5.081H75.2v2.7a.577.577,0,0,0,.95.441l2.184-1.846L80.5,35.832a.577.577,0,0,0,.951-.44v-2.7H85.97a4.38,4.38,0,0,0,4.338-5.081A22.261,22.261,0,0,0,82.371,13.86a.576.576,0,0,0-.079-1.146h-.648l.814-1.43c.022-.039.038-.08.057-.12a13.623,13.623,0,0,1,3.629,1.755.579.579,0,0,0,.733-.069l2.161-2.161,3.11,3.1-2.161,2.16a.577.577,0,0,0-.07.731,13.822,13.822,0,0,1,2.13,5.161.577.577,0,0,0,.567.469h3.055V26.7ZM78.332,27.9a4.193,4.193,0,1,0-4.2-4.2A4.2,4.2,0,0,0,78.332,27.9Zm0-7.231A3.039,3.039,0,1,1,75.287,23.7,3.036,3.036,0,0,1,78.332,20.669Z" transform="translate(1146.007 192.925)" fill="#0a4666"/>
      </g>
    </g>
  </g>
</svg>
