<svg xmlns="http://www.w3.org/2000/svg" xmlns:xlink="http://www.w3.org/1999/xlink" width="400" height="413.076" viewBox="0 0 400 413.076">
  <defs>
    <clipPath id="clip-path">
      <path id="Trazado_873802" data-name="Trazado 873802" d="M0,0H400V321L283.636,288.239S248.387,311.13,210,312.885s-68.832-10.82-68.832-10.82S118.659,294.774,85,261.295,0,321,0,321Z" transform="translate(1020 5255)" fill="#fff" stroke="#707070" stroke-width="1"/>
    </clipPath>
    <clipPath id="clip-path-2">
      <rect id="Rectángulo_462181" data-name="Rectángulo 462181" width="391.149" height="413.076" fill="none"/>
    </clipPath>
    <clipPath id="clip-path-4">
      <rect id="Rectángulo_462178" data-name="Rectángulo 462178" width="98.086" height="135.777" fill="none"/>
    </clipPath>
    <clipPath id="clip-path-5">
      <rect id="Rectángulo_462179" data-name="Rectángulo 462179" width="20.551" height="38.257" fill="none"/>
    </clipPath>
  </defs>
  <g id="Grupo_1205212" data-name="Grupo 1205212" transform="translate(-180.105 -408.357)">
    <g id="Grupo_1100882" data-name="Grupo 1100882" transform="translate(-839.895 -4754.566)">
      <g id="Grupo_1099960" data-name="Grupo 1099960" transform="translate(13718.387 17874.502)">
        <path id="Trazado_145968" data-name="Trazado 145968" d="M66.711,0a66.711,66.711,0,1,0,66.711,66.711A66.711,66.711,0,0,0,66.711,0Z" transform="translate(-12688.135 -12445.871)" fill="#a6cdec"/>
        <rect id="Rectángulo_34812" data-name="Rectángulo 34812" width="400" height="300" transform="translate(-12698.387 -12607.222)" fill="none"/>
        <path id="Trazado_145967" data-name="Trazado 145967" d="M150.485,0A150.485,150.485,0,1,0,300.971,150.485,150.485,150.485,0,0,0,150.485,0Z" transform="translate(-12648.872 -12607.707)" fill="#aaca79"/>
        <path id="Trazado_145971" data-name="Trazado 145971" d="M12.533,0A12.533,12.533,0,1,0,25.066,12.533,12.533,12.533,0,0,0,12.533,0Z" transform="translate(-12372.968 -12357.124)" fill="#0a4666"/>
        <path id="Elipse_4044" data-name="Elipse 4044" d="M17,4.594A12.4,12.4,0,1,1,4.594,17,12.417,12.417,0,0,1,17,4.594M17,0a17,17,0,1,0,17,17A17,17,0,0,0,17,0Z" transform="translate(-12406.962 -12500.362)" fill="#fff"/>
      </g>
    </g>
    <g id="Grupo_1205208" data-name="Grupo 1205208">
      <g id="Grupo_1204897" data-name="Grupo 1204897" transform="translate(182.965 408.357)">
        <g id="Grupo_1204896" data-name="Grupo 1204896" clip-path="url(#clip-path-2)">
          <rect id="Rectángulo_462176" data-name="Rectángulo 462176" width="8.565" height="96.417" transform="translate(181.948 101.529) rotate(-75.705)" fill="#88a160"/>
          <g id="Grupo_1204895" data-name="Grupo 1204895">
            <g id="Grupo_1204894" data-name="Grupo 1204894" clip-path="url(#clip-path-2)">
              <path id="Trazado_1266061" data-name="Trazado 1266061" d="M287.29,131.824c-.744,2.92-22.263-.043-48.065-6.618s-46.114-14.271-45.37-17.191,22.263.042,48.064,6.617,46.115,14.272,45.371,17.191" transform="translate(-11.911 -6.568)" fill="#88a160"/>
              <path id="Trazado_1266062" data-name="Trazado 1266062" d="M289.6,122.838c-.744,2.92-22.268-.044-48.075-6.621S195.4,101.944,196.146,99.024s22.268.044,48.076,6.62,46.125,14.274,45.381,17.194" transform="translate(-12.052 -6.016)" fill="#88a160"/>
              <path id="Trazado_1266063" data-name="Trazado 1266063" d="M292.66,129.728c-4.572-2.273-10.065-.981-14.6.725-1.29.485-2.557,1.031-3.8,1.615-.41.191-.053.8.356.607,4.258-1.99,9.092-3.824,13.875-3.389a10.738,10.738,0,0,1,3.819,1.05c.4.2.762-.406.356-.608" transform="translate(-16.841 -7.897)" fill="#edeff7"/>
              <path id="Trazado_1266064" data-name="Trazado 1266064" d="M236.479,105.84c-1.245,4.046-5.633,5.972-9.54,6.332-4.8.443-9.6-.769-14.4-.047a12.842,12.842,0,0,0-6.346,2.659c-.35.288.15.784.5.5,3.679-3.033,8.779-2.838,13.257-2.534,4.553.309,9.418.643,13.428-1.948a8.85,8.85,0,0,0,3.781-4.773c.134-.434-.545-.619-.679-.187" transform="translate(-12.663 -6.489)" fill="#edeff7"/>
              <path id="Trazado_1266065" data-name="Trazado 1266065" d="M213.993,99.509a11.279,11.279,0,0,1-16.79,0c-.3-.338-.8.162-.5.5a12.136,12.136,0,0,0,6.682,3.761,12.024,12.024,0,0,0,11.1-3.756c.3-.335-.192-.834-.5-.5" transform="translate(-12.082 -6.108)" fill="#edeff7"/>
              <path id="Trazado_1266066" data-name="Trazado 1266066" d="M306.913,26.171,266.04,16.1l-40.7-10.716c-.44,1.806-13.626,12.517,3.686,37.1l11.163,14.859L223.758,64.83C202.37,75.381,202,87.449,202.529,92.887a4.936,4.936,0,0,0,2.908,4.031c14.974,6.725,47.208,15.358,74.82,19.007a6.446,6.446,0,0,0,6.411-3.056c3.037-5.114,6.58-15.657-6.011-33.54L269.494,64.47l16.428-7.483c26.966-13.3,20.514-29.02,20.992-30.815" transform="translate(-12.438 -0.331)" fill="#edeff7"/>
              <rect id="Rectángulo_462177" data-name="Rectángulo 462177" width="8.565" height="96.417" transform="translate(206.011 9.645) rotate(-75.705)" fill="#88a160"/>
              <path id="Trazado_1266067" data-name="Trazado 1266067" d="M231.237,33.867c.282.475,10.159,14.084,15.92,22.015a19.151,19.151,0,0,0,10.778,7.306A11.811,11.811,0,0,0,266.52,62.1l24.005-13.129a23.974,23.974,0,0,0-20.9-1.674c-8.073,3.2-13.4-1.154-18.051-4.6-10.309-7.637-21.829-10.422-20.34-8.834" transform="translate(-14.201 -2.055)" fill="#dadef1"/>
              <path id="Trazado_1266068" data-name="Trazado 1266068" d="M210.85,97.59c10.788,7.152,53.9,19.075,67.783,18.032a3.272,3.272,0,0,0,2.464-5.092,18.865,18.865,0,0,0-3.544-4.056c-6-5.018-15.678-4.706-21.492-8.9S251,88.143,244.774,84.918c-5.8-3.005-24.213-2.293-34.318,7.605a3.27,3.27,0,0,0,.393,5.067" transform="translate(-12.87 -5.122)" fill="#dadef1"/>
              <path id="Trazado_1266069" data-name="Trazado 1266069" d="M262.687,78.806a4.87,4.87,0,1,1-3.517-5.921,4.87,4.87,0,0,1,3.517,5.921" transform="translate(-15.552 -4.469)" fill="#dadef1"/>
              <path id="Trazado_1266070" data-name="Trazado 1266070" d="M312.929,33.924c-.744,2.92-22.263-.043-48.065-6.618s-46.114-14.271-45.37-17.191,22.263.042,48.064,6.617S313.674,31,312.929,33.924" transform="translate(-13.486 -0.552)" fill="#88a160"/>
              <path id="Trazado_1266071" data-name="Trazado 1266071" d="M315.241,24.938c-.744,2.92-22.268-.044-48.075-6.621S221.04,4.044,221.784,1.124s22.269.044,48.075,6.62,46.126,14.274,45.382,17.194" transform="translate(-13.627 0)" fill="#88a160"/>
              <path id="Trazado_1266072" data-name="Trazado 1266072" d="M289.276,122.576a.439.439,0,0,1-.189.255,2.22,2.22,0,0,1-.519.262,7.826,7.826,0,0,1-1.967.364,41.217,41.217,0,0,1-6.8-.126,185.351,185.351,0,0,1-22.52-3.482c-9.592-1.967-19.1-4.376-28.5-7.1-7.519-2.178-15.022-4.53-22.289-7.451a60.379,60.379,0,0,1-6.919-3.18c-1-.56-2.5-1.29-3.013-2.375a.554.554,0,0,1-.031-.254c.1-.44-.575-.629-.679-.187-.246,1.059,1.041,1.934,1.766,2.439a34.117,34.117,0,0,0,5.862,3.053,190.87,190.87,0,0,0,21.419,7.541c9.657,2.91,19.432,5.462,29.293,7.583a209.741,209.741,0,0,0,24.072,3.982,52.75,52.75,0,0,0,7.612.309c1.139-.057,2.886-.064,3.768-.938a1.143,1.143,0,0,0,.308-.51.352.352,0,0,0-.679-.187" transform="translate(-12.033 -6.087)" fill="#26244a"/>
              <path id="Trazado_1266073" data-name="Trazado 1266073" d="M219.678,10.05a14.52,14.52,0,0,0,6.532,1.1,18.542,18.542,0,0,0,5.961-1.56c2.025-.869,3.884-2.057,5.879-2.986a24.925,24.925,0,0,1,5.363-1.809,42.305,42.305,0,0,1,6.767-.735c.451-.022.454-.726,0-.7a33.168,33.168,0,0,0-11.088,2.03c-1.915.779-3.672,1.83-5.508,2.764a21.078,21.078,0,0,1-6.213,2.161,13.973,13.973,0,0,1-7.506-.937c-.419-.171-.6.51-.187.679" transform="translate(-13.484 -0.206)" fill="#edeff7"/>
              <path id="Trazado_1266074" data-name="Trazado 1266074" d="M264.8,9.064a3.739,3.739,0,0,0-2.879,2.354,2.668,2.668,0,0,0,.079,1.89,2.911,2.911,0,0,0,1.213,1.308,3.6,3.6,0,0,0,3.321.115,2.891,2.891,0,0,0,1.722-2.551,2.748,2.748,0,0,0-1.83-2.686.352.352,0,0,0-.187.679c.053.016.106.035.159.053s.021.009.008,0l.074.036a2.022,2.022,0,0,1,.279.172c.05.037-.059-.053.019.015l.05.042c.041.036.081.073.119.113s.06.063.089.1.036.041.053.063.014.017,0-.007c.014.018.026.036.039.053a2.6,2.6,0,0,1,.158.253c.023.044.046.089.068.134.012.025.023.051.035.076-.023-.055.009.028.014.04a2.634,2.634,0,0,1,.089.289c.014.055.025.11.036.165l.011.067c.019.106,0-.068.006.04s.015.2.014.3c0,.056,0,.113-.008.168l-.006.067c-.007.084.008-.036-.006.04a2.73,2.73,0,0,1-.071.31c-.015.048-.033.095-.049.143-.036.1.016-.034-.01.024-.013.031-.028.061-.043.091a2.272,2.272,0,0,1-.874.936,2.948,2.948,0,0,1-1.217.409,3.336,3.336,0,0,1-.695-.008,3.114,3.114,0,0,1-.692-.191,2.08,2.08,0,0,1-1.37-2.209,2.952,2.952,0,0,1,2.475-2.217.352.352,0,0,0-.187-.679" transform="translate(-16.086 -0.556)" fill="#edeff7"/>
              <path id="Trazado_1266075" data-name="Trazado 1266075" d="M273.564,28.339c1.093-4.173,5.49-6.27,9.447-6.77,4.723-.6,9.513.383,14.212-.537a12.852,12.852,0,0,0,6.212-2.914c.338-.3-.161-.8-.5-.5-3.5,3.149-8.521,3.218-12.963,3.108-4.559-.114-9.435-.29-13.368,2.406a8.908,8.908,0,0,0-3.722,5.017.352.352,0,0,0,.679.187" transform="translate(-16.768 -1.077)" fill="#edeff7"/>
              <path id="Trazado_1266076" data-name="Trazado 1266076" d="M300.348,34.509a11.514,11.514,0,0,1,5.883-3.994,11.3,11.3,0,0,1,10.859,2.716c.329.313.827-.185.5-.5a12.235,12.235,0,0,0-7.07-3.283,12,12,0,0,0-10.668,4.562c-.275.353.22.855.5.5" transform="translate(-18.42 -1.805)" fill="#edeff7"/>
              <path id="Trazado_1266077" data-name="Trazado 1266077" d="M314.512,24.794a.424.424,0,0,1-.19.251,2.122,2.122,0,0,1-.52.249,7.82,7.82,0,0,1-1.969.32,42.081,42.081,0,0,1-6.806-.255,201.972,201.972,0,0,1-22.538-3.77q-14.374-3.056-28.5-7.162c-7.519-2.179-15.021-4.53-22.289-7.451a60.136,60.136,0,0,1-6.918-3.18c-1.005-.559-2.5-1.29-3.014-2.375a.552.552,0,0,1-.031-.254c.1-.441-.575-.628-.679-.186-.246,1.058,1.041,1.933,1.766,2.438a34.052,34.052,0,0,0,5.862,3.053A190.563,190.563,0,0,0,250.1,14.013q14.492,4.366,29.3,7.625a231.584,231.584,0,0,0,24.09,4.265,54.2,54.2,0,0,0,7.622.45c1.13-.035,2.889,0,3.773-.864a1.13,1.13,0,0,0,.308-.507.352.352,0,0,0-.679-.187" transform="translate(-13.582 -0.045)" fill="#26244a"/>
              <path id="Trazado_1266078" data-name="Trazado 1266078" d="M85.749,124.786,78.72,126.68a3.562,3.562,0,0,1-4.366-2.513l-5.575-20.692a3.561,3.561,0,0,1,2.512-4.365l7.029-1.894a3.561,3.561,0,0,1,4.365,2.512l5.576,20.692a3.561,3.561,0,0,1-2.513,4.365" transform="translate(-4.219 -5.966)" fill="#545dbf"/>
              <path id="Trazado_1266079" data-name="Trazado 1266079" d="M.216,133.353c21.384,76.2,61.208,211.594,71.907,247.905a10,10,0,0,0,12,6.882l181.234-44.683-69.8-266.331L4.328,126.22a5.758,5.758,0,0,0-4.112,7.133" transform="translate(0 -4.739)" fill="#083851"/>
              <g id="Grupo_1204890" data-name="Grupo 1204890" transform="translate(49.518 219.332)" opacity="0.3">
                <g id="Grupo_1204889" data-name="Grupo 1204889">
                  <g id="Grupo_1204888" data-name="Grupo 1204888" clip-path="url(#clip-path-4)">
                    <path id="Trazado_1266080" data-name="Trazado 1266080" d="M146.779,297.066c-7.446-17.8-25.164-29.005-42.758-36.933s-36.5-13.992-51.247-26.441l-.014,6.413a102.624,102.624,0,0,0,41.407,54.16c7.724,5.018,16.214,9.052,22.834,15.458,15.647,15.14,16.346,43.019,1.478,58.924,7.976,2.7,17.034-1.55,22.222-8.179s7.248-15.148,8.587-23.46c2.15-13.345,2.707-27.471-2.509-39.942" transform="translate(-52.76 -233.692)" fill="#26244a"/>
                  </g>
                </g>
              </g>
              <path id="Trazado_1266081" data-name="Trazado 1266081" d="M290.7,236.926c-8.385-10.763-20.784-20.429-32-28.436-22.509-16.066-32.1-29.326-39.8-55.3-7.722-26.024-22.375-76.063-22.375-76.063L15.809,124.062s15.99,49.36,22.9,75.543,23.1,52.141,45.614,68.207c11.217,8.007,24.6,12.987,35.266,21.663,23.087,18.772,28.439,54.8,11.74,79.05l172.257-44.442c16.7-24.247,5.973-62.951-12.881-87.158" transform="translate(-0.971 -4.739)" fill="#dadef1"/>
              <path id="Trazado_1266082" data-name="Trazado 1266082" d="M290.93,236.654a116.541,116.541,0,0,0-18.71-18.4c-3.383-2.743-6.854-5.375-10.374-7.939-3.251-2.369-6.539-4.681-9.7-7.171A103.287,103.287,0,0,1,237.508,189.4a77.77,77.77,0,0,1-10.351-15.582,121.7,121.7,0,0,1-7.626-19.694c-1.742-5.752-3.417-11.527-5.117-17.293q-2.849-9.659-5.689-19.323-2.716-9.237-5.427-18.476-2.12-7.228-4.239-14.455l-2.126-7.255c-.03-.105-.061-.211-.092-.316a.358.358,0,0,0-.434-.246l-1.248.324-3.577.929L185.9,79.494l-7.487,1.944-9.059,2.353-10.38,2.7L147.525,89.46,135.26,92.645l-12.831,3.333-13.2,3.429-13.205,3.429-13.015,3.38-12.571,3.265L58.56,112.566,47.631,115.4,37.9,117.932l-8.313,2.159L23.016,121.8,18.4,123l-2.409.626-.3.078a.355.355,0,0,0-.246.433q1.551,4.787,3.073,9.583,3.618,11.36,7.145,22.75c2.8,9.037,5.549,18.089,8.194,27.173q1.795,6.163,3.5,12.354c1.33,4.875,2.646,9.731,4.373,14.486a130.7,130.7,0,0,0,15.754,30.343,114.424,114.424,0,0,0,23.4,24.862,117.064,117.064,0,0,0,14.993,9.657c5.395,3,10.888,5.834,16.1,9.142a64.768,64.768,0,0,1,12.77,10.294,57.314,57.314,0,0,1,8.507,11.856,62.2,62.2,0,0,1,7.4,27.738,58.115,58.115,0,0,1-6.061,27.9,53.5,53.5,0,0,1-3.6,6.054c-.18.264.117.589.4.517l1.837-.474,5.2-1.342,8.065-2.081,10.523-2.715,12.49-3.222,13.937-3.6,15.021-3.875,15.589-4.023,15.636-4.034,15.331-3.956,14.5-3.741,13.163-3.4,11.492-2.965,9.19-2.371,6.535-1.686,3.377-.872c.551-.142.649-.352,1.023-.919a44.814,44.814,0,0,0,4.826-9.752,58.663,58.663,0,0,0,2.981-22.268,88.221,88.221,0,0,0-4.536-23.536A106.747,106.747,0,0,0,297.377,246a100.337,100.337,0,0,0-6.447-9.344c-.278-.358-.772.145-.5.5A103.236,103.236,0,0,1,302.784,257.7a99.3,99.3,0,0,1,7.394,23.2,70.41,70.41,0,0,1,.639,23.225,51.224,51.224,0,0,1-2.8,10.7,44.155,44.155,0,0,1-2.312,5.039q-.641,1.191-1.355,2.342-.358.577-.735,1.142c-.056.084-.381.513-.152.37a2.224,2.224,0,0,1-.546.141l-1.42.366-5.265,1.359-8.142,2.1-10.5,2.71-12.431,3.207-13.955,3.6-14.921,3.85L220.8,345.049l-15.636,4.034-15.223,3.928-14.41,3.718-13.185,3.4-11.407,2.943-9.223,2.379-6.6,1.7-3.475.9-.433.112.4.517a56.736,56.736,0,0,0,9.518-26.857,63.031,63.031,0,0,0-3.955-28.373,58.442,58.442,0,0,0-16.359-23.415c-9.308-7.95-20.749-12.717-31.09-19.086a105.454,105.454,0,0,1-26.037-23.1A129.553,129.553,0,0,1,39.81,202.331c-1.2-4.149-2.261-8.341-3.439-12.5-2.555-9.019-5.253-18-8-26.958Q24.6,150.538,20.694,138.24q-2.165-6.838-4.365-13.665c-.068-.21-.135-.42-.2-.63l-.245.434,1.248-.325,3.577-.929,5.683-1.475,7.487-1.945,9.059-2.353,10.379-2.7,11.449-2.973L77.027,108.5l12.831-3.332,13.2-3.429,13.205-3.43,13.015-3.38,12.571-3.265,11.876-3.084,10.929-2.839,9.731-2.528,8.313-2.159,6.571-1.706,4.616-1.2,2.409-.625.3-.078-.434-.246q.745,2.54,1.489,5.079,1.909,6.517,3.821,13.033,2.624,8.943,5.251,17.884,2.852,9.707,5.71,19.41,2.635,8.943,5.281,17.881a159.224,159.224,0,0,0,6.816,19.422,81.6,81.6,0,0,0,9.552,16.367,90.62,90.62,0,0,0,13.412,13.969c6.052,5.166,12.667,9.58,18.989,14.4a146.881,146.881,0,0,1,19.925,17.745q2.1,2.309,4.026,4.767c.278.357.773-.145.5-.5" transform="translate(-0.948 -4.716)" fill="#26244a"/>
              <path id="Trazado_1266083" data-name="Trazado 1266083" d="M146.49,107.421l-62.727,16.9a4.6,4.6,0,0,1-5.641-3.246l-5.033-18.684a4.6,4.6,0,0,1,3.246-5.641l62.727-16.9A4.6,4.6,0,0,1,144.7,83.1l5.034,18.685a4.6,4.6,0,0,1-3.246,5.64" transform="translate(-4.481 -4.897)" fill="#f2a441"/>
              <path id="Trazado_1266084" data-name="Trazado 1266084" d="M122.053,75.491,90.822,83.906a1.636,1.636,0,0,0-.74,2.728l13.991,14.188,14.435-3.595,5.546-19.714a1.636,1.636,0,0,0-2-2.023" transform="translate(-5.506 -4.635)" fill="#f2a441"/>
              <path id="Trazado_1266085" data-name="Trazado 1266085" d="M74.19,98l22.93-6.178,22.817-6.148,12.99-3.5a.353.353,0,0,0-.187-.68l-22.93,6.178L86.993,93.823,74,97.323A.352.352,0,0,0,74.19,98" transform="translate(-4.532 -5.007)" fill="#26244a"/>
              <path id="Trazado_1266086" data-name="Trazado 1266086" d="M95.6,193,80.44,197.088a8.23,8.23,0,0,1-10.088-5.8l-4.085-15.16a8.229,8.229,0,0,1,5.8-10.088l15.161-4.086a8.23,8.23,0,0,1,10.088,5.8l4.085,15.161A8.23,8.23,0,0,1,95.6,193" transform="translate(-4.055 -9.934)" fill="#fff"/>
              <path id="Trazado_1266087" data-name="Trazado 1266087" d="M184,147.013,115.9,165.364a3.429,3.429,0,0,1-4.2-2.419l-.085-.315a3.429,3.429,0,0,1,2.42-4.2l68.106-18.351a3.429,3.429,0,0,1,4.2,2.419l.084.315a3.429,3.429,0,0,1-2.419,4.2" transform="translate(-6.851 -8.6)" fill="#b8c1ea"/>
              <path id="Trazado_1266088" data-name="Trazado 1266088" d="M163.518,166.91l-40.529,10.92a3.429,3.429,0,0,1-4.2-2.419l-.085-.314a3.43,3.43,0,0,1,2.42-4.2l40.529-10.92a3.429,3.429,0,0,1,4.2,2.419l.084.315a3.429,3.429,0,0,1-2.419,4.2" transform="translate(-7.287 -9.823)" fill="#b8c1ea"/>
              <path id="Trazado_1266089" data-name="Trazado 1266089" d="M119.23,243.485l-15.519,4.181a7.956,7.956,0,0,1-9.359-4.495l-6.581-15.057a7.955,7.955,0,0,1,5.219-10.867l15.519-4.181a7.955,7.955,0,0,1,9.359,4.495l6.582,15.057a7.956,7.956,0,0,1-5.22,10.867" transform="translate(-5.352 -13.076)" fill="#fff"/>
              <path id="Trazado_1266090" data-name="Trazado 1266090" d="M206.728,197.541l-68.106,18.351a3.429,3.429,0,0,1-4.2-2.419l-.085-.314a3.429,3.429,0,0,1,2.42-4.2L204.86,190.6a3.429,3.429,0,0,1,4.2,2.419l.084.315a3.429,3.429,0,0,1-2.419,4.2" transform="translate(-8.247 -11.705)" fill="#b8c1ea"/>
              <path id="Trazado_1266091" data-name="Trazado 1266091" d="M188.77,216.483,148.24,227.4a3.428,3.428,0,0,1-4.2-2.418l-.085-.314a3.429,3.429,0,0,1,2.42-4.2L186.9,209.545a3.431,3.431,0,0,1,4.2,2.42l.084.313a3.43,3.43,0,0,1-2.419,4.2" transform="translate(-8.838 -12.869)" fill="#b8c1ea"/>
              <path id="Trazado_1266092" data-name="Trazado 1266092" d="M191.742,336.151l-18.543,5a6.478,6.478,0,0,1-7.966-4.671l-4.7-18.626a6.476,6.476,0,0,1,4.6-7.838l18.543-5a6.478,6.478,0,0,1,7.966,4.67l4.7,18.626a6.477,6.477,0,0,1-4.6,7.838" transform="translate(-9.853 -18.729)" fill="#fff"/>
              <path id="Trazado_1266093" data-name="Trazado 1266093" d="M282.318,289.63l-68.106,18.351a3.429,3.429,0,0,1-4.2-2.419l-.085-.314a3.429,3.429,0,0,1,2.42-4.2l68.106-18.351a3.429,3.429,0,0,1,4.2,2.419l.084.315a3.429,3.429,0,0,1-2.419,4.2" transform="translate(-12.892 -17.364)" fill="#b8c1ea"/>
              <path id="Trazado_1266094" data-name="Trazado 1266094" d="M258.316,310.812l-40.529,10.92a3.429,3.429,0,0,1-4.2-2.419L213.5,319a3.429,3.429,0,0,1,2.42-4.2l40.529-10.92a3.429,3.429,0,0,1,4.2,2.419l.084.315a3.429,3.429,0,0,1-2.419,4.2" transform="translate(-13.112 -18.665)" fill="#b8c1ea"/>
              <path id="Trazado_1266095" data-name="Trazado 1266095" d="M166.216,284.4l-16.256,4.38a13.7,13.7,0,0,1-13.034-3.327l-10.887-10.41a4.286,4.286,0,0,1,1.847-7.235l16.256-4.38a13.7,13.7,0,0,1,13.034,3.327l10.887,10.41a4.286,4.286,0,0,1-1.847,7.235" transform="translate(-7.663 -16.158)" fill="#fff"/>
              <path id="Trazado_1266096" data-name="Trazado 1266096" d="M245.452,243.7l-68.106,18.351a3.429,3.429,0,0,1-4.2-2.419l-.085-.314a3.429,3.429,0,0,1,2.42-4.2l68.105-18.351a3.43,3.43,0,0,1,4.2,2.419l.084.315a3.429,3.429,0,0,1-2.419,4.2" transform="translate(-10.627 -14.541)" fill="#b8c1ea"/>
              <path id="Trazado_1266097" data-name="Trazado 1266097" d="M229.791,262.311l-40.529,10.92a3.429,3.429,0,0,1-4.2-2.419l-.085-.314a3.429,3.429,0,0,1,2.42-4.2l40.529-10.92a3.429,3.429,0,0,1,4.2,2.419l.084.315a3.429,3.429,0,0,1-2.419,4.2" transform="translate(-11.359 -15.685)" fill="#b8c1ea"/>
              <path id="Trazado_1266098" data-name="Trazado 1266098" d="M75.462,182.8l11.516,5.647a2.392,2.392,0,0,0,3.446-1.4q3.425-9.05,6.85-18.1.487-1.287.973-2.573a2.365,2.365,0,0,0-1.639-2.886,2.4,2.4,0,0,0-2.886,1.639l-6.85,18.1L85.9,185.8l3.447-1.4-11.516-5.647a2.407,2.407,0,0,0-3.211.841,2.369,2.369,0,0,0,.842,3.211" transform="translate(-4.567 -10.041)" fill="#f2a441"/>
              <path id="Trazado_1266099" data-name="Trazado 1266099" d="M99.446,233.487l11.516,5.647a2.392,2.392,0,0,0,3.446-1.4q3.425-9.05,6.85-18.1.487-1.287.973-2.573a2.365,2.365,0,0,0-1.639-2.886,2.4,2.4,0,0,0-2.886,1.639l-6.85,18.1-.973,2.573,3.447-1.4-11.516-5.647a2.406,2.406,0,0,0-3.211.842,2.368,2.368,0,0,0,.842,3.21" transform="translate(-6.04 -13.155)" fill="#f2a441"/>
              <path id="Trazado_1266100" data-name="Trazado 1266100" d="M5.617,130.725l.54,1.8L7.7,137.668l2.436,8.105q1.609,5.358,3.219,10.715,1.953,6.5,3.907,13.006L21.742,184.4q2.455,8.171,4.91,16.341,2.645,8.806,5.29,17.611l5.535,18.423,5.653,18.816q2.84,9.451,5.678,18.9,2.807,9.341,5.613,18.684l5.406,17.993,5.106,17,4.713,15.689q2.1,6.98,4.194,13.962l3.548,11.81,2.835,9.437,1.99,6.624q.517,1.72,1.034,3.442c.042.142.084.283.128.425a.352.352,0,0,0,.679-.187q-.27-.9-.54-1.8l-1.546-5.147-2.436-8.105q-1.609-5.358-3.219-10.715L72.405,350.6q-2.238-7.454-4.478-14.907-2.455-8.171-4.91-16.342-2.645-8.8-5.29-17.61-2.768-9.211-5.535-18.423L46.541,264.5q-2.84-9.451-5.678-18.9-2.807-9.341-5.613-18.684l-5.406-17.993q-2.552-8.5-5.106-17l-4.713-15.689q-2.1-6.98-4.194-13.962l-3.548-11.811-2.835-9.436L7.457,134.4q-.517-1.72-1.034-3.442c-.042-.142-.084-.283-.128-.425a.352.352,0,0,0-.679.187" transform="translate(-0.344 -8.006)" fill="#26244a"/>
              <path id="Trazado_1266101" data-name="Trazado 1266101" d="M202.019,396.766s7.124-11.235,22.378-5.131l3.928-7.6,31.9,20.112L249.376,424.2Z" transform="translate(-12.414 -23.599)" fill="#12263f"/>
              <path id="Trazado_1266102" data-name="Trazado 1266102" d="M217.407,388.469a54.417,54.417,0,0,1,4.749,7.411c.213.4.82.044.608-.356a54.624,54.624,0,0,0-4.749-7.411.364.364,0,0,0-.481-.126.354.354,0,0,0-.127.481" transform="translate(-13.356 -23.838)" fill="#26244a"/>
              <path id="Trazado_1266103" data-name="Trazado 1266103" d="M221.373,389.285l3.977,7.1c.221.4.83.04.608-.356q-1.989-3.549-3.977-7.1c-.221-.4-.83-.04-.608.356" transform="translate(-13.6 -23.889)" fill="#26244a"/>
              <path id="Trazado_1266104" data-name="Trazado 1266104" d="M381.634,380.087s-12.338-4.368-9.829-20.336l-8.794-2.87L373.563,321.2l23.993,7.452Z" transform="translate(-22.306 -19.737)" fill="#12263f"/>
              <path id="Trazado_1266105" data-name="Trazado 1266105" d="M371.9,369.346a51.416,51.416,0,0,1,4.474-4.726q.674-.626,1.37-1.229a.354.354,0,0,0,0-.5.358.358,0,0,0-.5,0,51.287,51.287,0,0,0-4.64,4.561q-.615.686-1.2,1.394a.36.36,0,0,0,0,.5.355.355,0,0,0,.5,0" transform="translate(-22.816 -22.293)" fill="#26244a"/>
              <path id="Trazado_1266106" data-name="Trazado 1266106" d="M371.812,365.56q2.224-2.015,4.45-4.026l1.271-1.149a.352.352,0,1,0-.5-.5l-4.45,4.025-1.271,1.151a.354.354,0,0,0,0,.5.359.359,0,0,0,.5,0" transform="translate(-22.81 -22.108)" fill="#26244a"/>
              <path id="Trazado_1266107" data-name="Trazado 1266107" d="M324.332,223.815l-1.1,22.352s-44.144,37.012-47.369,50.029c-2.732,11.024-1.626,22.8,17.649,32.176,16.956,8.248,69.517,25.5,69.517,25.5l12.288-37.521L325.062,297.87s35.685-25.723,39.3-31.93C374.737,248.114,361,219.081,361,219.081l-8.5.38Z" transform="translate(-16.883 -13.462)" fill="#3a4852"/>
              <path id="Trazado_1266108" data-name="Trazado 1266108" d="M301.9,215.652l-6.469,18.55c-21.2,48.774-47.627,100.239-69.172,141.243L261.3,398.221a838.412,838.412,0,0,0,52.38-116.3l13.255-46.51-7.985-14.824Z" transform="translate(-13.903 -13.252)" fill="#3a4852"/>
              <path id="Trazado_1266109" data-name="Trazado 1266109" d="M322.854,248.788c-5.767,5.014-11.19,10.427-16.636,15.786-5.674,5.583-11.3,11.225-17.2,16.577-1.384,1.256-2.788,2.445-4.055,3.819a44.971,44.971,0,0,0-5.452,7.185,23.971,23.971,0,0,0-3.691,10.27,49.764,49.764,0,0,0-.031,6.193,31.035,31.035,0,0,0,.749,5.823,18.8,18.8,0,0,0,6.172,10.148c3.379,2.8,7.558,4.507,11.525,6.287,1.086.487,2.172.978,3.248,1.485.408.191.765-.416.356-.608-4.07-1.914-8.329-3.53-12.16-5.909a18.41,18.41,0,0,1-7.8-9.357c-1.358-3.764-1.481-7.819-1.428-11.779a21.114,21.114,0,0,1,.7-5.622,25.705,25.705,0,0,1,2.132-5.115,41.719,41.719,0,0,1,9.03-11.239c5.7-5.078,11.117-10.485,16.558-15.842,5.507-5.42,10.98-10.892,16.732-16.055q.869-.78,1.749-1.547c.343-.3-.156-.793-.5-.5" transform="translate(-16.942 -15.282)" fill="#edeff7"/>
              <path id="Trazado_1266110" data-name="Trazado 1266110" d="M326.192,124.389c-.037.44-1.277,15.239-1.277,15.239l18.476,1.549,1.869-22.3Z" transform="translate(-19.966 -7.305)" fill="#f4b298"/>
              <path id="Trazado_1266111" data-name="Trazado 1266111" d="M324.412,127.312s-11.073-2.675-10.043-15.134a138.236,138.236,0,0,1,2.277-16.623c1.625-8.443,8.316-11.425,17.417-10.475l.9.095c9.694,1.552,15.384,7.357,13.587,16.409l-1.832,8.713s-.809,19.288-22.3,17.03" transform="translate(-19.313 -5.218)" fill="#f4b298"/>
              <path id="Trazado_1266112" data-name="Trazado 1266112" d="M318.653,106.378a1.332,1.332,0,0,0,1.151,1.464,1.28,1.28,0,0,0,1.5-1.044,1.336,1.336,0,0,0-1.15-1.467,1.283,1.283,0,0,0-1.505,1.046" transform="translate(-19.58 -6.471)" fill="#26244a"/>
              <path id="Trazado_1266113" data-name="Trazado 1266113" d="M331.737,108.4a1.333,1.333,0,0,0,1.152,1.464,1.28,1.28,0,0,0,1.5-1.045,1.333,1.333,0,0,0-1.15-1.465,1.282,1.282,0,0,0-1.505,1.046" transform="translate(-20.384 -6.595)" fill="#26244a"/>
              <path id="Trazado_1266114" data-name="Trazado 1266114" d="M338.008,104.467a4.705,4.705,0,0,0-3.679-.931,4.456,4.456,0,0,0-1.054.321.352.352,0,0,0-.126.481.363.363,0,0,0,.482.126.234.234,0,0,1,.038-.016l.093-.036c.073-.026.146-.052.221-.074.132-.04.267-.073.4-.1.07-.014.142-.025.212-.037-.059.009.019,0,.038,0l.116-.011a4.14,4.14,0,0,1,.432-.015c.138,0,.277.01.415.025l.066.008-.011,0,.1.015c.071.012.143.026.213.041q.211.046.417.113c.063.021.126.043.189.067l.092.036s.054.023.02.008.029.013.034.016a4,4,0,0,1,.428.221c.071.042.142.087.21.134l.095.067.04.029c.008.007.068.053.022.016a.36.36,0,0,0,.5,0,.355.355,0,0,0,0-.5" transform="translate(-20.469 -6.358)" fill="#26244a"/>
              <path id="Trazado_1266115" data-name="Trazado 1266115" d="M323.3,102.653a4.705,4.705,0,0,0-3.679-.931,4.455,4.455,0,0,0-1.054.321.352.352,0,0,0-.126.481.363.363,0,0,0,.482.126.236.236,0,0,1,.038-.016l.093-.036c.073-.026.146-.052.221-.074.132-.04.267-.073.4-.1.07-.014.142-.025.213-.037-.06.009.018,0,.038,0,.038,0,.077-.008.116-.011a4.14,4.14,0,0,1,.432-.015c.138,0,.277.01.415.025l.066.008-.011,0,.1.015c.071.012.143.026.213.041q.211.046.417.113c.063.021.126.043.189.067l.093.036s.053.023.019.008.029.013.035.016a4.08,4.08,0,0,1,.427.221c.071.042.142.087.21.134l.095.067.04.029c.008.007.068.053.022.016a.36.36,0,0,0,.5,0,.355.355,0,0,0,0-.5" transform="translate(-19.565 -6.247)" fill="#26244a"/>
              <path id="Trazado_1266116" data-name="Trazado 1266116" d="M323.388,97.324a11.257,11.257,0,0,0-3.857-.352,1.26,1.26,0,0,0-.83.344,1.173,1.173,0,0,0,.83,2,10.411,10.411,0,0,1,2.222.045l-.312-.041a10.535,10.535,0,0,1,1.322.265,1.174,1.174,0,0,0,.624-2.263" transform="translate(-19.563 -5.956)" fill="#26244a"/>
              <path id="Trazado_1266117" data-name="Trazado 1266117" d="M338.368,99.18a11.233,11.233,0,0,0-3.857-.352,1.256,1.256,0,0,0-.83.344,1.173,1.173,0,0,0,.83,2,10.412,10.412,0,0,1,2.222.045l-.312-.041a10.209,10.209,0,0,1,1.322.265,1.174,1.174,0,0,0,.624-2.263" transform="translate(-20.483 -6.07)" fill="#26244a"/>
              <path id="Trazado_1266118" data-name="Trazado 1266118" d="M351.022,110.5a5.326,5.326,0,0,0-4.784.057l-1.25,7.8a5.459,5.459,0,0,0,4.869.581,5.135,5.135,0,0,0,3.16-3.894,4.529,4.529,0,0,0-2-4.541" transform="translate(-21.199 -6.757)" fill="#f4b298"/>
              <path id="Trazado_1266119" data-name="Trazado 1266119" d="M347.642,115.035q.013-.039.028-.079a.244.244,0,0,0,.015-.039c0,.008-.036.079-.01.025s.054-.113.085-.167.058-.1.09-.146l.054-.076c.007-.008.019-.029.028-.038-.057.049-.021.027,0,.006a2.961,2.961,0,0,1,.279-.3c.05-.046.1-.09.154-.132.007,0,.04-.033,0,0s.007,0,.016-.011c.031-.023.063-.046.095-.068a3,3,0,0,1,.375-.219l.084-.038c.06-.028,0,0-.01,0a.167.167,0,0,1,.05-.02c.07-.028.142-.053.215-.075s.138-.038.208-.053l.093-.019.053-.008c.091-.014-.078.007.014,0a2.642,2.642,0,0,1,.439-.008l.056.007c.09.008-.049-.01,0,0s.084.012.126.021a2.558,2.558,0,0,1,.252.067c.047.016.094.034.14.051h0l.069.033a2.583,2.583,0,0,1,.264.146.355.355,0,0,0,.481-.127.36.36,0,0,0-.127-.481,2.756,2.756,0,0,0-2.132-.341,3.246,3.246,0,0,0-1.647,1.012,2.625,2.625,0,0,0-.522.891.354.354,0,0,0,.246.433.359.359,0,0,0,.433-.246" transform="translate(-21.32 -6.935)" fill="#ed796a"/>
              <path id="Trazado_1266120" data-name="Trazado 1266120" d="M325.726,130.261a12.322,12.322,0,0,0,7.865-1.045,11.554,11.554,0,0,0,1.938-1.211.365.365,0,0,0,.127-.481.354.354,0,0,0-.482-.127,11.581,11.581,0,0,1-9.262,2.185c-.442-.089-.632.589-.187.679" transform="translate(-20 -7.825)" fill="#ed796a"/>
              <path id="Trazado_1266121" data-name="Trazado 1266121" d="M326.407,106.57l-.577,2.1q-.144.525-.288,1.051a9.766,9.766,0,0,1-.269.971c-.075.191-.3.158-.471.137a2.811,2.811,0,0,0-.757-.044.878.878,0,0,0-.661.419,1.009,1.009,0,0,0,.062.955,11.446,11.446,0,0,0,.62.978l.653,1.009c.245.379.855.027.608-.355l-1.1-1.692c-.074-.115-.339-.442-.215-.575.084-.091.343-.054.465-.037.57.084,1.191.1,1.441-.531a8.563,8.563,0,0,0,.26-.909l.279-1.016.625-2.278a.352.352,0,0,0-.679-.187" transform="translate(-19.866 -6.533)" fill="#26244a"/>
              <path id="Trazado_1266122" data-name="Trazado 1266122" d="M351.2,105.531a16.05,16.05,0,0,1,1.328-1.936,17.21,17.21,0,0,0,3.345-8.5,9.011,9.011,0,0,0-2.92-7.545c-1.517-1.352-6.56-1.582-6.56-1.582s-2.683-5.506-4.741-7.418a17.981,17.981,0,0,0-8.043-4.611,10.277,10.277,0,0,0-8.855,1.845,9.714,9.714,0,0,1-1.894,1.5c-1.321.641-2.876.263-4.33.08-3.114-.391-6.53.308-8.706,2.569s-2.592,6.273-.366,8.485c.924.917,2.3,1.661,2.37,2.961a5.563,5.563,0,0,1-.858,2.368,4.823,4.823,0,0,0,.382,4.492,4.959,4.959,0,0,0,3.955,2.007l.576-2.761s.736-7.309,2.835-5.857c4.554,3.151,8.759,1.141,11.317-.3a7.974,7.974,0,0,1,4.628-.691,6.863,6.863,0,0,1,6.5,7.169c.028,4.03-1.321,9.472-1.094,11.725.057.573-.065,2.283,1.906,2.448,0,0,.675.52,1.517-1.234s1.9-3.588,5.748-2.127Z" transform="translate(-18.925 -4.525)" fill="#26244a"/>
              <path id="Trazado_1266123" data-name="Trazado 1266123" d="M326.52,118.555a4.014,4.014,0,0,0,4.361-1.665,4,4,0,0,0,.536-1.182.352.352,0,1,0-.68-.186,2.938,2.938,0,0,1-.381.883c-.041.068-.085.135-.131.2a1.5,1.5,0,0,1-.132.172,3.76,3.76,0,0,1-.354.37,2.354,2.354,0,0,1-.359.28,3.454,3.454,0,0,1-.475.264c-.023.012-.046.022-.069.032.008,0,.035-.015,0,0l-.123.048c-.095.033-.191.065-.287.09s-.171.044-.257.06c-.05.011-.1.02-.148.027l-.028,0a.564.564,0,0,0-.066.008,3.942,3.942,0,0,1-.64.012l-.151-.014c-.006,0-.069-.008-.018,0l-.075-.012c-.112-.018-.222-.041-.332-.069a.352.352,0,1,0-.187.679" transform="translate(-20.049 -7.083)" fill="#ed796a"/>
              <path id="Trazado_1266124" data-name="Trazado 1266124" d="M280.04,184.07s-4.8,11.175-5.1,14.807,2.019,9.353,9.475,9.1l13.176-4.524,2.292-16.023Z" transform="translate(-16.893 -11.311)" fill="#f4b298"/>
              <path id="Trazado_1266125" data-name="Trazado 1266125" d="M397.318,172.675l-30.51,15.079L356.934,164.2l18.854-17.935a27.8,27.8,0,0,1,6.4,5.666c3.778,4.778,15.129,20.741,15.129,20.741" transform="translate(-21.933 -8.988)" fill="#a6cdec"/>
              <path id="Trazado_1266126" data-name="Trazado 1266126" d="M317.109,140.62s-14-2.179-21.785,7.845c-3.261,4.2-17.356,32.377-17.356,32.377l28.882,6.971Z" transform="translate(-17.081 -8.629)" fill="#a6cdec"/>
              <path id="Trazado_1266127" data-name="Trazado 1266127" d="M364.256,211.185l1.7-38.451-50.969-7.911c-1.916,6.691-2.9,14.576-4.814,21.266-.858,3-1.869,6.219-4.392,8.048l-8.97,27.227c57.9,20.182,69.487-2.949,69.642-4.94.305-3.926-2.2-5.24-2.2-5.24" transform="translate(-18.239 -10.128)" fill="#a6cdec"/>
              <path id="Trazado_1266128" data-name="Trazado 1266128" d="M343.942,138.23c-3.963,2.72-11.58,5.134-20.062.318a132.941,132.941,0,0,0-15.8,3.7l4.149,34.169c1.706,10.744,3,18.993,3.918,23.465H363.4l6.715-60.623Z" transform="translate(-18.931 -8.494)" fill="#a6cdec"/>
              <path id="Trazado_1266129" data-name="Trazado 1266129" d="M372.507,140.754a18.362,18.362,0,0,0-6.3,10.281,18.036,18.036,0,0,0-.406,3.461.352.352,0,0,0,.7,0,17.546,17.546,0,0,1,6.5-13.245c.352-.285-.148-.781-.5-.5" transform="translate(-22.478 -8.644)" fill="#26244a"/>
              <path id="Trazado_1266130" data-name="Trazado 1266130" d="M306.909,193.943q.082-6.2.164-12.4.131-9.817.261-19.633.03-2.268.06-4.534a.352.352,0,0,0-.7,0q-.083,6.2-.164,12.4-.131,9.817-.261,19.633l-.06,4.534a.352.352,0,0,0,.7,0" transform="translate(-18.816 -9.65)" fill="#26244a"/>
              <path id="Trazado_1266131" data-name="Trazado 1266131" d="M326.2,220.654a51.951,51.951,0,0,0,30.357-4.682c.407-.2.051-.8-.356-.607a51.562,51.562,0,0,1-23.045,5.143,50.764,50.764,0,0,1-6.77-.532c-.443-.065-.634.613-.187.679" transform="translate(-20.029 -13.231)" fill="#26244a"/>
              <path id="Trazado_1266132" data-name="Trazado 1266132" d="M281.969,193.6a30.874,30.874,0,0,1,15.494-5.1c.451-.022.453-.725,0-.7a31.585,31.585,0,0,0-15.849,5.2c-.375.25-.023.86.356.608" transform="translate(-17.295 -11.54)" fill="#ed796a"/>
              <path id="Trazado_1266133" data-name="Trazado 1266133" d="M410,194.41,396.258,175.6l-19.527,9.349L392.01,197.4Z" transform="translate(-23.15 -10.791)" fill="#f4b298"/>
              <path id="Trazado_1266134" data-name="Trazado 1266134" d="M405.514,100.84l-4.4,5.973L284.233,252.819,255.4,260.476l3.076-28.329,119.211-152.4Z" transform="translate(-15.694 -4.9)" fill="#f2a441"/>
              <path id="Trazado_1266135" data-name="Trazado 1266135" d="M396.88,93.765,276,246.216l-7.97-6.475L388.339,87.292Z" transform="translate(-16.47 -5.364)" fill="#f1f1f1"/>
              <path id="Trazado_1266136" data-name="Trazado 1266136" d="M258.552,242.125l25.524,20.735-17.26,4.583-10.1-8.458Z" transform="translate(-15.775 -14.878)" fill="#fff"/>
              <path id="Trazado_1266137" data-name="Trazado 1266137" d="M407.362,80.792c-7.8-6.1-16.437-6.321-21.674-1.276l27.832,21.091c3.534-6.835-.481-15.373-6.158-19.815" transform="translate(-23.7 -4.667)" fill="#ef6856"/>
              <path id="Trazado_1266138" data-name="Trazado 1266138" d="M380.929,85.459l27.9,21.354,4.4-5.973L385.4,79.749Z" transform="translate(-23.408 -4.9)" fill="#b8c1ea"/>
              <path id="Trazado_1266139" data-name="Trazado 1266139" d="M386.239,185.329l16,4.716a11.019,11.019,0,0,1,7.68,13.411c-.075.259-.16.517-.255.773a10.709,10.709,0,0,1-7.743,6.931c-2.833.5-5.7-.406-8.438-1.306-15.821-5.205-25.9-7.715-40.738-15.288l13.462-14.087Z" transform="translate(-21.676 -11.09)" fill="#f4b298"/>
              <path id="Trazado_1266140" data-name="Trazado 1266140" d="M349.3,172.8c-1.013-1.749-4.7-3.623-6.267-4.389s-3.742-.862-4.808.522c-.983,1.275-.507,3.216.582,4.4a12.932,12.932,0,0,0,4.078,2.525,7.509,7.509,0,0,1,3.652,3.02c1.445,2.854-.7,6.263-.335,9.441A8.119,8.119,0,0,0,350.212,194c2.037,1.267,9.162,2.867,11.482,3.475l8.885-17.134c-5.3-1.282-7.787-2.307-8.512-4.515s-.846-6.064-1.392-8.323a13.61,13.61,0,0,0-11.348-10.055c-1.32-.155-2.849-.023-3.671,1.023a2.475,2.475,0,0,0,.671,3.6,36.252,36.252,0,0,0,3.743,1.734c1.3.5,3.127,1.582,3.19,2.545,0,0-8.724-5.684-11.1-3.9s-1.37,2.708-.414,4.1,5.371,2.642,6.96,4.3.594,1.954.594,1.954" transform="translate(-20.751 -9.672)" fill="#f4b298"/>
              <path id="Trazado_1266141" data-name="Trazado 1266141" d="M365.532,180q5.792,1.7,11.578,3.414c6.167,1.827,12.337,3.651,18.48,5.56,1.059.328,2.117.659,3.169,1.008.307.1.615.2.918.316.085.032.259.072.187.071.18,0,.015.138-.04-.139.089.444.768.256.679-.188-.069-.348-.786-.478-1.053-.571-.8-.276-1.61-.53-2.419-.786-2.741-.863-5.492-1.694-8.245-2.524q-9.361-2.82-18.742-5.571-2.162-.636-4.325-1.271a.352.352,0,0,0-.187.679" transform="translate(-22.446 -11.018)" fill="#ed796a"/>
              <path id="Trazado_1266142" data-name="Trazado 1266142" d="M358.881,187.493l4.925-5.9,1.4-1.679a.363.363,0,0,0,0-.5.356.356,0,0,0-.5,0q-2.462,2.955-4.925,5.905l-1.4,1.679a.36.36,0,0,0,0,.5.354.354,0,0,0,.5,0" transform="translate(-22.016 -11.018)" fill="#ed796a"/>
              <path id="Trazado_1266143" data-name="Trazado 1266143" d="M292.733,197.933a8.1,8.1,0,0,1,6.341-9.357c-.5-.676,0-1.749.491-2.437s1.045-1.173,1.85-.92a7.363,7.363,0,0,1,.467-2.693c.472-.851.332-1.082,1.229-1.464a7,7,0,0,1,5.068-.072c1.776.537,3.68,1.606,3.942,3.443a3.675,3.675,0,0,1-2.858,4.112,2.407,2.407,0,0,1-3.056,3.282,3.781,3.781,0,0,1-5.018,4.305c-1.22-.452-2.184-1.522-3.464-1.752-1.651-.3-3.447,1.773-4.991,3.554" transform="translate(-17.981 -11.095)" fill="#f4b298"/>
              <path id="Trazado_1266144" data-name="Trazado 1266144" d="M299.474,189.428a8.054,8.054,0,0,1,5.627,1.92,9.772,9.772,0,0,1,1.258,1.227.355.355,0,0,0,.5,0,.36.36,0,0,0,0-.5,9.664,9.664,0,0,0-5.532-3.259,7.272,7.272,0,0,0-1.85-.094.361.361,0,0,0-.352.352.355.355,0,0,0,.352.352" transform="translate(-18.381 -11.595)" fill="#ed796a"/>
              <path id="Trazado_1266145" data-name="Trazado 1266145" d="M301.833,185.637a17.276,17.276,0,0,1,3.533.381,9.094,9.094,0,0,1,3.006,1.521,2.527,2.527,0,0,1,.989,1.175.352.352,0,0,0,.679-.187,2.736,2.736,0,0,0-.937-1.3,9.654,9.654,0,0,0-5.025-2.157c-.746-.078-1.5-.094-2.245-.142-.452-.029-.451.675,0,.7" transform="translate(-18.526 -11.364)" fill="#ed796a"/>
              <path id="Trazado_1266146" data-name="Trazado 1266146" d="M298.761,188.783a7.463,7.463,0,0,0-4.164,2.833,12.89,12.89,0,0,0-1.918,3.362,8.971,8.971,0,0,0-.442,2.853.352.352,0,0,0,.7,0,8.088,8.088,0,0,1,1.111-4.147c.291-.493.624-.957.952-1.426a7.083,7.083,0,0,1,1.529-1.633,6.8,6.8,0,0,1,2.416-1.164.352.352,0,0,0-.187-.679" transform="translate(-17.958 -11.6)" fill="#ed796a"/>
              <path id="Trazado_1266147" data-name="Trazado 1266147" d="M301.945,184.984a3.271,3.271,0,0,0-1.848.773,3.119,3.119,0,0,0-1.01,1.714,3.322,3.322,0,0,0-.025,1.222.354.354,0,0,0,.434.246.363.363,0,0,0,.246-.433.345.345,0,0,1-.008-.053c0,.078,0,.035,0,.014s-.008-.071-.01-.107c-.006-.08-.008-.16-.007-.239s0-.143.01-.214a.39.39,0,0,0,.011-.106s-.013.086,0,.014c0-.022.007-.044.01-.066a2.78,2.78,0,0,1,.11-.426c.011-.034.023-.068.036-.1l.02-.05c.026-.067,0,.006,0,.01,0-.023.036-.078.045-.1.019-.04.039-.08.061-.118.034-.063.069-.124.108-.184.02-.03.039-.06.06-.089l.031-.043c.007-.008.053-.068.021-.027s.028-.035.037-.045l.068-.076c.052-.057.105-.112.161-.164s.1-.09.154-.133c.014-.011.048-.044-.01.008.012-.01.027-.021.04-.03l.095-.067a2.864,2.864,0,0,1,.365-.208l.055-.027a1.145,1.145,0,0,1,.107-.042c.076-.028.153-.053.231-.074s.148-.038.223-.052c.041-.008.086-.01.127-.021-.01,0-.083.008-.018,0l.076-.008a.352.352,0,0,0,0-.7" transform="translate(-18.374 -11.367)" fill="#ed796a"/>
              <path id="Trazado_1266148" data-name="Trazado 1266148" d="M310.2,188.385a3.33,3.33,0,0,0,2.559-2.674,4.458,4.458,0,0,0-1.413-3.936c-2.044-1.939-5.8-2.593-8.113-.764a4.088,4.088,0,0,0-1.545,3.97c.094.443.772.256.679-.187a3.317,3.317,0,0,1,1.023-2.986,4.549,4.549,0,0,1,3.4-1.154c2.369.094,5.264,1.638,5.323,4.305a2.691,2.691,0,0,1-2.1,2.747c-.445.082-.257.76.187.679" transform="translate(-18.534 -11.057)" fill="#ed796a"/>
              <path id="Trazado_1266149" data-name="Trazado 1266149" d="M112.441,417.063l-20.073,18.7a3.549,3.549,0,0,1-5.017-.177l-.379-.408a3.549,3.549,0,0,1,.177-5.017L107.389,411.3a3.55,3.55,0,0,1,5.017.177l.224.241a3.777,3.777,0,0,1-.189,5.339" transform="translate(-5.286 -25.216)" fill="#dadef1"/>
              <path id="Trazado_1266150" data-name="Trazado 1266150" d="M114.5,425.718l-13.02,12.13a3.663,3.663,0,0,1-5.178-.183l-.224-.24a3.664,3.664,0,0,1,.183-5.178l13.02-12.131a3.664,3.664,0,0,1,5.178.184l.224.24a3.664,3.664,0,0,1-.183,5.178" transform="translate(-5.843 -25.755)" fill="#dadef1"/>
              <path id="Trazado_1266151" data-name="Trazado 1266151" d="M86.748,357.116a36.733,36.733,0,1,1-51.933-1.29,36.734,36.734,0,0,1,51.933,1.29" transform="translate(-1.438 -21.243)" fill="#f2a441"/>
              <path id="Trazado_1266152" data-name="Trazado 1266152" d="M72.519,419.631l13.273,6.544,18.488-17.592-7-16.821Z" transform="translate(-4.456 -24.073)" fill="#f2a441"/>
              <path id="Trazado_1266153" data-name="Trazado 1266153" d="M88.035,420.609A177.491,177.491,0,0,1,58.5,397.851c-2.1-2.008-4.514-4.682-3.841-7.846.529-2.494,3.146-3.955,5.552-3.985,2.869-.036,5.527,1.672,7.53,3.589a5.958,5.958,0,0,1,2.106,3.623,2.828,2.828,0,0,1-1.584,2.934c-1.4.516-2.822-.508-3.734-1.48a11.227,11.227,0,0,1-2.256-3.787,7.257,7.257,0,0,1,1.182-7.568c4-4.368,11.087-2.9,14.97.878a3.7,3.7,0,0,1,1.29,3.662,2.511,2.511,0,0,1-3.318,1.354,6.9,6.9,0,0,1-3.226-2.788,9.881,9.881,0,0,1-1.565-3.711,6.592,6.592,0,0,1,2.578-6.789,5.143,5.143,0,0,1,6.417.16c1.831,1.6,2.594,4.127,3.283,6.372.87,2.835,1.838,5.637,2.947,8.388a98.961,98.961,0,0,0,8.235,16.055q1.176,1.853,2.436,3.652c.258.368.867.017.607-.356A98.694,98.694,0,0,1,88.06,392.023a103,103,0,0,1-3.5-9.741c-.736-2.4-1.581-5.115-3.581-6.783a5.8,5.8,0,0,0-6.891-.342,7.138,7.138,0,0,0-3.307,6.672,10.242,10.242,0,0,0,4.049,7.361,4.138,4.138,0,0,0,3.861.681,2.954,2.954,0,0,0,1.84-2.98,5.134,5.134,0,0,0-2.024-3.557,15.207,15.207,0,0,0-3.92-2.392,10.94,10.94,0,0,0-8.724-.19,8,8,0,0,0-4.8,6.017,10.8,10.8,0,0,0,2.836,8.273A5.119,5.119,0,0,0,67.515,397a3.019,3.019,0,0,0,2.753-1.99c1.138-2.857-1.268-5.4-3.337-7.029-2.288-1.8-5.22-3.146-8.183-2.5a5.912,5.912,0,0,0-4.892,5.205c-.206,3.446,2.449,6.065,4.754,8.238q3.815,3.6,7.836,6.97a180.413,180.413,0,0,0,16.9,12.563q2.147,1.409,4.335,2.757c.386.238.741-.371.355-.608" transform="translate(-3.309 -22.993)" fill="#26244a"/>
              <path id="Trazado_1266154" data-name="Trazado 1266154" d="M108.791,409.89,85.769,431.338a3.663,3.663,0,0,1-5.178-.183l-.223-.24a3.663,3.663,0,0,1,.183-5.178l23.021-21.449a3.664,3.664,0,0,1,5.178.184l.224.24a3.664,3.664,0,0,1-.183,5.178" transform="translate(-4.878 -24.783)" fill="#dadef1"/>
              <path id="Trazado_1266155" data-name="Trazado 1266155" d="M85.994,432.275l18.434-17.024,5.231-4.831c.333-.308-.165-.805-.5-.5L90.726,426.947l-5.23,4.831c-.334.308.165.8.5.5" transform="translate(-5.247 -25.183)" fill="#26244a"/>
              <path id="Trazado_1266156" data-name="Trazado 1266156" d="M94.9,435.039l13.605-12.85,3.859-3.645c.33-.312-.168-.809-.5-.5L98.264,430.9q-1.93,1.823-3.859,3.646c-.33.312.168.808.5.5" transform="translate(-5.794 -25.682)" fill="#26244a"/>
              <path id="Trazado_1266157" data-name="Trazado 1266157" d="M64.8,351.548c7.409-1.224,14.758,2.925,20.04,7.777a32.913,32.913,0,0,1,9.886,17.557c.153.74,1.284.426,1.132-.312a34,34,0,0,0-10.819-18.64c-5.573-4.874-12.946-8.77-20.551-7.513-.743.122-.428,1.253.312,1.131" transform="translate(-3.937 -21.518)" fill="#fff"/>
              <g id="Grupo_1204893" data-name="Grupo 1204893" transform="translate(24.975 345.156)" opacity="0.3">
                <g id="Grupo_1204892" data-name="Grupo 1204892">
                  <g id="Grupo_1204891" data-name="Grupo 1204891" clip-path="url(#clip-path-5)">
                    <path id="Trazado_1266158" data-name="Trazado 1266158" d="M32.943,368.949c3.91-2.781,6.914-.214,8.685,2.678s1.793,6.5,1.574,9.879-.613,6.878.478,10.088c.67,1.974,1.869,3.724,2.679,5.644s1.2,4.2.227,6.043c-1.153,2.185-3.983,3.091-6.4,2.6a12.043,12.043,0,0,1-6.156-3.912c-7.756-8.332-10.082-20.659-3.82-30.165a22.2,22.2,0,0,1,2.738-2.855" transform="translate(-26.61 -367.754)" fill="#fff"/>
                  </g>
                </g>
              </g>
            </g>
          </g>
        </g>
      </g>
    </g>
  </g>
</svg>
