<svg xmlns="http://www.w3.org/2000/svg" xmlns:xlink="http://www.w3.org/1999/xlink" width="400" height="358.771" viewBox="0 0 400 358.771">
  <defs>
    <clipPath id="clip-path">
      <path id="Trazado_873802" data-name="Trazado 873802" d="M0,0H400V321L283.636,288.239S248.387,311.13,210,312.885s-68.832-10.82-68.832-10.82S118.659,294.774,85,261.295,0,321,0,321Z" transform="translate(1020 5255)" fill="#fff" stroke="#707070" stroke-width="1"/>
    </clipPath>
    <clipPath id="clip-path-2">
      <rect id="Rectángulo_462106" data-name="Rectángulo 462106" width="346.719" height="345.906" fill="#d3d3d3"/>
    </clipPath>
    <clipPath id="clip-path-3">
      <rect id="Rectángulo_462107" data-name="Rectángulo 462107" width="141.898" height="56.14" fill="#083851"/>
    </clipPath>
    <clipPath id="clip-path-4">
      <rect id="Rectángulo_462108" data-name="Rectángulo 462108" width="346.719" height="345.906" fill="none"/>
    </clipPath>
    <clipPath id="clip-path-5">
      <path id="Trazado_1265994" data-name="Trazado 1265994" d="M300.84,830.987a6.736,6.736,0,0,0,7.3,5.341,7.8,7.8,0,0,0-2.62-4.078,7.6,7.6,0,0,0-4.319-1.274c-.227,0-.36.01-.36.01" transform="translate(-300.84 -830.977)" fill="none"/>
    </clipPath>
  </defs>
  <g id="Grupo_1205208" data-name="Grupo 1205208" transform="translate(-180.756 -401.565)">
    <g id="Grupo_1205205" data-name="Grupo 1205205">
      <g id="Grupo_1100882" data-name="Grupo 1100882" transform="translate(-839.244 -4815.664)">
        <g id="Grupo_1099960" data-name="Grupo 1099960" transform="translate(13718.387 17874.502)">
          <path id="Trazado_145968" data-name="Trazado 145968" d="M66.711,0a66.711,66.711,0,1,0,66.711,66.711A66.711,66.711,0,0,0,66.711,0Z" transform="translate(-12688.135 -12445.871)" fill="#a6cdec"/>
          <path id="Trazado_145969" data-name="Trazado 145969" d="M45.584,0A45.584,45.584,0,1,0,91.168,45.584,45.584,45.584,0,0,0,45.584,0Z" transform="translate(-12426.826 -12590.302)" fill="#a6cdec"/>
          <rect id="Rectángulo_34812" data-name="Rectángulo 34812" width="400" height="300" transform="translate(-12698.387 -12607.222)" fill="none"/>
          <path id="Trazado_145967" data-name="Trazado 145967" d="M150.485,0A150.485,150.485,0,1,0,300.971,150.485,150.485,150.485,0,0,0,150.485,0Z" transform="translate(-12648.872 -12607.707)" fill="#aaca79"/>
          <path id="Trazado_145971" data-name="Trazado 145971" d="M12.533,0A12.533,12.533,0,1,0,25.066,12.533,12.533,12.533,0,0,0,12.533,0Z" transform="translate(-12372.968 -12357.124)" fill="#0a4666"/>
          <path id="Elipse_4044" data-name="Elipse 4044" d="M17,4.594A12.4,12.4,0,1,1,4.594,17,12.417,12.417,0,0,1,17,4.594M17,0a17,17,0,1,0,17,17A17,17,0,0,0,17,0Z" transform="translate(-12406.962 -12500.362)" fill="#fff"/>
        </g>
      </g>
      <g id="Grupo_1204806" data-name="Grupo 1204806" transform="translate(225.5 401.567)">
        <g id="Grupo_1204807" data-name="Grupo 1204807" transform="translate(0 -0.002)">
          <g id="Grupo_1204806-2" data-name="Grupo 1204806" clip-path="url(#clip-path-2)">
            <path id="Trazado_1265960" data-name="Trazado 1265960" d="M1326.018,924.843h-4.023a37.167,37.167,0,0,0-1.527-5.712l3.481-2.011-6.807-11.8-3.489,2.015a37.694,37.694,0,0,0-4.176-4.178l2.015-3.491-11.79-6.81-2.01,3.483a37.136,37.136,0,0,0-5.709-1.528v-4.025h-13.614v4.025a37.139,37.139,0,0,0-5.709,1.528l-2.01-3.483-11.79,6.81,2.014,3.491a37.725,37.725,0,0,0-4.176,4.178l-3.489-2.015-6.807,11.8,3.482,2.011a37.2,37.2,0,0,0-1.527,5.712h-4.023v13.62h4.023a37.2,37.2,0,0,0,1.527,5.711l-3.482,2.011,6.807,11.8,3.489-2.016a37.678,37.678,0,0,0,4.176,4.178l-2.014,3.491,11.79,6.81,2.01-3.483a37.146,37.146,0,0,0,5.709,1.528v4.025h13.614v-4.025a37.143,37.143,0,0,0,5.709-1.528l2.01,3.483,11.79-6.81-2.015-3.491a37.646,37.646,0,0,0,4.176-4.178l3.489,2.016,6.807-11.8-3.481-2.011a37.168,37.168,0,0,0,1.527-5.711h4.023Zm-18.581,7.539a22.275,22.275,0,1,1-22.992-23,22.359,22.359,0,0,1,22.992,23" transform="translate(-1008.546 -721.998)" fill="#e5efd6"/>
            <path id="Trazado_1265962" data-name="Trazado 1265962" d="M1330.7,1005.03a30.215,30.215,0,0,1-4.522-60.087.418.418,0,1,1,.124.826,29.378,29.378,0,1,0,32.822,36.452.418.418,0,0,1,.809.21,30.2,30.2,0,0,1-29.233,22.6" transform="translate(-1054.074 -765.884)" fill="#f2e6dc"/>
            <path id="Trazado_1265963" data-name="Trazado 1265963" d="M883.332,857.5H883.3l-17.008-1.26a.417.417,0,0,1-.386-.447l.615-8.3a.418.418,0,1,1,.833.062l-.584,7.879,16.591,1.23a.418.418,0,0,1-.03.834" transform="translate(-701.827 -686.591)" fill="#d3bba3"/>
            <path id="Trazado_1265964" data-name="Trazado 1265964" d="M883.343,126.131h-.031a.418.418,0,0,1-.386-.447L892.211.385A.418.418,0,0,1,892.659,0l61.856,4.584a.418.418,0,0,1,.386.447l-1.943,26.223a.418.418,0,1,1-.833-.062l1.912-25.807L893.014.863l-9.255,124.881a.418.418,0,0,1-.416.387" transform="translate(-715.621 0.002)" fill="#d3bba3"/>
            <rect id="Rectángulo_462083" data-name="Rectángulo 462083" width="31.189" height="45.932" transform="translate(182.06 41.103) rotate(-85.762)" fill="#d3bba3"/>
            <path id="Trazado_1265965" data-name="Trazado 1265965" d="M991.039,271.9h-.031L945.2,268.5a.418.418,0,0,1-.386-.447l2.305-31.1a.419.419,0,0,1,.447-.386l45.806,3.394a.417.417,0,0,1,.385.447l-2.3,31.1a.418.418,0,0,1-.416.387m-45.359-4.2,44.973,3.333,2.243-30.27-44.973-3.333Z" transform="translate(-765.784 -191.739)" fill="#e6d0be"/>
            <rect id="Rectángulo_462084" data-name="Rectángulo 462084" width="31.189" height="45.932" transform="translate(176.837 111.593) rotate(-85.762)" fill="#fff"/>
            <path id="Trazado_1265966" data-name="Trazado 1265966" d="M892.111,743.263a.415.415,0,0,1-.225-.066l-15.356-9.858a.418.418,0,0,1-.126-.577l6.873-10.707a.418.418,0,0,1,.7.451l-6.647,10.355,15,9.633a.418.418,0,0,1-.226.769" transform="translate(-710.282 -585.078)" fill="#d3bba3"/>
            <path id="Trazado_1265967" data-name="Trazado 1265967" d="M1141.4,931.074a.417.417,0,0,1-.226-.066l-2.528-1.623a.418.418,0,1,1,.451-.7l2.177,1.4,3.521-5.484a.418.418,0,0,1,.7.451l-3.746,5.836a.419.419,0,0,1-.351.192" transform="translate(-922.73 -749.239)" fill="#d3bba3"/>
            <path id="Trazado_1265968" data-name="Trazado 1265968" d="M970.517,142.218a.418.418,0,0,1-.351-.644L1043.847,26.8a.417.417,0,0,1,.577-.126l52.2,33.508a.418.418,0,0,1,.126.577l-14.295,22.267a.418.418,0,0,1-.7-.451l14.069-21.916L1044.325,27.6,970.869,142.026a.417.417,0,0,1-.352.192" transform="translate(-786.278 -21.566)" fill="#d3bba3"/>
            <rect id="Rectángulo_462085" data-name="Rectángulo 462085" width="31.189" height="45.932" transform="translate(242.975 43.637) rotate(-57.301)" fill="#776e42"/>
            <rect id="Rectángulo_462086" data-name="Rectángulo 462086" width="31.189" height="45.932" transform="translate(223.882 73.378) rotate(-57.301)" fill="#8b865c"/>
            <rect id="Rectángulo_462087" data-name="Rectángulo 462087" width="31.189" height="45.932" transform="translate(204.79 103.118) rotate(-57.301)" fill="#9e9569"/>
            <rect id="Rectángulo_462088" data-name="Rectángulo 462088" width="169.276" height="62.026" transform="translate(169.955 153.215) rotate(-32.118)" fill="#fff"/>
            <path id="Trazado_1265969" data-name="Trazado 1265969" d="M1599,403.344a.418.418,0,0,1-.223-.772L1628,384.234l-32.533-51.825-12.773,8.018a.418.418,0,1,1-.444-.708l13.127-8.24a.418.418,0,0,1,.576.132l32.977,52.533a.418.418,0,0,1-.132.576l-29.568,18.561a.417.417,0,0,1-.222.064" transform="translate(-1282.27 -268.615)" fill="#d3bba3"/>
            <rect id="Rectángulo_462089" data-name="Rectángulo 462089" width="31.189" height="45.932" transform="matrix(0.847, -0.532, 0.532, 0.847, 283.554, 91.406)" fill="#e0aa63"/>
            <rect id="Rectángulo_462090" data-name="Rectángulo 462090" width="31.189" height="45.932" transform="matrix(0.847, -0.532, 0.532, 0.847, 253.622, 110.196)" fill="#efbc73"/>
            <rect id="Rectángulo_462091" data-name="Rectángulo 462091" width="31.189" height="45.932" transform="matrix(0.847, -0.532, 0.532, 0.847, 223.689, 128.986)" fill="#ffd092"/>
            <path id="Trazado_1265970" data-name="Trazado 1265970" d="M499.325,168.252h-4.24a39.183,39.183,0,0,0-1.609-6.02l3.669-2.119L489.97,147.68l-3.678,2.124a39.714,39.714,0,0,0-4.4-4.4l2.123-3.679-12.426-7.178-2.119,3.671a39.123,39.123,0,0,0-6.017-1.61v-4.242H449.1v4.242a39.135,39.135,0,0,0-6.018,1.61l-2.119-3.671-12.426,7.178,2.123,3.679a39.732,39.732,0,0,0-4.4,4.4l-3.678-2.124-7.174,12.432,3.669,2.119a39.134,39.134,0,0,0-1.609,6.02h-4.24v14.355h4.24a39.131,39.131,0,0,0,1.609,6.02l-3.669,2.119,7.174,12.432,3.678-2.124a39.73,39.73,0,0,0,4.4,4.4l-2.123,3.679,12.426,7.178,2.119-3.671a39.133,39.133,0,0,0,6.018,1.61v4.242h14.349v-4.242a39.121,39.121,0,0,0,6.017-1.61l2.119,3.671,12.426-7.178-2.123-3.679a39.712,39.712,0,0,0,4.4-4.4l3.678,2.124,7.174-12.432-3.669-2.119a39.18,39.18,0,0,0,1.609-6.02h4.24ZM479.742,176.2a23.477,23.477,0,1,1-24.232-24.242A23.566,23.566,0,0,1,479.742,176.2" transform="translate(-334.928 -107.282)" fill="#e5efd6"/>
            <path id="Trazado_1265971" data-name="Trazado 1265971" d="M497.858,263.347a31.823,31.823,0,0,1-4.763-63.285.418.418,0,0,1,.124.826,30.986,30.986,0,1,0,34.618,38.447.418.418,0,0,1,.809.21,31.8,31.8,0,0,1-30.788,23.8" transform="translate(-377.741 -162.149)" fill="#f2e6dc"/>
            <rect id="Rectángulo_462092" data-name="Rectángulo 462092" width="248.663" height="188.555" transform="translate(28.215 73.197)" fill="#a6cdec"/>
            <rect id="Rectángulo_462093" data-name="Rectángulo 462093" width="233.06" height="157.825" transform="translate(36.017 81.002)" fill="#fff"/>
            <path id="Trazado_1265972" data-name="Trazado 1265972" d="M780.346,1295.953a4.681,4.681,0,1,0,4.681-4.683,4.682,4.682,0,0,0-4.681,4.683" transform="translate(-632.48 -1046.59)" fill="#fff"/>
            <path id="Trazado_1265973" data-name="Trazado 1265973" d="M148.9,1408.341h0a19.537,19.537,0,0,0,19.533,19.541H429.08a19.537,19.537,0,0,0,19.533-19.541Z" transform="translate(-120.688 -1141.477)" fill="#e6d0be"/>
            <path id="Trazado_1265974" data-name="Trazado 1265974" d="M426.3,1433.149a15.924,15.924,0,0,1-15.9-15.909.418.418,0,0,1,.835,0,15.087,15.087,0,0,0,15.067,15.074.418.418,0,1,1,0,.836" transform="translate(-332.632 -1148.351)" fill="#f2e6dc"/>
            <path id="Trazado_1265975" data-name="Trazado 1265975" d="M975.342,1432.715a8.3,8.3,0,0,0,8.3,8.3h29.22a8.3,8.3,0,0,0,8.3-8.3Z" transform="translate(-790.527 -1161.233)" fill="#f2e6dc"/>
            <rect id="Rectángulo_462094" data-name="Rectángulo 462094" width="131.593" height="4.623" transform="translate(119.519 97.948)" fill="#e4f0f9"/>
            <rect id="Rectángulo_462095" data-name="Rectángulo 462095" width="76.954" height="51.035" transform="translate(174.158 106.779)" fill="#e4f0f9"/>
            <rect id="Rectángulo_462096" data-name="Rectángulo 462096" width="51.097" height="51.118" transform="translate(119.459 106.845)" fill="#a6cdec"/>
            <path id="Trazado_1265976" data-name="Trazado 1265976" d="M680.922,684.816l32.9-.375c-5.044-16.144-8.163-20.208-10.174-19.962-2.905.355-3.666,9.723-7.66,10.036-2.4.188-3.4-3.1-5.822-3.19-2.083-.079-5.16,2.207-9.248,13.491" transform="translate(-551.896 -538.559)" fill="#fff"/>
            <path id="Trazado_1265977" data-name="Trazado 1265977" d="M721.436,632.244a4.249,4.249,0,1,1-4.3-4.2,4.25,4.25,0,0,1,4.3,4.2" transform="translate(-577.845 -509.036)" fill="#fff"/>
            <rect id="Rectángulo_462097" data-name="Rectángulo 462097" width="131.593" height="7.798" transform="translate(119.519 163.166)" fill="#e4f0f9"/>
            <rect id="Rectángulo_462098" data-name="Rectángulo 462098" width="131.593" height="51.468" transform="translate(119.519 175.623)" fill="#e4f0f9"/>
            <rect id="Rectángulo_462099" data-name="Rectángulo 462099" width="53.98" height="4.13" transform="translate(49.81 97.949)" fill="#e4f0f9"/>
            <rect id="Rectángulo_462100" data-name="Rectángulo 462100" width="53.98" height="4.13" transform="translate(49.81 108.824)" fill="#e4f0f9"/>
            <rect id="Rectángulo_462101" data-name="Rectángulo 462101" width="53.98" height="4.13" transform="translate(49.81 120.368)" fill="#e4f0f9"/>
            <rect id="Rectángulo_462102" data-name="Rectángulo 462102" width="53.98" height="4.13" transform="translate(49.81 131.265)" fill="#e4f0f9"/>
            <rect id="Rectángulo_462103" data-name="Rectángulo 462103" width="53.98" height="4.13" transform="translate(49.81 142.14)" fill="#e4f0f9"/>
            <rect id="Rectángulo_462104" data-name="Rectángulo 462104" width="53.98" height="4.13" transform="translate(49.81 153.685)" fill="#e4f0f9"/>
            <rect id="Rectángulo_462105" data-name="Rectángulo 462105" width="54.642" height="64.08" transform="translate(49.294 162.974)" fill="#e4f0f9"/>
            <path id="Trazado_1265978" data-name="Trazado 1265978" d="M582.31,1553.045l-11.534,26.013,45.7,24.374s4.469-41.752-34.164-50.387" transform="translate(-462.621 -1258.761)" fill="#d3d3d3"/>
            <path id="Trazado_1265979" data-name="Trazado 1265979" d="M674.746,1611.561,691.7,1627.04l13.062-7.712-13.939-19.307Z" transform="translate(-546.89 -1296.836)" fill="#bc8271"/>
            <path id="Trazado_1265980" data-name="Trazado 1265980" d="M682.262,1693.189h65.785s-15-21.142-41.212-30.882l-17.753,8.9a157.764,157.764,0,0,0-6.821,21.984" transform="translate(-552.982 -1347.32)" fill="#d3d3d3"/>
            <path id="Trazado_1265981" data-name="Trazado 1265981" d="M811.031,1689.141a.418.418,0,0,1-.32-.686l6.779-8.106a.418.418,0,0,1,.641.536l-6.779,8.106a.417.417,0,0,1-.321.15" transform="translate(-657.013 -1361.822)" fill="#363e44"/>
            <path id="Trazado_1265982" data-name="Trazado 1265982" d="M840.545,1702.651a.418.418,0,0,1-.32-.686l6.779-8.106a.418.418,0,1,1,.641.536l-6.779,8.106a.417.417,0,0,1-.321.15" transform="translate(-680.934 -1372.772)" fill="#363e44"/>
            <path id="Trazado_1265983" data-name="Trazado 1265983" d="M605.331,1272.134l1.147,44.252c.149-.018,26.461,14.55,26.277,13.3-.122-.828,1.514-36.9,2.638-61.275a27.564,27.564,0,0,0-1.248-9.569l-18.161,3.074Z" transform="translate(-490.628 -1020.303)" fill="#083851"/>
          </g>
        </g>
        <g id="Grupo_1204809" data-name="Grupo 1204809" transform="translate(2.296 216.368)">
          <g id="Grupo_1204808" data-name="Grupo 1204808" clip-path="url(#clip-path-3)">
            <path id="Trazado_1265984" data-name="Trazado 1265984" d="M149.067,1152c-39.515-6.787-77.973,6.327-115.638,34.367,0,0-2.654,17.654,18.106,22.507s90.01-31.029,90.01-31.029l.163,6.267,28.814-13.3A27.394,27.394,0,0,0,149.067,1152" transform="translate(-29.301 -1148.655)" fill="#083851"/>
          </g>
        </g>
        <g id="Grupo_1204811" data-name="Grupo 1204811" transform="translate(0 -0.002)">
          <g id="Grupo_1204810" data-name="Grupo 1204810" clip-path="url(#clip-path-4)">
            <path id="Trazado_1265985" data-name="Trazado 1265985" d="M386.633,1301.4l56.029,61.037,19.633-15.474-31.212-50.89s-10.136-14.7-23.648-7.874-20.8,13.2-20.8,13.2" transform="translate(-313.371 -1042.634)" fill="#083851"/>
            <path id="Trazado_1265986" data-name="Trazado 1265986" d="M427.326,1296.815a.418.418,0,0,1-.175-.8l40.648-18.764a.418.418,0,1,1,.35.758L427.5,1296.776a.415.415,0,0,1-.175.039" transform="translate(-346.014 -1035.198)" fill="#363e44"/>
            <path id="Trazado_1265987" data-name="Trazado 1265987" d="M638.419,1366.607a.418.418,0,0,1-.357-.2l-25.119-41.067a.418.418,0,1,1,.713-.436l25.119,41.067a.418.418,0,0,1-.356.636" transform="translate(-496.748 -1073.688)" fill="#363e44"/>
            <path id="Trazado_1265988" data-name="Trazado 1265988" d="M57.982,733a11.33,11.33,0,0,1-8.733-2.821c-3.684-3.541-13.163-5.687-20.888.223C12.992,742.162,13.637,721.571,0,728.835v5.077c1.463-.544,3.777-.522,6.654,2.5,4.25,4.457,6.959,3.725,7.72,3.375.143-.074.221-.12.221-.12a1.512,1.512,0,0,1-.221.12c-1.018.526-5.355,2.463-8.7-.793C3.528,736.905,1.5,736.854,0,737.308v20.74s2.948,7.933,12.266,4.573S23.977,748.3,33.588,752.51s7.566,5.082,16.555.777S57.982,733,57.982,733" transform="translate(0 -589.011)" fill="#363e44"/>
            <path id="Trazado_1265989" data-name="Trazado 1265989" d="M269.523,796.063c-3.674.757-9.209-8.12-9.209-8.12l-.363-11.456a9.555,9.555,0,1,1,17.493,7.694s-4.18,11.111-7.922,11.882" transform="translate(-210.694 -624.722)" fill="#bc8271"/>
            <path id="Trazado_1265990" data-name="Trazado 1265990" d="M208.862,822.517l10.354,13.427.838-10.113,9.132-20.769-10.6-4.662Z" transform="translate(-169.285 -648.734)" fill="#bc8271"/>
            <path id="Trazado_1265991" data-name="Trazado 1265991" d="M330.643,851.33s1.323,3.65.894,4.271c-.512.742-3.462.034-3.462.034s2.631-4.27,2.568-4.305" transform="translate(-265.909 -690.013)" fill="#bc8271"/>
            <path id="Trazado_1265992" data-name="Trazado 1265992" d="M300.841,830.987a8.293,8.293,0,0,1,3.576.633c.376.165-1.655,2.859-1.936,2.532a8.317,8.317,0,0,1-1.639-3.165" transform="translate(-243.835 -673.516)" fill="#fff"/>
          </g>
        </g>
        <g id="Grupo_1204813" data-name="Grupo 1204813" transform="translate(57.005 157.458)">
          <g id="Grupo_1204812" data-name="Grupo 1204812" clip-path="url(#clip-path-5)">
            <path id="Trazado_1265993" data-name="Trazado 1265993" d="M311.378,833.183a3.266,3.266,0,1,1-1.859,4.228,3.266,3.266,0,0,1,1.859-4.228" transform="translate(-307.693 -832.584)" fill="#363e44"/>
          </g>
        </g>
        <g id="Grupo_1204815" data-name="Grupo 1204815" transform="translate(0 -0.002)">
          <g id="Grupo_1204814" data-name="Grupo 1204814" clip-path="url(#clip-path-4)">
            <path id="Trazado_1265995" data-name="Trazado 1265995" d="M308.488,867.6a1.755,1.755,0,0,1-1.515-2.652.418.418,0,1,1,.72.424.92.92,0,0,0,.94,1.38.418.418,0,0,1,.131.825,1.792,1.792,0,0,1-.276.022" transform="translate(-248.609 -700.885)" fill="#363e44"/>
            <path id="Trazado_1265996" data-name="Trazado 1265996" d="M266.1,868.082a.414.414,0,0,1-.232-.071c-3.195-2.141-6.363-7.189-6.5-7.4a.418.418,0,0,1,.709-.442c.032.051,3.207,5.11,6.252,7.151a.418.418,0,0,1-.233.765" transform="translate(-210.175 -697.016)" fill="#363e44"/>
            <path id="Trazado_1265997" data-name="Trazado 1265997" d="M208.312,768.548c-1.233-2.763,2.291-8.21,6.236-10.265,5.086-2.65,8.974-3.329,13.376-.788,6.646,3.838,5.276,13.066,5.276,13.066s-6.882-2.886-9.226-3.795c-3.3-1.277-5.061,9.524-8.847,3.362-.416-.678-5.644,12.579-11.368,9.079-7.839-4.793,5.863-7.728,4.554-10.66" transform="translate(-163.174 -612.669)" fill="#363e44"/>
            <path id="Trazado_1265998" data-name="Trazado 1265998" d="M267.622,816.992a3.269,3.269,0,1,1-3.269-3.27,3.269,3.269,0,0,1,3.269,3.27" transform="translate(-211.612 -659.531)" fill="#bc8271"/>
            <path id="Trazado_1265999" data-name="Trazado 1265999" d="M50.433,855.807a7.349,7.349,0,0,1-3.16-.734,6.908,6.908,0,0,1-3.687-4.1.418.418,0,0,1,.8-.247,6.374,6.374,0,0,0,8.086,3.866c2.1-.836,3.575-2.752,5-4.6q.235-.3.468-.6c1.552-1.986,3.7-4.3,6.571-4.517a10.739,10.739,0,0,1,4.346.866,12.129,12.129,0,0,0,3.444.843,6.016,6.016,0,0,0,5.965-6.192.418.418,0,1,1,.833-.065,6.848,6.848,0,0,1-6.832,7.093,12.928,12.928,0,0,1-3.684-.888,10,10,0,0,0-4.007-.822c-2.545.2-4.531,2.347-5.977,4.2q-.233.3-.465.6c-1.5,1.942-3.048,3.95-5.357,4.87a6.331,6.331,0,0,1-2.346.44" transform="translate(-35.312 -680.774)" fill="#363e44"/>
            <path id="Trazado_1266000" data-name="Trazado 1266000" d="M76.723,735.4a8,8,0,0,1-7.14-4.426.418.418,0,0,1,.758-.351,7.085,7.085,0,0,0,8.079,3.71,14.082,14.082,0,0,0,3.444-1.7c.515-.315,1.048-.641,1.591-.932a16.842,16.842,0,0,1,17.722,1.445.418.418,0,1,1-.509.663,15.981,15.981,0,0,0-16.818-1.371c-.522.28-1.045.6-1.55.909a14.936,14.936,0,0,1-3.652,1.8,7.07,7.07,0,0,1-1.925.262" transform="translate(-56.366 -591.539)" fill="#363e44"/>
            <path id="Trazado_1266001" data-name="Trazado 1266001" d="M525.3,1136.77H491.721a4.125,4.125,0,0,1-4.124-4.125h37.7Z" transform="translate(-395.203 -918.022)" fill="#363e44"/>
            <path id="Trazado_1266002" data-name="Trazado 1266002" d="M671.066,994.741l10.17-32a4.125,4.125,0,0,0-2.681-5.181l-11.419,35.936Z" transform="translate(-540.721 -776.11)" fill="#363e44"/>
            <path id="Trazado_1266003" data-name="Trazado 1266003" d="M665.961,987.639a.423.423,0,0,1-.127-.02.418.418,0,0,1-.272-.525l9.995-31.454a.418.418,0,1,1,.8.253l-9.995,31.454a.418.418,0,0,1-.4.292" transform="translate(-539.431 -774.322)" fill="#f2e6dc"/>
            <path id="Trazado_1266004" data-name="Trazado 1266004" d="M496.325,1072.373c-2.222-.84-10.9-5.806-14.808-3.272-3.935,2.553-5.481,7.486-5.374,12.16l.041.042a9.207,9.207,0,0,0,3.454,3.915c2.1,1.256,3.246.595,5.674,1.576,4.1,1.656,4.842,5.283,6.258,4.617.973-.457.631-2.589-.189-4.453-.842-1.914-2.2-2.8-1.986-3.07.23-.3,1.488.778,3.176,1.973.784.555,1.995,3.4,3.416,2.971,1.133-.342.619-3.613-1.273-5.8-1.338-1.549-3.308-1.851-3.178-2.2.1-.263,1.266-.054,2.22.425,1.574.79,2.843,3.687,4.144,3.266,1.274-.412.774-3.261-.837-5.385-1.358-1.791-3.571-2.023-3.412-2.459.111-.307,1.124-.407,3.211.017,1.742.355,4.9,2.163,5.546.4.543-1.479-2.729-3.456-6.083-4.723" transform="translate(-385.916 -865.941)" fill="#bc8271"/>
            <path id="Trazado_1266005" data-name="Trazado 1266005" d="M247.127,1075.3a11.847,11.847,0,0,0-7.87,11.792c.221,3.416,2,6.9,7.411,8.865,13.169,4.795,41.726-14.673,41.726-14.673l3.322-12.876c-15.019-.3-31.022,1.962-44.589,6.893" transform="translate(-193.902 -865.932)" fill="#bc8271"/>
            <path id="Trazado_1266006" data-name="Trazado 1266006" d="M8.56,983.617l61.571-27.406-9.292-41.379,1.978-9.156L38.54,896.536l-4.055,8.589S14.408,923.76,8.56,983.617" transform="translate(-6.938 -726.653)" fill="#445130"/>
            <path id="Trazado_1266007" data-name="Trazado 1266007" d="M45.489,979.507l13.365,6.142-6.026,20.591s20.387-7.28,36-10.5l2.274,28.333L37.56,1036.336a15.883,15.883,0,0,1-19.768-17.782c1.712-10.7,6.632-26.337,18.633-37.581a8.237,8.237,0,0,1,9.064-1.466" transform="translate(-14.254 -793.292)" fill="#445130"/>
            <path id="Trazado_1266008" data-name="Trazado 1266008" d="M47.275,1259.447a16.263,16.263,0,0,1-12.529-5.91.418.418,0,0,1,.641-.536,15.443,15.443,0,0,0,15.9,5.09l12.443-2.85a.418.418,0,0,1,.186.815L51.481,1258.9a16.63,16.63,0,0,1-4.206.544" transform="translate(-28.083 -1015.451)" fill="#363e44"/>
            <path id="Trazado_1266009" data-name="Trazado 1266009" d="M200.234,1081.18l3.07-10.49a.418.418,0,0,1,.8.235l-2.611,8.921c2.324-.813,9.622-3.323,18-5.794a.418.418,0,0,1,.237.8c-10.106,2.981-18.637,6.021-18.722,6.051Z" transform="translate(-162.292 -867.564)" fill="#363e44"/>
            <path id="Trazado_1266010" data-name="Trazado 1266010" d="M187.834,1000.035a.418.418,0,0,1-.4-.549c2.675-8.12-7.291-11.842-7.716-12a.418.418,0,0,1,.285-.786c.112.041,11.154,4.151,8.225,13.043a.418.418,0,0,1-.4.287" transform="translate(-145.443 -799.716)" fill="#363e44"/>
            <path id="Trazado_1266011" data-name="Trazado 1266011" d="M103.3,1508.665H1.668a.418.418,0,0,1-.418-.418v-71.9a.418.418,0,0,1,.418-.418H103.3a.418.418,0,0,1,.418.418v71.9a.418.418,0,0,1-.418.418m-101.218-.835h100.8v-71.063H2.086Z" transform="translate(-1.013 -1163.839)" fill="#84524d"/>
            <path id="Trazado_1266012" data-name="Trazado 1266012" d="M340.432,1534.14h1.158a10.7,10.7,0,0,0,.44,1.643l-1,.579,1.96,3.394,1-.58a10.846,10.846,0,0,0,1.2,1.2l-.58,1,3.394,1.96.578-1a10.709,10.709,0,0,0,1.643.44v1.158h3.919v-1.158a10.7,10.7,0,0,0,1.643-.44l.579,1,3.394-1.96-.58-1a10.857,10.857,0,0,0,1.2-1.2l1,.58,1.959-3.394-1-.579a10.692,10.692,0,0,0,.44-1.643h1.158v-3.919h-1.158a10.691,10.691,0,0,0-.44-1.644l1-.579-1.959-3.394-1,.58a10.836,10.836,0,0,0-1.2-1.2l.58-1-3.394-1.96-.579,1a10.715,10.715,0,0,0-1.643-.44v-1.158h-3.919v1.158a10.723,10.723,0,0,0-1.643.44l-.578-1-3.394,1.96.58,1a10.826,10.826,0,0,0-1.2,1.2l-1-.58-1.96,3.394,1,.579a10.7,10.7,0,0,0-.44,1.644h-1.158Zm11.969-8.451a6.495,6.495,0,1,1-6.7,6.7,6.518,6.518,0,0,1,6.7-6.7" transform="translate(-275.924 -1232.32)" fill="#d3bba3"/>
            <path id="Trazado_1266013" data-name="Trazado 1266013" d="M365.193,1553.414a8.988,8.988,0,0,1-8.7-6.726.418.418,0,0,1,.809-.21,8.156,8.156,0,1,0,9.115-10.12.418.418,0,1,1,.124-.826,8.992,8.992,0,0,1-1.346,17.883" transform="translate(-288.93 -1244.563)" fill="#f2e6dc"/>
            <path id="Trazado_1266014" data-name="Trazado 1266014" d="M54.839,1539.262h2.512a23.231,23.231,0,0,0,.954,3.566l-2.174,1.256,4.252,7.365,2.179-1.258a23.524,23.524,0,0,0,2.608,2.609l-1.258,2.18,7.364,4.252h0l1.255-2.175a23.214,23.214,0,0,0,3.566.954v2.513h8.5v-2.513a23.208,23.208,0,0,0,3.566-.954l1.255,2.175,7.364-4.252-1.258-2.18a23.543,23.543,0,0,0,2.608-2.609l2.179,1.258,4.251-7.365-2.174-1.256a23.229,23.229,0,0,0,.953-3.566h2.513v-8.5h-2.513a23.232,23.232,0,0,0-.953-3.566l2.174-1.256-4.251-7.365-2.179,1.259a23.523,23.523,0,0,0-2.608-2.609l1.258-2.18-7.364-4.252-1.255,2.175a23.208,23.208,0,0,0-3.566-.954V1509.5H76.1v2.513a23.213,23.213,0,0,0-3.566.954l-1.255-2.175-7.364,4.252,1.258,2.18a23.5,23.5,0,0,0-2.608,2.609l-2.179-1.259-4.252,7.365,2.174,1.256a23.234,23.234,0,0,0-.954,3.566H54.839Zm25.97-18.338a14.093,14.093,0,1,1-14.545,14.547,14.143,14.143,0,0,1,14.545-14.547" transform="translate(-44.448 -1223.465)" fill="#e5efd6"/>
            <path id="Trazado_1266015" data-name="Trazado 1266015" d="M110.659,1582.683a19.014,19.014,0,0,1-18.409-14.228.418.418,0,0,1,.809-.21,18.185,18.185,0,1,0,20.324-22.566.418.418,0,1,1,.124-.826,19.023,19.023,0,0,1-2.848,37.83" transform="translate(-74.759 -1252.118)" fill="#f2e6dc"/>
            <path id="Trazado_1266016" data-name="Trazado 1266016" d="M236.688,495.044a14.664,14.664,0,1,0-22.133,12.618l.263,4.591a7.219,7.219,0,0,0,14.414,0l.263-4.591a14.654,14.654,0,0,0,7.194-12.618" transform="translate(-168.068 -389.353)" fill="#ffd092"/>
            <path id="Trazado_1266017" data-name="Trazado 1266017" d="M261.566,676.967h0a5.419,5.419,0,0,1-5.419-5.419v-1.587h10.838v1.587a5.419,5.419,0,0,1-5.419,5.419" transform="translate(-207.61 -543.011)" fill="#363e44"/>
            <path id="Trazado_1266018" data-name="Trazado 1266018" d="M260.945,576.86a.425.425,0,0,1-.051,0,.418.418,0,0,1-.364-.466l2.237-18.3-2.466,1.4a.418.418,0,0,1-.459-.031l-2.4-1.822-2.4,1.921a.417.417,0,0,1-.414.062l-2.834-1.116,2.656,17.866a.418.418,0,0,1-.827.123l-2.763-18.581a.418.418,0,0,1,.567-.45l3.281,1.293,2.468-1.974a.417.417,0,0,1,.513-.007l2.437,1.852,2.948-1.671a.418.418,0,0,1,.621.414l-2.338,19.127a.418.418,0,0,1-.414.367" transform="translate(-203.323 -451.2)" fill="#363e44"/>
            <path id="Trazado_1266019" data-name="Trazado 1266019" d="M1242.874,1582.52l-.6-2.209a10.371,10.371,0,0,0-7.628-7.38l-22.622-5.339s3.62,20.7,21.729,19.393c0,0,7.144-1.381,9.12-4.465" transform="translate(-982.361 -1270.552)" fill="#88a160"/>
            <path id="Trazado_1266020" data-name="Trazado 1266020" d="M1250.018,1686.073v3.317a23.1,23.1,0,0,0,46.2,0v-3.317Z" transform="translate(-1013.155 -1366.582)" fill="#445130"/>
            <path id="Trazado_1266021" data-name="Trazado 1266021" d="M1098.015,1401.1s-4.056,26.209,11.848,29.348c13.753,2.714,23.448-6.387,23.336-6.842l0-.015a11.5,11.5,0,0,0-5.923-7.5Z" transform="translate(-889.58 -1135.606)" fill="#88a160"/>
            <path id="Trazado_1266022" data-name="Trazado 1266022" d="M1329.917,1337.055l-.039-3.62a16.4,16.4,0,0,1,8.432-14.512l32.128-17.859s3.4,33.059-24.72,38.861c0,0-11.465.973-15.8-2.87" transform="translate(-1077.881 -1054.528)" fill="#88a160"/>
            <path id="Trazado_1266023" data-name="Trazado 1266023" d="M1382.987,1535.168l.051-.5a10.952,10.952,0,0,1,7.922-9.44l18.974-5.355s1.672,11.611-11.482,15.883a22.207,22.207,0,0,1-15.465-.585" transform="translate(-1120.928 -1231.873)" fill="#88a160"/>
            <path id="Trazado_1266024" data-name="Trazado 1266024" d="M1373.042,1578.606l-.042,0a.418.418,0,0,1-.373-.458l1.344-13.3a8.663,8.663,0,0,1,6.525-7.522l13.089-3.237a.418.418,0,0,1,.2.811l-13.089,3.237a7.825,7.825,0,0,0-5.894,6.795l-1.344,13.3a.418.418,0,0,1-.415.376" transform="translate(-1112.529 -1259.596)" fill="#d3bba3"/>
            <path id="Trazado_1266025" data-name="Trazado 1266025" d="M1330.874,1447.1a.418.418,0,0,1-.417-.392l-2.095-34.266a13.18,13.18,0,0,1,7.9-12.864l17.839-7.72a.418.418,0,0,1,.332.767l-17.838,7.72a12.342,12.342,0,0,0-7.4,12.045l2.095,34.266a.418.418,0,0,1-.392.443h-.026" transform="translate(-1076.635 -1128.092)" fill="#d3bba3"/>
            <path id="Trazado_1266026" data-name="Trazado 1266026" d="M1166.446,1480.964a.418.418,0,0,1-.411-.347l-4.974-29a8.616,8.616,0,0,0-4.918-6.386l-23.73-10.832a.418.418,0,0,1,.347-.76l23.73,10.832a9.452,9.452,0,0,1,5.395,7.005l4.973,29a.418.418,0,0,1-.341.482.425.425,0,0,1-.071.006" transform="translate(-917.636 -1161.953)" fill="#d3bba3"/>
            <path id="Trazado_1266027" data-name="Trazado 1266027" d="M1402.928,1627.369h0a13.709,13.709,0,0,1,6.157-9.427l3.572-2.285.17,2.057a8.963,8.963,0,0,1-9.643,9.677l-.257-.022" transform="translate(-1137.09 -1309.509)" fill="#8b865c"/>
          </g>
        </g>
      </g>
    </g>
  </g>
</svg>
