<svg xmlns="http://www.w3.org/2000/svg" width="63" height="63" viewBox="0 0 63 63">
  <g id="Grupo_1205208" data-name="Grupo 1205208" transform="translate(-928.333 -407)">
    <g id="Grupo_1102828" data-name="Grupo 1102828">
      <circle id="Elipse_11570" data-name="Elipse 11570" cx="31.5" cy="31.5" r="31.5" transform="translate(928.333 407)" fill="#f6f6f6"/>
      <g id="resolucion-de-problemas" transform="translate(937.86 414.361)">
        <g id="Grupo_1204346" data-name="Grupo 1204346" transform="translate(0 0)">
          <path id="Trazado_1261798" data-name="Trazado 1261798" d="M261.552,273.821a4.034,4.034,0,0,0-4.566-.942v-3.813a1.18,1.18,0,0,0-1.179-1.179H252.1a1.186,1.186,0,0,0-.847.358,1.163,1.163,0,0,0-.33.852c0,.026,0,.052,0,.078a2.616,2.616,0,0,1-5.233,0c0-.026,0-.052,0-.078a1.164,1.164,0,0,0-.331-.853,1.186,1.186,0,0,0-.847-.358H240.8a1.18,1.18,0,0,0-1.179,1.179v3.894a1.178,1.178,0,0,0,.383.869,1.191,1.191,0,0,0,.91.3c.081-.007.163-.011.245-.011a2.616,2.616,0,0,1,.163,5.228,2.7,2.7,0,0,1-.419-.007,1.167,1.167,0,0,0-.9.3,1.185,1.185,0,0,0-.388.876v3.561a1.18,1.18,0,0,0,1.179,1.179h3.813a4.032,4.032,0,0,0,3.688,5.65c.1,0,.192,0,.288-.01a4.033,4.033,0,0,0,3.409-5.64h3.812a1.18,1.18,0,0,0,1.179-1.179v-3.812a4.031,4.031,0,0,0,4.566-6.443Zm-.337,2.937a2.619,2.619,0,0,1-2.427,2.423h0a2.594,2.594,0,0,1-1.661-.452.991.991,0,0,0-1.555.813v4.3h-4.3a.991.991,0,0,0-.812,1.555,2.616,2.616,0,1,1-4.312-.007.989.989,0,0,0-.817-1.549h-4.3v-3.074c.124,0,.248,0,.372-.006a4.031,4.031,0,0,0-.372-8.052V269.3h3.24a4.031,4.031,0,0,0,8.058,0h3.24v4.3a.989.989,0,0,0,1.549.817,2.616,2.616,0,0,1,4.095,2.341Z" transform="translate(-219.691 -242.628)" fill="#0a4666"/>
          <path id="Trazado_1261799" data-name="Trazado 1261799" d="M44.626,29.024l1.2-3.26a11.767,11.767,0,0,0,3.34-2.861.707.707,0,0,0-1.1-.885,10.281,10.281,0,0,1-5.675,3.6V19.768h1.386a2.8,2.8,0,1,0-2.8-2.8v1.387H39.036V16.967a2.8,2.8,0,1,0-2.8,2.8h1.386v5.845a10.319,10.319,0,1,1,7.928-18.74,8.407,8.407,0,0,0,4.763,9.174,10.249,10.249,0,0,1-.7,3.293.707.707,0,0,0,1.317.517,11.642,11.642,0,0,0,.768-3.315,8.416,8.416,0,0,0,4.5-.076v3.989a1.281,1.281,0,0,0,1.279,1.279h7.436A1.281,1.281,0,0,0,66.2,20.455V18.2a.707.707,0,0,0-1.414,0v2.122H57.616V15.9a8.466,8.466,0,0,0,3.131-2.747h4.035V14.9a.707.707,0,1,0,1.414,0v-1.88a1.281,1.281,0,0,0-1.279-1.279H61.53A8.405,8.405,0,1,0,45.943,5.456a11.731,11.731,0,1,0-11.763,20.3l1.2,3.269a1.652,1.652,0,0,0-1.2,1.587v2.767a1.651,1.651,0,0,0,1.414,1.631v1.725a1.18,1.18,0,0,0,1.179,1.179h.007v.67A2.124,2.124,0,0,0,38.9,40.7h2.209a2.124,2.124,0,0,0,2.122-2.122v-.67h.007a1.18,1.18,0,0,0,1.179-1.179V35.01a1.651,1.651,0,0,0,1.414-1.631V30.612a1.652,1.652,0,0,0-1.2-1.587Zm-2.24-12.058a1.386,1.386,0,1,1,1.386,1.387H42.386ZM53.814,1.414a6.991,6.991,0,1,1-6.991,6.991A7,7,0,0,1,53.814,1.414ZM42.386,27.063a11.668,11.668,0,0,0,1.622-.458l-.866,2.357h-.756Zm-3.35-7.3h1.936v6.077c-.32.03-.643.046-.968.046s-.649-.016-.968-.046V19.768Zm0,7.5c.319.026.642.04.968.04s.648-.014.968-.04v1.7H39.036Zm-2.8-8.911a1.387,1.387,0,1,1,1.386-1.387v1.387Zm1.386,8.708v1.9h-.756L36,26.6A11.631,11.631,0,0,0,37.622,27.062Zm4.194,11.521a.708.708,0,0,1-.707.707H38.9a.708.708,0,0,1-.707-.707v-.67h3.624Zm2.6-5.2a.236.236,0,0,1-.236.236H42.011a.707.707,0,1,0,0,1.414H43V36.5H37.007v-1.47h1.7a.707.707,0,1,0,0-1.414H35.828a.236.236,0,0,1-.236-.236V30.611a.236.236,0,0,1,.236-.236h8.351a.236.236,0,0,1,.236.236Z" transform="translate(-28.27 0)" fill="#0a4666"/>
          <path id="Trazado_1261800" data-name="Trazado 1261800" d="M253.667,65.265a.707.707,0,0,0,.532.252h.009a.707.707,0,0,0,.529-.238l4.633-5.226a.707.707,0,0,0-1.058-.938l-4.09,4.614L251.585,60.6a.707.707,0,0,0-1.082.911Z" transform="translate(-229.398 -53.325)" fill="#0a4666"/>
        </g>
      </g>
    </g>
  </g>
</svg>
