<svg xmlns="http://www.w3.org/2000/svg" xmlns:xlink="http://www.w3.org/1999/xlink" width="1320" height="507" viewBox="0 0 1320 507">
  <defs>
    <linearGradient id="linear-gradient" x1="0.005" y1="1" x2="1" y2="0.033" gradientUnits="objectBoundingBox">
      <stop offset="0" stop-color="#d2e1f1"/>
      <stop offset="0.481" stop-color="#3308e8"/>
      <stop offset="1" stop-color="#d2e1f1"/>
    </linearGradient>
    <linearGradient id="linear-gradient-2" x1="0.005" y1="1" x2="1" y2="0.033" gradientUnits="objectBoundingBox">
      <stop offset="0" stop-color="#4196f2"/>
      <stop offset="0.481" stop-color="#f6f6f6"/>
      <stop offset="1" stop-color="#d2e1f1"/>
    </linearGradient>
    <clipPath id="clip-path">
      <path id="Trazado_877283" data-name="Trazado 877283" d="M19,0H1301a19,19,0,0,1,19,19V488a19,19,0,0,1-19,19H19A19,19,0,0,1,0,488V19A19,19,0,0,1,19,0Z" transform="translate(140.333 70)" fill="url(#linear-gradient)"/>
    </clipPath>
    <linearGradient id="linear-gradient-3" x1="0.628" y1="0.707" x2="0" gradientUnits="objectBoundingBox">
      <stop offset="0" stop-color="#d2e1f1"/>
      <stop offset="1" stop-color="#fff"/>
    </linearGradient>
    <linearGradient id="linear-gradient-4" x1="0.106" y1="0.024" x2="0.5" y2="1" gradientUnits="objectBoundingBox">
      <stop offset="0" stop-color="#70bcf9"/>
      <stop offset="1" stop-color="#f9f9f9"/>
    </linearGradient>
    <linearGradient id="linear-gradient-5" x1="0.106" y1="0.024" x2="0.5" y2="1" gradientUnits="objectBoundingBox">
      <stop offset="0" stop-color="#75baf1"/>
      <stop offset="1" stop-color="#fff"/>
    </linearGradient>
    <linearGradient id="linear-gradient-6" x1="0.106" y1="0.024" x2="0.5" y2="1" gradientUnits="objectBoundingBox">
      <stop offset="0" stop-color="#f8fcff"/>
      <stop offset="1" stop-color="#73a9ef"/>
    </linearGradient>
    <clipPath id="clip-path-2">
      <rect id="Rectángulo_402992" data-name="Rectángulo 402992" width="1510.667" height="845.879" fill="none"/>
    </clipPath>
    <clipPath id="clip-path-3">
      <rect id="Rectángulo_402990" data-name="Rectángulo 402990" width="762.31" height="837.905" fill="none"/>
    </clipPath>
    <clipPath id="clip-path-4">
      <rect id="Rectángulo_402991" data-name="Rectángulo 402991" width="638.389" height="701.696" fill="none"/>
    </clipPath>
  </defs>
  <g id="Grupo_1205208" data-name="Grupo 1205208" transform="translate(-140.333 -70)">
    <path id="Trazado_877279" data-name="Trazado 877279" d="M19,0H1301a19,19,0,0,1,19,19V488a19,19,0,0,1-19,19H19A19,19,0,0,1,0,488V19A19,19,0,0,1,19,0Z" transform="translate(140.333 70)" fill="url(#linear-gradient-2)"/>
    <g id="Grupo_1098701" data-name="Grupo 1098701" clip-path="url(#clip-path)">
      <g id="Grupo_1102811" data-name="Grupo 1102811">
        <path id="Trazado_877280" data-name="Trazado 877280" d="M402,0C624.018,0,804,179.982,804,402S624.018,804,402,804,0,624.018,0,402,179.982,0,402,0Z" transform="translate(1644.333 915) rotate(180)" fill="url(#linear-gradient-3)"/>
        <path id="Elipse_4044" data-name="Elipse 4044" d="M212.984,57.563c-85.7,0-155.421,69.722-155.421,155.421s69.722,155.421,155.421,155.421,155.421-69.722,155.421-155.421S298.684,57.563,212.984,57.563m0-57.563C330.612,0,425.969,95.356,425.969,212.984S330.612,425.969,212.984,425.969,0,330.612,0,212.984,95.356,0,212.984,0Z" transform="translate(-173.673 723.504) rotate(-43)" fill="url(#linear-gradient-4)"/>
        <path id="Elipse_4044-2" data-name="Elipse 4044" d="M212.984,57.563c-85.7,0-155.421,69.722-155.421,155.421s69.722,155.421,155.421,155.421,155.421-69.722,155.421-155.421S298.684,57.563,212.984,57.563m0-57.563C330.612,0,425.969,95.356,425.969,212.984S330.612,425.969,212.984,425.969,0,330.612,0,212.984,95.356,0,212.984,0Z" transform="translate(952.364 504.031)" fill="url(#linear-gradient-5)"/>
        <path id="Elipse_4044-3" data-name="Elipse 4044" d="M485.016,131.085c-195.158,0-353.93,158.772-353.93,353.93s158.772,353.93,353.93,353.93,353.93-158.772,353.93-353.93-158.772-353.93-353.93-353.93M485.016,0C752.882,0,970.031,217.149,970.031,485.016S752.882,970.031,485.016,970.031,0,752.882,0,485.016,217.149,0,485.016,0Z" transform="translate(1033.333 -461.031)" fill="url(#linear-gradient-6)"/>
        <path id="Elipse_4044-4" data-name="Elipse 4044" d="M15.781,4.265A11.516,11.516,0,1,1,4.265,15.781,11.529,11.529,0,0,1,15.781,4.265m0-4.265A15.781,15.781,0,1,0,31.562,15.781,15.781,15.781,0,0,0,15.781,0Z" transform="translate(851.333 182.16)" fill="#fff"/>
        <path id="Elipse_4044-5" data-name="Elipse 4044" d="M10.781,2.914a7.867,7.867,0,1,1-7.867,7.867,7.876,7.876,0,0,1,7.867-7.867m0-2.914A10.781,10.781,0,1,0,21.562,10.781,10.781,10.781,0,0,0,10.781,0Z" transform="translate(1378.333 467.16)" fill="#fff"/>
        <circle id="Elipse_11568" data-name="Elipse 11568" cx="6" cy="6" r="6" transform="translate(1348.333 187)" fill="#fff"/>
        <circle id="Elipse_11569" data-name="Elipse 11569" cx="6" cy="6" r="6" transform="translate(1263.333 507)" fill="#fff"/>
      </g>
      <g id="Grupo_1102819" data-name="Grupo 1102819" transform="translate(89.333 -99.439)" opacity="0.7">
        <g id="Grupo_1102818" data-name="Grupo 1102818" transform="translate(0 0)" clip-path="url(#clip-path-2)">
          <g id="Grupo_1102814" data-name="Grupo 1102814" transform="translate(918.332)" opacity="0.33">
            <g id="Grupo_1102813" data-name="Grupo 1102813">
              <g id="Grupo_1102812" data-name="Grupo 1102812" clip-path="url(#clip-path-3)">
                <path id="Trazado_877281" data-name="Trazado 877281" d="M763.168,0,.858,418.953l762.31,418.953Z" transform="translate(-0.858 0)" fill="#003143"/>
              </g>
            </g>
          </g>
          <g id="Grupo_1102817" data-name="Grupo 1102817" transform="translate(1042.253 68.104)" opacity="0.33">
            <g id="Grupo_1102816" data-name="Grupo 1102816">
              <g id="Grupo_1102815" data-name="Grupo 1102815" clip-path="url(#clip-path-4)">
                <path id="Trazado_877282" data-name="Trazado 877282" d="M639.247,730.548.858,379.7,639.247,28.853Z" transform="translate(-0.858 -28.852)" fill="#003143"/>
              </g>
            </g>
          </g>
        </g>
      </g>
      <g id="Grupo_1102820" data-name="Grupo 1102820" transform="translate(353.333 97.001)">
        <rect id="Rectángulo_402993" data-name="Rectángulo 402993" width="6.151" height="6.151" transform="translate(91.084 14.438)" fill="#636363"/>
        <rect id="Rectángulo_402994" data-name="Rectángulo 402994" width="6.151" height="6.151" transform="translate(72.867 14.438)" fill="#636363"/>
        <rect id="Rectángulo_402995" data-name="Rectángulo 402995" width="6.151" height="6.151" transform="translate(54.65 14.438)" fill="#636363"/>
        <rect id="Rectángulo_402996" data-name="Rectángulo 402996" width="6.152" height="6.151" transform="translate(36.433 14.438)" fill="#636363"/>
        <rect id="Rectángulo_402997" data-name="Rectángulo 402997" width="6.151" height="6.151" transform="translate(18.217 14.438)" fill="#636363"/>
        <rect id="Rectángulo_402998" data-name="Rectángulo 402998" width="6.151" height="6.151" transform="translate(0 14.438)" fill="#636363"/>
        <rect id="Rectángulo_402999" data-name="Rectángulo 402999" width="6.152" height="6.151" transform="translate(109.3 -0.001)" fill="#636363"/>
        <rect id="Rectángulo_403000" data-name="Rectángulo 403000" width="6.151" height="6.151" transform="translate(91.084 -0.001)" fill="#636363"/>
        <rect id="Rectángulo_403001" data-name="Rectángulo 403001" width="6.151" height="6.151" transform="translate(72.867 -0.001)" fill="#636363"/>
        <rect id="Rectángulo_403002" data-name="Rectángulo 403002" width="6.151" height="6.151" transform="translate(54.65 -0.001)" fill="#636363"/>
        <rect id="Rectángulo_403003" data-name="Rectángulo 403003" width="6.152" height="6.151" transform="translate(36.433 -0.001)" fill="#636363"/>
        <rect id="Rectángulo_403004" data-name="Rectángulo 403004" width="6.151" height="6.151" transform="translate(18.217 -0.001)" fill="#636363"/>
      </g>
      <g id="Grupo_1102826" data-name="Grupo 1102826" transform="translate(250.243 227.314) rotate(180)">
        <g id="Grupo_1099006" data-name="Grupo 1099006" transform="translate(0 0)">
          <rect id="Rectángulo_401488" data-name="Rectángulo 401488" width="41.353" height="41.353" transform="translate(132.468 95.873)" fill="#bad3dd"/>
          <rect id="Rectángulo_401489" data-name="Rectángulo 401489" width="41.353" height="41.353" transform="translate(91.115 95.873)" fill="#bad3dd"/>
          <rect id="Rectángulo_401490" data-name="Rectángulo 401490" width="41.352" height="41.353" transform="translate(0 0)" fill="#a6cdec"/>
          <rect id="Rectángulo_401491" data-name="Rectángulo 401491" width="41.352" height="41.353" transform="translate(0 95.873)" fill="#0a4666"/>
          <rect id="Rectángulo_401492" data-name="Rectángulo 401492" width="41.352" height="41.353" transform="translate(0 54.52)" fill="#0a4666"/>
          <rect id="Rectángulo_401493" data-name="Rectángulo 401493" width="41.353" height="41.353" transform="translate(41.352 95.873)" fill="#0a4666"/>
        </g>
      </g>
    </g>
  </g>
</svg>
