<svg xmlns="http://www.w3.org/2000/svg" xmlns:xlink="http://www.w3.org/1999/xlink" width="760" height="430.143" viewBox="0 0 760 430.143">
  <defs>
    <linearGradient id="linear-gradient" x1="0.008" y1="0.977" x2="0.985" y2="0.025" gradientUnits="objectBoundingBox">
      <stop offset="0" stop-color="#6e3dc6"/>
      <stop offset="0.381" stop-color="#6e3dc6"/>
      <stop offset="1" stop-color="#75baf1"/>
    </linearGradient>
    <clipPath id="clip-path">
      <path id="Rectangle_652" data-name="Rectangle 652" d="M270.787,0H989.213C1000.693,0,1010,8.886,1010,19.847V410.3c0,10.961-9.307,19.847-20.787,19.847H270.787c-11.48,0-20.787-8.886-20.787-19.847V19.847C250,8.886,259.307,0,270.787,0Z" transform="translate(-14789.448 -11642.907)" fill="url(#linear-gradient)"/>
    </clipPath>
    <linearGradient id="linear-gradient-3" x1="0.005" y1="1" x2="1" y2="0.033" gradientUnits="objectBoundingBox">
      <stop offset="0" stop-color="#4196f2"/>
      <stop offset="0.481" stop-color="#f6f6f6"/>
      <stop offset="1" stop-color="#d2e1f1"/>
    </linearGradient>
    <linearGradient id="linear-gradient-4" x1="0.628" y1="0.707" x2="0" gradientUnits="objectBoundingBox">
      <stop offset="0" stop-color="#d2e1f1"/>
      <stop offset="1" stop-color="#fff"/>
    </linearGradient>
    <linearGradient id="linear-gradient-5" x1="0.106" y1="0.024" x2="0.5" y2="1" gradientUnits="objectBoundingBox">
      <stop offset="0" stop-color="#70bcf9"/>
      <stop offset="1" stop-color="#f9f9f9"/>
    </linearGradient>
    <linearGradient id="linear-gradient-6" x1="0.106" y1="0.024" x2="0.5" y2="1" gradientUnits="objectBoundingBox">
      <stop offset="0" stop-color="#75baf1"/>
      <stop offset="1" stop-color="#fff"/>
    </linearGradient>
    <linearGradient id="linear-gradient-7" x1="0.106" y1="0.024" x2="0.5" y2="1" gradientUnits="objectBoundingBox">
      <stop offset="0" stop-color="#f8fcff"/>
      <stop offset="1" stop-color="#73a9ef"/>
    </linearGradient>
    <clipPath id="clip-path-2">
      <rect id="Rectángulo_403013" data-name="Rectángulo 403013" width="996.431" height="557.939" fill="none"/>
    </clipPath>
    <clipPath id="clip-path-3">
      <rect id="Rectángulo_403011" data-name="Rectángulo 403011" width="502.817" height="552.679" fill="none"/>
    </clipPath>
    <clipPath id="clip-path-4">
      <rect id="Rectángulo_403012" data-name="Rectángulo 403012" width="421.079" height="462.836" fill="none"/>
    </clipPath>
  </defs>
  <g id="Grupo_1205208" data-name="Grupo 1205208" transform="translate(14544.448 11650.907)">
    <path id="Rectangle_652-2" data-name="Rectangle 652" d="M270.787,0H989.213C1000.693,0,1010,8.886,1010,19.847V410.3c0,10.961-9.307,19.847-20.787,19.847H270.787c-11.48,0-20.787-8.886-20.787-19.847V19.847C250,8.886,259.307,0,270.787,0Z" transform="translate(-14794.448 -11650.907)" fill="url(#linear-gradient)"/>
    <g id="Enmascarar_grupo_1098702" data-name="Enmascarar grupo 1098702" transform="translate(-5 -8)" clip-path="url(#clip-path)">
      <path id="Trazado_877286" data-name="Trazado 877286" d="M19,0H1301a19,19,0,0,1,19,19V488a19,19,0,0,1-19,19H19A19,19,0,0,1,0,488V19A19,19,0,0,1,19,0Z" transform="translate(-14697 -11681)" fill="url(#linear-gradient-3)"/>
      <g id="Grupo_1102837" data-name="Grupo 1102837" transform="translate(-14762.477 -12086.192)">
        <path id="Elipse_4044" data-name="Elipse 4044" d="M13.26,3.584A9.676,9.676,0,1,1,3.584,13.26,9.687,9.687,0,0,1,13.26,3.584M13.26,0A13.26,13.26,0,1,0,26.52,13.26,13.26,13.26,0,0,0,13.26,0Z" transform="translate(820.885 540.433)" fill="#fff"/>
        <path id="Elipse_4044-2" data-name="Elipse 4044" d="M9.059,2.448a6.61,6.61,0,1,1-6.61,6.61,6.618,6.618,0,0,1,6.61-6.61M9.059,0a9.059,9.059,0,1,0,9.059,9.059A9.059,9.059,0,0,0,9.059,0Z" transform="translate(954.418 701.9)" fill="#fff"/>
        <circle id="Elipse_11572" data-name="Elipse 11572" cx="5" cy="5" r="5" transform="translate(705.477 798.192)" fill="#fff"/>
      </g>
      <g id="Grupo_1102838" data-name="Grupo 1102838" transform="translate(-14797.967 -11945.031)">
        <path id="Trazado_877287" data-name="Trazado 877287" d="M265.158,0C411.6,0,530.316,118.715,530.316,265.158S411.6,530.316,265.158,530.316,0,411.6,0,265.158,118.715,0,265.158,0Z" transform="translate(1199.151 907.626) rotate(180)" fill="url(#linear-gradient-4)"/>
        <path id="Elipse_4044-3" data-name="Elipse 4044" d="M140.484,37.969A102.515,102.515,0,1,0,243,140.484,102.631,102.631,0,0,0,140.484,37.969m0-37.969A140.484,140.484,0,1,1,0,140.484,140.484,140.484,0,0,1,140.484,0Z" transform="translate(0 781.315) rotate(-43)" fill="url(#linear-gradient-5)"/>
        <path id="Elipse_4044-4" data-name="Elipse 4044" d="M140.484,37.969A102.515,102.515,0,1,0,243,140.484,102.631,102.631,0,0,0,140.484,37.969m0-37.969A140.484,140.484,0,1,1,0,140.484,140.484,140.484,0,0,1,140.484,0Z" transform="translate(742.731 636.552)" fill="url(#linear-gradient-6)"/>
        <path id="Elipse_4044-5" data-name="Elipse 4044" d="M319.915,86.463c-128.726,0-233.451,104.726-233.451,233.451S191.189,553.366,319.915,553.366,553.366,448.64,553.366,319.915,448.64,86.463,319.915,86.463m0-86.463C496.6,0,639.829,143.231,639.829,319.915S496.6,639.829,319.915,639.829,0,496.6,0,319.915,143.231,0,319.915,0Z" transform="translate(796.137 0)" fill="url(#linear-gradient-7)"/>
        <path id="Elipse_4044-6" data-name="Elipse 4044" d="M7.111,1.922A5.189,5.189,0,1,1,1.922,7.111,5.2,5.2,0,0,1,7.111,1.922M7.111,0a7.111,7.111,0,1,0,7.111,7.111A7.111,7.111,0,0,0,7.111,0Z" transform="translate(1023.698 612.232)" fill="#fff"/>
        <ellipse id="Elipse_11573" data-name="Elipse 11573" cx="3.958" cy="3.958" rx="3.958" ry="3.958" transform="translate(1003.91 427.439)" fill="#fff"/>
        <ellipse id="Elipse_11574" data-name="Elipse 11574" cx="3.958" cy="3.958" rx="3.958" ry="3.958" transform="translate(947.845 638.51)" fill="#fff"/>
      </g>
      <g id="Grupo_1102846" data-name="Grupo 1102846" transform="translate(-14535.215 -11849.134)" opacity="0.7">
        <g id="Grupo_1102845" data-name="Grupo 1102845" transform="translate(0 0)" clip-path="url(#clip-path-2)">
          <g id="Grupo_1102841" data-name="Grupo 1102841" transform="translate(605.729)" opacity="0.33">
            <g id="Grupo_1102840" data-name="Grupo 1102840">
              <g id="Grupo_1102839" data-name="Grupo 1102839" clip-path="url(#clip-path-3)">
                <path id="Trazado_877288" data-name="Trazado 877288" d="M503.675,0,.858,276.34,503.675,552.68Z" transform="translate(-0.858 0)" fill="#003143"/>
              </g>
            </g>
          </g>
          <g id="Grupo_1102844" data-name="Grupo 1102844" transform="translate(687.466 44.921)" opacity="0.33">
            <g id="Grupo_1102843" data-name="Grupo 1102843">
              <g id="Grupo_1102842" data-name="Grupo 1102842" clip-path="url(#clip-path-4)">
                <path id="Trazado_877289" data-name="Trazado 877289" d="M421.937,491.689.858,260.27,421.937,28.853Z" transform="translate(-0.858 -28.853)" fill="#003143"/>
              </g>
            </g>
          </g>
        </g>
      </g>
      <g id="Grupo_1102847" data-name="Grupo 1102847" transform="translate(-14428.355 -11622.955)">
        <rect id="Rectángulo_403014" data-name="Rectángulo 403014" width="4.057" height="4.057" transform="translate(60.079 9.524)" fill="#636363"/>
        <rect id="Rectángulo_403015" data-name="Rectángulo 403015" width="4.057" height="4.057" transform="translate(48.063 9.524)" fill="#636363"/>
        <rect id="Rectángulo_403016" data-name="Rectángulo 403016" width="4.057" height="4.057" transform="translate(36.047 9.524)" fill="#636363"/>
        <rect id="Rectángulo_403017" data-name="Rectángulo 403017" width="4.058" height="4.057" transform="translate(24.031 9.524)" fill="#636363"/>
        <rect id="Rectángulo_403018" data-name="Rectángulo 403018" width="4.057" height="4.057" transform="translate(12.016 9.524)" fill="#636363"/>
        <rect id="Rectángulo_403019" data-name="Rectángulo 403019" width="4.057" height="4.057" transform="translate(0 9.524)" fill="#636363"/>
        <rect id="Rectángulo_403020" data-name="Rectángulo 403020" width="4.058" height="4.057" transform="translate(72.094 0)" fill="#636363"/>
        <rect id="Rectángulo_403021" data-name="Rectángulo 403021" width="4.057" height="4.057" transform="translate(60.079 0)" fill="#636363"/>
        <rect id="Rectángulo_403022" data-name="Rectángulo 403022" width="4.057" height="4.057" transform="translate(48.063 0)" fill="#636363"/>
        <rect id="Rectángulo_403023" data-name="Rectángulo 403023" width="4.057" height="4.057" transform="translate(36.047 0)" fill="#636363"/>
        <rect id="Rectángulo_403024" data-name="Rectángulo 403024" width="4.058" height="4.057" transform="translate(24.031 0)" fill="#636363"/>
        <rect id="Rectángulo_403025" data-name="Rectángulo 403025" width="4.057" height="4.057" transform="translate(12.016 0)" fill="#636363"/>
      </g>
      <g id="Grupo_1102848" data-name="Grupo 1102848" transform="translate(-14113.961 -11298.605)">
        <rect id="Rectángulo_403026" data-name="Rectángulo 403026" width="4.057" height="4.057" transform="translate(24.032 9.524)" fill="#727272"/>
        <rect id="Rectángulo_403027" data-name="Rectángulo 403027" width="4.057" height="4.057" transform="translate(12.016 9.524)" fill="#727272"/>
        <rect id="Rectángulo_403028" data-name="Rectángulo 403028" width="4.057" height="4.057" transform="translate(0 9.524)" fill="#727272"/>
        <rect id="Rectángulo_403029" data-name="Rectángulo 403029" width="4.057" height="4.057" transform="translate(24.032 0)" fill="#727272"/>
        <rect id="Rectángulo_403030" data-name="Rectángulo 403030" width="4.057" height="4.057" transform="translate(12.016 0)" fill="#727272"/>
        <rect id="Rectángulo_403031" data-name="Rectángulo 403031" width="4.057" height="4.057" transform="translate(0 0)" fill="#727272"/>
      </g>
      <g id="Grupo_1102849" data-name="Grupo 1102849" transform="translate(-14025.11 -11651.994)">
        <rect id="Rectángulo_403032" data-name="Rectángulo 403032" width="28.051" height="28.051" transform="translate(17.795 17.795)" fill="#0a4666"/>
        <rect id="Rectángulo_403033" data-name="Rectángulo 403033" width="17.795" height="17.795" transform="translate(0 0)" fill="#a6cdec"/>
        <rect id="Rectángulo_403034" data-name="Rectángulo 403034" width="28.051" height="28.051" transform="translate(58.196 57.19)" fill="#727272"/>
        <rect id="Rectángulo_403035" data-name="Rectángulo 403035" width="28.051" height="28.051" transform="translate(30.144 57.19)" fill="#727272"/>
        <rect id="Rectángulo_403036" data-name="Rectángulo 403036" width="28.051" height="28.051" transform="translate(58.196 29.138)" fill="#727272"/>
        <rect id="Rectángulo_403037" data-name="Rectángulo 403037" width="28.051" height="28.051" transform="translate(58.196 1.087)" fill="#727272"/>
      </g>
      <g id="Grupo_1102851" data-name="Grupo 1102851" transform="translate(-14472.432 -11570.908) rotate(180)">
        <g id="Grupo_1102850" data-name="Grupo 1102850" transform="translate(0 0)">
          <rect id="Rectángulo_403038" data-name="Rectángulo 403038" width="27.276" height="27.276" transform="translate(87.375 63.238)" fill="#bad3dd"/>
          <rect id="Rectángulo_403039" data-name="Rectángulo 403039" width="27.276" height="27.276" transform="translate(60.099 63.238)" fill="#bad3dd"/>
          <rect id="Rectángulo_403040" data-name="Rectángulo 403040" width="27.276" height="27.276" transform="translate(0 0)" fill="#a6cdec"/>
          <rect id="Rectángulo_403041" data-name="Rectángulo 403041" width="27.276" height="27.276" transform="translate(0 63.238)" fill="#0a4666"/>
          <rect id="Rectángulo_403042" data-name="Rectángulo 403042" width="27.276" height="27.276" transform="translate(0 35.962)" fill="#0a4666"/>
          <rect id="Rectángulo_403043" data-name="Rectángulo 403043" width="27.276" height="27.276" transform="translate(27.276 63.238)" fill="#0a4666"/>
        </g>
      </g>
      <g id="Grupo_1102853" data-name="Grupo 1102853" transform="translate(-13904.593 -11316.511)">
        <g id="Grupo_1102852" data-name="Grupo 1102852" transform="translate(0 0)">
          <rect id="Rectángulo_403044" data-name="Rectángulo 403044" width="27.276" height="27.276" transform="translate(87.375 63.238)" fill="#bad3dd"/>
          <rect id="Rectángulo_403045" data-name="Rectángulo 403045" width="27.276" height="27.276" transform="translate(60.099 63.238)" fill="#bad3dd"/>
          <rect id="Rectángulo_403046" data-name="Rectángulo 403046" width="27.276" height="27.276" transform="translate(0 0)" fill="#a6cdec"/>
          <rect id="Rectángulo_403047" data-name="Rectángulo 403047" width="27.276" height="27.276" transform="translate(0 63.238)" fill="#0a4666"/>
          <rect id="Rectángulo_403048" data-name="Rectángulo 403048" width="27.276" height="27.276" transform="translate(0 35.962)" fill="#0a4666"/>
          <rect id="Rectángulo_403049" data-name="Rectángulo 403049" width="27.276" height="27.276" transform="translate(27.276 63.238)" fill="#0a4666"/>
        </g>
      </g>
    </g>
  </g>
</svg>
