<svg xmlns="http://www.w3.org/2000/svg" xmlns:xlink="http://www.w3.org/1999/xlink" width="295" height="224.22" viewBox="0 0 295 224.22">
  <defs>
    <clipPath id="clip-path">
      <rect id="Rectángulo_461990" data-name="Rectángulo 461990" width="202.321" height="224.22" fill="none"/>
    </clipPath>
  </defs>
  <g id="Grupo_1205222" data-name="Grupo 1205222" transform="translate(-285.905 -1130.165)">
    <g id="Grupo_1205217" data-name="Grupo 1205217">
      <g id="Grupo_1102746" data-name="Grupo 1102746" transform="translate(55.49 -3489.835)">
        <g id="Grupo_1099952" data-name="Grupo 1099952" transform="translate(230.415 4620)">
          <path id="Trazado_145968" data-name="Trazado 145968" d="M49.2,0A49.2,49.2,0,1,0,98.4,49.2,49.2,49.2,0,0,0,49.2,0Z" transform="translate(7.561 119.354)" fill="#a6cdec"/>
          <path id="Trazado_145969" data-name="Trazado 145969" d="M33.618,0A33.618,33.618,0,1,0,67.237,33.618,33.618,33.618,0,0,0,33.618,0Z" transform="translate(200.275 12.836)" fill="#a6cdec"/>
          <rect id="Rectángulo_34812" data-name="Rectángulo 34812" width="295" height="221.25" transform="translate(0 0.357)" fill="none"/>
          <path id="Trazado_145967" data-name="Trazado 145967" d="M110.983,0A110.983,110.983,0,1,0,221.966,110.983,110.983,110.983,0,0,0,110.983,0Z" transform="translate(36.517 0)" fill="#88a160"/>
          <path id="Trazado_145971" data-name="Trazado 145971" d="M9.243,0a9.243,9.243,0,1,0,9.243,9.243A9.243,9.243,0,0,0,9.243,0Z" transform="translate(239.996 184.805)" fill="#0a4666"/>
          <path id="Elipse_4044" data-name="Elipse 4044" d="M12.535,3.388a9.147,9.147,0,1,1-9.147,9.147,9.158,9.158,0,0,1,9.147-9.147m0-3.388A12.535,12.535,0,1,0,25.071,12.535,12.535,12.535,0,0,0,12.535,0Z" transform="translate(214.926 79.167)" fill="#fff"/>
        </g>
      </g>
    </g>
    <g id="Grupo_1204635" data-name="Grupo 1204635" transform="translate(341.792 1130.165)">
      <path id="Trazado_1262556" data-name="Trazado 1262556" d="M982.222,0V1.886h.539V.539h1.347V0Z" transform="translate(-849.918 0)" fill="#30a9fa"/>
      <path id="Trazado_1262557" data-name="Trazado 1262557" d="M1021.423.539h3.367V0h-3.367Zm6.762,0h3.367V0h-3.367Zm6.762,0h3.368V0h-3.368Z" transform="translate(-883.838)" fill="#30a9fa"/>
      <path id="Trazado_1262558" data-name="Trazado 1262558" d="M1171.823,0V.539h1.347V1.886h.539V0Z" transform="translate(-1013.979 0)" fill="#30a9fa"/>
      <path id="Trazado_1262559" data-name="Trazado 1262559" d="M1182.361,55.891h-.539V52.524h.539Zm0-6.762h-.539V45.762h.539Zm0-6.762h-.539V39h.539Z" transform="translate(-1022.631 -33.747)" fill="#30a9fa"/>
      <path id="Trazado_1262560" data-name="Trazado 1262560" d="M1173.708,191.486h-1.886v-.539h1.347V189.6h.539Z" transform="translate(-1013.979 -164.061)" fill="#30a9fa"/>
      <path id="Trazado_1262561" data-name="Trazado 1262561" d="M1038.313,200.139h-3.367V199.6h3.367Zm-6.762,0h-3.368V199.6h3.368Zm-6.762,0h-3.368V199.6h3.368Z" transform="translate(-883.837 -172.714)" fill="#30a9fa"/>
      <path id="Trazado_1262562" data-name="Trazado 1262562" d="M984.108,191.486h-1.886V189.6h.539v1.347h1.347Z" transform="translate(-849.918 -164.061)" fill="#30a9fa"/>
      <path id="Trazado_1262563" data-name="Trazado 1262563" d="M982.761,55.891h-.539V52.524h.539Zm0-6.762h-.539V45.762h.539Zm0-6.762h-.539V39h.539Z" transform="translate(-849.917 -33.747)" fill="#30a9fa"/>
      <path id="Trazado_1262564" data-name="Trazado 1262564" d="M975.094,287.321H950.552V271.049H922.022V171.533h61.4V132.416H957.583V130.8h27.452v42.349h-61.4v96.283h28.529V285.7h21.309V186.781h24.246V188.4h-22.63Z" transform="translate(-797.827 -113.181)" fill="#30a9fa"/>
      <rect id="Rectángulo_461981" data-name="Rectángulo 461981" width="26.886" height="26.886" transform="translate(145.236 42.565)" fill="#cde7f9"/>
      <g id="Grupo_1204634" data-name="Grupo 1204634">
        <g id="Grupo_1204633" data-name="Grupo 1204633" clip-path="url(#clip-path)">
          <path id="Trazado_1262565" data-name="Trazado 1262565" d="M1475.908,538.8a1.886,1.886,0,1,1-1.886,1.886,1.886,1.886,0,0,1,1.886-1.886" transform="translate(-1275.472 -466.224)" fill="#fdd047"/>
          <rect id="Rectángulo_461982" data-name="Rectángulo 461982" width="59.079" height="22.737" transform="translate(106.415 93.158)" fill="#cde7f9"/>
          <path id="Trazado_1262566" data-name="Trazado 1262566" d="M1118.508,354.9a8.486,8.486,0,1,1-8.486,8.486,8.486,8.486,0,0,1,8.486-8.486" transform="translate(-960.503 -307.092)" fill="#0879f9"/>
          <path id="Trazado_1262567" data-name="Trazado 1262567" d="M1128.429,392.972l-3.987-3.772a.8.8,0,1,1,1.1-1.158l2.829,2.694,7.058-7.22a.8.8,0,1,1,1.158,1.1Z" transform="translate(-972.768 -331.644)" fill="#fff"/>
          <rect id="Rectángulo_461983" data-name="Rectángulo 461983" width="26.886" height="26.886" transform="translate(111.534 139.953)" fill="#cde7f9"/>
          <path id="Trazado_1262568" data-name="Trazado 1262568" d="M1105.77,344.279h-27.748v-1.616h26.132V316.8h1.616Z" transform="translate(-932.814 -274.127)" fill="#30a9fa"/>
          <path id="Trazado_1262569" data-name="Trazado 1262569" d="M873.508,1076a8.486,8.486,0,1,1-8.486,8.486,8.486,8.486,0,0,1,8.486-8.486" transform="translate(-748.504 -931.064)" fill="#0879f9"/>
          <path id="Trazado_1262570" data-name="Trazado 1262570" d="M883.429,1114.076l-3.987-3.772a.8.8,0,1,1,1.1-1.158l2.829,2.694,7.058-7.22a.8.8,0,0,1,1.159,1.1Z" transform="translate(-760.769 -955.616)" fill="#fff"/>
          <path id="Trazado_1262571" data-name="Trazado 1262571" d="M855.77,1066.548H828.022v-1.616h26.132V1038.8h1.616Z" transform="translate(-716.488 -898.874)" fill="#30a9fa"/>
          <rect id="Rectángulo_461984" data-name="Rectángulo 461984" width="26.832" height="1.94" transform="translate(114.632 99.219)" fill="#fff"/>
          <rect id="Rectángulo_461985" data-name="Rectángulo 461985" width="42.7" height="1.94" transform="translate(114.632 103.53)" fill="#fff"/>
          <rect id="Rectángulo_461986" data-name="Rectángulo 461986" width="42.7" height="1.94" transform="translate(114.632 107.813)" fill="#fff"/>
          <path id="Trazado_1262572" data-name="Trazado 1262572" d="M308.615,50.189s8.917,15.383-5.28,18.535l-14.6.4s-12.15-3.233-8.136-10.911L286.255,49s.431-11.4,9.106-12.285c0,0,16.514-.593,16.245,6.331-.054,0-.377,4.472-2.99,7.139" transform="translate(-242.098 -31.762)" fill="#46105b"/>
          <path id="Trazado_1262573" data-name="Trazado 1262573" d="M353.191,102.466l-1.616,19.612,12.608.108-.781-11.315-.216-3.179v-.027c8.809.3,3.179-18.265,3.179-18.265-2.775,6.223-8.459,5.738-8.459,5.738-4.607-.566-5.927,2.182-5.927,2.182-5.334,2.1,1.212,5.146,1.212,5.146" transform="translate(-302.757 -77.358)" fill="#ffb1df"/>
          <path id="Trazado_1262574" data-name="Trazado 1262574" d="M438.444,185.577a2.756,2.756,0,0,1-3.825.4.224.224,0,0,1,.108-.4l3.556-.377a.22.22,0,0,1,.162.377" transform="translate(-375.994 -160.254)" fill="#fff"/>
          <path id="Trazado_1262575" data-name="Trazado 1262575" d="M441.88,152.834l-.35-1.051.7-.216-.808-3.1,1.051-.269,1.051,4.095Z" transform="translate(-381.963 -128.238)" fill="#d35eaf"/>
          <path id="Trazado_1262576" data-name="Trazado 1262576" d="M461.8,141.4a.458.458,0,1,1-.348.546.458.458,0,0,1,.348-.546" transform="translate(-399.283 -122.34)" fill="#d35eaf"/>
          <path id="Trazado_1262577" data-name="Trazado 1262577" d="M418.583,152.016a.458.458,0,1,1-.349.546.458.458,0,0,1,.349-.546" transform="translate(-361.889 -131.53)" fill="#d35eaf"/>
          <path id="Trazado_1262578" data-name="Trazado 1262578" d="M453.842,128.274c.785-.279,1.5-.289,1.593-.023s-.465.708-1.25.987-1.5.289-1.593.023.465-.708,1.25-.987" transform="translate(-391.619 -110.808)" fill="#d35eaf"/>
          <path id="Trazado_1262579" data-name="Trazado 1262579" d="M407.932,138.276c.829-.082,1.524.08,1.551.362s-.622.576-1.451.657-1.524-.08-1.551-.362.622-.575,1.451-.657" transform="translate(-351.727 -119.632)" fill="#d35eaf"/>
          <path id="Trazado_1262580" data-name="Trazado 1262580" d="M446.8,125.684a2.994,2.994,0,0,1-2.721-1.778,2.94,2.94,0,1,1,3.852,1.563,3.366,3.366,0,0,1-1.132.216m-1.724-2.209a1.871,1.871,0,1,0,1-2.452,1.859,1.859,0,0,0-1,2.452" transform="translate(-384.05 -103.674)" fill="#46105b"/>
          <path id="Trazado_1262581" data-name="Trazado 1262581" d="M403.4,136.91a3.1,3.1,0,0,1-1.1-.216,3.011,3.011,0,0,1-1.616-1.589,2.94,2.94,0,1,1,3.852,1.563,2.757,2.757,0,0,1-1.131.242m-1.724-2.209a1.881,1.881,0,0,0,2.452,1,1.858,1.858,0,0,0,1-1.024,1.758,1.758,0,0,0-.027-1.428,1.859,1.859,0,1,0-3.421,1.455" transform="translate(-346.496 -113.365)" fill="#46105b"/>
          <rect id="Rectángulo_461987" data-name="Rectángulo 461987" width="1.428" height="1.078" transform="translate(58.701 18.665) rotate(-13.659)" fill="#46105b"/>
          <path id="Trazado_1262582" data-name="Trazado 1262582" d="M359.273,140.832l-1.051-.189a1.769,1.769,0,0,1,.808-1.212,2.854,2.854,0,0,1,2.1-.189l3.637.135-.027,1.078-3.772-.135-.054-.027a1.966,1.966,0,0,0-1.293.054.555.555,0,0,0-.35.485" transform="translate(-309.97 -120.384)" fill="#46105b"/>
          <path id="Trazado_1262583" data-name="Trazado 1262583" d="M390.022,202.4s.647,3.718,8.109,6.25l-.216-3.179a13.324,13.324,0,0,1-7.893-3.071" transform="translate(-337.486 -175.137)" fill="#d35eaf"/>
          <path id="Trazado_1262584" data-name="Trazado 1262584" d="M69.211,1506.1l-2.128,9.133-1.562,6.762-14.9.216,7-4.391.242-1.967,1.212-10.453Z" transform="translate(-43.804 -1302.624)" fill="#ffb1df"/>
          <path id="Trazado_1262585" data-name="Trazado 1262585" d="M24.168,1609.911l-1.616-5.711s-7.058,5.253-12.958,1.7l-9,4.337a1.1,1.1,0,0,0,.512,2.074H22.363a1.886,1.886,0,0,0,1.8-2.4" transform="translate(0 -1388.115)" fill="#0f0a46"/>
          <path id="Trazado_1262586" data-name="Trazado 1262586" d="M481.668,1522.21l-14.871-.215-1.185-6.708-1.589-9.186,10.129-.7.377,8.648.135,3.771Z" transform="translate(-401.519 -1302.624)" fill="#ffb1df"/>
          <path id="Trazado_1262587" data-name="Trazado 1262587" d="M468.138,1609.911l1.616-5.711s7.058,5.253,12.958,1.7l9,4.337a1.1,1.1,0,0,1-.512,2.074H469.943a1.886,1.886,0,0,1-1.8-2.4" transform="translate(-405.015 -1388.115)" fill="#0f0a46"/>
          <path id="Trazado_1262588" data-name="Trazado 1262588" d="M115.764,1506.1l-2.128,9.133-9.213.62,1.212-10.453Z" transform="translate(-90.357 -1302.624)" fill="#d35eaf"/>
          <path id="Trazado_1262589" data-name="Trazado 1262589" d="M474.529,1514.048l-8.917,1.239-1.589-9.187,10.129-.7Z" transform="translate(-401.519 -1302.624)" fill="#d35eaf"/>
          <rect id="Rectángulo_461988" data-name="Rectángulo 461988" width="26.429" height="26.779" transform="matrix(0.749, -0.662, 0.662, 0.749, 107.872, 17.743)" fill="#cde7f9"/>
          <path id="Trazado_1262590" data-name="Trazado 1262590" d="M829.6,165.246s-1.159,1.239-2.425,2.559a41.193,41.193,0,0,1-3.152,3.044l-5.6-2.8c0-.242,1.724-3.556,2.452-4.957.215-.4.35-.647.35-.647l2.8-9.644s1.859,1.859.62,6.546Z" transform="translate(-708.181 -132.218)" fill="#ffb1df"/>
          <path id="Trazado_1262591" data-name="Trazado 1262591" d="M826.977,233.914a41.194,41.194,0,0,1-3.152,3.044l-5.6-2.8c0-.242,1.724-3.556,2.452-4.957Z" transform="translate(-708.008 -198.327)" fill="#d35eaf"/>
          <path id="Trazado_1262592" data-name="Trazado 1262592" d="M119.31,695.521a39.651,39.651,0,0,0-4.9,14.413L94.822,810.608h14.952l26.132-94.963,4.634,93.589h14.952l-.269-104.742s-1.347-8.971-4.634-11.692Z" transform="translate(-82.05 -599.48)" fill="#0a4666"/>
          <path id="Trazado_1262593" data-name="Trazado 1262593" d="M130.777,273.683c1.482-6.816,9.321-18.535,12.177-25.431,1.859-4.526,8.244-11.5,18.669-11.638,0,0,8.3,12.581,12.931,1.832l25.3,10.857,25.593-16.7,6.466,8.351-25.135,21.067a8.276,8.276,0,0,1-7.193,1.724l-13.766-2.829c0,3.772-.593,6.708-1.347,8.082-1,1.778-2.829,4.688-2.829,4.688s2.452,20.825,3.8,25.97c0,0-25.162,3.017-38.955,1.4l2.532-16.73c-.027,0-20.178-1.7-18.238-10.641" transform="translate(-113.048 -201.269)" fill="#f2c579"/>
          <path id="Trazado_1262594" data-name="Trazado 1262594" d="M507.95,406.792l-2.128-9.106.108-.162c.054-.081,5.28-7.139,3.987-11.746a59.9,59.9,0,0,0-3.583-9.456l.727-.323a63.2,63.2,0,0,1,3.61,9.591c1.293,4.661-3.206,11.207-4.014,12.312l2.047,8.729Z" transform="translate(-437.688 -325.353)" fill="#fff"/>
          <path id="Trazado_1262595" data-name="Trazado 1262595" d="M247.483,413.2l-23.061-4.688L232.4,393.8l.7.377-7.462,13.766,22.01,4.445Z" transform="translate(-194.193 -340.755)" fill="#fff"/>
          <path id="Trazado_1262596" data-name="Trazado 1262596" d="M169.149,284.858l-.727-.377c.054-.135,6.277-12.258,8.7-16.164,5.361-8.675,17.08-8.917,17.215-8.917h.215l.135.189c2.586,3.772,5.2,5.792,7.516,5.819h.027a4.726,4.726,0,0,0,3.475-1.751l.647.458a5.314,5.314,0,0,1-4.122,2.1H202.2c-2.586-.027-5.307-2.02-8.055-5.981-1.589.081-11.584.862-16.326,8.54-2.4,3.852-8.621,15.975-8.675,16.083" transform="translate(-145.736 -224.459)" fill="#fff"/>
          <path id="Trazado_1262597" data-name="Trazado 1262597" d="M390.222,538.148l3.017.162.539.027c3.61,2.451,8.351,1.562,8.351,1.562.673,0,11.422-.97,11.422-.97,0-1.643-3.152-2.155-3.152-2.155l-7.543-.269-.539-2.155c2.963.539,3.5-1.616,3.5-1.616l-2.505-1.94c-1.724-.512-8.567.027-8.7.081l-2.371-.054-1.616-.027Z" transform="translate(-337.659 -459.107)" fill="#ffb1df"/>
          <path id="Trazado_1262598" data-name="Trazado 1262598" d="M492.086,558.2H476.542a1.32,1.32,0,1,0,0,2.64h15.544Z" transform="translate(-411.21 -483.011)" fill="#82c5f8"/>
          <path id="Trazado_1262599" data-name="Trazado 1262599" d="M626.622,379.251l-8.675,23.438a1.837,1.837,0,0,1-1.7,1.185H582.2a1.82,1.82,0,0,1-1.7-2.452l8.675-23.438a1.837,1.837,0,0,1,1.7-1.185h34.052a1.82,1.82,0,0,1,1.7,2.452" transform="translate(-502.211 -326.045)" fill="#c1e1fb"/>
          <path id="Trazado_1262600" data-name="Trazado 1262600" d="M739.71,457.2a1.909,1.909,0,1,1,.789,2.8,2.067,2.067,0,0,1-.789-2.8" transform="translate(-639.87 -394.429)" fill="#fff"/>
          <path id="Trazado_1262601" data-name="Trazado 1262601" d="M579.176,398.919l-.754-.269,8.378-22.522A3.263,3.263,0,0,1,589.844,374h2.532v.808h-2.532a2.453,2.453,0,0,0-2.29,1.589Z" transform="translate(-500.509 -323.622)" fill="#fff"/>
          <path id="Trazado_1262602" data-name="Trazado 1262602" d="M195.488,597.149a65.4,65.4,0,0,1-19.666-3.394l.269-.754a63.5,63.5,0,0,0,19.72,3.367l.027.808c-.027-.027-.135-.027-.35-.027" transform="translate(-152.139 -513.123)" fill="#fff"/>
          <path id="Trazado_1262603" data-name="Trazado 1262603" d="M390.222,539.727l3.044.189-1-7.489-1.589-.027Z" transform="translate(-337.66 -460.686)" fill="#d35eaf"/>
          <path id="Trazado_1262604" data-name="Trazado 1262604" d="M879.846,80.46a8.486,8.486,0,1,1-.628,11.985,8.486,8.486,0,0,1,.628-11.985" transform="translate(-758.902 -67.736)" fill="#0879f9"/>
          <path id="Trazado_1262605" data-name="Trazado 1262605" d="M911.9,100.475l-5.487-.135a.8.8,0,1,1,.046-1.6l3.9.109.414-10.088a.8.8,0,1,1,1.6.046Z" transform="translate(-783.644 -76.132)" fill="#fff"/>
          <rect id="Rectángulo_461989" data-name="Rectángulo 461989" width="25.351" height="0.808" transform="translate(48.259 135.023) rotate(-74.598)" fill="#fff"/>
          <path id="Trazado_1262606" data-name="Trazado 1262606" d="M604.663,1399.359s0-1.374-6.2-10.156c0,0-7.058-8.271-3.448-11.53,0,0,7.058-5.5,12.231,21.687Z" transform="translate(-513.981 -1191.707)" fill="#2c9ef3"/>
          <path id="Trazado_1262607" data-name="Trazado 1262607" d="M711.422,1346.383s0-34.24,13.6-32.7c0,0,4.984,1.212,0,9.995,0,0-8.594,12.742-9.456,22.2Z" transform="translate(-615.594 -1136.683)" fill="#2c9ef3"/>
          <path id="Trazado_1262608" data-name="Trazado 1262608" d="M640.335,1318.023l-.916.485-1.994,1.051c.593-4.445-.054-11.234-1.724-15.14-2.425-5.657-10.911-18.777-4.472-21.714,7.328-3.341,9.483,6.412,9.887,16.487a139.651,139.651,0,0,1-.781,18.831" transform="translate(-544.157 -1109.347)" fill="#2c9ef3"/>
          <path id="Trazado_1262609" data-name="Trazado 1262609" d="M718.23,1367.216l-.808-.081a76.288,76.288,0,0,1,10.911-31.735l.674.458a76.2,76.2,0,0,0-10.776,31.358" transform="translate(-620.786 -1155.523)" fill="#fff"/>
          <path id="Trazado_1262610" data-name="Trazado 1262610" d="M663.56,1354.719l-.808-.108c3.8-26.4-4.849-35.965-4.93-36.046l.593-.566c.081.108,2.317,2.505,4.068,8.271,1.616,5.253,3.1,14.467,1.078,28.448" transform="translate(-569.214 -1140.466)" fill="#fff"/>
          <path id="Trazado_1262611" data-name="Trazado 1262611" d="M624.043,1428.609c-1.132-10.965-8.54-20.016-8.621-20.1l.62-.512c.081.081,7.651,9.321,8.809,20.528Z" transform="translate(-532.525 -1218.344)" fill="#fff"/>
          <path id="Trazado_1262612" data-name="Trazado 1262612" d="M707.882,1428.4l-.916.485c-.269-4.9.889-13.928,1.7-19.289a139.423,139.423,0,0,1-.781,18.8" transform="translate(-611.704 -1219.728)" fill="#0c61e7"/>
          <path id="Trazado_1262613" data-name="Trazado 1262613" d="M644.422,1528h16.864v12.419a5.984,5.984,0,0,1-5.981,5.981H650.43a5.984,5.984,0,0,1-5.981-5.981V1528Z" transform="translate(-557.619 -1322.18)" fill="#a6cdec"/>
        </g>
      </g>
    </g>
  </g>
</svg>
